<?xml version="1.0" encoding="UTF-8" standalone="no"?>
<svg
   id="SDGs"
   viewBox="0 0 61.84 61.839998"
   version="1.1"
   sodipodi:docname="sdg-5.svg"
   width="61.84"
   height="61.84"
   inkscape:version="1.3 (0e150ed6c4, 2023-07-21)"
   xmlns:inkscape="http://www.inkscape.org/namespaces/inkscape"
   xmlns:sodipodi="http://sodipodi.sourceforge.net/DTD/sodipodi-0.dtd"
   xmlns="http://www.w3.org/2000/svg"
   xmlns:svg="http://www.w3.org/2000/svg">
  <sodipodi:namedview
     id="namedview523"
     pagecolor="#505050"
     bordercolor="#eeeeee"
     borderopacity="1"
     inkscape:showpageshadow="0"
     inkscape:pageopacity="0"
     inkscape:pagecheckerboard="0"
     inkscape:deskcolor="#505050"
     inkscape:zoom="1.7804714"
     inkscape:cx="-65.712936"
     inkscape:cy="93.514562"
     inkscape:window-width="1920"
     inkscape:window-height="1057"
     inkscape:window-x="0"
     inkscape:window-y="0"
     inkscape:window-maximized="1"
     inkscape:current-layer="SDGs" />
  <defs
     id="defs1">
    <style
       id="style1">.cls-1{fill:#f4f4f5;}.cls-2{fill:#5fbb46;}.cls-3{fill:#d19f2a;}.cls-4{fill:#c22033;}.cls-5{fill:#2d9a47;}.cls-6{fill:#48773c;}.cls-7{fill:#fdb714;}.cls-8{fill:#ef412a;}.cls-9{fill:#f99d25;}.cls-10{fill:#007dbb;}.cls-11{fill:#8f1838;}.cls-12{fill:#00add8;}.cls-13{fill:#f36e24;}.cls-14{fill:#ea1d2d;}.cls-15{fill:#e01a83;}.cls-16{fill:#1a3668;}.cls-17{fill:#cd8b2a;}.cls-18{fill:#00558a;}.cls-19{fill:#fff;}.cls-20{fill:#40ae49;}.cls-21{fill:#009edb;}</style>
  </defs>
  <g
     id="SDG5"
     transform="translate(-290.19,-53.490002)">
    <rect
       class="cls-8"
       x="290.19"
       y="53.490002"
       width="61.84"
       height="61.84"
       id="rect378" />
    <path
       class="cls-19"
       d="m 296.39,70.42 a 2.22,2.22 0 0 1 -0.92,-1.22 6.83,6.83 0 0 1 -0.24,-2 h 2.18 a 4.08,4.08 0 0 0 0.19,1.48 0.71,0.71 0 0 0 0.74,0.46 0.74,0.74 0 0 0 0.64,-0.29 1.67,1.67 0 0 0 0.26,-0.79 c 0,-0.34 0.05,-0.82 0.05,-1.45 a 4.93,4.93 0 0 0 -0.2,-1.61 0.77,0.77 0 0 0 -0.81,-0.53 c -0.52,0 -0.86,0.35 -1,1.06 h -1.94 l 0.16,-6.7 h 5.43 v 1.97 h -3.58 l -0.13,2.61 a 1.5,1.5 0 0 1 0.7,-0.42 3.32,3.32 0 0 1 1.06,-0.17 2,2 0 0 1 1.82,1 5.13,5.13 0 0 1 0.61,2.74 8.94,8.94 0 0 1 -0.25,2.32 2.59,2.59 0 0 1 -0.93,1.45 3.17,3.17 0 0 1 -2,0.53 3.51,3.51 0 0 1 -1.84,-0.44 z"
       id="path379" />
    <path
       class="cls-19"
       d="m 306.68,63 a 2,2 0 0 1 -0.28,-1.15 v -1.49 a 1.89,1.89 0 0 1 0.29,-1.16 1.15,1.15 0 0 1 1,-0.4 1.21,1.21 0 0 1 1,0.34 1.45,1.45 0 0 1 0.29,1 v 0.23 h -0.79 V 60.1 a 1.92,1.92 0 0 0 0,-0.39 0.38,0.38 0 0 0 -0.13,-0.23 0.46,0.46 0 0 0 -0.29,-0.07 0.39,0.39 0 0 0 -0.3,0.1 0.43,0.43 0 0 0 -0.13,0.25 2.18,2.18 0 0 0 0,0.41 v 1.89 a 1.22,1.22 0 0 0 0.11,0.57 0.39,0.39 0 0 0 0.38,0.19 0.41,0.41 0 0 0 0.39,-0.2 1.37,1.37 0 0 0 0.11,-0.6 v -0.43 h -0.48 V 61.08 H 309 v 2.28 h -0.53 l -0.06,-0.44 a 0.75,0.75 0 0 1 -0.76,0.5 1,1 0 0 1 -0.97,-0.42 z"
       id="path380" />
    <path
       class="cls-19"
       d="m 309.55,58.86 h 1.89 v 0.57 h -1.07 v 1.3 h 0.85 v 0.57 h -0.85 v 1.5 h 1.08 v 0.56 h -1.9 z"
       id="path381" />
    <path
       class="cls-19"
       d="m 311.91,58.86 h 0.57 l 1.1,2.57 v -2.57 h 0.67 v 4.5 h -0.54 l -1.1,-2.69 v 2.69 h -0.7 z"
       id="path382" />
    <path
       class="cls-19"
       d="M 314.91,58.86 H 316 a 2,2 0 0 1 0.86,0.14 0.84,0.84 0 0 1 0.44,0.45 2,2 0 0 1 0.14,0.81 v 1.64 a 2.14,2.14 0 0 1 -0.14,0.83 0.86,0.86 0 0 1 -0.43,0.47 1.78,1.78 0 0 1 -0.83,0.16 h -1.1 z m 1.09,3.93 a 0.66,0.66 0 0 0 0.39,-0.09 0.53,0.53 0 0 0 0.16,-0.27 3.07,3.07 0 0 0 0,-0.5 V 60.2 a 1.72,1.72 0 0 0 0,-0.45 0.35,0.35 0 0 0 -0.16,-0.24 0.84,0.84 0 0 0 -0.4,-0.07 h -0.24 v 3.35 z"
       id="path383" />
    <path
       class="cls-19"
       d="m 318,58.86 h 1.9 v 0.57 h -1.1 v 1.3 h 0.85 v 0.57 h -0.85 v 1.5 h 1.09 v 0.56 H 318 Z"
       id="path384" />
    <path
       class="cls-19"
       d="m 320.34,58.86 h 1.08 a 1.76,1.76 0 0 1 1.07,0.27 1.09,1.09 0 0 1 0.35,0.92 1.56,1.56 0 0 1 -0.13,0.7 0.75,0.75 0 0 1 -0.43,0.39 l 0.63,2.22 h -0.82 l -0.54,-2.06 h -0.39 v 2.06 h -0.82 z m 1.08,1.93 a 0.7,0.7 0 0 0 0.5,-0.16 0.84,0.84 0 0 0 0.14,-0.53 0.81,0.81 0 0 0 -0.13,-0.52 0.55,0.55 0 0 0 -0.47,-0.16 h -0.3 v 1.37 z"
       id="path385" />
    <path
       class="cls-19"
       d="m 306.47,66.22 h 1.89 v 0.58 h -1.07 v 1.3 h 0.84 v 0.57 h -0.84 v 1.5 h 1.08 v 0.56 h -1.9 z"
       id="path386" />
    <path
       class="cls-19"
       d="m 310.57,71.29 a 2.47,2.47 0 0 1 -0.42,-0.51 h -0.1 a 1.21,1.21 0 0 1 -1,-0.38 1.72,1.72 0 0 1 -0.3,-1.1 v -1.68 a 1.66,1.66 0 0 1 0.3,-1.08 1.54,1.54 0 0 1 2,0 1.66,1.66 0 0 1 0.3,1.08 v 1.69 c 0,0.7 -0.21,1.14 -0.62,1.34 a 1.73,1.73 0 0 0 0.45,0.43 l -0.16,0.55 a 1.89,1.89 0 0 1 -0.45,-0.34 z M 310.43,70 a 1.15,1.15 0 0 0 0.09,-0.5 v -2.07 a 1.07,1.07 0 0 0 -0.09,-0.49 0.41,0.41 0 0 0 -0.38,-0.17 0.39,0.39 0 0 0 -0.37,0.17 1,1 0 0 0 -0.1,0.49 v 2.08 a 1.1,1.1 0 0 0 0.1,0.5 0.39,0.39 0 0 0 0.37,0.17 0.41,0.41 0 0 0 0.38,-0.18 z"
       id="path387" />
    <path
       class="cls-19"
       d="m 312.4,70.61 a 1,1 0 0 1 -0.39,-0.51 2.69,2.69 0 0 1 -0.11,-0.83 v -3 h 0.8 v 3.14 a 1.67,1.67 0 0 0 0.09,0.61 0.45,0.45 0 0 0 0.76,0 1.67,1.67 0 0 0 0.09,-0.61 v -3.19 h 0.8 v 3 a 2.78,2.78 0 0 1 -0.11,0.83 1,1 0 0 1 -0.39,0.51 1.74,1.74 0 0 1 -1.54,0 z"
       id="path388" />
    <path
       class="cls-19"
       d="m 315.73,66.22 h 0.88 l 0.9,4.51 h -0.76 l -0.18,-1 h -0.78 l -0.19,1 h -0.77 z m 0.75,2.94 -0.3,-1.89 -0.31,1.89 z"
       id="path389" />
    <path
       class="cls-19"
       d="m 317.93,66.22 h 0.82 v 4 h 1.1 v 0.56 h -1.92 z"
       id="path390" />
    <path
       class="cls-19"
       d="m 320.27,66.22 h 0.81 v 4.51 h -0.81 z"
       id="path391" />
    <path
       class="cls-19"
       d="m 322.19,66.83 h -0.75 v -0.61 h 2.31 v 0.61 H 323 v 3.9 h -0.82 z"
       id="path392" />
    <path
       class="cls-19"
       d="m 324.71,69 -0.91,-2.79 h 0.77 l 0.56,1.79 0.52,-1.79 h 0.75 L 325.5,69 v 1.72 h -0.79 z"
       id="path393" />
    <path
       class="cls-19"
       d="m 335.3,76.85 h -7.72 a 0.1,0.1 0 0 0 -0.1,0.1 v 2.56 a 0.1,0.1 0 0 0 0.1,0.1 h 3.08 L 327.24,83 a 10.11,10.11 0 1 0 -7.54,18 v 3 h -3 a 0.1,0.1 0 0 0 -0.1,0.1 v 2.75 a 0.1,0.1 0 0 0 0.1,0.1 h 3 v 2.91 a 0.1,0.1 0 0 0 0.1,0.09 h 2.75 a 0.1,0.1 0 0 0 0.1,-0.09 v -2.91 h 3 a 0.1,0.1 0 0 0 0.1,-0.1 v -2.75 a 0.1,0.1 0 0 0 -0.1,-0.1 h -3 v -3 a 10.11,10.11 0 0 0 6.62,-15.8 l 3.37,-3.36 v 2.87 a 0.1,0.1 0 0 0 0.1,0.1 h 2.56 a 0.1,0.1 0 0 0 0.1,-0.1 V 77 a 0.09,0.09 0 0 0 -0.1,-0.1 M 321,98.42 A 7.44,7.44 0 1 1 328.45,91 7.45,7.45 0 0 1 321,98.42"
       id="path394" />
    <path
       class="cls-19"
       d="m 325.55,87.92 h -9 a 0.09,0.09 0 0 0 -0.09,0.09 v 2.19 a 0.09,0.09 0 0 0 0.09,0.09 h 9 a 0.09,0.09 0 0 0 0.1,-0.09 V 88 a 0.09,0.09 0 0 0 -0.1,-0.09"
       id="path395" />
    <path
       class="cls-19"
       d="m 325.55,91.83 h -9 a 0.09,0.09 0 0 0 -0.09,0.09 v 2.18 a 0.09,0.09 0 0 0 0.09,0.09 h 9 a 0.09,0.09 0 0 0 0.1,-0.09 v -2.18 a 0.09,0.09 0 0 0 -0.1,-0.09"
       id="path396" />
  </g>
</svg>
