<?xml version="1.0" encoding="UTF-8" standalone="no"?>
<svg
   id="SDGs"
   viewBox="0 0 62.080002 62.08"
   version="1.1"
   sodipodi:docname="sdg-12.svg"
   width="62.080002"
   height="62.080002"
   inkscape:version="1.3 (0e150ed6c4, 2023-07-21)"
   xmlns:inkscape="http://www.inkscape.org/namespaces/inkscape"
   xmlns:sodipodi="http://sodipodi.sourceforge.net/DTD/sodipodi-0.dtd"
   xmlns="http://www.w3.org/2000/svg"
   xmlns:svg="http://www.w3.org/2000/svg">
  <sodipodi:namedview
     id="namedview523"
     pagecolor="#505050"
     bordercolor="#eeeeee"
     borderopacity="1"
     inkscape:showpageshadow="0"
     inkscape:pageopacity="0"
     inkscape:pagecheckerboard="0"
     inkscape:deskcolor="#505050"
     inkscape:zoom="1.7804714"
     inkscape:cx="-136.48071"
     inkscape:cy="23.308434"
     inkscape:window-width="1920"
     inkscape:window-height="1057"
     inkscape:window-x="0"
     inkscape:window-y="0"
     inkscape:window-maximized="1"
     inkscape:current-layer="SDGs" />
  <defs
     id="defs1">
    <style
       id="style1">.cls-1{fill:#f4f4f5;}.cls-2{fill:#5fbb46;}.cls-3{fill:#d19f2a;}.cls-4{fill:#c22033;}.cls-5{fill:#2d9a47;}.cls-6{fill:#48773c;}.cls-7{fill:#fdb714;}.cls-8{fill:#ef412a;}.cls-9{fill:#f99d25;}.cls-10{fill:#007dbb;}.cls-11{fill:#8f1838;}.cls-12{fill:#00add8;}.cls-13{fill:#f36e24;}.cls-14{fill:#ea1d2d;}.cls-15{fill:#e01a83;}.cls-16{fill:#1a3668;}.cls-17{fill:#cd8b2a;}.cls-18{fill:#00558a;}.cls-19{fill:#fff;}.cls-20{fill:#40ae49;}.cls-21{fill:#009edb;}</style>
  </defs>
  <g
     id="SDG12"
     transform="translate(-360.92001,-124.06)">
    <rect
       class="cls-17"
       x="360.92001"
       y="124.06"
       width="62.080002"
       height="62.080002"
       id="rect142" />
    <path
       class="cls-19"
       d="m 366.25,131.79 c -0.11,0.06 -0.42,0.18 -0.94,0.37 -0.52,0.19 -0.67,0.23 -0.77,0.28 v -1.68 a 10.75,10.75 0 0 0 1.2,-0.59 4.05,4.05 0 0 0 1,-0.71 h 1.77 v 11.83 h -2.26 z"
       id="path143" />
    <path
       class="cls-19"
       d="m 369.77,139.7 2.86,-4.43 0.18,-0.26 a 11.88,11.88 0 0 0 0.82,-1.4 2.91,2.91 0 0 0 0.26,-1.23 1.43,1.43 0 0 0 -0.22,-0.87 0.74,0.74 0 0 0 -0.63,-0.3 0.87,0.87 0 0 0 -0.85,0.47 A 3,3 0 0 0 372,133 v 0.54 h -2.19 v -0.58 a 4.11,4.11 0 0 1 0.78,-2.64 3,3 0 0 1 2.45,-1 2.8,2.8 0 0 1 3.12,3.11 3.8,3.8 0 0 1 -0.2,1.27 6.25,6.25 0 0 1 -0.48,1.07 c -0.19,0.31 -0.48,0.76 -0.86,1.33 l -2.28,3.42 h 3.52 v 1.78 h -6.05 z"
       id="path144" />
    <path
       class="cls-19"
       d="m 380.68,134 v -4.52 h 1.08 a 2.16,2.16 0 0 1 0.77,0.11 0.82,0.82 0 0 1 0.48,0.37 1.31,1.31 0 0 1 0.17,0.71 2.38,2.38 0 0 1 -0.05,0.49 0.94,0.94 0 0 1 -0.17,0.38 0.73,0.73 0 0 1 -0.33,0.23 l 0.63,2.23 h -0.83 l -0.55,-2.07 H 381.5 V 134 Z m 0.82,-2.59 h 0.26 a 0.81,0.81 0 0 0 0.38,-0.07 0.41,0.41 0 0 0 0.21,-0.22 1.16,1.16 0 0 0 0.06,-0.4 0.82,0.82 0 0 0 -0.13,-0.51 0.56,0.56 0 0 0 -0.47,-0.17 h -0.31 z"
       id="path145" />
    <path
       class="cls-19"
       d="m 383.63,134 v -4.52 h 1.9 V 130 h -1.07 v 1.3 h 0.84 v 0.57 h -0.84 v 1.5 h 1.08 V 134 Z"
       id="path146" />
    <path
       class="cls-19"
       d="m 387,134 a 1.33,1.33 0 0 1 -0.69,-0.16 1,1 0 0 1 -0.41,-0.46 2.31,2.31 0 0 1 -0.16,-0.76 l 0.71,-0.14 a 2.12,2.12 0 0 0 0.07,0.47 0.65,0.65 0 0 0 0.16,0.31 0.4,0.4 0 0 0 0.29,0.11 0.31,0.31 0 0 0 0.28,-0.12 0.5,0.5 0 0 0 0.09,-0.31 0.78,0.78 0 0 0 -0.14,-0.48 1.82,1.82 0 0 0 -0.36,-0.38 l -0.57,-0.51 a 1.67,1.67 0 0 1 -0.38,-0.46 1.33,1.33 0 0 1 -0.14,-0.63 1.06,1.06 0 0 1 0.31,-0.82 1.2,1.2 0 0 1 0.86,-0.29 1.36,1.36 0 0 1 0.53,0.09 0.93,0.93 0 0 1 0.34,0.28 1.17,1.17 0 0 1 0.18,0.39 2.31,2.31 0 0 1 0.08,0.47 l -0.7,0.12 a 3.53,3.53 0 0 0 -0.05,-0.38 0.49,0.49 0 0 0 -0.13,-0.26 0.4,0.4 0 0 0 -0.55,0 0.44,0.44 0 0 0 -0.1,0.3 0.65,0.65 0 0 0 0.1,0.38 1.22,1.22 0 0 0 0.27,0.3 l 0.56,0.5 a 2.29,2.29 0 0 1 0.48,0.55 1.41,1.41 0 0 1 0.2,0.76 1.21,1.21 0 0 1 -0.14,0.58 1.07,1.07 0 0 1 -0.4,0.39 A 1.15,1.15 0 0 1 387,134 Z"
       id="path147" />
    <path
       class="cls-19"
       d="m 388.4,134 v -4.52 h 1.33 a 1.3,1.3 0 0 1 0.67,0.15 0.9,0.9 0 0 1 0.37,0.44 1.78,1.78 0 0 1 0.12,0.69 1.44,1.44 0 0 1 -0.15,0.71 0.9,0.9 0 0 1 -0.42,0.4 1.59,1.59 0 0 1 -0.64,0.12 h -0.45 v 2 z m 0.83,-2.59 h 0.31 a 0.82,0.82 0 0 0 0.35,-0.06 0.41,0.41 0 0 0 0.18,-0.21 1.34,1.34 0 0 0 0,-0.38 2.1,2.1 0 0 0 0,-0.4 0.36,0.36 0 0 0 -0.16,-0.23 0.75,0.75 0 0 0 -0.38,-0.07 h -0.31 z"
       id="path148" />
    <path
       class="cls-19"
       d="m 392.41,134 a 1.44,1.44 0 0 1 -0.77,-0.18 0.94,0.94 0 0 1 -0.4,-0.51 2.11,2.11 0 0 1 -0.13,-0.79 v -1.7 a 2.06,2.06 0 0 1 0.13,-0.78 0.91,0.91 0 0 1 0.4,-0.5 1.44,1.44 0 0 1 0.77,-0.17 1.4,1.4 0 0 1 0.77,0.17 0.93,0.93 0 0 1 0.41,0.5 2.06,2.06 0 0 1 0.13,0.78 v 1.7 a 2.11,2.11 0 0 1 -0.13,0.79 1,1 0 0 1 -0.41,0.51 1.39,1.39 0 0 1 -0.77,0.18 z m 0,-0.61 a 0.47,0.47 0 0 0 0.3,-0.08 0.51,0.51 0 0 0 0.14,-0.25 1.79,1.79 0 0 0 0,-0.34 v -2.09 a 1.79,1.79 0 0 0 0,-0.34 0.41,0.41 0 0 0 -0.44,-0.32 0.45,0.45 0 0 0 -0.3,0.09 0.4,0.4 0 0 0 -0.13,0.23 1.79,1.79 0 0 0 0,0.34 v 2.09 a 1.79,1.79 0 0 0 0,0.34 0.43,0.43 0 0 0 0.13,0.25 0.51,0.51 0 0 0 0.3,0.11 z"
       id="path149" />
    <path
       class="cls-19"
       d="m 394.16,134 v -4.52 h 0.57 l 1.1,2.58 v -2.58 h 0.69 V 134 H 396 l -1.11,-2.7 v 2.7 z"
       id="path150" />
    <path
       class="cls-19"
       d="m 398.18,134 a 1.33,1.33 0 0 1 -0.69,-0.16 1,1 0 0 1 -0.41,-0.46 2.31,2.31 0 0 1 -0.16,-0.76 l 0.71,-0.14 a 2.12,2.12 0 0 0 0.07,0.47 0.65,0.65 0 0 0 0.16,0.31 0.4,0.4 0 0 0 0.29,0.11 0.31,0.31 0 0 0 0.28,-0.12 0.5,0.5 0 0 0 0.09,-0.31 0.78,0.78 0 0 0 -0.14,-0.48 1.82,1.82 0 0 0 -0.36,-0.38 l -0.57,-0.51 a 1.67,1.67 0 0 1 -0.38,-0.46 1.33,1.33 0 0 1 -0.14,-0.63 1.06,1.06 0 0 1 0.31,-0.82 1.2,1.2 0 0 1 0.86,-0.29 1.36,1.36 0 0 1 0.53,0.09 0.93,0.93 0 0 1 0.34,0.28 1.17,1.17 0 0 1 0.18,0.39 2.31,2.31 0 0 1 0.08,0.47 l -0.7,0.12 a 3.53,3.53 0 0 0 0,-0.38 0.49,0.49 0 0 0 -0.13,-0.26 0.4,0.4 0 0 0 -0.55,0 0.44,0.44 0 0 0 -0.1,0.3 0.65,0.65 0 0 0 0.1,0.38 1.22,1.22 0 0 0 0.27,0.3 l 0.56,0.5 a 2.29,2.29 0 0 1 0.48,0.55 1.41,1.41 0 0 1 0.2,0.76 1.21,1.21 0 0 1 -0.14,0.58 1.07,1.07 0 0 1 -0.4,0.39 1.15,1.15 0 0 1 -0.64,0.16 z"
       id="path151" />
    <path
       class="cls-19"
       d="m 399.61,134 v -4.52 h 0.81 V 134 Z"
       id="path152" />
    <path
       class="cls-19"
       d="m 401,134 v -4.52 h 1.11 a 3,3 0 0 1 0.55,0.05 1.15,1.15 0 0 1 0.42,0.19 0.85,0.85 0 0 1 0.27,0.35 1.55,1.55 0 0 1 0.09,0.57 1.33,1.33 0 0 1 -0.07,0.47 0.79,0.79 0 0 1 -0.22,0.31 0.83,0.83 0 0 1 -0.37,0.15 0.92,0.92 0 0 1 0.45,0.19 0.83,0.83 0 0 1 0.26,0.37 1.51,1.51 0 0 1 0.09,0.55 2,2 0 0 1 -0.08,0.58 1.27,1.27 0 0 1 -0.24,0.41 1.09,1.09 0 0 1 -0.4,0.25 1.84,1.84 0 0 1 -0.56,0.08 z m 0.83,-2.67 h 0.28 a 0.8,0.8 0 0 0 0.38,-0.08 0.41,0.41 0 0 0 0.19,-0.22 1.35,1.35 0 0 0 0.05,-0.38 0.75,0.75 0 0 0 -0.08,-0.37 0.42,0.42 0 0 0 -0.25,-0.18 1.47,1.47 0 0 0 -0.41,0 h -0.16 z m 0,2.09 h 0.31 a 0.6,0.6 0 0 0 0.51,-0.18 1,1 0 0 0 0.13,-0.56 1.44,1.44 0 0 0 -0.06,-0.45 0.47,0.47 0 0 0 -0.21,-0.25 0.77,0.77 0 0 0 -0.4,-0.08 h -0.28 z"
       id="path153" />
    <path
       class="cls-19"
       d="m 403.9,134 v -4.52 h 0.82 v 4 h 1.1 V 134 Z"
       id="path154" />
    <path
       class="cls-19"
       d="m 406.06,134 v -4.52 H 408 V 130 h -1.07 v 1.3 h 0.84 v 0.57 h -0.84 v 1.5 H 408 V 134 Z"
       id="path155" />
    <path
       class="cls-19"
       d="m 381.89,141.43 a 1.31,1.31 0 0 1 -0.77,-0.2 1.06,1.06 0 0 1 -0.4,-0.53 2.67,2.67 0 0 1 -0.11,-0.78 v -1.62 a 2.71,2.71 0 0 1 0.11,-0.8 1,1 0 0 1 0.4,-0.53 1.76,1.76 0 0 1 1.51,0 0.89,0.89 0 0 1 0.38,0.45 2.08,2.08 0 0 1 0.11,0.69 v 0.38 h -0.8 v -0.39 c 0,-0.13 0,-0.24 0,-0.35 a 0.52,0.52 0 0 0 -0.11,-0.25 0.54,0.54 0 0 0 -0.61,0 0.46,0.46 0 0 0 -0.13,0.26 c 0,0.11 0,0.24 0,0.37 v 2 a 1.62,1.62 0 0 0 0,0.41 0.42,0.42 0 0 0 0.14,0.24 0.47,0.47 0 0 0 0.28,0.08 0.37,0.37 0 0 0 0.29,-0.1 0.44,0.44 0 0 0 0.11,-0.26 2.06,2.06 0 0 0 0,-0.36 v -0.41 h 0.8 v 0.36 a 2.16,2.16 0 0 1 -0.11,0.71 0.91,0.91 0 0 1 -0.37,0.49 1.34,1.34 0 0 1 -0.72,0.14 z"
       id="path156" />
    <path
       class="cls-19"
       d="m 384.76,141.43 a 1.42,1.42 0 0 1 -0.77,-0.18 1,1 0 0 1 -0.41,-0.52 2.3,2.3 0 0 1 -0.12,-0.79 v -1.69 a 2.3,2.3 0 0 1 0.12,-0.79 1,1 0 0 1 0.41,-0.5 1.52,1.52 0 0 1 0.77,-0.17 1.54,1.54 0 0 1 0.77,0.17 1,1 0 0 1 0.41,0.5 2.3,2.3 0 0 1 0.12,0.79 V 140 a 2.28,2.28 0 0 1 -0.12,0.78 1,1 0 0 1 -0.41,0.51 1.35,1.35 0 0 1 -0.77,0.14 z m 0,-0.61 a 0.45,0.45 0 0 0 0.3,-0.09 0.46,0.46 0 0 0 0.13,-0.25 1.79,1.79 0 0 0 0,-0.34 v -2.08 a 1.72,1.72 0 0 0 0,-0.34 0.47,0.47 0 0 0 -0.13,-0.24 0.45,0.45 0 0 0 -0.3,-0.09 0.43,0.43 0 0 0 -0.3,0.09 0.41,0.41 0 0 0 -0.13,0.24 1.18,1.18 0 0 0 0,0.34 v 2.08 a 1.79,1.79 0 0 0 0,0.34 0.38,0.38 0 0 0 0.44,0.34 z"
       id="path157" />
    <path
       class="cls-19"
       d="m 386.5,141.36 v -4.52 h 0.58 l 1.1,2.58 v -2.58 h 0.68 v 4.52 h -0.55 l -1.1,-2.7 v 2.7 z"
       id="path158" />
    <path
       class="cls-19"
       d="m 390.52,141.43 a 1.39,1.39 0 0 1 -0.68,-0.16 1,1 0 0 1 -0.41,-0.47 1.85,1.85 0 0 1 -0.16,-0.75 l 0.71,-0.14 a 2.86,2.86 0 0 0 0.06,0.46 0.66,0.66 0 0 0 0.17,0.31 0.38,0.38 0 0 0 0.28,0.11 0.33,0.33 0 0 0 0.29,-0.12 0.57,0.57 0 0 0 0.08,-0.31 0.82,0.82 0 0 0 -0.13,-0.48 2.1,2.1 0 0 0 -0.36,-0.38 L 389.8,139 a 1.67,1.67 0 0 1 -0.38,-0.47 1.16,1.16 0 0 1 -0.14,-0.62 1.06,1.06 0 0 1 0.31,-0.83 1.22,1.22 0 0 1 0.85,-0.29 1.17,1.17 0 0 1 0.53,0.1 0.71,0.71 0 0 1 0.34,0.27 1,1 0 0 1 0.19,0.39 2.31,2.31 0 0 1 0.08,0.47 l -0.71,0.12 a 2.11,2.11 0 0 0 0,-0.38 0.58,0.58 0 0 0 -0.13,-0.26 0.33,0.33 0 0 0 -0.27,-0.1 0.36,0.36 0 0 0 -0.29,0.12 0.49,0.49 0 0 0 -0.09,0.3 0.71,0.71 0 0 0 0.09,0.38 1.28,1.28 0 0 0 0.28,0.3 l 0.56,0.5 a 2.53,2.53 0 0 1 0.48,0.55 1.43,1.43 0 0 1 0.2,0.76 1.11,1.11 0 0 1 -0.15,0.58 0.92,0.92 0 0 1 -0.39,0.39 1.16,1.16 0 0 1 -0.64,0.15 z"
       id="path159" />
    <path
       class="cls-19"
       d="m 393.21,141.43 a 1.45,1.45 0 0 1 -0.78,-0.19 1,1 0 0 1 -0.38,-0.52 2.81,2.81 0 0 1 -0.11,-0.82 v -3.06 h 0.8 V 140 a 2.6,2.6 0 0 0 0,0.4 0.69,0.69 0 0 0 0.13,0.3 0.43,0.43 0 0 0 0.31,0.11 0.43,0.43 0 0 0 0.32,-0.11 0.59,0.59 0 0 0 0.13,-0.3 2.6,2.6 0 0 0 0,-0.4 v -3.16 h 0.8 v 3.06 a 2.81,2.81 0 0 1 -0.11,0.82 1,1 0 0 1 -0.38,0.52 1.46,1.46 0 0 1 -0.73,0.19 z"
       id="path160" />
    <path
       class="cls-19"
       d="m 395,141.36 0.08,-4.52 h 0.85 l 0.64,3.13 0.67,-3.13 H 398 l 0.08,4.52 h -0.61 l -0.07,-3.14 -0.64,3.14 h -0.5 l -0.65,-3.15 -0.06,3.15 z"
       id="path161" />
    <path
       class="cls-19"
       d="m 398.58,141.36 v -4.52 h 1.33 a 1.3,1.3 0 0 1 0.67,0.15 1,1 0 0 1 0.37,0.44 1.78,1.78 0 0 1 0.12,0.69 1.48,1.48 0 0 1 -0.15,0.72 0.88,0.88 0 0 1 -0.42,0.39 1.59,1.59 0 0 1 -0.64,0.12 h -0.45 v 2 z m 0.83,-2.59 h 0.31 a 0.82,0.82 0 0 0 0.35,-0.06 0.35,0.35 0 0 0 0.18,-0.21 1.29,1.29 0 0 0 0,-0.38 2.1,2.1 0 0 0 0,-0.4 0.39,0.39 0 0 0 -0.16,-0.23 0.75,0.75 0 0 0 -0.38,-0.07 h -0.31 z"
       id="path162" />
    <path
       class="cls-19"
       d="m 401.81,141.36 v -3.91 h -0.72 v -0.61 h 2.26 v 0.61 h -0.71 v 3.91 z"
       id="path163" />
    <path
       class="cls-19"
       d="m 403.62,141.36 v -4.52 h 0.81 v 4.52 z"
       id="path164" />
    <path
       class="cls-19"
       d="m 406.19,141.43 a 1.4,1.4 0 0 1 -0.76,-0.18 1,1 0 0 1 -0.41,-0.52 2.3,2.3 0 0 1 -0.12,-0.79 v -1.69 a 2.3,2.3 0 0 1 0.12,-0.79 1,1 0 0 1 0.41,-0.5 1.5,1.5 0 0 1 0.76,-0.17 1.56,1.56 0 0 1 0.78,0.17 1,1 0 0 1 0.4,0.5 2.08,2.08 0 0 1 0.13,0.79 V 140 a 2.06,2.06 0 0 1 -0.13,0.78 1,1 0 0 1 -0.4,0.51 1.36,1.36 0 0 1 -0.78,0.14 z m 0,-0.61 a 0.38,0.38 0 0 0 0.44,-0.34 1.79,1.79 0 0 0 0,-0.34 v -2.08 a 1.72,1.72 0 0 0 0,-0.34 0.47,0.47 0 0 0 -0.13,-0.24 0.46,0.46 0 0 0 -0.31,-0.09 0.4,0.4 0 0 0 -0.29,0.09 0.48,0.48 0 0 0 -0.14,0.24 1.72,1.72 0 0 0 0,0.34 v 2.08 a 1.79,1.79 0 0 0 0,0.34 0.4,0.4 0 0 0 0.13,0.25 0.45,0.45 0 0 0 0.3,0.09 z"
       id="path165" />
    <path
       class="cls-19"
       d="m 407.94,141.36 v -4.52 h 0.58 l 1.1,2.58 v -2.58 h 0.68 v 4.52 h -0.55 l -1.1,-2.7 v 2.7 z"
       id="path166" />
    <path
       class="cls-19"
       d="m 380.45,148.76 0.9,-4.53 h 0.89 l 0.9,4.53 h -0.76 l -0.18,-1 h -0.79 l -0.19,1 z m 1,-1.57 h 0.62 l -0.31,-1.9 z"
       id="path167" />
    <path
       class="cls-19"
       d="m 383.4,148.76 v -4.53 h 0.6 l 1.1,2.58 v -2.58 h 0.68 v 4.53 h -0.55 l -1.1,-2.71 v 2.71 z"
       id="path168" />
    <path
       class="cls-19"
       d="m 386.28,148.76 v -4.53 h 1.07 a 2,2 0 0 1 0.86,0.15 0.88,0.88 0 0 1 0.44,0.47 2,2 0 0 1 0.13,0.79 v 1.65 a 2.17,2.17 0 0 1 -0.13,0.82 0.94,0.94 0 0 1 -0.43,0.49 1.93,1.93 0 0 1 -0.84,0.16 z m 0.83,-0.58 h 0.25 a 0.65,0.65 0 0 0 0.41,-0.1 0.45,0.45 0 0 0 0.15,-0.29 3.18,3.18 0 0 0 0,-0.47 v -1.74 a 2.45,2.45 0 0 0 0,-0.44 0.36,0.36 0 0 0 -0.17,-0.24 0.67,0.67 0 0 0 -0.39,-0.08 h -0.24 z"
       id="path169" />
    <path
       class="cls-19"
       d="m 390.42,148.76 v -4.53 h 1.32 a 1.3,1.3 0 0 1 0.67,0.15 0.89,0.89 0 0 1 0.37,0.44 1.79,1.79 0 0 1 0.12,0.7 1.47,1.47 0 0 1 -0.15,0.71 0.88,0.88 0 0 1 -0.42,0.39 1.59,1.59 0 0 1 -0.64,0.13 h -0.45 v 2 z m 0.82,-2.6 h 0.31 a 0.82,0.82 0 0 0 0.35,-0.06 0.32,0.32 0 0 0 0.18,-0.21 1.29,1.29 0 0 0 0,-0.38 2.17,2.17 0 0 0 0,-0.4 0.39,0.39 0 0 0 -0.16,-0.23 0.85,0.85 0 0 0 -0.38,-0.07 h -0.31 z"
       id="path170" />
    <path
       class="cls-19"
       d="m 393.17,148.76 v -4.53 h 1.08 a 2.48,2.48 0 0 1 0.78,0.11 0.9,0.9 0 0 1 0.48,0.37 1.37,1.37 0 0 1 0.16,0.72 1.89,1.89 0 0 1 -0.05,0.49 0.9,0.9 0 0 1 -0.17,0.37 0.83,0.83 0 0 1 -0.33,0.24 l 0.63,2.23 h -0.83 l -0.54,-2.08 H 394 v 2.08 z m 0.83,-2.6 h 0.25 a 0.88,0.88 0 0 0 0.39,-0.07 0.4,0.4 0 0 0 0.2,-0.22 1.07,1.07 0 0 0 0.06,-0.39 0.87,0.87 0 0 0 -0.12,-0.51 0.56,0.56 0 0 0 -0.48,-0.17 H 394 Z"
       id="path171" />
    <path
       class="cls-19"
       d="m 397.34,148.82 a 1.4,1.4 0 0 1 -0.76,-0.18 1,1 0 0 1 -0.41,-0.51 2.41,2.41 0 0 1 -0.12,-0.8 v -1.69 a 2.3,2.3 0 0 1 0.12,-0.79 1,1 0 0 1 0.41,-0.5 1.5,1.5 0 0 1 0.76,-0.17 1.56,1.56 0 0 1 0.78,0.17 1,1 0 0 1 0.4,0.5 2.08,2.08 0 0 1 0.13,0.79 v 1.7 a 2.06,2.06 0 0 1 -0.13,0.78 1,1 0 0 1 -0.4,0.52 1.45,1.45 0 0 1 -0.78,0.18 z m 0,-0.61 a 0.38,0.38 0 0 0 0.44,-0.34 1.72,1.72 0 0 0 0,-0.34 v -2.08 a 1.72,1.72 0 0 0 0,-0.34 0.47,0.47 0 0 0 -0.13,-0.24 0.46,0.46 0 0 0 -0.31,-0.09 0.4,0.4 0 0 0 -0.29,0.09 0.48,0.48 0 0 0 -0.14,0.24 1.72,1.72 0 0 0 0,0.34 v 2.08 a 1.72,1.72 0 0 0 0,0.34 0.4,0.4 0 0 0 0.13,0.25 0.45,0.45 0 0 0 0.3,0.09 z"
       id="path172" />
    <path
       class="cls-19"
       d="m 399.09,148.76 v -4.53 h 1.07 a 2,2 0 0 1 0.86,0.15 0.84,0.84 0 0 1 0.44,0.47 2,2 0 0 1 0.13,0.79 v 1.65 a 2.17,2.17 0 0 1 -0.13,0.82 0.9,0.9 0 0 1 -0.43,0.49 1.93,1.93 0 0 1 -0.84,0.16 z m 0.83,-0.58 h 0.25 a 0.63,0.63 0 0 0 0.41,-0.1 0.45,0.45 0 0 0 0.15,-0.29 3.18,3.18 0 0 0 0,-0.47 v -1.74 a 2.45,2.45 0 0 0 0,-0.44 0.38,0.38 0 0 0 -0.16,-0.24 0.73,0.73 0 0 0 -0.4,-0.08 h -0.24 z"
       id="path173" />
    <path
       class="cls-19"
       d="m 403.28,148.82 a 1.38,1.38 0 0 1 -0.79,-0.19 0.93,0.93 0 0 1 -0.38,-0.52 2.81,2.81 0 0 1 -0.11,-0.82 v -3.06 h 0.81 v 3.16 a 2.6,2.6 0 0 0 0,0.4 0.52,0.52 0 0 0 0.13,0.3 0.38,0.38 0 0 0 0.31,0.11 0.37,0.37 0 0 0 0.31,-0.11 0.59,0.59 0 0 0 0.13,-0.3 2.6,2.6 0 0 0 0,-0.4 v -3.16 h 0.8 v 3.06 a 2.5,2.5 0 0 1 -0.11,0.82 0.88,0.88 0 0 1 -0.38,0.52 1.32,1.32 0 0 1 -0.72,0.19 z"
       id="path174" />
    <path
       class="cls-19"
       d="m 406.25,148.82 a 1.36,1.36 0 0 1 -0.78,-0.2 1,1 0 0 1 -0.39,-0.53 2.37,2.37 0 0 1 -0.12,-0.78 v -1.61 a 2.47,2.47 0 0 1 0.12,-0.81 0.9,0.9 0 0 1 0.39,-0.52 1.72,1.72 0 0 1 1.51,0 0.86,0.86 0 0 1 0.38,0.46 1.76,1.76 0 0 1 0.11,0.68 v 0.38 h -0.79 v -0.39 c 0,-0.12 0,-0.24 0,-0.34 a 0.39,0.39 0 0 0 -0.11,-0.25 0.38,0.38 0 0 0 -0.3,-0.1 0.46,0.46 0 0 0 -0.31,0.1 0.52,0.52 0 0 0 -0.12,0.26 2.17,2.17 0 0 0 0,0.38 v 2 a 1.58,1.58 0 0 0 0,0.41 0.48,0.48 0 0 0 0.14,0.24 0.49,0.49 0 0 0 0.28,0.08 0.38,0.38 0 0 0 0.3,-0.1 0.48,0.48 0 0 0 0.11,-0.26 c 0,-0.11 0,-0.23 0,-0.36 v -0.41 h 0.79 v 0.36 a 2.28,2.28 0 0 1 -0.1,0.72 0.94,0.94 0 0 1 -0.37,0.48 1.34,1.34 0 0 1 -0.74,0.11 z"
       id="path175" />
    <path
       class="cls-19"
       d="m 408.33,148.76 v -3.92 h -0.72 v -0.61 h 2.26 v 0.61 h -0.71 v 3.92 z"
       id="path176" />
    <path
       class="cls-19"
       d="m 410.14,148.76 v -4.53 H 411 v 4.53 z"
       id="path177" />
    <path
       class="cls-19"
       d="m 412.71,148.82 a 1.4,1.4 0 0 1 -0.76,-0.18 1,1 0 0 1 -0.41,-0.51 2.41,2.41 0 0 1 -0.12,-0.8 v -1.69 a 2.3,2.3 0 0 1 0.12,-0.79 1,1 0 0 1 0.41,-0.5 1.5,1.5 0 0 1 0.76,-0.17 1.56,1.56 0 0 1 0.78,0.17 1.06,1.06 0 0 1 0.41,0.5 2.3,2.3 0 0 1 0.12,0.79 v 1.7 a 2.28,2.28 0 0 1 -0.12,0.78 1.07,1.07 0 0 1 -0.41,0.52 1.45,1.45 0 0 1 -0.78,0.18 z m 0,-0.61 a 0.38,0.38 0 0 0 0.44,-0.34 1.72,1.72 0 0 0 0,-0.34 v -2.08 a 1.72,1.72 0 0 0 0,-0.34 0.47,0.47 0 0 0 -0.13,-0.24 0.46,0.46 0 0 0 -0.31,-0.09 0.4,0.4 0 0 0 -0.29,0.09 0.48,0.48 0 0 0 -0.14,0.24 1.72,1.72 0 0 0 0,0.34 v 2.08 a 1.72,1.72 0 0 0 0,0.34 0.4,0.4 0 0 0 0.13,0.25 0.45,0.45 0 0 0 0.3,0.09 z"
       id="path178" />
    <path
       class="cls-19"
       d="m 414.46,148.76 v -4.53 H 415 l 1.1,2.58 v -2.58 h 0.68 v 4.53 h -0.55 l -1.1,-2.71 v 2.71 z"
       id="path179" />
    <path
       class="cls-19"
       d="m 407.79,156.27 a 10.21,10.21 0 0 0 -7.74,-1.9 h -0.16 c -1.54,0.37 -4,1 -6.86,4.53 v 0.06 0 a 0.28,0.28 0 0 0 0,0.13 0.21,0.21 0 0 0 0,0.12 l 0.06,0.11 c 0.36,0.61 0.82,1.38 1.2,2.1 0,0 0,0 0,0 a 0.24,0.24 0 0 0 0.22,0.13 0.21,0.21 0 0 0 0.17,-0.07 0.18,0.18 0 0 0 0.05,-0.07 c 2.55,-3.52 4.55,-4 5.91,-4.33 h 0.16 a 7.43,7.43 0 0 1 5.31,1.36 c 1.5,1.19 2.27,3.08 2.27,5.62 0,4.27 -2.08,5.94 -3.82,6.58 a 7.11,7.11 0 0 1 -5.3,-0.35 l -0.11,-0.05 c -1.49,-0.64 -3.7,-2 -5.78,-6.17 -4.2,-8.43 -7.71,-9.22 -10,-9.75 h -0.13 a 10,10 0 0 0 -7.62,1.9 c -1.51,1.2 -3.3,3.54 -3.3,7.86 a 9.2,9.2 0 0 0 1.92,6.18 9.39,9.39 0 0 0 9.43,3.26 9,9 0 0 0 3.7,-1.72 l 1.32,1.2 a 0.21,0.21 0 0 0 0.3,0 0.2,0.2 0 0 0 0.06,-0.14 v 0 l 0.95,-5.87 v -0.06 a 0.2,0.2 0 0 0 -0.07,-0.16 0.19,0.19 0 0 0 -0.14,-0.05 h -0.1 l -5.63,1.57 h -0.1 a 0.24,0.24 0 0 0 -0.11,0.06 0.21,0.21 0 0 0 0,0.3 l 0.06,0.07 1.26,1.13 a 5.91,5.91 0 0 1 -2.06,0.88 6.58,6.58 0 0 1 -6.58,-2.13 v 0 a 6.45,6.45 0 0 1 -1.35,-4.47 c 0,-2.55 0.75,-4.45 2.23,-5.63 a 7.19,7.19 0 0 1 5.21,-1.34 h 0.13 c 1.9,0.43 4.51,1 8.1,8.24 1.87,3.74 4.21,6.19 7.15,7.49 a 10.42,10.42 0 0 0 4.48,1 8.79,8.79 0 0 0 3.12,-0.55 c 1.7,-0.63 5.67,-2.81 5.67,-9.26 0,-4.31 -1.82,-6.65 -3.35,-7.86"
       id="path180" />
  </g>
</svg>
