<?xml version="1.0" encoding="UTF-8" standalone="no"?>
<svg
   id="SDGs"
   viewBox="0 0 62.106537 62.106535"
   version="1.1"
   sodipodi:docname="sdg-13.svg"
   width="62.106537"
   height="62.106537"
   inkscape:version="1.3 (0e150ed6c4, 2023-07-21)"
   xmlns:inkscape="http://www.inkscape.org/namespaces/inkscape"
   xmlns:sodipodi="http://sodipodi.sourceforge.net/DTD/sodipodi-0.dtd"
   xmlns="http://www.w3.org/2000/svg"
   xmlns:svg="http://www.w3.org/2000/svg">
  <sodipodi:namedview
     id="namedview523"
     pagecolor="#505050"
     bordercolor="#eeeeee"
     borderopacity="1"
     inkscape:showpageshadow="0"
     inkscape:pageopacity="0"
     inkscape:pagecheckerboard="0"
     inkscape:deskcolor="#505050"
     inkscape:zoom="1.7804714"
     inkscape:cx="215.67322"
     inkscape:cy="-46.897693"
     inkscape:window-width="1920"
     inkscape:window-height="1057"
     inkscape:window-x="0"
     inkscape:window-y="0"
     inkscape:window-maximized="1"
     inkscape:current-layer="SDGs" />
  <defs
     id="defs1">
    <style
       id="style1">.cls-1{fill:#f4f4f5;}.cls-2{fill:#5fbb46;}.cls-3{fill:#d19f2a;}.cls-4{fill:#c22033;}.cls-5{fill:#2d9a47;}.cls-6{fill:#48773c;}.cls-7{fill:#fdb714;}.cls-8{fill:#ef412a;}.cls-9{fill:#f99d25;}.cls-10{fill:#007dbb;}.cls-11{fill:#8f1838;}.cls-12{fill:#00add8;}.cls-13{fill:#f36e24;}.cls-14{fill:#ea1d2d;}.cls-15{fill:#e01a83;}.cls-16{fill:#1a3668;}.cls-17{fill:#cd8b2a;}.cls-18{fill:#00558a;}.cls-19{fill:#fff;}.cls-20{fill:#40ae49;}.cls-21{fill:#009edb;}</style>
  </defs>
  <g
     id="SDG13"
     transform="translate(-8.922334,-194.39153)">
    <rect
       class="cls-6"
       x="8.9700003"
       y="194.42"
       width="62.02"
       height="62.02"
       transform="rotate(-89.92,39.985211,225.4396)"
       id="rect126" />
    <path
       class="cls-19"
       d="m 14.42,202.12 a 9.74,9.74 0 0 1 -0.93,0.37 c -0.41,0.14 -0.67,0.23 -0.78,0.28 v -1.69 a 9,9 0 0 0 1.21,-0.58 3.8,3.8 0 0 0 1,-0.72 h 1.77 v 11.85 h -2.27 z"
       id="path127" />
    <path
       class="cls-19"
       d="m 18.6,210.9 a 4.22,4.22 0 0 1 -0.74,-2.65 v -0.41 h 2.25 v 0.39 a 3.12,3.12 0 0 0 0.22,1.31 0.77,0.77 0 0 0 0.75,0.39 0.7,0.7 0 0 0 0.72,-0.4 3.48,3.48 0 0 0 0.18,-1.31 2.76,2.76 0 0 0 -0.28,-1.41 1.11,1.11 0 0 0 -1,-0.48 h -0.41 v -1.65 h 0.37 a 1.23,1.23 0 0 0 1.05,-0.41 2.44,2.44 0 0 0 0.29,-1.35 2.32,2.32 0 0 0 -0.21,-1.12 0.78,0.78 0 0 0 -0.75,-0.37 0.69,0.69 0 0 0 -0.7,0.4 2.84,2.84 0 0 0 -0.21,1.17 v 0.52 h -2.27 v -0.64 a 3.31,3.31 0 0 1 0.82,-2.4 3.15,3.15 0 0 1 2.34,-0.85 3.28,3.28 0 0 1 2.37,0.82 3.19,3.19 0 0 1 0.83,2.36 3.15,3.15 0 0 1 -0.43,1.71 1.75,1.75 0 0 1 -1.08,0.87 c 1,0.37 1.51,1.3 1.51,2.8 a 4.23,4.23 0 0 1 -0.76,2.68 2.87,2.87 0 0 1 -2.41,1 3,3 0 0 1 -2.45,-0.97 z"
       id="path128" />
    <path
       class="cls-19"
       d="m 30.17,204.36 a 1.32,1.32 0 0 1 -0.78,-0.19 1,1 0 0 1 -0.4,-0.54 2.57,2.57 0 0 1 -0.11,-0.78 v -1.61 a 2.78,2.78 0 0 1 0.11,-0.81 1,1 0 0 1 0.4,-0.52 1.4,1.4 0 0 1 0.78,-0.19 1.49,1.49 0 0 1 0.73,0.16 0.91,0.91 0 0 1 0.38,0.46 2.08,2.08 0 0 1 0.11,0.69 v 0.38 H 30.6 V 201 a 3.49,3.49 0 0 0 0,-0.35 0.45,0.45 0 0 0 -0.11,-0.25 0.54,0.54 0 0 0 -0.61,0 0.42,0.42 0 0 0 -0.12,0.26 2.05,2.05 0 0 0 0,0.37 v 2 a 1.49,1.49 0 0 0 0,0.4 0.36,0.36 0 0 0 0.14,0.24 0.41,0.41 0 0 0 0.28,0.08 0.41,0.41 0 0 0 0.3,-0.09 0.51,0.51 0 0 0 0.1,-0.26 2.05,2.05 0 0 0 0,-0.37 v -0.4 h 0.79 V 203 a 2.2,2.2 0 0 1 -0.11,0.71 0.91,0.91 0 0 1 -0.37,0.49 1.29,1.29 0 0 1 -0.72,0.16 z"
       id="path129" />
    <path
       class="cls-19"
       d="m 31.8,204.3 v -4.53 h 0.83 v 4 h 1.09 v 0.57 z"
       id="path130" />
    <path
       class="cls-19"
       d="m 34,204.3 v -4.53 h 0.82 v 4.53 z"
       id="path131" />
    <path
       class="cls-19"
       d="m 35.32,204.3 0.08,-4.53 h 0.85 l 0.65,3.14 0.67,-3.14 h 0.82 l 0.09,4.53 h -0.62 l -0.06,-3.14 -0.65,3.14 H 36.66 L 36,201.14 35.94,204.3 Z"
       id="path132" />
    <path
       class="cls-19"
       d="m 38.75,204.3 0.91,-4.53 h 0.88 l 0.91,4.53 h -0.77 l -0.18,-1 h -0.79 l -0.18,1 z m 1,-1.57 h 0.61 l -0.3,-1.9 z"
       id="path133" />
    <path
       class="cls-19"
       d="m 42,204.3 v -3.92 h -0.72 v -0.61 h 2.26 v 0.61 H 42.8 v 3.92 z"
       id="path134" />
    <path
       class="cls-19"
       d="m 43.76,204.3 v -4.53 h 1.9 v 0.59 h -1.08 v 1.3 h 0.85 v 0.57 h -0.85 v 1.5 h 1.09 v 0.57 z"
       id="path135" />
    <path
       class="cls-19"
       d="m 28.72,211.7 0.9,-4.53 h 0.89 l 0.9,4.53 h -0.76 l -0.18,-1 h -0.79 l -0.18,1 z m 1,-1.57 h 0.62 l -0.31,-1.9 z"
       id="path136" />
    <path
       class="cls-19"
       d="m 32.87,211.76 a 1.25,1.25 0 0 1 -0.78,-0.2 1,1 0 0 1 -0.4,-0.53 2.57,2.57 0 0 1 -0.11,-0.78 v -1.61 a 2.78,2.78 0 0 1 0.11,-0.81 1,1 0 0 1 0.4,-0.52 1.32,1.32 0 0 1 0.78,-0.19 1.39,1.39 0 0 1 0.73,0.16 0.91,0.91 0 0 1 0.38,0.46 2,2 0 0 1 0.11,0.68 v 0.38 H 33.3 v -0.39 c 0,-0.12 0,-0.24 0,-0.34 a 0.45,0.45 0 0 0 -0.11,-0.25 0.41,0.41 0 0 0 -0.3,-0.1 0.46,0.46 0 0 0 -0.31,0.1 0.45,0.45 0 0 0 -0.12,0.26 2.17,2.17 0 0 0 0,0.38 v 2 a 1.58,1.58 0 0 0 0,0.41 0.36,0.36 0 0 0 0.14,0.24 0.47,0.47 0 0 0 0.28,0.08 0.38,0.38 0 0 0 0.3,-0.1 0.47,0.47 0 0 0 0.1,-0.26 1.94,1.94 0 0 0 0,-0.36 V 210 h 0.79 v 0.37 a 2.25,2.25 0 0 1 -0.11,0.71 0.89,0.89 0 0 1 -0.37,0.48 1.28,1.28 0 0 1 -0.72,0.2 z"
       id="path137" />
    <path
       class="cls-19"
       d="m 35,211.7 v -3.92 h -0.72 v -0.61 h 2.26 v 0.61 h -0.71 v 3.92 z"
       id="path138" />
    <path
       class="cls-19"
       d="m 36.76,211.7 v -4.53 h 0.81 v 4.53 z"
       id="path139" />
    <path
       class="cls-19"
       d="m 39.33,211.76 a 1.4,1.4 0 0 1 -0.76,-0.18 1,1 0 0 1 -0.41,-0.51 2.41,2.41 0 0 1 -0.12,-0.8 v -1.69 a 2.3,2.3 0 0 1 0.12,-0.79 1,1 0 0 1 0.41,-0.5 1.5,1.5 0 0 1 0.76,-0.17 1.56,1.56 0 0 1 0.78,0.17 1.06,1.06 0 0 1 0.41,0.5 2.3,2.3 0 0 1 0.12,0.79 v 1.7 a 2.28,2.28 0 0 1 -0.12,0.78 1,1 0 0 1 -0.41,0.52 1.45,1.45 0 0 1 -0.78,0.18 z m 0,-0.61 a 0.46,0.46 0 0 0 0.31,-0.09 0.47,0.47 0 0 0 0.13,-0.24 1.9,1.9 0 0 0 0,-0.35 v -2.08 a 1.72,1.72 0 0 0 0,-0.34 0.47,0.47 0 0 0 -0.13,-0.24 0.46,0.46 0 0 0 -0.31,-0.09 0.4,0.4 0 0 0 -0.29,0.09 0.48,0.48 0 0 0 -0.14,0.24 1.72,1.72 0 0 0 0,0.34 v 2.08 a 1.9,1.9 0 0 0 0,0.35 0.41,0.41 0 0 0 0.13,0.24 0.45,0.45 0 0 0 0.3,0.09 z"
       id="path140" />
    <path
       class="cls-19"
       d="m 41.08,211.7 v -4.53 h 0.58 l 1.1,2.58 v -2.58 h 0.68 v 4.53 h -0.55 l -1.1,-2.7 v 2.71 z"
       id="path141" />
    <path
       class="cls-19"
       d="m 63.33,233.33 a 28.54,28.54 0 0 0 -45.8,-0.06 l -0.18,0.25 0.18,0.26 a 28.53,28.53 0 0 0 45.8,0.07 0.28,0.28 0 0 0 0,-0.52 m -30.6,-5.73 c 0.13,-0.18 0.54,-0.7 0.59,-0.77 a 0.7,0.7 0 0 1 0.47,-0.19 c 0.14,0 0.34,0.05 0.36,0.16 a 1.2,1.2 0 0 1 -0.13,0.62 1.56,1.56 0 0 1 -1,0.45 c -0.22,0 -0.31,-0.2 -0.27,-0.27 m -0.49,1 v -0.06 a 1.22,1.22 0 0 1 0.76,-0.27 c 0.24,-0.05 0.56,0.08 0.59,0.24 0.03,0.16 -0.6,0.44 -0.72,0.55 -0.33,0.31 -0.85,0.93 -1.15,1 a 0.34,0.34 0 0 1 -0.25,0 9.11,9.11 0 0 1 0.72,-1.43 m 5.15,10.62 a 2.58,2.58 0 0 1 -0.59,1.23 1.91,1.91 0 0 1 -1.31,0.5 c -0.44,0 -0.5,-1.2 -0.5,-1.8 0,-0.21 -0.29,0.41 -0.44,-0.84 -0.1,-0.8 -0.62,0.08 -0.65,-0.46 -0.03,-0.54 -0.3,-0.42 -0.56,-0.76 -0.26,-0.34 -0.61,0 -1,0.2 -0.39,0.2 -0.22,0.26 -0.76,0.09 v 0 a 9.76,9.76 0 0 1 -0.75,-3.75 c 0,-0.33 0,-0.65 0.05,-1 a 0.35,0.35 0 0 1 0.06,-0.09 c 0.51,-0.61 0.5,-0.75 0.5,-0.75 l 0.56,-0.19 a 9.27,9.27 0 0 1 1.58,0.4 c 0.56,0.21 1.43,0.68 2,0.47 0.37,-0.15 0.65,-0.35 0.62,-0.66 -0.03,-0.31 -0.34,-0.48 -0.71,-0.22 -0.14,0.1 -0.43,-0.58 -0.65,-0.55 -0.22,0.03 0.28,0.8 0.08,0.83 -0.2,0.03 -0.58,-0.79 -0.64,-0.93 -0.06,-0.14 -0.37,-0.46 -0.64,-0.21 -0.56,0.54 -1.49,0.5 -1.67,0.64 -0.57,0.42 -0.71,-0.14 -0.7,-0.48 a 2,2 0 0 1 0.07,-0.23 1.16,1.16 0 0 1 1.07,-0.12 c 0.25,0.17 0.43,0 0.53,-0.14 0.1,-0.14 0.06,-0.26 0,-0.39 -0.06,-0.13 0.12,-0.24 0.25,-0.27 a 6,6 0 0 0 0.73,-0.43 2.42,2.42 0 0 1 1.47,0 0.78,0.78 0 0 0 1,-0.19 2.37,2.37 0 0 1 0.7,-0.58 c 0.14,-0.07 -0.35,-0.52 -0.75,0 -0.4,0.52 -0.6,0.53 -0.78,0.53 -0.18,0 -1.3,-0.27 -1.44,-0.63 -0.14,-0.36 0.35,-0.61 0.76,-0.81 a 10,10 0 0 1 1.82,-0.25 c 0.58,-0.13 1.33,-0.42 1.71,-0.17 0.38,0.25 -1.57,0.7 -0.94,1 0.23,0.13 1.26,-0.59 1.61,-0.77 0.83,-0.43 -0.8,-0.57 -0.59,-1.44 0.21,-0.87 -2,-0.6 -3.11,-0.52 a 9.53,9.53 0 0 1 5.11,-1.51 9.64,9.64 0 0 1 9.36,7.39 2,2 0 0 1 0,0.45 0.63,0.63 0 0 1 -1.13,0.08 c -0.1,-0.14 -0.51,-0.53 -0.5,0.14 0.01,0.67 0.65,0.73 0,1.13 a 2.42,2.42 0 0 1 -1,0.41 1.29,1.29 0 0 0 -0.49,1.15 c 0.07,0.37 0.94,1.37 0.29,1.33 a 3.8,3.8 0 0 1 -1.49,-1.3 c -0.2,-0.53 -0.42,-1.06 -0.57,-1.46 A 0.57,0.57 0 0 0 44,233 c -0.34,0.23 0.1,0.46 -0.15,1 -0.25,0.54 -0.42,0.94 -0.78,0.53 -0.94,-1.08 -2.31,-0.55 -2.52,-1.75 -0.12,-0.65 -0.68,-0.59 -1.14,-1 -0.46,-0.41 -0.73,-0.56 -0.81,-0.3 -0.08,0.26 1.47,1.46 1.58,1.77 0.16,0.47 -0.47,0.88 -0.92,1 -0.45,0.12 -0.66,-0.26 -1.11,-0.73 -0.45,-0.47 -0.64,-0.8 -0.67,-0.43 a 2.08,2.08 0 0 0 0.88,1.6 c 0.39,0.24 0.82,0.36 0.7,0.76 -0.12,0.4 0,0.17 -0.44,0.6 a 1.16,1.16 0 0 0 -0.49,1.17 c 0,0.61 -0.13,0.64 -0.22,1.14 -0.09,0.5 -0.32,0.07 -0.51,0.8 m 10.34,-3.83 c 0.32,0 0.81,0.43 0.62,0.6 a 0.87,0.87 0 0 1 -0.92,-0.08 c -0.24,-0.19 0.15,-0.5 0.3,-0.52 m -0.41,-0.29 c -0.1,0 -0.19,-0.14 -0.27,-0.38 a 0.21,0.21 0 0 1 0.31,-0.27 c 0.2,0.1 0.46,0.39 0.46,0.55 0,0.16 -0.39,0.14 -0.5,0.1 m -4.25,0 a 0.89,0.89 0 0 1 -0.92,-0.09 c -0.24,-0.19 0.16,-0.5 0.3,-0.51 0.32,0 0.81,0.42 0.62,0.6 M 39.14,237 c -0.14,0.22 -0.5,1.84 -0.74,1.65 -0.24,-0.19 0.1,-1.88 0.17,-2 0.38,-0.69 1.2,-0.66 0.57,0.36 m 1.3,6.28 a 9.7,9.7 0 0 1 -2.71,-0.39 0.41,0.41 0 0 1 -0.12,-0.47 2.16,2.16 0 0 1 1.89,-1.15 c 1.56,-0.15 3.61,1 3.94,0.83 0.33,-0.17 1,-1 2,-1 a 1.46,1.46 0 0 1 0.88,0.22 9.66,9.66 0 0 1 -5.84,2 m 6.79,-2.79 a 1.7,1.7 0 0 1 -0.3,-0.12 c -0.53,-0.26 -0.46,0.16 -0.72,0.07 -0.26,-0.09 0.29,-0.7 -0.49,-0.19 -0.78,0.51 -0.56,-0.08 -0.9,-0.94 a 1.74,1.74 0 0 1 1,-2.05 10.65,10.65 0 0 1 1.75,-0.46 c 1.16,-0.29 1.4,-1 1.61,-0.56 l 0.12,0.23 a 1.53,1.53 0 0 1 0.14,0.62 9.66,9.66 0 0 1 -2.21,3.4 m 2.65,-4.86 c -0.26,-0.07 -1.34,-1.57 -0.49,-2.55 0.15,-0.16 -0.28,-0.64 -0.16,-0.65 a 0.79,0.79 0 0 1 0.83,0.68 c 0,0.18 0,0.37 0,0.55 a 9.82,9.82 0 0 1 -0.2,2"
       id="path142" />
  </g>
</svg>
