<?xml version="1.0" encoding="UTF-8" standalone="no"?>
<svg
   id="SDGs"
   viewBox="0 0 61.919998 61.919996"
   version="1.1"
   sodipodi:docname="sdg-3.svg"
   width="61.919998"
   height="61.919998"
   inkscape:version="1.3 (0e150ed6c4, 2023-07-21)"
   xmlns:inkscape="http://www.inkscape.org/namespaces/inkscape"
   xmlns:sodipodi="http://sodipodi.sourceforge.net/DTD/sodipodi-0.dtd"
   xmlns="http://www.w3.org/2000/svg"
   xmlns:svg="http://www.w3.org/2000/svg">
  <sodipodi:namedview
     id="namedview523"
     pagecolor="#505050"
     bordercolor="#eeeeee"
     borderopacity="1"
     inkscape:showpageshadow="0"
     inkscape:pageopacity="0"
     inkscape:pagecheckerboard="0"
     inkscape:deskcolor="#505050"
     inkscape:zoom="1.7804714"
     inkscape:cx="74.69932"
     inkscape:cy="93.514562"
     inkscape:window-width="1920"
     inkscape:window-height="1057"
     inkscape:window-x="0"
     inkscape:window-y="0"
     inkscape:window-maximized="1"
     inkscape:current-layer="SDGs" />
  <defs
     id="defs1">
    <style
       id="style1">.cls-1{fill:#f4f4f5;}.cls-2{fill:#5fbb46;}.cls-3{fill:#d19f2a;}.cls-4{fill:#c22033;}.cls-5{fill:#2d9a47;}.cls-6{fill:#48773c;}.cls-7{fill:#fdb714;}.cls-8{fill:#ef412a;}.cls-9{fill:#f99d25;}.cls-10{fill:#007dbb;}.cls-11{fill:#8f1838;}.cls-12{fill:#00add8;}.cls-13{fill:#f36e24;}.cls-14{fill:#ea1d2d;}.cls-15{fill:#e01a83;}.cls-16{fill:#1a3668;}.cls-17{fill:#cd8b2a;}.cls-18{fill:#00558a;}.cls-19{fill:#fff;}.cls-20{fill:#40ae49;}.cls-21{fill:#009edb;}</style>
  </defs>
  <g
     id="SDG3"
     transform="translate(-149.78999,-53.439999)">
    <rect
       class="cls-5"
       x="149.78999"
       y="53.439999"
       width="61.919998"
       height="61.919998"
       id="rect416" />
    <path
       class="cls-19"
       d="m 155.44,69.91 a 4.11,4.11 0 0 1 -0.75,-2.64 v -0.41 h 2.25 v 0.39 a 3,3 0 0 0 0.22,1.3 0.76,0.76 0 0 0 0.74,0.4 0.71,0.71 0 0 0 0.72,-0.41 3.39,3.39 0 0 0 0.18,-1.3 2.88,2.88 0 0 0 -0.27,-1.41 1.14,1.14 0 0 0 -1,-0.47 h -0.41 V 63.7 h 0.36 a 1.2,1.2 0 0 0 1,-0.41 2.32,2.32 0 0 0 0.32,-1.29 2.29,2.29 0 0 0 -0.21,-1.12 0.78,0.78 0 0 0 -0.75,-0.37 0.7,0.7 0 0 0 -0.7,0.4 2.85,2.85 0 0 0 -0.2,1.16 v 0.53 h -2.25 v -0.7 a 3.29,3.29 0 0 1 0.83,-2.39 3.08,3.08 0 0 1 2.32,-0.84 3.23,3.23 0 0 1 2.36,0.81 3.14,3.14 0 0 1 0.83,2.35 3.23,3.23 0 0 1 -0.42,1.71 1.75,1.75 0 0 1 -1.08,0.87 Q 161,65 161,67.2 a 4.2,4.2 0 0 1 -0.76,2.67 2.83,2.83 0 0 1 -2.4,1 2.92,2.92 0 0 1 -2.4,-0.96 z"
       id="path417" />
    <path
       class="cls-19"
       d="m 166.29,63 a 2,2 0 0 1 -0.28,-1.15 v -1.52 a 2,2 0 0 1 0.29,-1.17 1.16,1.16 0 0 1 1,-0.39 1.2,1.2 0 0 1 0.95,0.33 1.43,1.43 0 0 1 0.29,1 v 0.23 h -0.78 v -0.26 a 2.06,2.06 0 0 0 0,-0.39 0.41,0.41 0 0 0 -0.13,-0.22 0.48,0.48 0 0 0 -0.29,-0.08 0.4,0.4 0 0 0 -0.44,0.36 2.22,2.22 0 0 0 0,0.41 V 62 a 1.26,1.26 0 0 0 0.1,0.58 0.4,0.4 0 0 0 0.39,0.19 0.42,0.42 0 0 0 0.39,-0.2 1.37,1.37 0 0 0 0.11,-0.6 V 61.54 H 167.4 V 61 h 1.23 v 2.29 H 168 l -0.05,-0.44 a 0.78,0.78 0 0 1 -0.77,0.51 1.07,1.07 0 0 1 -0.89,-0.36 z"
       id="path418" />
    <path
       class="cls-19"
       d="m 169.4,63 a 1.74,1.74 0 0 1 -0.3,-1.1 v -1.7 a 1.68,1.68 0 0 1 0.3,-1.08 1.54,1.54 0 0 1 2,0 1.68,1.68 0 0 1 0.3,1.08 v 1.7 a 1.76,1.76 0 0 1 -0.3,1.1 1.23,1.23 0 0 1 -1,0.38 1.21,1.21 0 0 1 -1,-0.38 z m 1.37,-0.4 a 1.16,1.16 0 0 0 0.09,-0.51 V 60 a 1.09,1.09 0 0 0 -0.09,-0.5 0.49,0.49 0 0 0 -0.74,0 1,1 0 0 0 -0.1,0.5 v 2.07 a 1,1 0 0 0 0.1,0.51 0.38,0.38 0 0 0 0.37,0.17 0.39,0.39 0 0 0 0.37,-0.13 z"
       id="path419" />
    <path
       class="cls-19"
       d="m 172.51,63 a 1.74,1.74 0 0 1 -0.3,-1.1 v -1.7 a 1.68,1.68 0 0 1 0.3,-1.08 1.54,1.54 0 0 1 2,0 1.68,1.68 0 0 1 0.3,1.08 v 1.7 a 1.76,1.76 0 0 1 -0.3,1.1 1.23,1.23 0 0 1 -1,0.38 1.21,1.21 0 0 1 -1,-0.38 z m 1.37,-0.4 a 1.16,1.16 0 0 0 0.09,-0.51 V 60 a 1.09,1.09 0 0 0 -0.09,-0.5 0.49,0.49 0 0 0 -0.74,0 1,1 0 0 0 -0.1,0.5 v 2.07 a 1,1 0 0 0 0.1,0.51 0.38,0.38 0 0 0 0.37,0.17 0.39,0.39 0 0 0 0.37,-0.13 z"
       id="path420" />
    <path
       class="cls-19"
       d="m 175.39,58.82 h 1.06 a 2,2 0 0 1 0.86,0.15 0.9,0.9 0 0 1 0.45,0.45 2.19,2.19 0 0 1 0.13,0.8 v 1.65 a 2.37,2.37 0 0 1 -0.13,0.83 1,1 0 0 1 -0.44,0.48 1.92,1.92 0 0 1 -0.83,0.15 h -1.1 z m 1.07,3.94 a 0.67,0.67 0 0 0 0.4,-0.09 0.53,0.53 0 0 0 0.16,-0.27 3.07,3.07 0 0 0 0,-0.5 v -1.73 a 1.86,1.86 0 0 0 0,-0.46 0.39,0.39 0 0 0 -0.16,-0.23 0.84,0.84 0 0 0 -0.4,-0.07 h -0.24 v 3.35 z"
       id="path421" />
    <path
       class="cls-19"
       d="m 179.8,58.82 h 0.82 v 1.88 h 0.92 v -1.88 h 0.83 v 4.51 h -0.83 v -2 h -0.92 v 2 h -0.82 z"
       id="path422" />
    <path
       class="cls-19"
       d="m 183,58.82 h 1.9 v 0.58 h -1.08 v 1.3 h 0.85 v 0.57 h -0.85 v 1.5 h 1.09 v 0.56 H 183 Z"
       id="path423" />
    <path
       class="cls-19"
       d="m 186.06,58.82 h 0.88 l 0.91,4.51 h -0.77 l -0.18,-1 h -0.78 l -0.19,1 h -0.77 z m 0.75,3 -0.3,-1.9 -0.31,1.9 z"
       id="path424" />
    <path
       class="cls-19"
       d="m 188.27,58.82 h 0.82 v 4 h 1.1 v 0.56 h -1.92 z"
       id="path425" />
    <path
       class="cls-19"
       d="m 190.92,59.43 h -0.76 v -0.61 h 2.32 v 0.61 h -0.74 v 3.9 h -0.82 z"
       id="path426" />
    <path
       class="cls-19"
       d="m 192.82,58.82 h 0.82 v 1.88 h 0.92 v -1.88 h 0.83 v 4.51 h -0.83 v -2 h -0.92 v 2 h -0.82 z"
       id="path427" />
    <path
       class="cls-19"
       d="m 166.76,66.19 h 0.88 l 0.9,4.52 h -0.76 l -0.18,-1 h -0.79 l -0.18,1 h -0.78 z m 0.75,3 -0.31,-1.89 -0.31,1.89 z"
       id="path428" />
    <path
       class="cls-19"
       d="m 169,66.19 h 0.58 l 1.09,2.58 v -2.58 h 0.68 v 4.52 h -0.54 L 169.66,68 v 2.7 H 169 Z"
       id="path429" />
    <path
       class="cls-19"
       d="m 172,66.19 h 1 a 2,2 0 0 1 0.86,0.15 0.92,0.92 0 0 1 0.44,0.45 2,2 0 0 1 0.13,0.81 v 1.64 a 2.12,2.12 0 0 1 -0.13,0.83 0.9,0.9 0 0 1 -0.44,0.48 1.75,1.75 0 0 1 -0.83,0.16 H 172 Z m 1.08,4 a 0.65,0.65 0 0 0 0.39,-0.1 0.38,0.38 0 0 0 0.16,-0.26 3.3,3.3 0 0 0 0,-0.51 v -1.78 a 1.72,1.72 0 0 0 0,-0.45 0.37,0.37 0 0 0 -0.16,-0.24 0.77,0.77 0 0 0 -0.39,-0.07 h -0.25 v 3.36 z"
       id="path430" />
    <path
       class="cls-19"
       d="m 176.21,66.19 h 0.69 l 0.37,2.93 0.47,-2.91 h 0.56 l 0.48,2.91 0.37,-2.93 h 0.68 l -0.63,4.52 h -0.67 l -0.5,-3 -0.5,3 h -0.68 z"
       id="path431" />
    <path
       class="cls-19"
       d="m 180.32,66.19 h 1.9 v 0.58 h -1.08 v 1.3 H 182 v 0.58 h -0.85 v 1.5 h 1.09 v 0.56 h -1.91 z"
       id="path432" />
    <path
       class="cls-19"
       d="m 182.68,66.19 h 0.82 v 4 h 1.1 v 0.56 h -1.92 z"
       id="path433" />
    <path
       class="cls-19"
       d="m 185,66.19 h 0.82 v 4 h 1.1 v 0.56 H 185 Z"
       id="path434" />
    <path
       class="cls-19"
       d="m 187.29,68.62 h 1.35 v 0.52 h -1.35 z"
       id="path435" />
    <path
       class="cls-19"
       d="m 189.27,66.19 h 1.11 a 1.61,1.61 0 0 1 1,0.26 1,1 0 0 1 0.34,0.88 c 0,0.56 -0.21,0.88 -0.65,1 q 0.78,0.15 0.78,1.11 a 1.37,1.37 0 0 1 -0.31,1 1.23,1.23 0 0 1 -1,0.34 h -1.3 z m 1.1,1.85 a 0.6,0.6 0 0 0 0.49,-0.16 0.81,0.81 0 0 0 0.13,-0.52 0.57,0.57 0 0 0 -0.17,-0.47 1,1 0 0 0 -0.57,-0.12 h -0.16 V 68 Z m 0,2.09 a 0.65,0.65 0 0 0 0.51,-0.17 1,1 0 0 0 0.14,-0.57 1,1 0 0 0 -0.16,-0.6 0.63,0.63 0 0 0 -0.51,-0.18 h -0.29 v 1.52 z"
       id="path436" />
    <path
       class="cls-19"
       d="m 192.34,66.19 h 1.9 v 0.58 h -1.08 v 1.3 H 194 v 0.58 h -0.85 v 1.5 h 1.09 v 0.56 h -1.91 z"
       id="path437" />
    <path
       class="cls-19"
       d="m 194.72,66.19 h 0.82 v 4.52 h -0.82 z"
       id="path438" />
    <path
       class="cls-19"
       d="m 196.21,66.19 h 0.57 l 1.1,2.58 v -2.58 h 0.68 v 4.52 H 198 l -1.1,-2.7 v 2.7 h -0.7 z"
       id="path439" />
    <path
       class="cls-19"
       d="m 199.43,70.37 a 2,2 0 0 1 -0.29,-1.15 V 67.7 a 2,2 0 0 1 0.29,-1.16 1.49,1.49 0 0 1 2,-0.06 1.45,1.45 0 0 1 0.29,1 v 0.23 h -0.79 v -0.25 a 1.92,1.92 0 0 0 0,-0.39 0.38,0.38 0 0 0 -0.13,-0.23 0.46,0.46 0 0 0 -0.29,-0.07 0.38,0.38 0 0 0 -0.3,0.1 0.51,0.51 0 0 0 -0.14,0.25 2.29,2.29 0 0 0 0,0.41 v 1.87 a 1.17,1.17 0 0 0 0.11,0.57 0.39,0.39 0 0 0 0.38,0.19 0.39,0.39 0 0 0 0.39,-0.2 1.31,1.31 0 0 0 0.11,-0.6 v -0.42 h -0.48 v -0.52 h 1.22 v 2.29 h -0.53 l -0.06,-0.44 a 0.76,0.76 0 0 1 -0.76,0.5 1,1 0 0 1 -1.02,-0.4 z"
       id="path440" />
    <path
       class="cls-19"
       d="M 201.64,92.18 A 2.92,2.92 0 0 0 198.82,89 4.41,4.41 0 0 0 196.38,90.5 C 195.83,89.93 194.87,89 194.02,89 a 3,3 0 0 0 -2.9,3.17 3.2,3.2 0 0 0 0.91,2.24 v 0 l 4.36,4.37 4.35,-4.37 v 0 a 3.19,3.19 0 0 0 0.9,-2.23 z"
       id="path441" />
    <path
       class="cls-19"
       d="M 183.08,105.92 H 183 a 0.72,0.72 0 0 1 -0.66,-0.59 l -2.22,-12.9 -3.35,6.22 a 0.72,0.72 0 0 1 -1.34,-0.24 l -1.42,-10 -2.61,5.86 a 0.72,0.72 0 0 1 -0.65,0.42 h -10.1 a 0.72,0.72 0 1 1 0,-1.43 h 9.66 l 3.43,-7.7 a 0.73,0.73 0 0 1 0.75,-0.42 0.7,0.7 0 0 1 0.61,0.61 l 1.47,10.26 3.31,-6.13 a 0.71,0.71 0 0 1 0.75,-0.37 0.73,0.73 0 0 1 0.59,0.59 l 2.05,12 7.47,-24.84 a 0.72,0.72 0 0 1 0.63,-0.5 0.68,0.68 0 0 1 0.7,0.4 L 196,85.3 a 0.72,0.72 0 0 1 -0.34,1 0.71,0.71 0 0 1 -0.95,-0.34 l -3.14,-6.49 -7.82,26 a 0.72,0.72 0 0 1 -0.67,0.45 z"
       id="path442" />
  </g>
</svg>
