<?xml version="1.0" encoding="UTF-8" standalone="no"?>
<svg
   id="SDGs"
   viewBox="0 0 62.049999 62.049997"
   version="1.1"
   sodipodi:docname="sdg-11.svg"
   width="62.049999"
   height="62.049999"
   inkscape:version="1.3 (0e150ed6c4, 2023-07-21)"
   xmlns:inkscape="http://www.inkscape.org/namespaces/inkscape"
   xmlns:sodipodi="http://sodipodi.sourceforge.net/DTD/sodipodi-0.dtd"
   xmlns="http://www.w3.org/2000/svg"
   xmlns:svg="http://www.w3.org/2000/svg">
  <sodipodi:namedview
     id="namedview523"
     pagecolor="#505050"
     bordercolor="#eeeeee"
     borderopacity="1"
     inkscape:showpageshadow="0"
     inkscape:pageopacity="0"
     inkscape:pagecheckerboard="0"
     inkscape:deskcolor="#505050"
     inkscape:zoom="1.7804714"
     inkscape:cx="-66.274585"
     inkscape:cy="23.308434"
     inkscape:window-width="1920"
     inkscape:window-height="1057"
     inkscape:window-x="0"
     inkscape:window-y="0"
     inkscape:window-maximized="1"
     inkscape:current-layer="SDGs" />
  <defs
     id="defs1">
    <style
       id="style1">.cls-1{fill:#f4f4f5;}.cls-2{fill:#5fbb46;}.cls-3{fill:#d19f2a;}.cls-4{fill:#c22033;}.cls-5{fill:#2d9a47;}.cls-6{fill:#48773c;}.cls-7{fill:#fdb714;}.cls-8{fill:#ef412a;}.cls-9{fill:#f99d25;}.cls-10{fill:#007dbb;}.cls-11{fill:#8f1838;}.cls-12{fill:#00add8;}.cls-13{fill:#f36e24;}.cls-14{fill:#ea1d2d;}.cls-15{fill:#e01a83;}.cls-16{fill:#1a3668;}.cls-17{fill:#cd8b2a;}.cls-18{fill:#00558a;}.cls-19{fill:#fff;}.cls-20{fill:#40ae49;}.cls-21{fill:#009edb;}</style>
  </defs>
  <g
     id="SDG11"
     transform="translate(-290.59,-124.07)">
    <rect
       class="cls-9"
       x="290.59"
       y="124.07"
       width="62.049999"
       height="62.049999"
       id="rect180" />
    <path
       class="cls-19"
       d="m 296,131.8 c -0.11,0.06 -0.42,0.18 -0.94,0.37 -0.52,0.19 -0.66,0.23 -0.77,0.27 v -1.67 a 10.75,10.75 0 0 0 1.2,-0.59 3.63,3.63 0 0 0 1,-0.72 h 1.77 V 141.3 H 296 Z"
       id="path181" />
    <path
       class="cls-19"
       d="m 301,131.8 c -0.11,0.06 -0.42,0.18 -0.94,0.37 -0.52,0.19 -0.66,0.23 -0.77,0.27 v -1.67 a 11.69,11.69 0 0 0 1.21,-0.59 4,4 0 0 0 1,-0.72 h 1.76 V 141.3 H 301 Z"
       id="path182" />
    <path
       class="cls-19"
       d="m 308.47,134 a 1.33,1.33 0 0 1 -0.69,-0.16 1,1 0 0 1 -0.41,-0.46 2.09,2.09 0 0 1 -0.15,-0.76 l 0.7,-0.14 a 2.12,2.12 0 0 0 0.07,0.47 0.7,0.7 0 0 0 0.16,0.31 0.39,0.39 0 0 0 0.29,0.1 0.31,0.31 0 0 0 0.28,-0.12 0.49,0.49 0 0 0 0.09,-0.3 0.84,0.84 0 0 0 -0.14,-0.49 3,3 0 0 0 -0.35,-0.38 l -0.57,-0.5 a 1.87,1.87 0 0 1 -0.39,-0.46 1.33,1.33 0 0 1 -0.14,-0.63 1.09,1.09 0 0 1 0.31,-0.82 1.2,1.2 0 0 1 0.86,-0.29 1.36,1.36 0 0 1 0.53,0.09 1,1 0 0 1 0.34,0.27 1.32,1.32 0 0 1 0.18,0.4 2.33,2.33 0 0 1 0.08,0.46 l -0.7,0.13 a 3.53,3.53 0 0 0 -0.05,-0.38 0.57,0.57 0 0 0 -0.13,-0.27 0.37,0.37 0 0 0 -0.27,-0.09 0.34,0.34 0 0 0 -0.28,0.12 0.44,0.44 0 0 0 -0.1,0.3 0.65,0.65 0 0 0 0.1,0.38 1.43,1.43 0 0 0 0.27,0.3 l 0.56,0.5 a 2.11,2.11 0 0 1 0.48,0.55 1.41,1.41 0 0 1 0.2,0.76 1.21,1.21 0 0 1 -0.14,0.58 1.15,1.15 0 0 1 -0.4,0.39 1.25,1.25 0 0 1 -0.59,0.14 z"
       id="path183" />
    <path
       class="cls-19"
       d="m 311.1,134 a 1.47,1.47 0 0 1 -0.79,-0.18 1,1 0 0 1 -0.38,-0.53 2.78,2.78 0 0 1 -0.11,-0.81 v -3.06 h 0.81 v 3.15 a 2.5,2.5 0 0 0 0,0.4 0.46,0.46 0 0 0 0.13,0.3 0.39,0.39 0 0 0 0.31,0.12 0.37,0.37 0 0 0 0.31,-0.12 0.52,0.52 0 0 0 0.13,-0.3 2.5,2.5 0 0 0 0,-0.4 v -3.15 h 0.8 v 3.06 a 2.78,2.78 0 0 1 -0.11,0.81 0.94,0.94 0 0 1 -0.38,0.53 1.41,1.41 0 0 1 -0.72,0.18 z"
       id="path184" />
    <path
       class="cls-19"
       d="m 313.93,134 a 1.29,1.29 0 0 1 -0.68,-0.16 1,1 0 0 1 -0.42,-0.46 2.09,2.09 0 0 1 -0.15,-0.76 l 0.71,-0.14 a 2.15,2.15 0 0 0 0.06,0.47 0.82,0.82 0 0 0 0.16,0.31 0.41,0.41 0 0 0 0.29,0.1 0.34,0.34 0 0 0 0.29,-0.12 0.56,0.56 0 0 0 0.08,-0.3 0.91,0.91 0 0 0 -0.13,-0.49 2.48,2.48 0 0 0 -0.36,-0.38 l -0.57,-0.5 a 1.64,1.64 0 0 1 -0.38,-0.46 1.22,1.22 0 0 1 -0.15,-0.63 1.06,1.06 0 0 1 0.32,-0.82 1.16,1.16 0 0 1 0.85,-0.29 1.36,1.36 0 0 1 0.53,0.09 0.93,0.93 0 0 1 0.34,0.27 1.64,1.64 0 0 1 0.19,0.4 2.32,2.32 0 0 1 0.07,0.46 l -0.7,0.13 a 2.06,2.06 0 0 0 0,-0.38 0.49,0.49 0 0 0 -0.13,-0.27 0.37,0.37 0 0 0 -0.27,-0.09 0.35,0.35 0 0 0 -0.28,0.12 0.49,0.49 0 0 0 -0.1,0.3 0.74,0.74 0 0 0 0.1,0.38 1.43,1.43 0 0 0 0.27,0.3 l 0.57,0.5 a 2.28,2.28 0 0 1 0.47,0.55 1.33,1.33 0 0 1 0.2,0.76 1.21,1.21 0 0 1 -0.14,0.58 1.15,1.15 0 0 1 -0.4,0.39 1.22,1.22 0 0 1 -0.64,0.14 z"
       id="path185" />
    <path
       class="cls-19"
       d="m 315.77,134 v -3.92 h -0.72 v -0.6 h 2.26 v 0.6 H 316.6 V 134 Z"
       id="path186" />
    <path
       class="cls-19"
       d="m 317.15,134 0.91,-4.52 h 0.88 l 0.9,4.52 h -0.76 l -0.18,-1 h -0.79 l -0.18,1 z m 1.05,-1.57 h 0.61 l -0.31,-1.9 z"
       id="path187" />
    <path
       class="cls-19"
       d="m 320.07,134 v -4.52 h 0.81 V 134 Z"
       id="path188" />
    <path
       class="cls-19"
       d="m 321.35,134 v -4.52 h 0.58 L 323,132 v -2.58 h 0.68 V 134 h -0.55 l -1.11,-2.7 v 2.7 z"
       id="path189" />
    <path
       class="cls-19"
       d="m 323.94,134 0.9,-4.52 h 0.88 l 0.91,4.52 h -0.77 l -0.17,-1 h -0.79 l -0.19,1 z m 1,-1.57 h 0.62 l -0.31,-1.9 z"
       id="path190" />
    <path
       class="cls-19"
       d="m 326.83,134 v -4.52 h 1.11 a 2.39,2.39 0 0 1 0.55,0 1.15,1.15 0 0 1 0.42,0.19 1,1 0 0 1 0.27,0.35 1.55,1.55 0 0 1 0.09,0.57 1.33,1.33 0 0 1 -0.07,0.47 0.72,0.72 0 0 1 -0.23,0.31 0.85,0.85 0 0 1 -0.36,0.15 0.85,0.85 0 0 1 0.71,0.56 1.52,1.52 0 0 1 0.08,0.55 1.64,1.64 0 0 1 -0.08,0.57 1,1 0 0 1 -0.63,0.67 1.89,1.89 0 0 1 -0.56,0.08 z m 0.83,-2.68 h 0.28 a 0.81,0.81 0 0 0 0.38,-0.07 0.36,0.36 0 0 0 0.18,-0.22 1,1 0 0 0 0.06,-0.38 0.63,0.63 0 0 0 -0.09,-0.37 0.37,0.37 0 0 0 -0.24,-0.18 1.53,1.53 0 0 0 -0.41,-0.05 h -0.16 z m 0,2.1 H 328 a 0.6,0.6 0 0 0 0.51,-0.18 1,1 0 0 0 0.13,-0.56 1.4,1.4 0 0 0 -0.06,-0.45 0.53,0.53 0 0 0 -0.21,-0.25 0.76,0.76 0 0 0 -0.4,-0.09 h -0.28 z"
       id="path191" />
    <path
       class="cls-19"
       d="m 329.71,134 v -4.52 h 0.83 v 3.95 h 1.09 V 134 Z"
       id="path192" />
    <path
       class="cls-19"
       d="m 331.81,134 v -4.52 h 1.9 V 130 h -1.07 v 1.3 h 0.84 v 0.57 h -0.84 v 1.5 h 1.08 V 134 Z"
       id="path193" />
    <path
       class="cls-19"
       d="m 336.32,134 a 1.36,1.36 0 0 1 -0.78,-0.19 1,1 0 0 1 -0.39,-0.54 2.28,2.28 0 0 1 -0.12,-0.78 v -1.61 a 2.47,2.47 0 0 1 0.12,-0.81 0.93,0.93 0 0 1 0.39,-0.52 1.45,1.45 0 0 1 0.78,-0.18 1.47,1.47 0 0 1 0.73,0.15 0.86,0.86 0 0 1 0.38,0.46 1.85,1.85 0 0 1 0.11,0.69 v 0.38 h -0.79 v -0.39 a 3.49,3.49 0 0 0 0,-0.35 0.41,0.41 0 0 0 -0.11,-0.25 0.38,0.38 0 0 0 -0.3,-0.09 0.41,0.41 0 0 0 -0.31,0.1 0.49,0.49 0 0 0 -0.12,0.26 2.05,2.05 0 0 0 0,0.37 v 2 a 1.49,1.49 0 0 0 0,0.4 0.41,0.41 0 0 0 0.14,0.24 0.42,0.42 0 0 0 0.28,0.08 0.38,0.38 0 0 0 0.3,-0.1 0.48,0.48 0 0 0 0.11,-0.25 c 0,-0.11 0,-0.23 0,-0.37 v -0.41 h 0.79 v 0.37 a 2.21,2.21 0 0 1 -0.1,0.71 0.93,0.93 0 0 1 -0.38,0.49 1.37,1.37 0 0 1 -0.73,0.14 z"
       id="path194" />
    <path
       class="cls-19"
       d="m 337.91,134 v -4.52 h 0.82 V 134 Z"
       id="path195" />
    <path
       class="cls-19"
       d="m 339.65,134 v -3.92 h -0.72 v -0.6 h 2.25 v 0.6 h -0.71 V 134 Z"
       id="path196" />
    <path
       class="cls-19"
       d="m 341.39,134 v -4.52 h 0.82 V 134 Z"
       id="path197" />
    <path
       class="cls-19"
       d="m 342.68,134 v -4.52 h 1.89 V 130 h -1.07 v 1.3 h 0.85 v 0.57 h -0.85 v 1.5 h 1.09 V 134 Z"
       id="path198" />
    <path
       class="cls-19"
       d="m 346,134 a 1.33,1.33 0 0 1 -0.69,-0.16 1,1 0 0 1 -0.41,-0.46 2.31,2.31 0 0 1 -0.16,-0.76 l 0.71,-0.14 a 2.12,2.12 0 0 0 0.07,0.47 0.7,0.7 0 0 0 0.16,0.31 0.39,0.39 0 0 0 0.29,0.1 0.31,0.31 0 0 0 0.28,-0.12 0.49,0.49 0 0 0 0.09,-0.3 0.84,0.84 0 0 0 -0.14,-0.49 3,3 0 0 0 -0.35,-0.38 l -0.57,-0.5 a 1.87,1.87 0 0 1 -0.39,-0.46 1.33,1.33 0 0 1 -0.14,-0.63 1.06,1.06 0 0 1 0.31,-0.82 1.2,1.2 0 0 1 0.86,-0.29 1.36,1.36 0 0 1 0.53,0.09 1,1 0 0 1 0.34,0.27 1.32,1.32 0 0 1 0.18,0.4 2.33,2.33 0 0 1 0.08,0.46 l -0.7,0.13 a 3.53,3.53 0 0 0 -0.05,-0.38 0.57,0.57 0 0 0 -0.13,-0.27 0.37,0.37 0 0 0 -0.27,-0.09 0.34,0.34 0 0 0 -0.28,0.12 0.44,0.44 0 0 0 -0.1,0.3 0.65,0.65 0 0 0 0.1,0.38 1.43,1.43 0 0 0 0.27,0.3 l 0.56,0.5 a 2.11,2.11 0 0 1 0.48,0.55 1.41,1.41 0 0 1 0.2,0.76 1.21,1.21 0 0 1 -0.14,0.58 1.15,1.15 0 0 1 -0.4,0.39 A 1.25,1.25 0 0 1 346,134 Z"
       id="path199" />
    <path
       class="cls-19"
       d="m 307.1,141.37 0.9,-4.52 h 0.89 l 0.9,4.52 H 309 l -0.17,-1 h -0.79 l -0.19,1 z m 1,-1.57 h 0.62 l -0.31,-1.9 z"
       id="path200" />
    <path
       class="cls-19"
       d="m 310,141.37 v -4.52 h 0.58 l 1.1,2.58 v -2.58 h 0.68 v 4.52 h -0.55 l -1.11,-2.7 v 2.7 z"
       id="path201" />
    <path
       class="cls-19"
       d="m 312.81,141.37 v -4.52 h 1.06 a 2.06,2.06 0 0 1 0.87,0.15 0.9,0.9 0 0 1 0.44,0.46 2.21,2.21 0 0 1 0.13,0.79 v 1.66 a 2.33,2.33 0 0 1 -0.13,0.81 1,1 0 0 1 -0.44,0.49 1.75,1.75 0 0 1 -0.83,0.16 z m 0.82,-0.58 h 0.25 a 0.63,0.63 0 0 0 0.41,-0.1 0.43,0.43 0 0 0 0.15,-0.29 3.18,3.18 0 0 0 0,-0.47 v -1.73 a 1.73,1.73 0 0 0 0,-0.44 0.35,0.35 0 0 0 -0.16,-0.25 0.77,0.77 0 0 0 -0.4,-0.08 h -0.24 z"
       id="path202" />
    <path
       class="cls-19"
       d="m 318,141.43 a 1.36,1.36 0 0 1 -0.78,-0.19 1.08,1.08 0 0 1 -0.39,-0.54 2.57,2.57 0 0 1 -0.11,-0.78 v -1.61 a 2.78,2.78 0 0 1 0.11,-0.81 1,1 0 0 1 0.39,-0.52 1.45,1.45 0 0 1 0.78,-0.18 1.51,1.51 0 0 1 0.74,0.15 1,1 0 0 1 0.38,0.46 2.08,2.08 0 0 1 0.11,0.69 v 0.38 h -0.8 v -0.39 a 1.89,1.89 0 0 0 0,-0.35 0.38,0.38 0 0 0 -0.1,-0.25 0.41,0.41 0 0 0 -0.3,-0.09 0.4,0.4 0 0 0 -0.31,0.1 0.43,0.43 0 0 0 -0.13,0.26 2.12,2.12 0 0 0 0,0.37 v 2 a 2.25,2.25 0 0 0 0,0.4 0.42,0.42 0 0 0 0.15,0.24 0.41,0.41 0 0 0 0.28,0.08 0.35,0.35 0 0 0 0.29,-0.1 0.42,0.42 0 0 0 0.11,-0.26 1.94,1.94 0 0 0 0,-0.36 v -0.41 h 0.8 v 0.37 a 2.2,2.2 0 0 1 -0.11,0.71 0.91,0.91 0 0 1 -0.37,0.49 1.44,1.44 0 0 1 -0.74,0.14 z"
       id="path203" />
    <path
       class="cls-19"
       d="m 320.83,141.43 a 1.4,1.4 0 0 1 -0.76,-0.18 1,1 0 0 1 -0.41,-0.51 2.34,2.34 0 0 1 -0.12,-0.79 v -1.7 a 2.28,2.28 0 0 1 0.12,-0.78 0.93,0.93 0 0 1 0.41,-0.5 1.4,1.4 0 0 1 0.76,-0.17 1.46,1.46 0 0 1 0.78,0.17 1,1 0 0 1 0.4,0.5 2.06,2.06 0 0 1 0.13,0.78 V 140 a 2.15,2.15 0 0 1 -0.13,0.79 1,1 0 0 1 -0.4,0.51 1.45,1.45 0 0 1 -0.78,0.13 z m 0,-0.61 a 0.46,0.46 0 0 0 0.31,-0.09 0.47,0.47 0 0 0 0.13,-0.24 1.87,1.87 0 0 0 0,-0.34 v -2.09 a 1.79,1.79 0 0 0 0,-0.34 0.4,0.4 0 0 0 -0.13,-0.23 0.46,0.46 0 0 0 -0.31,-0.09 0.4,0.4 0 0 0 -0.29,0.09 0.36,0.36 0 0 0 -0.14,0.23 1.79,1.79 0 0 0 0,0.34 v 2.09 a 1.87,1.87 0 0 0 0,0.34 0.41,0.41 0 0 0 0.13,0.24 0.45,0.45 0 0 0 0.3,0.09 z"
       id="path204" />
    <path
       class="cls-19"
       d="m 322.51,141.37 0.08,-4.52 h 0.85 l 0.64,3.13 0.67,-3.13 h 0.83 l 0.08,4.52 h -0.61 l -0.07,-3.14 -0.64,3.14 h -0.5 l -0.65,-3.16 -0.06,3.16 z"
       id="path205" />
    <path
       class="cls-19"
       d="m 326.09,141.37 0.08,-4.52 H 327 l 0.64,3.13 0.67,-3.13 h 0.82 l 0.09,4.52 h -0.62 l -0.06,-3.14 -0.65,3.14 h -0.49 l -0.66,-3.16 -0.06,3.16 z"
       id="path206" />
    <path
       class="cls-19"
       d="m 330.93,141.43 a 1.41,1.41 0 0 1 -0.78,-0.18 1,1 0 0 1 -0.39,-0.53 2.8,2.8 0 0 1 -0.1,-0.81 v -3.06 h 0.8 V 140 a 2.5,2.5 0 0 0 0,0.4 0.52,0.52 0 0 0 0.13,0.3 0.39,0.39 0 0 0 0.31,0.12 0.41,0.41 0 0 0 0.32,-0.12 0.59,0.59 0 0 0 0.12,-0.3 2.5,2.5 0 0 0 0,-0.4 v -3.15 h 0.8 v 3.06 a 2.8,2.8 0 0 1 -0.1,0.81 1,1 0 0 1 -0.39,0.53 1.41,1.41 0 0 1 -0.72,0.18 z"
       id="path207" />
    <path
       class="cls-19"
       d="m 332.62,141.37 v -4.52 h 0.58 l 1.1,2.58 v -2.58 h 0.7 v 4.52 h -0.55 l -1.1,-2.7 v 2.7 z"
       id="path208" />
    <path
       class="cls-19"
       d="m 335.46,141.37 v -4.52 h 0.81 v 4.52 z"
       id="path209" />
    <path
       class="cls-19"
       d="m 337.2,141.37 v -3.92 h -0.72 v -0.6 h 2.25 v 0.6 H 338 v 3.92 z"
       id="path210" />
    <path
       class="cls-19"
       d="m 338.94,141.37 v -4.52 h 0.81 v 4.52 z"
       id="path211" />
    <path
       class="cls-19"
       d="m 340.22,141.37 v -4.52 h 1.9 v 0.58 h -1.07 v 1.3 h 0.84 v 0.57 h -0.84 v 1.5 h 1.08 v 0.57 z"
       id="path212" />
    <path
       class="cls-19"
       d="m 343.52,141.43 a 1.32,1.32 0 0 1 -0.68,-0.16 1,1 0 0 1 -0.41,-0.46 2.09,2.09 0 0 1 -0.16,-0.76 l 0.71,-0.14 a 2.12,2.12 0 0 0 0.07,0.47 0.7,0.7 0 0 0 0.16,0.31 0.39,0.39 0 0 0 0.29,0.1 0.31,0.31 0 0 0 0.28,-0.12 0.48,0.48 0 0 0 0.08,-0.3 0.83,0.83 0 0 0 -0.13,-0.49 2.48,2.48 0 0 0 -0.36,-0.38 L 342.8,139 a 1.83,1.83 0 0 1 -0.38,-0.46 1.33,1.33 0 0 1 -0.14,-0.63 1,1 0 0 1 0.31,-0.82 1.18,1.18 0 0 1 0.86,-0.29 1.36,1.36 0 0 1 0.53,0.09 0.89,0.89 0 0 1 0.33,0.27 1.14,1.14 0 0 1 0.19,0.4 2.21,2.21 0 0 1 0.08,0.46 l -0.7,0.13 a 3.53,3.53 0 0 0 -0.05,-0.38 0.68,0.68 0 0 0 -0.13,-0.27 0.37,0.37 0 0 0 -0.27,-0.09 0.34,0.34 0 0 0 -0.28,0.12 0.44,0.44 0 0 0 -0.1,0.3 0.74,0.74 0 0 0 0.09,0.38 1.88,1.88 0 0 0 0.28,0.3 l 0.56,0.5 a 2.11,2.11 0 0 1 0.48,0.55 1.41,1.41 0 0 1 0.2,0.76 1.15,1.15 0 0 1 -0.14,0.57 1.1,1.1 0 0 1 -0.4,0.4 1.27,1.27 0 0 1 -0.6,0.14 z"
       id="path213" />
    <path
       class="cls-19"
       d="m 301.17,171.38 h 9.38 a 0.23,0.23 0 0 0 0.23,-0.23 0.2,0.2 0 0 0 -0.06,-0.15 v 0 L 306,165 v 0 a 0.23,0.23 0 0 0 -0.17,-0.07 0.3,0.3 0 0 0 -0.16,0 v 0 0.05 l -4.55,6 L 301,171 a 0.28,0.28 0 0 0 0,0.13 0.23,0.23 0 0 0 0.17,0.25 z"
       id="path214" />
    <path
       class="cls-19"
       d="m 310.52,172.23 h -9.39 a 0.23,0.23 0 0 0 -0.23,0.23 v 7.36 a 0.23,0.23 0 0 0 0.23,0.23 h 3 v -4.63 a 0.23,0.23 0 0 1 0.23,-0.23 h 2.81 a 0.23,0.23 0 0 1 0.23,0.23 v 4.63 h 3.1 a 0.23,0.23 0 0 0 0.23,-0.23 v -7.36 a 0.23,0.23 0 0 0 -0.21,-0.23 z"
       id="path215" />
    <path
       class="cls-19"
       d="m 343,170.31 h -9.3 a 0.22,0.22 0 0 0 -0.22,0.22 v 9.39 a 0.22,0.22 0 0 0 0.22,0.22 h 9.3 a 0.22,0.22 0 0 0 0.23,-0.22 v -9.39 A 0.22,0.22 0 0 0 343,170.31 m -5.09,6.13 a 0.22,0.22 0 0 1 -0.22,0.22 h -2.79 a 0.22,0.22 0 0 1 -0.23,-0.22 v -1.69 a 0.22,0.22 0 0 1 0.23,-0.22 h 2.78 a 0.22,0.22 0 0 1 0.22,0.22 z m 0,-3.12 a 0.22,0.22 0 0 1 -0.22,0.22 h -2.79 a 0.22,0.22 0 0 1 -0.23,-0.22 v -1.69 a 0.22,0.22 0 0 1 0.23,-0.22 h 2.78 a 0.22,0.22 0 0 1 0.22,0.22 z m 4.25,3.12 a 0.22,0.22 0 0 1 -0.23,0.22 h -2.77 a 0.22,0.22 0 0 1 -0.23,-0.22 v -1.69 a 0.22,0.22 0 0 1 0.23,-0.22 h 2.77 a 0.22,0.22 0 0 1 0.23,0.22 z m 0,-3.12 a 0.22,0.22 0 0 1 -0.23,0.22 h -2.77 a 0.22,0.22 0 0 1 -0.23,-0.22 v -1.69 a 0.22,0.22 0 0 1 0.23,-0.22 h 2.77 a 0.22,0.22 0 0 1 0.23,0.22 z"
       id="path216" />
    <path
       class="cls-19"
       d="m 321.38,148.51 h -9.1 a 0.23,0.23 0 0 0 -0.23,0.23 v 31.1 a 0.22,0.22 0 0 0 0.23,0.22 h 9.1 a 0.22,0.22 0 0 0 0.22,-0.22 v -31.1 a 0.22,0.22 0 0 0 -0.22,-0.23 m -5.42,28 a 0.12,0.12 0 0 1 -0.12,0.12 h -2.08 a 0.12,0.12 0 0 1 -0.12,-0.12 v -2.33 a 0.11,0.11 0 0 1 0.12,-0.11 h 2.08 a 0.11,0.11 0 0 1 0.12,0.11 z m 0,-5.34 a 0.12,0.12 0 0 1 -0.12,0.12 h -2.08 a 0.12,0.12 0 0 1 -0.12,-0.12 v -2.32 a 0.12,0.12 0 0 1 0.12,-0.12 h 2.08 a 0.12,0.12 0 0 1 0.12,0.12 z m 0,-5.33 a 0.12,0.12 0 0 1 -0.12,0.12 h -2.08 a 0.12,0.12 0 0 1 -0.12,-0.12 v -2.32 a 0.12,0.12 0 0 1 0.12,-0.12 h 2.08 a 0.12,0.12 0 0 1 0.12,0.12 z m 0,-5.33 a 0.12,0.12 0 0 1 -0.12,0.12 h -2.08 a 0.12,0.12 0 0 1 -0.12,-0.12 v -2.31 a 0.12,0.12 0 0 1 0.12,-0.12 h 2.08 a 0.12,0.12 0 0 1 0.12,0.12 z m 0,-5.33 a 0.12,0.12 0 0 1 -0.12,0.12 h -2.08 a 0.12,0.12 0 0 1 -0.12,-0.12 v -2.33 a 0.12,0.12 0 0 1 0.12,-0.12 h 2.08 a 0.12,0.12 0 0 1 0.12,0.12 z m 4.09,21.33 a 0.12,0.12 0 0 1 -0.12,0.12 h -2.08 a 0.12,0.12 0 0 1 -0.12,-0.12 v -2.33 a 0.11,0.11 0 0 1 0.12,-0.11 h 2.08 a 0.11,0.11 0 0 1 0.12,0.11 z m 0,-5.34 a 0.12,0.12 0 0 1 -0.12,0.12 h -2.08 a 0.12,0.12 0 0 1 -0.12,-0.12 v -2.32 a 0.12,0.12 0 0 1 0.12,-0.12 h 2.08 a 0.12,0.12 0 0 1 0.12,0.12 z m 0,-5.33 a 0.12,0.12 0 0 1 -0.12,0.12 h -2.08 a 0.12,0.12 0 0 1 -0.12,-0.12 v -2.32 a 0.12,0.12 0 0 1 0.12,-0.12 h 2.08 a 0.12,0.12 0 0 1 0.12,0.12 z m 0,-5.33 a 0.12,0.12 0 0 1 -0.12,0.12 h -2.08 a 0.12,0.12 0 0 1 -0.12,-0.12 v -2.31 a 0.12,0.12 0 0 1 0.12,-0.12 h 2.08 a 0.12,0.12 0 0 1 0.12,0.12 z m 0,-5.33 a 0.12,0.12 0 0 1 -0.12,0.12 h -2.08 a 0.12,0.12 0 0 1 -0.12,-0.12 v -2.33 a 0.12,0.12 0 0 1 0.12,-0.12 h 2.08 a 0.12,0.12 0 0 1 0.12,0.12 z"
       id="path217" />
    <rect
       class="cls-19"
       x="333.48001"
       y="167.31"
       width="9.7299995"
       height="2.25"
       rx="0.19"
       id="rect217" />
    <path
       class="cls-19"
       d="m 332.37,154.39 a 0.25,0.25 0 0 0 -0.23,-0.18 0.21,0.21 0 0 0 -0.13,0 v 0 l -0.07,0.09 -8.94,11.41 v 0 a 0.25,0.25 0 0 0 -0.08,0.18 v 13.94 a 0.23,0.23 0 0 0 0.23,0.23 h 9.09 a 0.22,0.22 0 0 0 0.22,-0.23 v -25.4 a 0.24,0.24 0 0 0 -0.09,-0.04 z m -3.77,6.16 0.07,-0.08 c 0.61,-0.79 1.64,-2.06 2.14,-2.67 l 0.07,-0.08 a 0.26,0.26 0 0 1 0.2,-0.1 0.27,0.27 0 0 1 0.25,0.21 v 2.87 a 0.26,0.26 0 0 1 -0.25,0.26 h -2.28 a 0.26,0.26 0 0 1 -0.25,-0.26 0.25,0.25 0 0 1 0.05,-0.15 z m -1.41,15.89 a 0.22,0.22 0 0 1 -0.23,0.22 h -2.71 a 0.22,0.22 0 0 1 -0.22,-0.22 v -1.7 a 0.22,0.22 0 0 1 0.22,-0.22 H 327 a 0.22,0.22 0 0 1 0.23,0.22 z m 0,-3.14 a 0.22,0.22 0 0 1 -0.23,0.22 h -2.71 a 0.22,0.22 0 0 1 -0.22,-0.22 v -1.7 a 0.22,0.22 0 0 1 0.22,-0.22 H 327 a 0.22,0.22 0 0 1 0.23,0.22 z m 0,-3.14 a 0.23,0.23 0 0 1 -0.23,0.23 h -2.71 a 0.22,0.22 0 0 1 -0.22,-0.23 v -1.69 a 0.22,0.22 0 0 1 0.22,-0.23 H 327 a 0.23,0.23 0 0 1 0.23,0.23 z m 0,-6.87 V 167 a 0.22,0.22 0 0 1 -0.22,0.22 h -2.71 A 0.22,0.22 0 0 1 324,167 v -0.47 a 0.19,0.19 0 0 1 0,-0.08 v 0 0 0 c 0.35,-0.49 1.91,-2.42 2.57,-3.22 l 0.07,-0.08 a 0.25,0.25 0 0 1 0.44,0.11 z m 4.14,13.15 a 0.22,0.22 0 0 1 -0.22,0.22 h -2.71 a 0.22,0.22 0 0 1 -0.22,-0.22 v -1.7 a 0.22,0.22 0 0 1 0.22,-0.22 h 2.71 a 0.22,0.22 0 0 1 0.22,0.22 z m 0,-3.14 a 0.22,0.22 0 0 1 -0.22,0.22 h -2.71 a 0.22,0.22 0 0 1 -0.22,-0.22 v -1.7 a 0.22,0.22 0 0 1 0.22,-0.22 h 2.71 a 0.22,0.22 0 0 1 0.22,0.22 z m 0,-3.14 a 0.22,0.22 0 0 1 -0.22,0.23 h -2.71 a 0.22,0.22 0 0 1 -0.22,-0.23 v -1.69 a 0.22,0.22 0 0 1 0.22,-0.23 h 2.71 a 0.22,0.22 0 0 1 0.22,0.23 z m 0,-3.13 a 0.22,0.22 0 0 1 -0.22,0.22 h -2.71 a 0.22,0.22 0 0 1 -0.22,-0.22 v -1.7 a 0.22,0.22 0 0 1 0.22,-0.22 h 2.71 a 0.22,0.22 0 0 1 0.22,0.22 z m 0,-3.14 a 0.22,0.22 0 0 1 -0.22,0.22 h -2.71 a 0.22,0.22 0 0 1 -0.22,-0.22 v -1.7 a 0.22,0.22 0 0 1 0.22,-0.22 h 2.71 a 0.22,0.22 0 0 1 0.22,0.22 z"
       id="path218" />
  </g>
</svg>
