<?xml version="1.0" encoding="UTF-8" standalone="no"?>
<svg
   id="SDGs"
   viewBox="0 0 61.93 61.929998"
   version="1.1"
   sodipodi:docname="sdg-2.svg"
   width="61.93"
   height="61.93"
   inkscape:version="1.3 (0e150ed6c4, 2023-07-21)"
   xmlns:inkscape="http://www.inkscape.org/namespaces/inkscape"
   xmlns:sodipodi="http://sodipodi.sourceforge.net/DTD/sodipodi-0.dtd"
   xmlns="http://www.w3.org/2000/svg"
   xmlns:svg="http://www.w3.org/2000/svg">
  <sodipodi:namedview
     id="namedview523"
     pagecolor="#505050"
     bordercolor="#eeeeee"
     borderopacity="1"
     inkscape:showpageshadow="0"
     inkscape:pageopacity="0"
     inkscape:pagecheckerboard="0"
     inkscape:deskcolor="#505050"
     inkscape:zoom="1.7804714"
     inkscape:cx="144.90545"
     inkscape:cy="93.514562"
     inkscape:window-width="1920"
     inkscape:window-height="1057"
     inkscape:window-x="0"
     inkscape:window-y="0"
     inkscape:window-maximized="1"
     inkscape:current-layer="SDGs" />
  <defs
     id="defs1">
    <style
       id="style1">.cls-1{fill:#f4f4f5;}.cls-2{fill:#5fbb46;}.cls-3{fill:#d19f2a;}.cls-4{fill:#c22033;}.cls-5{fill:#2d9a47;}.cls-6{fill:#48773c;}.cls-7{fill:#fdb714;}.cls-8{fill:#ef412a;}.cls-9{fill:#f99d25;}.cls-10{fill:#007dbb;}.cls-11{fill:#8f1838;}.cls-12{fill:#00add8;}.cls-13{fill:#f36e24;}.cls-14{fill:#ea1d2d;}.cls-15{fill:#e01a83;}.cls-16{fill:#1a3668;}.cls-17{fill:#cd8b2a;}.cls-18{fill:#00558a;}.cls-19{fill:#fff;}.cls-20{fill:#40ae49;}.cls-21{fill:#009edb;}</style>
  </defs>
  <g
     id="SDG2"
     transform="translate(-79.580002,-53.439999)">
    <rect
       class="cls-3"
       x="79.580002"
       y="53.439999"
       width="61.93"
       height="61.93"
       id="rect442" />
    <path
       class="cls-19"
       d="m 84.57,69.05 2.86,-4.42 0.17,-0.26 a 11.88,11.88 0 0 0 0.82,-1.4 2.91,2.91 0 0 0 0.26,-1.23 A 1.43,1.43 0 0 0 88.46,60.87 0.73,0.73 0 0 0 87.84,60.58 0.87,0.87 0 0 0 87,61 2.86,2.86 0 0 0 86.77,62.29 v 0.53 h -2.2 v -0.58 a 4.08,4.08 0 0 1 0.78,-2.63 2.93,2.93 0 0 1 2.44,-1 2.8,2.8 0 0 1 3.12,3.11 4,4 0 0 1 -0.2,1.26 6.25,6.25 0 0 1 -0.48,1.07 c -0.19,0.31 -0.48,0.75 -0.86,1.33 l -2.28,3.41 h 3.52 v 1.78 h -6 z"
       id="path443" />
    <path
       class="cls-19"
       d="m 95.72,62.8 1.21,-3.41 h -1.15 v -0.57 h 2 v 0.42 l -1.28,3.53 h 1.27 v 0.56 h -2 z"
       id="path444" />
    <path
       class="cls-19"
       d="m 98.21,58.82 h 1.9 V 59.4 H 99 v 1.3 h 0.85 v 0.57 H 99 v 1.5 h 1.09 v 0.56 h -1.88 z"
       id="path445" />
    <path
       class="cls-19"
       d="m 100.57,58.82 h 1.09 a 1.72,1.72 0 0 1 1.06,0.27 1.09,1.09 0 0 1 0.35,0.93 1.76,1.76 0 0 1 -0.12,0.7 0.75,0.75 0 0 1 -0.43,0.39 l 0.63,2.22 h -0.83 l -0.54,-2.07 h -0.39 v 2.07 h -0.82 z m 1.08,1.93 a 0.64,0.64 0 0 0 0.5,-0.16 0.76,0.76 0 0 0 0.15,-0.53 0.81,0.81 0 0 0 -0.13,-0.52 0.58,0.58 0 0 0 -0.47,-0.16 h -0.31 v 1.37 z"
       id="path446" />
    <path
       class="cls-19"
       d="m 103.9,63 a 1.74,1.74 0 0 1 -0.3,-1.1 v -1.7 a 1.66,1.66 0 0 1 0.3,-1.08 1.54,1.54 0 0 1 2,0 1.66,1.66 0 0 1 0.3,1.08 v 1.7 a 1.76,1.76 0 0 1 -0.3,1.1 1.22,1.22 0 0 1 -1,0.37 1.2,1.2 0 0 1 -1,-0.37 z m 1.37,-0.41 a 1.07,1.07 0 0 0 0.1,-0.5 V 60 a 1,1 0 0 0 -0.1,-0.49 0.38,0.38 0 0 0 -0.37,-0.17 0.39,0.39 0 0 0 -0.37,0.17 1.06,1.06 0 0 0 -0.1,0.49 v 2.08 a 1.07,1.07 0 0 0 0.1,0.5 0.47,0.47 0 0 0 0.74,0 z"
       id="path447" />
    <path
       class="cls-19"
       d="m 95.88,66.19 h 0.82 v 1.89 h 0.92 v -1.89 h 0.83 v 4.52 h -0.83 v -2 H 96.7 v 2 h -0.82 z"
       id="path448" />
    <path
       class="cls-19"
       d="m 99.58,70.59 a 0.91,0.91 0 0 1 -0.39,-0.51 2.45,2.45 0 0 1 -0.11,-0.83 v -3.06 h 0.8 v 3.15 a 1.58,1.58 0 0 0 0.09,0.6 0.44,0.44 0 0 0 0.76,0 1.58,1.58 0 0 0 0.09,-0.6 v -3.15 h 0.8 v 3.06 a 2.78,2.78 0 0 1 -0.11,0.83 1,1 0 0 1 -0.39,0.51 1.74,1.74 0 0 1 -1.54,0 z"
       id="path449" />
    <path
       class="cls-19"
       d="m 102.24,66.19 h 0.57 l 1.1,2.58 v -2.58 h 0.68 v 4.52 H 104 l -1.1,-2.7 v 2.7 h -0.7 z"
       id="path450" />
    <path
       class="cls-19"
       d="m 105.46,70.37 a 2,2 0 0 1 -0.28,-1.15 V 67.7 a 1.89,1.89 0 0 1 0.29,-1.16 1.12,1.12 0 0 1 1,-0.4 1.21,1.21 0 0 1 1,0.33 1.45,1.45 0 0 1 0.29,1 v 0.23 h -0.78 v -0.25 a 1.92,1.92 0 0 0 0,-0.39 0.4,0.4 0 0 0 -0.13,-0.23 0.51,0.51 0 0 0 -0.3,-0.08 0.45,0.45 0 0 0 -0.3,0.1 0.5,0.5 0 0 0 -0.13,0.26 2.29,2.29 0 0 0 0,0.41 v 1.88 a 1.21,1.21 0 0 0 0.1,0.57 0.48,0.48 0 0 0 0.77,0 1.19,1.19 0 0 0 0.11,-0.6 v -0.42 h -0.48 v -0.52 h 1.22 v 2.29 h -0.53 l -0.06,-0.44 a 0.76,0.76 0 0 1 -0.76,0.5 1,1 0 0 1 -1.03,-0.41 z"
       id="path451" />
    <path
       class="cls-19"
       d="m 108.34,66.19 h 1.89 v 0.58 h -1.07 v 1.3 H 110 v 0.58 h -0.84 v 1.49 h 1.08 v 0.57 h -1.9 z"
       id="path452" />
    <path
       class="cls-19"
       d="m 110.69,66.19 h 1.09 a 1.76,1.76 0 0 1 1.07,0.27 1.12,1.12 0 0 1 0.35,0.93 1.56,1.56 0 0 1 -0.13,0.7 0.75,0.75 0 0 1 -0.43,0.39 l 0.63,2.23 h -0.83 l -0.54,-2.07 h -0.39 v 2.07 h -0.82 z m 1.09,1.94 a 0.65,0.65 0 0 0 0.49,-0.16 0.78,0.78 0 0 0 0.15,-0.53 0.79,0.79 0 0 0 -0.13,-0.52 0.57,0.57 0 0 0 -0.47,-0.16 h -0.31 v 1.37 z"
       id="path453" />
    <path
       class="cls-19"
       d="m 104.25,106.16 v 0.92 a 0.41,0.41 0 0 0 0.4,0.39 H 115 a 0.43,0.43 0 0 0 0.41,-0.41 v 0 -1 a 16,16 0 0 0 11,-12.28 V 93.69 A 0.41,0.41 0 0 0 126,93.28 H 93.3 a 0.41,0.41 0 0 0 -0.42,0.41 v 0.19 a 16,16 0 0 0 11.34,12.28"
       id="path454" />
    <path
       class="cls-19"
       d="m 115.35,79.32 c -0.14,0.19 -3.3,4.74 0.07,8.42 a 3.68,3.68 0 0 1 1,4.18 h 2.15 a 5.29,5.29 0 0 0 -1.49,-5.26 c -2.48,-2.71 0,-6.38 0.07,-6.44 a 0.8,0.8 0 0 0 -0.35,-1.2 1.14,1.14 0 0 0 -1.42,0.3"
       id="path455" />
    <path
       class="cls-19"
       d="M 109.88,91.92 H 112 a 5.32,5.32 0 0 0 -1.5,-5.26 c -2.48,-2.71 0,-6.38 0.07,-6.44 a 0.8,0.8 0 0 0 -0.35,-1.2 1.14,1.14 0 0 0 -1.42,0.3 c -0.14,0.19 -3.3,4.74 0.07,8.42 a 3.68,3.68 0 0 1 1,4.18"
       id="path456" />
    <path
       class="cls-19"
       d="m 102.33,79.32 c -0.14,0.19 -3.3,4.74 0.07,8.42 a 3.68,3.68 0 0 1 1,4.18 h 2.16 a 5.28,5.28 0 0 0 -1.5,-5.26 c -2.48,-2.71 0,-6.38 0.07,-6.44 a 0.8,0.8 0 0 0 -0.35,-1.2 1.14,1.14 0 0 0 -1.42,0.3"
       id="path457" />
  </g>
</svg>
