<?xml version="1.0" encoding="UTF-8" standalone="no"?>
<svg
   id="SDGs"
   viewBox="0 0 62.060002 62.06"
   version="1.1"
   sodipodi:docname="sdg-14.svg"
   width="62.060001"
   height="62.060001"
   inkscape:version="1.3 (0e150ed6c4, 2023-07-21)"
   xmlns:inkscape="http://www.inkscape.org/namespaces/inkscape"
   xmlns:sodipodi="http://sodipodi.sourceforge.net/DTD/sodipodi-0.dtd"
   xmlns="http://www.w3.org/2000/svg"
   xmlns:svg="http://www.w3.org/2000/svg">
  <sodipodi:namedview
     id="namedview523"
     pagecolor="#505050"
     bordercolor="#eeeeee"
     borderopacity="1"
     inkscape:showpageshadow="0"
     inkscape:pageopacity="0"
     inkscape:pagecheckerboard="0"
     inkscape:deskcolor="#505050"
     inkscape:zoom="1.7804714"
     inkscape:cx="145.4671"
     inkscape:cy="-46.897693"
     inkscape:window-width="1920"
     inkscape:window-height="1057"
     inkscape:window-x="0"
     inkscape:window-y="0"
     inkscape:window-maximized="1"
     inkscape:current-layer="SDGs" />
  <defs
     id="defs1">
    <style
       id="style1">.cls-1{fill:#f4f4f5;}.cls-2{fill:#5fbb46;}.cls-3{fill:#d19f2a;}.cls-4{fill:#c22033;}.cls-5{fill:#2d9a47;}.cls-6{fill:#48773c;}.cls-7{fill:#fdb714;}.cls-8{fill:#ef412a;}.cls-9{fill:#f99d25;}.cls-10{fill:#007dbb;}.cls-11{fill:#8f1838;}.cls-12{fill:#00add8;}.cls-13{fill:#f36e24;}.cls-14{fill:#ea1d2d;}.cls-15{fill:#e01a83;}.cls-16{fill:#1a3668;}.cls-17{fill:#cd8b2a;}.cls-18{fill:#00558a;}.cls-19{fill:#fff;}.cls-20{fill:#40ae49;}.cls-21{fill:#009edb;}</style>
  </defs>
  <g
     id="SDG14"
     transform="translate(-79.309998,-194.41)">
    <rect
       class="cls-10"
       x="79.309998"
       y="194.41"
       width="62.060001"
       height="62.060001"
       id="rect107" />
    <path
       class="cls-19"
       d="m 84.63,202.14 a 8.65,8.65 0 0 1 -0.93,0.37 c -0.41,0.13 -0.67,0.23 -0.78,0.27 v -1.68 a 8.5,8.5 0 0 0 1.21,-0.58 3.8,3.8 0 0 0 1,-0.72 h 1.77 v 11.84 h -2.27 z"
       id="path108" />
    <path
       class="cls-19"
       d="m 91.46,208.83 h -3.57 v -1.78 L 91,199.8 h 2.5 v 7.32 h 1.18 v 1.71 H 93.5 v 2.81 h -2 z m 0,-1.71 v -5 l -1.8,5 z"
       id="path109" />
    <path
       class="cls-19"
       d="M 99.15,204.32 V 199.8 H 100 v 3.95 h 1.1 v 0.57 z"
       id="path110" />
    <path
       class="cls-19"
       d="m 101.33,204.32 v -4.52 h 0.82 v 4.52 z"
       id="path111" />
    <path
       class="cls-19"
       d="m 102.68,204.32 v -4.52 h 1.86 v 0.57 h -1 v 1.31 h 0.85 v 0.58 h -0.85 v 2.06 z"
       id="path112" />
    <path
       class="cls-19"
       d="m 104.8,204.32 v -4.52 h 1.9 v 0.58 h -1.07 v 1.3 h 0.84 v 0.57 h -0.84 v 1.5 h 1.08 v 0.57 z"
       id="path113" />
    <path
       class="cls-19"
       d="m 99.15,211.71 v -4.52 h 1.11 a 2.26,2.26 0 0 1 0.54,0.05 1.15,1.15 0 0 1 0.42,0.19 0.79,0.79 0 0 1 0.27,0.35 1.35,1.35 0 0 1 0.1,0.57 1.32,1.32 0 0 1 -0.08,0.47 0.7,0.7 0 0 1 -0.22,0.31 1,1 0 0 1 -0.36,0.15 0.88,0.88 0 0 1 0.44,0.19 0.76,0.76 0 0 1 0.26,0.37 1.51,1.51 0 0 1 0.09,0.55 1.91,1.91 0 0 1 -0.08,0.57 1,1 0 0 1 -0.24,0.42 1.09,1.09 0 0 1 -0.4,0.25 1.77,1.77 0 0 1 -0.55,0.08 z M 100,209 h 0.28 a 0.78,0.78 0 0 0 0.38,-0.07 0.41,0.41 0 0 0 0.19,-0.22 1.35,1.35 0 0 0 0.05,-0.38 0.64,0.64 0 0 0 -0.08,-0.37 0.37,0.37 0 0 0 -0.24,-0.18 1.61,1.61 0 0 0 -0.42,-0.05 H 100 Z m 0,2.1 h 0.32 a 0.58,0.58 0 0 0 0.5,-0.18 0.94,0.94 0 0 0 0.14,-0.56 1.15,1.15 0 0 0 -0.07,-0.45 0.44,0.44 0 0 0 -0.21,-0.25 0.75,0.75 0 0 0 -0.39,-0.09 H 100 Z"
       id="path114" />
    <path
       class="cls-19"
       d="m 102.09,211.71 v -4.52 H 104 v 0.58 h -1.07 v 1.3 h 0.84 v 0.57 h -0.84 v 1.5 H 104 v 0.57 z"
       id="path115" />
    <path
       class="cls-19"
       d="m 104.31,211.71 v -4.52 h 0.83 v 3.95 h 1.09 v 0.57 z"
       id="path116" />
    <path
       class="cls-19"
       d="m 107.67,211.77 a 1.44,1.44 0 0 1 -0.77,-0.18 1,1 0 0 1 -0.4,-0.51 2.11,2.11 0 0 1 -0.13,-0.79 v -1.7 a 2.06,2.06 0 0 1 0.13,-0.78 0.91,0.91 0 0 1 0.4,-0.5 1.44,1.44 0 0 1 0.77,-0.17 1.4,1.4 0 0 1 0.77,0.17 0.93,0.93 0 0 1 0.41,0.5 2.27,2.27 0 0 1 0.13,0.78 v 1.7 a 2.38,2.38 0 0 1 -0.13,0.79 1,1 0 0 1 -0.41,0.51 1.39,1.39 0 0 1 -0.77,0.18 z m 0,-0.61 a 0.41,0.41 0 0 0 0.3,-0.09 0.48,0.48 0 0 0 0.14,-0.24 1.87,1.87 0 0 0 0,-0.34 v -2.09 a 1.79,1.79 0 0 0 0,-0.34 0.41,0.41 0 0 0 -0.44,-0.32 0.45,0.45 0 0 0 -0.3,0.09 0.4,0.4 0 0 0 -0.13,0.23 1.79,1.79 0 0 0 0,0.34 v 2.09 a 1.87,1.87 0 0 0 0,0.34 0.41,0.41 0 0 0 0.13,0.24 0.45,0.45 0 0 0 0.3,0.09 z"
       id="path117" />
    <path
       class="cls-19"
       d="m 109.89,211.71 -0.64,-4.52 h 0.69 l 0.38,2.93 0.47,-2.92 h 0.56 l 0.48,2.92 0.37,-2.93 h 0.68 l -0.63,4.52 h -0.67 l -0.5,-3 -0.5,3 z"
       id="path118" />
    <path
       class="cls-19"
       d="m 114.88,211.71 -0.64,-4.52 h 0.69 l 0.37,2.93 0.47,-2.92 h 0.57 l 0.48,2.92 0.37,-2.93 h 0.68 l -0.63,4.52 h -0.67 l -0.51,-3 -0.49,3 z"
       id="path119" />
    <path
       class="cls-19"
       d="m 117.85,211.71 0.9,-4.52 h 0.88 l 0.91,4.52 h -0.77 l -0.18,-1 h -0.78 l -0.19,1 z m 1,-1.57 h 0.62 l -0.31,-1.9 z"
       id="path120" />
    <path
       class="cls-19"
       d="m 121.06,211.71 v -3.92 h -0.72 v -0.6 h 2.26 v 0.6 h -0.71 v 3.92 z"
       id="path121" />
    <path
       class="cls-19"
       d="m 122.85,211.71 v -4.52 h 1.89 v 0.58 h -1.07 v 1.3 h 0.85 v 0.57 h -0.85 v 1.5 h 1.09 v 0.57 z"
       id="path122" />
    <path
       class="cls-19"
       d="m 125.07,211.71 v -4.52 h 1.08 a 2.51,2.51 0 0 1 0.78,0.1 0.92,0.92 0 0 1 0.48,0.38 1.31,1.31 0 0 1 0.16,0.71 2.38,2.38 0 0 1 0,0.49 0.84,0.84 0 0 1 -0.17,0.37 0.68,0.68 0 0 1 -0.33,0.24 l 0.63,2.23 h -0.83 l -0.55,-2.07 h -0.37 v 2.07 z m 0.83,-2.59 h 0.25 a 0.81,0.81 0 0 0 0.38,-0.07 0.41,0.41 0 0 0 0.21,-0.22 1.16,1.16 0 0 0 0.06,-0.4 0.8,0.8 0 0 0 -0.13,-0.51 0.56,0.56 0 0 0 -0.47,-0.17 h -0.3 z"
       id="path123" />
    <path
       class="cls-19"
       d="m 127,239.75 c -0.78,-1.06 -5.85,-7.52 -13,-7.52 -6.17,0 -12.77,5.6 -12.77,5.6 0,0 -2.48,-5.08 -7.55,-5.57 h -0.13 a 0.21,0.21 0 0 0 -0.2,0.2 0.63,0.63 0 0 0 0.08,0.18 12.49,12.49 0 0 1 0,14.53 v 0.07 a 0.21,0.21 0 0 0 0,0.11 0.21,0.21 0 0 0 0.19,0.2 h 0.11 c 5.09,-0.48 7.58,-5.57 7.58,-5.57 0,0 6.6,5.6 12.77,5.6 7.1,0 12.17,-6.46 13,-7.52 l 0.06,-0.07 a 0.17,0.17 0 0 0 0,-0.16 l -0.06,-0.07 m -9,1 a 2.08,2.08 0 1 1 2.07,-2.08 2.08,2.08 0 0 1 -2.07,2.08"
       id="path124" />
    <path
       class="cls-19"
       d="m 100.84,226.44 v -0.06 a 0.28,0.28 0 0 1 0.12,0 0.2,0.2 0 0 1 0.14,0.06 v 0 c 3.88,3.69 7.94,0.7 8.79,0 l 0.08,-0.08 h 0.16 l 0.08,0.08 c 0.85,0.7 4.91,3.69 8.78,0 v 0 a 0.18,0.18 0 0 1 0.14,-0.06 0.21,0.21 0 0 1 0.11,0 0.34,0.34 0 0 1 0.06,0.06 c 0.75,0.74 4,3.53 7.43,0.55 a 0.25,0.25 0 0 0 0.06,-0.15 v -1.41 a 0.21,0.21 0 0 0 -0.21,-0.21 v 0 l -0.1,0.05 a 6.24,6.24 0 0 1 -7.3,-1 l -0.09,-0.08 a 0.11,0.11 0 0 0 -0.08,0 H 119 a 0.18,0.18 0 0 0 -0.11,0.08 c -0.88,0.67 -5,3.42 -8.56,0.05 l -0.06,-0.05 a 0.18,0.18 0 0 0 -0.14,-0.06 0.17,0.17 0 0 0 -0.14,0.06 l -0.06,0.05 c -3.62,3.37 -7.68,0.62 -8.57,-0.05 a 0.14,0.14 0 0 0 -0.1,-0.08 h -0.06 a 0.15,0.15 0 0 0 -0.09,0 l -0.09,0.08 a 6.23,6.23 0 0 1 -7.29,1 l -0.1,-0.05 v 0 a 0.21,0.21 0 0 0 -0.21,0.21 v 1.41 a 0.2,0.2 0 0 0 0.06,0.15 c 3.43,3 6.68,0.19 7.43,-0.55"
       id="path125" />
    <path
       class="cls-19"
       d="m 93.6,220.08 v 0 a 0.2,0.2 0 0 0 -0.21,0.2 v 1.42 a 0.17,0.17 0 0 0 0.06,0.14 c 3.43,3 6.68,0.19 7.43,-0.55 v -0.06 a 0.24,0.24 0 0 1 0.12,0 0.19,0.19 0 0 1 0.13,0.05 v 0 c 3.88,3.7 7.94,0.7 8.79,0 l 0.08,-0.07 a 0.11,0.11 0 0 1 0.08,0 0.12,0.12 0 0 1 0.08,0 l 0.08,0.07 c 0.85,0.7 4.91,3.7 8.78,0 v 0 a 0.22,0.22 0 0 1 0.14,-0.05 0.2,0.2 0 0 1 0.11,0 l 0.06,0.06 c 0.75,0.74 4,3.53 7.43,0.55 a 0.2,0.2 0 0 0 0,-0.14 v -1.42 a 0.19,0.19 0 0 0 -0.2,-0.2 v 0 l -0.1,0.06 a 6.25,6.25 0 0 1 -7.3,-1 l -0.09,-0.08 h -0.08 0.01 a 0.31,0.31 0 0 0 -0.11,0.08 c -0.88,0.68 -5,3.43 -8.56,0.05 l -0.06,-0.05 a 0.22,0.22 0 0 0 -0.14,-0.06 0.2,0.2 0 0 0 -0.14,0.06 l -0.06,0.05 c -3.62,3.38 -7.68,0.63 -8.57,-0.05 a 0.21,0.21 0 0 0 -0.1,-0.08 h -0.06 -0.09 l -0.08,0.08 a 6.25,6.25 0 0 1 -7.3,1 l -0.1,-0.06"
       id="path126" />
  </g>
</svg>
