<?xml version="1.0" encoding="UTF-8" standalone="no"?>
<svg
   id="SDGs"
   viewBox="0 0 61.93 61.929998"
   version="1.1"
   sodipodi:docname="sdg-4.svg"
   width="61.93"
   height="61.93"
   inkscape:version="1.3 (0e150ed6c4, 2023-07-21)"
   xmlns:inkscape="http://www.inkscape.org/namespaces/inkscape"
   xmlns:sodipodi="http://sodipodi.sourceforge.net/DTD/sodipodi-0.dtd"
   xmlns="http://www.w3.org/2000/svg"
   xmlns:svg="http://www.w3.org/2000/svg">
  <sodipodi:namedview
     id="namedview523"
     pagecolor="#505050"
     bordercolor="#eeeeee"
     borderopacity="1"
     inkscape:showpageshadow="0"
     inkscape:pageopacity="0"
     inkscape:pagecheckerboard="0"
     inkscape:deskcolor="#505050"
     inkscape:zoom="1.7804714"
     inkscape:cx="4.4931922"
     inkscape:cy="93.514562"
     inkscape:window-width="1920"
     inkscape:window-height="1057"
     inkscape:window-x="0"
     inkscape:window-y="0"
     inkscape:window-maximized="1"
     inkscape:current-layer="SDGs" />
  <defs
     id="defs1">
    <style
       id="style1">.cls-1{fill:#f4f4f5;}.cls-2{fill:#5fbb46;}.cls-3{fill:#d19f2a;}.cls-4{fill:#c22033;}.cls-5{fill:#2d9a47;}.cls-6{fill:#48773c;}.cls-7{fill:#fdb714;}.cls-8{fill:#ef412a;}.cls-9{fill:#f99d25;}.cls-10{fill:#007dbb;}.cls-11{fill:#8f1838;}.cls-12{fill:#00add8;}.cls-13{fill:#f36e24;}.cls-14{fill:#ea1d2d;}.cls-15{fill:#e01a83;}.cls-16{fill:#1a3668;}.cls-17{fill:#cd8b2a;}.cls-18{fill:#00558a;}.cls-19{fill:#fff;}.cls-20{fill:#40ae49;}.cls-21{fill:#009edb;}</style>
  </defs>
  <g
     id="SDG4"
     transform="translate(-219.99001,-53.439999)">
    <rect
       class="cls-4"
       x="219.99001"
       y="53.439999"
       width="61.93"
       height="61.93"
       id="rect396" />
    <path
       class="cls-19"
       d="m 228.28,67.84 h -3.56 v -1.78 l 3.08,-7.23 h 2.52 v 7.3 h 1.18 v 1.71 h -1.18 v 2.8 h -2 z m 0,-1.71 v -5 l -1.8,5 z"
       id="path397" />
    <path
       class="cls-19"
       d="m 238,63.9 a 3.88,3.88 0 0 1 -0.43,-0.51 h -0.09 a 1.23,1.23 0 0 1 -1,-0.38 1.74,1.74 0 0 1 -0.3,-1.1 v -1.7 a 1.66,1.66 0 0 1 0.3,-1.08 1.22,1.22 0 0 1 1,-0.37 1.19,1.19 0 0 1 1,0.37 1.6,1.6 0 0 1 0.31,1.08 v 1.7 a 1.33,1.33 0 0 1 -0.63,1.34 2.4,2.4 0 0 0 0.45,0.43 l -0.15,0.55 A 1.77,1.77 0 0 1 238,63.9 Z m -0.15,-1.29 a 1.07,1.07 0 0 0 0.1,-0.5 V 60 a 1.06,1.06 0 0 0 -0.1,-0.49 0.39,0.39 0 0 0 -0.37,-0.17 0.41,0.41 0 0 0 -0.38,0.17 1.07,1.07 0 0 0 -0.09,0.49 v 2.08 a 1.16,1.16 0 0 0 0.09,0.51 0.41,0.41 0 0 0 0.38,0.17 0.38,0.38 0 0 0 0.41,-0.15 z"
       id="path398" />
    <path
       class="cls-19"
       d="m 239.87,63.22 a 0.91,0.91 0 0 1 -0.39,-0.51 2.52,2.52 0 0 1 -0.11,-0.84 v -3 h 0.8 V 62 a 1.58,1.58 0 0 0 0.09,0.6 0.45,0.45 0 0 0 0.76,0 1.58,1.58 0 0 0 0.09,-0.6 v -3.18 h 0.8 v 3 a 2.8,2.8 0 0 1 -0.11,0.84 1,1 0 0 1 -0.39,0.51 1.74,1.74 0 0 1 -1.54,0 z"
       id="path399" />
    <path
       class="cls-19"
       d="m 243.2,58.82 h 0.88 l 0.91,4.51 h -0.77 l -0.18,-1 h -0.78 l -0.19,1 h -0.77 z m 0.75,3 -0.3,-1.9 -0.31,1.9 z"
       id="path400" />
    <path
       class="cls-19"
       d="m 245.41,58.82 h 0.82 v 4 h 1.1 v 0.56 h -1.92 z"
       id="path401" />
    <path
       class="cls-19"
       d="m 247.75,58.82 h 0.81 v 4.51 h -0.81 z"
       id="path402" />
    <path
       class="cls-19"
       d="m 249.67,59.43 h -0.75 v -0.61 h 2.31 v 0.61 h -0.74 v 3.9 h -0.82 z"
       id="path403" />
    <path
       class="cls-19"
       d="m 252.2,61.61 -0.92,-2.79 h 0.77 l 0.56,1.79 0.52,-1.79 h 0.76 L 253,61.61 v 1.72 h -0.78 z"
       id="path404" />
    <path
       class="cls-19"
       d="m 236.29,66.19 h 1.89 v 0.58 h -1.08 v 1.3 h 0.9 v 0.58 h -0.85 v 1.5 h 1.09 v 0.56 h -1.9 z"
       id="path405" />
    <path
       class="cls-19"
       d="m 238.64,66.19 h 1.07 a 2,2 0 0 1 0.86,0.15 0.92,0.92 0 0 1 0.44,0.45 2,2 0 0 1 0.13,0.81 v 1.64 a 2.16,2.16 0 0 1 -0.13,0.83 0.9,0.9 0 0 1 -0.44,0.48 1.75,1.75 0 0 1 -0.83,0.16 h -1.1 z m 1.08,3.94 a 0.66,0.66 0 0 0 0.39,-0.09 0.38,0.38 0 0 0 0.16,-0.26 3.3,3.3 0 0 0 0,-0.51 v -1.73 a 2.49,2.49 0 0 0 0,-0.45 0.4,0.4 0 0 0 -0.17,-0.24 0.77,0.77 0 0 0 -0.39,-0.07 h -0.25 v 3.35 z"
       id="path406" />
    <path
       class="cls-19"
       d="m 242.19,70.59 a 0.91,0.91 0 0 1 -0.39,-0.51 2.42,2.42 0 0 1 -0.11,-0.83 v -3.06 h 0.8 v 3.15 a 1.67,1.67 0 0 0 0.09,0.61 0.45,0.45 0 0 0 0.76,0 1.67,1.67 0 0 0 0.09,-0.61 v -3.15 h 0.8 v 3.06 a 2.78,2.78 0 0 1 -0.11,0.83 1,1 0 0 1 -0.39,0.51 1.44,1.44 0 0 1 -0.77,0.18 1.39,1.39 0 0 1 -0.77,-0.18 z"
       id="path407" />
    <path
       class="cls-19"
       d="m 245.07,70.38 a 1.81,1.81 0 0 1 -0.3,-1.11 v -1.62 a 1.85,1.85 0 0 1 0.29,-1.12 1.18,1.18 0 0 1 1,-0.39 1.17,1.17 0 0 1 0.94,0.34 1.43,1.43 0 0 1 0.28,1 v 0.38 h -0.79 v -0.39 a 3.26,3.26 0 0 0 0,-0.37 0.37,0.37 0 0 0 -0.12,-0.23 0.38,0.38 0 0 0 -0.28,-0.08 0.41,0.41 0 0 0 -0.3,0.09 0.41,0.41 0 0 0 -0.13,0.24 1.54,1.54 0 0 0 0,0.4 v 2 a 1.22,1.22 0 0 0 0.1,0.55 0.38,0.38 0 0 0 0.37,0.17 0.39,0.39 0 0 0 0.28,-0.09 0.42,0.42 0 0 0 0.12,-0.23 3.9,3.9 0 0 0 0,-0.4 V 69 h 0.79 v 0.36 a 1.66,1.66 0 0 1 -0.27,1 1.12,1.12 0 0 1 -0.95,0.36 1.15,1.15 0 0 1 -1.03,-0.34 z"
       id="path408" />
    <path
       class="cls-19"
       d="m 248.5,66.19 h 0.88 l 0.91,4.52 h -0.77 l -0.18,-1 h -0.78 l -0.19,1 h -0.77 z m 0.76,3 -0.26,-1.94 -0.31,1.89 z"
       id="path409" />
    <path
       class="cls-19"
       d="m 251,66.8 h -0.76 v -0.61 h 2.32 v 0.61 h -0.75 v 3.91 H 251 Z"
       id="path410" />
    <path
       class="cls-19"
       d="m 252.92,66.19 h 0.82 v 4.52 h -0.82 z"
       id="path411" />
    <path
       class="cls-19"
       d="m 254.63,70.39 a 1.72,1.72 0 0 1 -0.3,-1.1 V 67.6 a 1.71,1.71 0 0 1 0.3,-1.09 1.26,1.26 0 0 1 1,-0.37 1.22,1.22 0 0 1 1,0.37 1.65,1.65 0 0 1 0.31,1.09 v 1.69 a 1.74,1.74 0 0 1 -0.31,1.1 1.2,1.2 0 0 1 -1,0.38 1.23,1.23 0 0 1 -1,-0.38 z M 256,70 a 1.12,1.12 0 0 0 0.09,-0.5 v -2.09 a 1.09,1.09 0 0 0 -0.09,-0.5 0.51,0.51 0 0 0 -0.75,0 1,1 0 0 0 -0.09,0.49 v 2.08 a 1.12,1.12 0 0 0 0.09,0.5 0.39,0.39 0 0 0 0.38,0.17 A 0.38,0.38 0 0 0 256,70 Z"
       id="path412" />
    <path
       class="cls-19"
       d="m 257.52,66.19 h 0.57 l 1.1,2.58 v -2.58 h 0.68 v 4.52 h -0.55 l -1.1,-2.7 v 2.7 h -0.7 z"
       id="path413" />
    <polygon
       class="cls-19"
       points="236.28,101.06 247.43,104.42 247.43,86.66 236.28,80.21 "
       id="polygon413" />
    <polygon
       class="cls-19"
       points="259.89,101.05 259.89,80.21 248.66,86.7 248.66,104.43 "
       id="polygon414" />
    <polygon
       class="cls-19"
       points="268.65,82.14 268.32,82.14 267.99,82.14 267.64,82.14 266.99,82.14 266.66,82.14 266.34,82.14 266.01,82.14 266.01,100.69 266.34,100.69 266.01,100.69 267.33,105.3 268.65,100.69 268.32,100.69 268.65,100.69 "
       id="polygon415" />
    <polygon
       class="cls-19"
       points="247.43,105.63 235.09,102.18 235.09,80.16 233.89,81.11 233.89,103.02 247.38,106.75 248.01,106.75 248.12,106.75 248.75,106.75 261.19,102.8 262.29,102.48 262.29,81.11 261.09,80.16 261.09,101.62 248.69,105.63 248.12,105.63 248.01,105.63 "
       id="polygon416" />
    <path
       class="cls-19"
       d="m 268.65,79.69 a 1.32,1.32 0 0 0 -2.64,0 v 1.42 h 2.64 z"
       id="path416" />
  </g>
</svg>
