<?xml version="1.0" encoding="UTF-8" standalone="no"?>
<svg
   id="SDGs"
   viewBox="0 0 62.07 62.069998"
   version="1.1"
   sodipodi:docname="sdg-15.svg"
   width="62.07"
   height="62.07"
   inkscape:version="1.3 (0e150ed6c4, 2023-07-21)"
   xmlns:inkscape="http://www.inkscape.org/namespaces/inkscape"
   xmlns:sodipodi="http://sodipodi.sourceforge.net/DTD/sodipodi-0.dtd"
   xmlns="http://www.w3.org/2000/svg"
   xmlns:svg="http://www.w3.org/2000/svg">
  <sodipodi:namedview
     id="namedview523"
     pagecolor="#505050"
     bordercolor="#eeeeee"
     borderopacity="1"
     inkscape:showpageshadow="0"
     inkscape:pageopacity="0"
     inkscape:pagecheckerboard="0"
     inkscape:deskcolor="#505050"
     inkscape:zoom="1.7804714"
     inkscape:cx="75.260969"
     inkscape:cy="-46.897693"
     inkscape:window-width="1920"
     inkscape:window-height="1057"
     inkscape:window-x="0"
     inkscape:window-y="0"
     inkscape:window-maximized="1"
     inkscape:current-layer="SDGs" />
  <defs
     id="defs1">
    <style
       id="style1">.cls-1{fill:#f4f4f5;}.cls-2{fill:#5fbb46;}.cls-3{fill:#d19f2a;}.cls-4{fill:#c22033;}.cls-5{fill:#2d9a47;}.cls-6{fill:#48773c;}.cls-7{fill:#fdb714;}.cls-8{fill:#ef412a;}.cls-9{fill:#f99d25;}.cls-10{fill:#007dbb;}.cls-11{fill:#8f1838;}.cls-12{fill:#00add8;}.cls-13{fill:#f36e24;}.cls-14{fill:#ea1d2d;}.cls-15{fill:#e01a83;}.cls-16{fill:#1a3668;}.cls-17{fill:#cd8b2a;}.cls-18{fill:#00558a;}.cls-19{fill:#fff;}.cls-20{fill:#40ae49;}.cls-21{fill:#009edb;}</style>
  </defs>
  <g
     id="SDG15"
     transform="translate(-149.64999,-194.39999)">
    <rect
       class="cls-20"
       x="149.64999"
       y="194.39999"
       width="62.07"
       height="62.07"
       id="rect89" />
    <path
       class="cls-19"
       d="m 154.94,202.14 c -0.1,0.05 -0.42,0.18 -0.93,0.36 -0.51,0.18 -0.67,0.23 -0.78,0.28 v -1.68 a 9.28,9.28 0 0 0 1.21,-0.59 4.26,4.26 0 0 0 1,-0.71 h 1.77 v 11.83 h -2.27 z"
       id="path90" />
    <path
       class="cls-19"
       d="m 159.68,211.39 a 2.11,2.11 0 0 1 -0.92,-1.22 6.47,6.47 0 0 1 -0.25,-2 h 2.19 a 4.08,4.08 0 0 0 0.19,1.48 0.85,0.85 0 0 0 1.39,0.17 1.68,1.68 0 0 0 0.25,-0.8 13.62,13.62 0 0 0 0.05,-1.45 5,5 0 0 0 -0.19,-1.61 0.78,0.78 0 0 0 -0.81,-0.54 c -0.53,0 -0.87,0.36 -1,1.07 h -1.95 l 0.17,-6.72 h 5.45 v 1.94 h -3.6 l -0.13,2.62 a 1.5,1.5 0 0 1 0.7,-0.42 3.38,3.38 0 0 1 1.07,-0.17 2,2 0 0 1 1.82,1 5.16,5.16 0 0 1 0.62,2.75 9,9 0 0 1 -0.25,2.33 2.68,2.68 0 0 1 -0.94,1.46 3.19,3.19 0 0 1 -2,0.53 3.41,3.41 0 0 1 -1.86,-0.42 z"
       id="path91" />
    <path
       class="cls-19"
       d="m 169.46,204.31 v -4.52 h 0.83 v 4 h 1.09 v 0.57 z"
       id="path92" />
    <path
       class="cls-19"
       d="m 171.64,204.31 v -4.52 h 0.82 v 4.52 z"
       id="path93" />
    <path
       class="cls-19"
       d="m 173,204.31 v -4.52 h 1.86 v 0.57 h -1 v 1.32 h 0.84 v 0.57 h -0.84 v 2.06 z"
       id="path94" />
    <path
       class="cls-19"
       d="m 175.11,204.31 v -4.52 H 177 v 0.58 h -1.07 v 1.3 h 0.84 v 0.58 h -0.84 v 1.49 H 177 v 0.57 z"
       id="path95" />
    <path
       class="cls-19"
       d="m 170.69,211.77 a 1.44,1.44 0 0 1 -0.77,-0.18 1,1 0 0 1 -0.41,-0.52 2.3,2.3 0 0 1 -0.12,-0.79 v -1.69 a 2.3,2.3 0 0 1 0.12,-0.79 1.06,1.06 0 0 1 0.41,-0.5 1.54,1.54 0 0 1 0.77,-0.17 1.52,1.52 0 0 1 0.77,0.17 1,1 0 0 1 0.41,0.5 2.29,2.29 0 0 1 0.13,0.79 v 1.7 a 2.27,2.27 0 0 1 -0.13,0.78 1,1 0 0 1 -0.41,0.52 1.42,1.42 0 0 1 -0.77,0.18 z m 0,-0.61 a 0.41,0.41 0 0 0 0.3,-0.09 0.4,0.4 0 0 0 0.13,-0.25 1.18,1.18 0 0 0 0,-0.34 v -2.08 a 1.18,1.18 0 0 0 0,-0.34 0.41,0.41 0 0 0 -0.13,-0.24 0.41,0.41 0 0 0 -0.3,-0.09 0.45,0.45 0 0 0 -0.3,0.09 0.41,0.41 0 0 0 -0.13,0.24 1.67,1.67 0 0 0 0,0.34 v 2.08 a 1.18,1.18 0 0 0 0,0.34 0.4,0.4 0 0 0 0.13,0.25 0.41,0.41 0 0 0 0.3,0.09 z"
       id="path96" />
    <path
       class="cls-19"
       d="m 172.44,211.71 v -4.53 H 173 l 1.1,2.58 v -2.58 h 0.68 v 4.53 h -0.54 l -1.1,-2.71 v 2.71 z"
       id="path97" />
    <path
       class="cls-19"
       d="m 176.5,211.71 v -4.53 h 0.83 v 4 h 1.1 v 0.57 z"
       id="path98" />
    <path
       class="cls-19"
       d="m 178.46,211.71 0.9,-4.53 h 0.89 l 0.9,4.53 h -0.76 l -0.18,-1.05 h -0.79 l -0.18,1.05 z m 1,-1.57 h 0.62 l -0.31,-1.9 z"
       id="path99" />
    <path
       class="cls-19"
       d="m 181.42,211.71 v -4.53 H 182 l 1.1,2.58 v -2.58 h 0.68 v 4.53 h -0.54 L 182.12,209 v 2.71 z"
       id="path100" />
    <path
       class="cls-19"
       d="m 184.29,211.71 v -4.53 h 1.07 a 2,2 0 0 1 0.86,0.15 0.84,0.84 0 0 1 0.44,0.47 2,2 0 0 1 0.14,0.79 v 1.65 a 2.16,2.16 0 0 1 -0.14,0.82 0.9,0.9 0 0 1 -0.43,0.49 1.9,1.9 0 0 1 -0.84,0.16 z m 0.83,-0.58 h 0.25 a 0.63,0.63 0 0 0 0.41,-0.1 0.45,0.45 0 0 0 0.15,-0.29 3.23,3.23 0 0 0 0,-0.48 v -1.73 a 2.45,2.45 0 0 0 0,-0.44 0.38,0.38 0 0 0 -0.16,-0.24 0.73,0.73 0 0 0 -0.4,-0.08 h -0.24 z"
       id="path101" />
    <rect
       class="cls-19"
       x="173.35001"
       y="236.42"
       width="2.1099999"
       height="4.8200002"
       rx="0.14"
       id="rect101" />
    <path
       class="cls-19"
       d="m 195.51,243.18 h -30.28 a 0.15,0.15 0 0 0 -0.14,0.15 v 1.85 a 0.13,0.13 0 0 0 0.14,0.13 h 30.28 a 0.14,0.14 0 0 0 0.14,-0.13 v -1.85 a 0.15,0.15 0 0 0 -0.14,-0.15"
       id="path102" />
    <path
       class="cls-19"
       d="m 195.51,246.86 h -30.28 a 0.14,0.14 0 0 0 -0.14,0.14 v 1.86 a 0.13,0.13 0 0 0 0.14,0.13 h 30.28 a 0.14,0.14 0 0 0 0.14,-0.13 V 247 a 0.14,0.14 0 0 0 -0.14,-0.14"
       id="path103" />
    <path
       class="cls-19"
       d="m 189.75,231.39 a 4.53,4.53 0 0 0 -2.62,-1 3.48,3.48 0 0 0 -2.43,1 0.25,0.25 0 0 0 -0.09,0.19 v 0.16 a 0.27,0.27 0 0 0 0.09,0.21 0.24,0.24 0 0 0 0.21,0.05 H 185 a 0.4,0.4 0 0 0 0.15,-0.1 2.42,2.42 0 0 1 1.22,-0.25 4.6,4.6 0 0 1 3.12,1.3 v 0 a 0.39,0.39 0 0 0 0.27,0.11 A 0.34,0.34 0 0 0 190,233 v 0 a 4.57,4.57 0 0 1 3.12,-1.31 2.42,2.42 0 0 1 1.22,0.25 0.4,0.4 0 0 0 0.17,0.1 0.29,0.29 0 0 0 0.17,0 0.26,0.26 0 0 0 0.19,-0.25 v -0.15 a 0.27,0.27 0 0 0 -0.08,-0.19 3.52,3.52 0 0 0 -2.46,-1.06 4.42,4.42 0 0 0 -2.61,1"
       id="path104" />
    <path
       class="cls-19"
       d="m 187.87,219.32 a 0.23,0.23 0 0 0 -0.13,0.16 v 0.1 a 0.3,0.3 0 0 0 0,0.23 0.26,0.26 0 0 0 0.19,0.1 v 0 a 0.4,0.4 0 0 0 0.15,0 0.53,0.53 0 0 1 0.18,0 2.61,2.61 0 0 1 2.16,1.41 v 0 a 0.33,0.33 0 0 0 0.2,0.15 h 0.09 a 0.38,0.38 0 0 0 0.16,0 v 0 a 3,3 0 0 1 1.35,-0.33 2.08,2.08 0 0 1 1.38,0.44 0.35,0.35 0 0 0 0.1,0.11 l 0.1,0.05 h 0.07 a 0.27,0.27 0 0 0 0.12,0 0.26,0.26 0 0 0 0.13,-0.16 v -0.09 a 0.15,0.15 0 0 0 0,-0.07 0.28,0.28 0 0 0 0,-0.13 2.27,2.27 0 0 0 -2.05,-1.23 3.11,3.11 0 0 0 -1.09,0.2 2.66,2.66 0 0 0 -1.98,-1.26 2.51,2.51 0 0 0 -1.13,0.28"
       id="path105" />
    <path
       class="cls-19"
       d="m 181.47,224 v 0.14 a 0.26,0.26 0 0 0 0.32,0.23 v 0 a 0.41,0.41 0 0 0 0.13,-0.1 2.24,2.24 0 0 1 1.15,-0.26 3.75,3.75 0 0 1 2.4,0.91 v 0 a 0.39,0.39 0 0 0 0.23,0.09 v 0 a 0.37,0.37 0 0 0 0.24,-0.12 v 0 a 3.64,3.64 0 0 1 2.66,-1.23 1.7,1.7 0 0 1 0.79,0.15 0.53,0.53 0 0 0 0.15,0.08 h 0.18 a 0.25,0.25 0 0 0 0.17,-0.26 v -0.12 a 0.23,0.23 0 0 0 -0.09,-0.18 2.94,2.94 0 0 0 -1.94,-0.76 3.59,3.59 0 0 0 -2.26,0.94 3.79,3.79 0 0 0 -2,-0.67 2.88,2.88 0 0 0 -2.15,1 0.26,0.26 0 0 0 -0.07,0.19"
       id="path106" />
    <path
       class="cls-19"
       d="m 166.14,226.41 a 3.29,3.29 0 0 1 3.29,-3.28 h 0.21 a 4.44,4.44 0 1 1 8.42,2.27 5,5 0 0 1 -1.08,9.81 h -6.63 v 0 a 3.51,3.51 0 0 1 -2.55,-5.92 3.29,3.29 0 0 1 -1.66,-2.88 z"
       id="path107" />
  </g>
</svg>
