<?xml version="1.0" encoding="UTF-8" standalone="no"?>
<svg
   id="SDGs"
   viewBox="0 0 61.849998 61.849996"
   version="1.1"
   sodipodi:docname="sdg-9.svg"
   width="61.849998"
   height="61.849998"
   inkscape:version="1.3 (0e150ed6c4, 2023-07-21)"
   xmlns:inkscape="http://www.inkscape.org/namespaces/inkscape"
   xmlns:sodipodi="http://sodipodi.sourceforge.net/DTD/sodipodi-0.dtd"
   xmlns="http://www.w3.org/2000/svg"
   xmlns:svg="http://www.w3.org/2000/svg">
  <sodipodi:namedview
     id="namedview523"
     pagecolor="#505050"
     bordercolor="#eeeeee"
     borderopacity="1"
     inkscape:showpageshadow="0"
     inkscape:pageopacity="0"
     inkscape:pagecheckerboard="0"
     inkscape:deskcolor="#505050"
     inkscape:zoom="1.7804714"
     inkscape:cx="74.137671"
     inkscape:cy="23.308434"
     inkscape:window-width="1920"
     inkscape:window-height="1057"
     inkscape:window-x="0"
     inkscape:window-y="0"
     inkscape:window-maximized="1"
     inkscape:current-layer="SDGs" />
  <defs
     id="defs1">
    <style
       id="style1">.cls-1{fill:#f4f4f5;}.cls-2{fill:#5fbb46;}.cls-3{fill:#d19f2a;}.cls-4{fill:#c22033;}.cls-5{fill:#2d9a47;}.cls-6{fill:#48773c;}.cls-7{fill:#fdb714;}.cls-8{fill:#ef412a;}.cls-9{fill:#f99d25;}.cls-10{fill:#007dbb;}.cls-11{fill:#8f1838;}.cls-12{fill:#00add8;}.cls-13{fill:#f36e24;}.cls-14{fill:#ea1d2d;}.cls-15{fill:#e01a83;}.cls-16{fill:#1a3668;}.cls-17{fill:#cd8b2a;}.cls-18{fill:#00558a;}.cls-19{fill:#fff;}.cls-20{fill:#40ae49;}.cls-21{fill:#009edb;}</style>
  </defs>
  <g
     id="SDG9"
     transform="translate(-150.03,-124.17)">
    <rect
       class="cls-13"
       x="150.03"
       y="124.17"
       width="61.849998"
       height="61.849998"
       id="rect245" />
    <path
       class="cls-19"
       d="m 155.77,140.75 a 3.29,3.29 0 0 1 -0.71,-2.26 v -0.18 h 2.13 a 2.83,2.83 0 0 0 0.16,1.14 0.71,0.71 0 0 0 0.7,0.33 0.65,0.65 0 0 0 0.54,-0.22 1.45,1.45 0 0 0 0.26,-0.72 12.41,12.41 0 0 0 0.07,-1.44 v -1.2 a 1.31,1.31 0 0 1 -0.6,0.5 2.32,2.32 0 0 1 -0.94,0.19 2.07,2.07 0 0 1 -1.91,-1 4.75,4.75 0 0 1 -0.6,-2.54 q 0,-4 3.18,-4 a 2.85,2.85 0 0 1 2.4,1 4.46,4.46 0 0 1 0.77,2.76 v 4.3 a 5.34,5.34 0 0 1 -0.71,3 2.75,2.75 0 0 1 -2.51,1.09 2.94,2.94 0 0 1 -2.23,-0.75 z m 3.15,-6.12 v -1.88 a 3.15,3.15 0 0 0 -0.19,-1.22 0.69,0.69 0 0 0 -0.68,-0.45 0.68,0.68 0 0 0 -0.7,0.48 4.9,4.9 0 0 0 -0.18,1.55 10.89,10.89 0 0 0 0.05,1.16 1.11,1.11 0 0 0 0.24,0.65 0.73,0.73 0 0 0 0.6,0.25 1,1 0 0 0 0.86,-0.54 z"
       id="path246" />
    <path
       class="cls-19"
       d="m 163.84,134 v -4.51 h 0.81 V 134 Z"
       id="path247" />
    <path
       class="cls-19"
       d="m 165.06,134 v -4.51 h 0.57 l 1.1,2.57 v -2.57 h 0.68 V 134 h -0.54 l -1.11,-2.7 v 2.7 z"
       id="path248" />
    <path
       class="cls-19"
       d="m 167.81,134 v -4.51 h 1.06 a 2,2 0 0 1 0.86,0.15 0.86,0.86 0 0 1 0.44,0.46 2,2 0 0 1 0.13,0.79 v 1.65 a 2.12,2.12 0 0 1 -0.13,0.81 0.94,0.94 0 0 1 -0.43,0.49 1.93,1.93 0 0 1 -0.84,0.16 z m 0.82,-0.58 h 0.25 a 0.63,0.63 0 0 0 0.41,-0.1 0.43,0.43 0 0 0 0.15,-0.29 3.09,3.09 0 0 0 0,-0.47 v -1.76 a 2.55,2.55 0 0 0 0,-0.44 0.36,0.36 0 0 0 -0.17,-0.24 0.76,0.76 0 0 0 -0.39,-0.08 h -0.24 z"
       id="path249" />
    <path
       class="cls-19"
       d="m 171.85,134 a 1.36,1.36 0 0 1 -0.78,-0.19 0.93,0.93 0 0 1 -0.38,-0.52 2.78,2.78 0 0 1 -0.11,-0.81 v -3 h 0.81 v 3.14 c 0,0.14 0,0.28 0,0.4 a 0.64,0.64 0 0 0 0.13,0.3 0.4,0.4 0 0 0 0.31,0.12 0.39,0.39 0 0 0 0.32,-0.12 0.64,0.64 0 0 0 0.13,-0.3 2.5,2.5 0 0 0 0,-0.4 v -3.14 h 0.79 v 3 a 2.8,2.8 0 0 1 -0.1,0.81 0.93,0.93 0 0 1 -0.38,0.52 1.38,1.38 0 0 1 -0.74,0.19 z"
       id="path250" />
    <path
       class="cls-19"
       d="m 174.61,134 a 1.35,1.35 0 0 1 -0.67,-0.16 1,1 0 0 1 -0.42,-0.47 2,2 0 0 1 -0.15,-0.75 l 0.7,-0.14 a 2.12,2.12 0 0 0 0.07,0.47 0.62,0.62 0 0 0 0.16,0.3 0.36,0.36 0 0 0 0.29,0.11 0.31,0.31 0 0 0 0.28,-0.12 0.48,0.48 0 0 0 0.08,-0.3 0.78,0.78 0 0 0 -0.13,-0.48 1.82,1.82 0 0 0 -0.36,-0.38 l -0.56,-0.5 a 1.64,1.64 0 0 1 -0.38,-0.46 1.22,1.22 0 0 1 -0.15,-0.63 1,1 0 0 1 0.32,-0.82 1.16,1.16 0 0 1 0.85,-0.29 1.4,1.4 0 0 1 0.53,0.09 0.89,0.89 0 0 1 0.33,0.27 1.14,1.14 0 0 1 0.19,0.4 2.21,2.21 0 0 1 0.08,0.46 l -0.7,0.12 a 3.33,3.33 0 0 0 -0.05,-0.37 0.62,0.62 0 0 0 -0.13,-0.27 0.37,0.37 0 0 0 -0.27,-0.09 0.34,0.34 0 0 0 -0.28,0.12 0.44,0.44 0 0 0 -0.1,0.3 0.62,0.62 0 0 0 0.1,0.37 1.45,1.45 0 0 0 0.27,0.31 l 0.56,0.49 a 2.29,2.29 0 0 1 0.48,0.55 1.41,1.41 0 0 1 0.2,0.76 1.05,1.05 0 0 1 -0.15,0.57 1,1 0 0 1 -0.39,0.4 1.27,1.27 0 0 1 -0.6,0.14 z"
       id="path251" />
    <path
       class="cls-19"
       d="m 176.39,134 v -3.91 h -0.72 v -0.6 h 2.25 v 0.6 h -0.71 V 134 Z"
       id="path252" />
    <path
       class="cls-19"
       d="m 178,134 v -4.51 h 1.08 a 2.22,2.22 0 0 1 0.78,0.11 0.83,0.83 0 0 1 0.47,0.37 1.31,1.31 0 0 1 0.17,0.71 2.46,2.46 0 0 1 0,0.49 1.05,1.05 0 0 1 -0.17,0.37 0.83,0.83 0 0 1 -0.33,0.24 l 0.63,2.22 h -0.83 l -0.54,-2.07 h -0.38 V 134 Z m 0.83,-2.59 h 0.25 a 0.88,0.88 0 0 0 0.39,-0.07 0.4,0.4 0 0 0 0.2,-0.22 1.07,1.07 0 0 0 0.06,-0.39 0.8,0.8 0 0 0 -0.13,-0.51 0.56,0.56 0 0 0 -0.47,-0.17 h -0.3 z"
       id="path253" />
    <path
       class="cls-19"
       d="m 181.45,134 v -1.72 l -0.91,-2.79 h 0.77 l 0.55,1.78 0.53,-1.78 h 0.75 l -0.9,2.79 V 134 Z"
       id="path254" />
    <path
       class="cls-19"
       d="m 183.18,134.72 -0.07,-0.27 a 0.6,0.6 0 0 0 0.25,-0.16 0.48,0.48 0 0 0 0.11,-0.32 h -0.4 v -0.76 h 0.74 v 0.69 a 0.93,0.93 0 0 1 -0.16,0.56 0.75,0.75 0 0 1 -0.47,0.26 z"
       id="path255" />
    <path
       class="cls-19"
       d="m 185.15,134 v -4.51 H 186 V 134 Z"
       id="path256" />
    <path
       class="cls-19"
       d="m 186.37,134 v -4.51 H 187 l 1,2.51 v -2.57 h 0.68 V 134 h -0.54 l -1.11,-2.7 v 2.7 z"
       id="path257" />
    <path
       class="cls-19"
       d="m 189.12,134 v -4.51 h 0.57 l 1.1,2.57 v -2.57 h 0.68 V 134 h -0.55 l -1.1,-2.7 v 2.7 z"
       id="path258" />
    <path
       class="cls-19"
       d="m 193.09,134 a 1.44,1.44 0 0 1 -0.77,-0.18 1,1 0 0 1 -0.4,-0.51 2.39,2.39 0 0 1 -0.12,-0.79 v -1.69 a 2.24,2.24 0 0 1 0.12,-0.78 1,1 0 0 1 0.4,-0.5 1.83,1.83 0 0 1 1.54,0 0.91,0.91 0 0 1 0.4,0.5 2,2 0 0 1 0.13,0.78 v 1.69 a 2.06,2.06 0 0 1 -0.13,0.78 1,1 0 0 1 -0.4,0.52 1.44,1.44 0 0 1 -0.77,0.18 z m 0,-0.61 a 0.43,0.43 0 0 0 0.3,-0.09 0.41,0.41 0 0 0 0.13,-0.24 1.87,1.87 0 0 0 0,-0.34 v -2.08 a 1.72,1.72 0 0 0 0,-0.34 0.41,0.41 0 0 0 -0.13,-0.24 0.49,0.49 0 0 0 -0.3,-0.08 0.51,0.51 0 0 0 -0.3,0.08 0.47,0.47 0 0 0 -0.13,0.24 1.72,1.72 0 0 0 0,0.34 v 2.08 a 1.87,1.87 0 0 0 0,0.34 0.41,0.41 0 0 0 0.13,0.24 0.41,0.41 0 0 0 0.3,0.12 z"
       id="path259" />
    <path
       class="cls-19"
       d="m 195.38,134 -0.91,-4.51 h 0.73 l 0.59,3.19 0.56,-3.19 h 0.75 l -0.91,4.51 z"
       id="path260" />
    <path
       class="cls-19"
       d="m 196.87,134 0.9,-4.51 h 0.88 l 0.91,4.51 h -0.77 l -0.17,-1 h -0.79 l -0.18,1 z m 1,-1.57 h 0.62 l -0.31,-1.89 z"
       id="path261" />
    <path
       class="cls-19"
       d="m 200,134 v -3.91 h -0.72 v -0.6 h 2.25 v 0.6 h -0.71 V 134 Z"
       id="path262" />
    <path
       class="cls-19"
       d="m 201.63,134 v -4.51 h 0.82 V 134 Z"
       id="path263" />
    <path
       class="cls-19"
       d="m 204.08,134 a 1.44,1.44 0 0 1 -0.77,-0.18 1,1 0 0 1 -0.4,-0.51 2.39,2.39 0 0 1 -0.12,-0.79 v -1.69 a 2.24,2.24 0 0 1 0.12,-0.78 1,1 0 0 1 0.4,-0.5 1.83,1.83 0 0 1 1.54,0 0.91,0.91 0 0 1 0.4,0.5 2,2 0 0 1 0.13,0.78 v 1.69 a 2.06,2.06 0 0 1 -0.13,0.78 1,1 0 0 1 -0.4,0.52 1.44,1.44 0 0 1 -0.77,0.18 z m 0,-0.61 a 0.43,0.43 0 0 0 0.3,-0.09 0.41,0.41 0 0 0 0.13,-0.24 1.87,1.87 0 0 0 0,-0.34 v -2.08 a 1.72,1.72 0 0 0 0,-0.34 0.41,0.41 0 0 0 -0.13,-0.24 0.49,0.49 0 0 0 -0.3,-0.08 0.51,0.51 0 0 0 -0.3,0.08 0.47,0.47 0 0 0 -0.13,0.24 1.67,1.67 0 0 0 0,0.34 v 2.08 a 1.86,1.86 0 0 0 0,0.34 0.41,0.41 0 0 0 0.13,0.24 0.41,0.41 0 0 0 0.3,0.12 z"
       id="path264" />
    <path
       class="cls-19"
       d="m 205.7,134 v -4.51 h 0.57 l 1.1,2.57 v -2.57 h 0.68 V 134 h -0.55 l -1.1,-2.7 v 2.7 z"
       id="path265" />
    <path
       class="cls-19"
       d="m 163.59,141.33 0.9,-4.51 h 0.88 l 0.91,4.51 h -0.77 l -0.18,-1 h -0.78 l -0.18,1 z m 1,-1.56 h 0.62 l -0.31,-1.89 z"
       id="path266" />
    <path
       class="cls-19"
       d="m 166.49,141.33 v -4.51 h 0.57 l 1.1,2.57 v -2.57 h 0.68 v 4.51 h -0.55 l -1.1,-2.69 v 2.69 z"
       id="path267" />
    <path
       class="cls-19"
       d="m 169.3,141.33 v -4.51 h 1.07 a 2,2 0 0 1 0.86,0.15 0.92,0.92 0 0 1 0.44,0.47 2.17,2.17 0 0 1 0.13,0.79 v 1.64 a 2.39,2.39 0 0 1 -0.13,0.82 0.87,0.87 0 0 1 -0.44,0.48 1.75,1.75 0 0 1 -0.83,0.16 z m 0.83,-0.57 h 0.25 a 0.6,0.6 0 0 0 0.4,-0.1 0.4,0.4 0 0 0 0.15,-0.29 3.18,3.18 0 0 0 0,-0.47 v -1.73 a 1.78,1.78 0 0 0 0,-0.44 0.35,0.35 0 0 0 -0.16,-0.24 0.67,0.67 0 0 0 -0.39,-0.08 h -0.24 z"
       id="path268" />
    <path
       class="cls-19"
       d="m 173.35,141.33 v -4.51 h 0.81 v 4.51 z"
       id="path269" />
    <path
       class="cls-19"
       d="m 174.64,141.33 v -4.51 h 0.57 l 1.1,2.57 v -2.57 H 177 v 4.51 h -0.55 l -1.1,-2.69 v 2.69 z"
       id="path270" />
    <path
       class="cls-19"
       d="m 177.45,141.33 v -4.51 h 1.86 v 0.57 h -1 v 1.31 h 0.84 v 0.58 h -0.84 v 2.05 z"
       id="path271" />
    <path
       class="cls-19"
       d="m 179.52,141.33 v -4.51 h 1.08 a 2.46,2.46 0 0 1 0.77,0.11 0.9,0.9 0 0 1 0.48,0.37 1.33,1.33 0 0 1 0.16,0.71 1.8,1.8 0 0 1 0,0.49 0.84,0.84 0 0 1 -0.17,0.37 0.68,0.68 0 0 1 -0.33,0.24 l 0.63,2.22 h -0.82 l -0.55,-2.06 h -0.38 v 2.06 z m 0.82,-2.58 h 0.26 a 0.81,0.81 0 0 0 0.38,-0.07 0.39,0.39 0 0 0 0.2,-0.22 1,1 0 0 0 0.07,-0.4 0.91,0.91 0 0 0 -0.13,-0.51 0.56,0.56 0 0 0 -0.48,-0.16 h -0.3 z"
       id="path272" />
    <path
       class="cls-19"
       d="m 182.2,141.33 0.9,-4.51 h 0.9 l 0.9,4.51 h -0.76 l -0.18,-1 h -0.78 l -0.19,1 z m 1,-1.56 h 0.61 l -0.31,-1.89 z"
       id="path273" />
    <path
       class="cls-19"
       d="m 186.23,141.39 a 1.4,1.4 0 0 1 -0.68,-0.15 1,1 0 0 1 -0.41,-0.47 A 1.81,1.81 0 0 1 185,140 l 0.71,-0.14 a 2.86,2.86 0 0 0 0.06,0.46 0.69,0.69 0 0 0 0.16,0.31 0.42,0.42 0 0 0 0.29,0.11 0.31,0.31 0 0 0 0.28,-0.12 0.49,0.49 0 0 0 0.09,-0.3 0.84,0.84 0 0 0 -0.14,-0.49 2,2 0 0 0 -0.35,-0.38 l -0.57,-0.5 a 1.64,1.64 0 0 1 -0.38,-0.46 1.21,1.21 0 0 1 -0.14,-0.62 1.08,1.08 0 0 1 0.31,-0.83 1.22,1.22 0 0 1 0.85,-0.29 1.35,1.35 0 0 1 0.53,0.1 1,1 0 0 1 0.34,0.27 1.38,1.38 0 0 1 0.18,0.39 2.31,2.31 0 0 1 0.08,0.47 l -0.7,0.12 a 2.06,2.06 0 0 0 -0.05,-0.38 0.49,0.49 0 0 0 -0.13,-0.26 0.37,0.37 0 0 0 -0.27,-0.09 0.38,0.38 0 0 0 -0.28,0.11 0.49,0.49 0 0 0 -0.09,0.3 0.74,0.74 0 0 0 0.09,0.38 1.22,1.22 0 0 0 0.27,0.3 l 0.56,0.5 a 2.11,2.11 0 0 1 0.48,0.55 1.41,1.41 0 0 1 0.2,0.76 1.2,1.2 0 0 1 -0.14,0.57 1,1 0 0 1 -0.4,0.39 1.15,1.15 0 0 1 -0.61,0.16 z"
       id="path274" />
    <path
       class="cls-19"
       d="m 188.08,141.33 v -3.9 h -0.72 v -0.61 h 2.25 v 0.61 h -0.71 v 3.9 z"
       id="path275" />
    <path
       class="cls-19"
       d="m 189.8,141.33 v -4.51 h 1.08 a 2.41,2.41 0 0 1 0.77,0.11 0.9,0.9 0 0 1 0.48,0.37 1.33,1.33 0 0 1 0.17,0.71 2.31,2.31 0 0 1 -0.05,0.49 1,1 0 0 1 -0.17,0.37 0.68,0.68 0 0 1 -0.33,0.24 l 0.62,2.22 h -0.82 L 191,139.27 h -0.37 v 2.06 z m 0.83,-2.58 h 0.25 a 0.81,0.81 0 0 0 0.38,-0.07 0.41,0.41 0 0 0 0.21,-0.22 1.16,1.16 0 0 0 0.06,-0.4 0.84,0.84 0 0 0 -0.13,-0.51 0.55,0.55 0 0 0 -0.47,-0.16 h -0.3 z"
       id="path276" />
    <path
       class="cls-19"
       d="m 193.93,141.39 a 1.41,1.41 0 0 1 -0.78,-0.18 0.93,0.93 0 0 1 -0.39,-0.52 2.83,2.83 0 0 1 -0.1,-0.82 v -3.05 h 0.8 V 140 a 2.6,2.6 0 0 0 0,0.4 0.59,0.59 0 0 0 0.13,0.3 0.42,0.42 0 0 0 0.31,0.11 0.4,0.4 0 0 0 0.31,-0.11 0.59,0.59 0 0 0 0.13,-0.3 2.6,2.6 0 0 0 0,-0.4 v -3.15 h 0.8 v 3.05 a 2.81,2.81 0 0 1 -0.11,0.82 1,1 0 0 1 -0.38,0.52 1.41,1.41 0 0 1 -0.72,0.15 z"
       id="path277" />
    <path
       class="cls-19"
       d="m 196.84,141.39 a 1.36,1.36 0 0 1 -0.78,-0.19 1,1 0 0 1 -0.39,-0.53 2.67,2.67 0 0 1 -0.11,-0.78 v -1.61 a 2.71,2.71 0 0 1 0.11,-0.8 0.94,0.94 0 0 1 0.39,-0.52 1.36,1.36 0 0 1 0.78,-0.19 1.46,1.46 0 0 1 0.73,0.16 0.91,0.91 0 0 1 0.38,0.46 2,2 0 0 1 0.11,0.68 v 0.38 h -0.79 v -0.39 c 0,-0.13 0,-0.24 0,-0.35 a 0.38,0.38 0 0 0 -0.11,-0.24 0.34,0.34 0 0 0 -0.29,-0.1 0.42,0.42 0 0 0 -0.31,0.1 0.46,0.46 0 0 0 -0.13,0.26 2.13,2.13 0 0 0 0,0.37 v 2 a 2.18,2.18 0 0 0 0,0.41 0.57,0.57 0 0 0 0.14,0.24 0.5,0.5 0 0 0 0.29,0.08 0.4,0.4 0 0 0 0.29,-0.1 0.62,0.62 0 0 0 0.11,-0.26 c 0,-0.11 0,-0.23 0,-0.36 v -0.41 h 0.79 v 0.3 a 2.16,2.16 0 0 1 -0.11,0.71 0.91,0.91 0 0 1 -0.37,0.49 1.29,1.29 0 0 1 -0.73,0.19 z"
       id="path278" />
    <path
       class="cls-19"
       d="m 198.87,141.33 v -3.9 h -0.72 v -0.61 h 2.25 v 0.61 h -0.71 v 3.9 z"
       id="path279" />
    <path
       class="cls-19"
       d="m 201.83,141.39 a 1.41,1.41 0 0 1 -0.78,-0.18 0.93,0.93 0 0 1 -0.39,-0.52 2.83,2.83 0 0 1 -0.1,-0.82 v -3.05 h 0.8 V 140 a 2.6,2.6 0 0 0 0,0.4 0.59,0.59 0 0 0 0.13,0.3 0.42,0.42 0 0 0 0.31,0.11 0.4,0.4 0 0 0 0.31,-0.11 0.59,0.59 0 0 0 0.13,-0.3 2.6,2.6 0 0 0 0,-0.4 v -3.15 h 0.8 v 3.05 a 2.81,2.81 0 0 1 -0.11,0.82 1,1 0 0 1 -0.38,0.52 1.41,1.41 0 0 1 -0.72,0.15 z"
       id="path280" />
    <path
       class="cls-19"
       d="m 203.53,141.33 v -4.51 h 1.08 a 2.46,2.46 0 0 1 0.77,0.11 0.9,0.9 0 0 1 0.48,0.37 1.33,1.33 0 0 1 0.16,0.71 2.31,2.31 0 0 1 -0.05,0.49 0.84,0.84 0 0 1 -0.17,0.37 0.68,0.68 0 0 1 -0.33,0.24 l 0.63,2.22 h -0.83 l -0.54,-2.06 h -0.38 v 2.06 z m 0.82,-2.58 h 0.26 a 0.83,0.83 0 0 0 0.38,-0.07 0.43,0.43 0 0 0 0.2,-0.22 1.16,1.16 0 0 0 0.06,-0.4 0.92,0.92 0 0 0 -0.12,-0.51 0.59,0.59 0 0 0 -0.48,-0.16 h -0.3 z"
       id="path281" />
    <path
       class="cls-19"
       d="m 206.42,141.33 v -4.51 h 1.89 v 0.58 h -1.07 v 1.3 h 0.85 v 0.57 h -0.85 v 1.49 h 1.08 v 0.57 z"
       id="path282" />
    <path
       class="cls-19"
       d="m 196.83,164.87 -7.39,-4.27 v -8.52 a 0.5,0.5 0 0 0 -0.25,-0.44 l -7.64,-4.41 a 0.5,0.5 0 0 0 -0.5,0 l -7.64,4.41 a 0.52,0.52 0 0 0 -0.25,0.44 v 8.52 l -7.39,4.27 a 0.5,0.5 0 0 0 -0.25,0.43 v 8.82 a 0.52,0.52 0 0 0 0.25,0.44 l 7.64,4.41 a 0.5,0.5 0 0 0 0.51,0 l 7.38,-4.26 7.39,4.26 a 0.52,0.52 0 0 0 0.25,0.07 0.59,0.59 0 0 0 0.25,-0.07 l 7.64,-4.41 a 0.52,0.52 0 0 0 0.25,-0.44 v -8.82 a 0.5,0.5 0 0 0 -0.25,-0.43 z m -16,8.38 -6.13,-3.54 6.13,-3.53 z m 7.13,-12.36 -6.13,3.54 v -7.07 z m -7.13,3.54 -6.13,-3.54 6.13,-3.53 z m 1.51,0.87 6.63,-3.82 6.63,3.82 -6.63,3.83 z m 6.12,-5.28 -6.12,-3.54 6.12,-3.53 z m -8.14,-3.54 -6.15,3.52 v -7 z m -7.13,21.18 -6.63,-3.83 v -7.65 l 6.63,3.82 z m 1,0 v -7.07 l 6.12,3.53 z m 21.9,-3.83 -6.63,3.83 V 170 l 6.63,-3.82 z"
       id="path283" />
  </g>
</svg>
