<?xml version="1.0" encoding="UTF-8" standalone="no"?>
<svg
   id="SDGs"
   viewBox="0 0 62.02 62.019998"
   version="1.1"
   sodipodi:docname="sdg-7.svg"
   width="62.02"
   height="62.02"
   inkscape:version="1.3 (0e150ed6c4, 2023-07-21)"
   xmlns:inkscape="http://www.inkscape.org/namespaces/inkscape"
   xmlns:sodipodi="http://sodipodi.sourceforge.net/DTD/sodipodi-0.dtd"
   xmlns="http://www.w3.org/2000/svg"
   xmlns:svg="http://www.w3.org/2000/svg">
  <sodipodi:namedview
     id="namedview523"
     pagecolor="#505050"
     bordercolor="#eeeeee"
     borderopacity="1"
     inkscape:showpageshadow="0"
     inkscape:pageopacity="0"
     inkscape:pagecheckerboard="0"
     inkscape:deskcolor="#505050"
     inkscape:zoom="1.7804714"
     inkscape:cx="215.11158"
     inkscape:cy="23.308434"
     inkscape:window-width="1920"
     inkscape:window-height="1057"
     inkscape:window-x="0"
     inkscape:window-y="0"
     inkscape:window-maximized="1"
     inkscape:current-layer="SDGs" />
  <defs
     id="defs1">
    <style
       id="style1">.cls-1{fill:#f4f4f5;}.cls-2{fill:#5fbb46;}.cls-3{fill:#d19f2a;}.cls-4{fill:#c22033;}.cls-5{fill:#2d9a47;}.cls-6{fill:#48773c;}.cls-7{fill:#fdb714;}.cls-8{fill:#ef412a;}.cls-9{fill:#f99d25;}.cls-10{fill:#007dbb;}.cls-11{fill:#8f1838;}.cls-12{fill:#00add8;}.cls-13{fill:#f36e24;}.cls-14{fill:#ea1d2d;}.cls-15{fill:#e01a83;}.cls-16{fill:#1a3668;}.cls-17{fill:#cd8b2a;}.cls-18{fill:#00558a;}.cls-19{fill:#fff;}.cls-20{fill:#40ae49;}.cls-21{fill:#009edb;}</style>
  </defs>
  <g
     id="SDG7"
     transform="translate(-9.2200003,-124.09)">
    <rect
       class="cls-7"
       x="9.2200003"
       y="124.09"
       width="62.02"
       height="62.02"
       id="rect315" />
    <path
       class="cls-19"
       d="m 17.53,131.2 h -3.22 v -1.72 h 5.42 V 131 l -2.5,10.36 H 15 Z"
       id="path316" />
    <path
       class="cls-19"
       d="m 25.45,129.47 h 0.88 l 0.9,4.52 h -0.76 l -0.18,-1 H 25.5 l -0.18,1 h -0.78 z m 0.75,2.95 -0.31,-1.89 -0.3,1.89 z"
       id="path317" />
    <path
       class="cls-19"
       d="m 27.57,129.47 h 1.86 V 130 h -1 v 1.32 h 0.85 v 0.57 H 28.43 V 134 h -0.82 z"
       id="path318" />
    <path
       class="cls-19"
       d="m 29.77,129.47 h 1.86 V 130 h -1 v 1.32 h 0.85 v 0.57 H 30.63 V 134 h -0.82 z"
       id="path319" />
    <path
       class="cls-19"
       d="m 32.19,133.68 a 1.75,1.75 0 0 1 -0.3,-1.11 v -1.69 a 1.69,1.69 0 0 1 0.3,-1.09 1.22,1.22 0 0 1 1,-0.37 1.2,1.2 0 0 1 1,0.37 1.69,1.69 0 0 1 0.31,1.09 v 1.69 a 1.74,1.74 0 0 1 -0.31,1.1 1.18,1.18 0 0 1 -1,0.38 1.22,1.22 0 0 1 -1,-0.37 z m 1.37,-0.41 a 1,1 0 0 0 0.1,-0.5 v -2.08 a 1.09,1.09 0 0 0 -0.09,-0.5 0.41,0.41 0 0 0 -0.38,-0.17 0.39,0.39 0 0 0 -0.37,0.17 1.12,1.12 0 0 0 -0.09,0.5 v 2.08 a 1.09,1.09 0 0 0 0.09,0.5 0.38,0.38 0 0 0 0.37,0.18 0.37,0.37 0 0 0 0.37,-0.18 z"
       id="path320" />
    <path
       class="cls-19"
       d="m 35,129.47 h 1.09 a 1.76,1.76 0 0 1 1.07,0.27 1.12,1.12 0 0 1 0.35,0.93 1.56,1.56 0 0 1 -0.13,0.7 0.81,0.81 0 0 1 -0.43,0.4 l 0.63,2.22 h -0.83 l -0.54,-2.07 H 35.82 V 134 H 35 Z m 1.08,1.94 a 0.66,0.66 0 0 0 0.5,-0.16 0.78,0.78 0 0 0 0.15,-0.53 0.79,0.79 0 0 0 -0.13,-0.52 0.57,0.57 0 0 0 -0.47,-0.17 h -0.31 v 1.38 z"
       id="path321" />
    <path
       class="cls-19"
       d="m 38,129.47 h 1.07 a 2,2 0 0 1 0.86,0.15 0.88,0.88 0 0 1 0.44,0.45 2,2 0 0 1 0.13,0.81 v 1.64 a 2.21,2.21 0 0 1 -0.13,0.84 0.88,0.88 0 0 1 -0.44,0.47 1.75,1.75 0 0 1 -0.83,0.16 H 38 Z m 1.08,3.95 a 0.64,0.64 0 0 0 0.4,-0.1 0.4,0.4 0 0 0 0.15,-0.26 3.21,3.21 0 0 0 0,-0.51 v -1.73 a 2.69,2.69 0 0 0 0,-0.46 0.36,0.36 0 0 0 -0.17,-0.23 0.77,0.77 0 0 0 -0.39,-0.07 h -0.25 v 3.36 z"
       id="path322" />
    <path
       class="cls-19"
       d="m 41.62,129.47 h 0.88 l 0.91,4.52 h -0.77 l -0.17,-1 h -0.79 l -0.19,1 h -0.77 z m 0.76,2.95 -0.31,-1.89 -0.31,1.89 z"
       id="path323" />
    <path
       class="cls-19"
       d="m 43.75,129.47 h 1.12 a 1.63,1.63 0 0 1 1,0.26 1,1 0 0 1 0.34,0.87 c 0,0.57 -0.22,0.89 -0.65,1 0.52,0.1 0.78,0.47 0.78,1.12 a 1.35,1.35 0 0 1 -0.32,1 1.24,1.24 0 0 1 -0.94,0.33 h -1.33 z m 1.1,1.85 a 0.59,0.59 0 0 0 0.49,-0.16 0.81,0.81 0 0 0 0.13,-0.52 0.54,0.54 0 0 0 -0.17,-0.47 1,1 0 0 0 -0.56,-0.12 h -0.17 v 1.27 z m 0,2.09 a 0.63,0.63 0 0 0 0.5,-0.17 1,1 0 0 0 0.14,-0.57 0.93,0.93 0 0 0 -0.15,-0.59 0.64,0.64 0 0 0 -0.52,-0.19 h -0.29 v 1.52 z"
       id="path324" />
    <path
       class="cls-19"
       d="m 46.75,129.47 h 0.82 v 4 h 1.1 V 134 h -1.92 z"
       id="path325" />
    <path
       class="cls-19"
       d="m 49,129.47 h 1.89 v 0.58 h -1.08 v 1.3 h 0.84 v 0.58 h -0.84 v 1.5 h 1.08 V 134 H 49 Z"
       id="path326" />
    <path
       class="cls-19"
       d="m 53.18,129.47 h 0.88 L 55,134 H 54.2 L 54,133 h -0.79 l -0.19,1 h -0.77 z m 0.76,2.95 -0.31,-1.89 -0.31,1.89 z"
       id="path327" />
    <path
       class="cls-19"
       d="m 55.31,129.47 h 0.57 l 1.1,2.58 v -2.58 h 0.69 V 134 H 57.12 L 56,131.29 V 134 h -0.7 z"
       id="path328" />
    <path
       class="cls-19"
       d="m 58.24,129.47 h 1.07 a 2,2 0 0 1 0.86,0.15 0.92,0.92 0 0 1 0.44,0.45 2,2 0 0 1 0.13,0.81 v 1.64 a 2.21,2.21 0 0 1 -0.13,0.84 0.88,0.88 0 0 1 -0.44,0.47 1.75,1.75 0 0 1 -0.83,0.16 h -1.1 z m 1.08,3.95 a 0.59,0.59 0 0 0 0.39,-0.1 0.38,0.38 0 0 0 0.16,-0.26 3.21,3.21 0 0 0 0,-0.51 v -1.73 a 1.86,1.86 0 0 0 0,-0.46 0.35,0.35 0 0 0 -0.16,-0.23 0.8,0.8 0 0 0 -0.39,-0.07 h -0.25 v 3.36 z"
       id="path329" />
    <path
       class="cls-19"
       d="m 25,141.05 a 1.91,1.91 0 0 1 -0.29,-1.12 v -1.61 a 1.88,1.88 0 0 1 0.29,-1.13 1.5,1.5 0 0 1 1.94,-0.05 1.46,1.46 0 0 1 0.28,1 v 0.38 h -0.79 v -0.39 a 3.47,3.47 0 0 0 0,-0.38 0.4,0.4 0 0 0 -0.12,-0.22 0.4,0.4 0 0 0 -0.29,-0.09 0.45,0.45 0 0 0 -0.3,0.09 0.46,0.46 0 0 0 -0.13,0.25 2.1,2.1 0 0 0 0,0.4 v 2 a 1.1,1.1 0 0 0 0.1,0.55 0.4,0.4 0 0 0 0.36,0.17 0.42,0.42 0 0 0 0.29,-0.09 0.38,0.38 0 0 0 0.11,-0.24 2,2 0 0 0 0,-0.39 v -0.41 h 0.79 v 0.37 a 1.66,1.66 0 0 1 -0.27,1 1.12,1.12 0 0 1 -1,0.36 1.18,1.18 0 0 1 -0.97,-0.45 z"
       id="path330" />
    <path
       class="cls-19"
       d="m 27.67,136.86 h 0.82 v 3.95 h 1.1 v 0.57 h -1.92 z"
       id="path331" />
    <path
       class="cls-19"
       d="m 29.91,136.86 h 1.9 v 0.58 h -1.08 v 1.3 h 0.85 v 0.57 h -0.85 v 1.5 h 1.09 v 0.57 h -1.91 z"
       id="path332" />
    <path
       class="cls-19"
       d="m 32.87,136.86 h 0.88 l 0.9,4.52 h -0.76 l -0.18,-1 h -0.79 l -0.18,1 H 32 Z m 0.75,2.95 -0.31,-1.9 -0.31,1.9 z"
       id="path333" />
    <path
       class="cls-19"
       d="m 35,136.86 h 0.58 l 1.1,2.58 v -2.58 h 0.68 v 4.52 H 36.8 l -1.1,-2.7 v 2.7 H 35 Z"
       id="path334" />
    <path
       class="cls-19"
       d="m 39.17,136.86 h 1.89 v 0.58 H 40 v 1.3 h 0.85 v 0.57 H 40 v 1.5 h 1.09 v 0.57 h -1.92 z"
       id="path335" />
    <path
       class="cls-19"
       d="M 41.44,136.86 H 42 l 1.1,2.58 v -2.58 h 0.68 v 4.52 h -0.55 l -1.1,-2.7 v 2.7 h -0.71 z"
       id="path336" />
    <path
       class="cls-19"
       d="m 44.37,136.86 h 1.9 v 0.58 H 45.2 v 1.3 H 46 v 0.57 h -0.8 v 1.5 h 1.08 v 0.57 h -1.91 z"
       id="path337" />
    <path
       class="cls-19"
       d="m 46.65,136.86 h 1.09 a 1.76,1.76 0 0 1 1.07,0.27 1.12,1.12 0 0 1 0.35,0.93 1.59,1.59 0 0 1 -0.13,0.7 0.75,0.75 0 0 1 -0.43,0.39 l 0.63,2.23 h -0.82 l -0.55,-2.07 h -0.39 v 2.07 h -0.82 z m 1.09,1.93 a 0.61,0.61 0 0 0 0.49,-0.16 0.76,0.76 0 0 0 0.15,-0.53 0.81,0.81 0 0 0 -0.13,-0.52 0.57,0.57 0 0 0 -0.47,-0.16 h -0.31 v 1.37 z"
       id="path338" />
    <path
       class="cls-19"
       d="m 49.88,141 a 2,2 0 0 1 -0.28,-1.15 v -1.52 a 2,2 0 0 1 0.29,-1.17 1.17,1.17 0 0 1 1,-0.39 1.21,1.21 0 0 1 1,0.33 1.47,1.47 0 0 1 0.29,1 v 0.24 h -0.79 v -0.26 a 2.06,2.06 0 0 0 0,-0.39 0.33,0.33 0 0 0 -0.13,-0.22 0.46,0.46 0 0 0 -0.29,-0.08 0.41,0.41 0 0 0 -0.31,0.1 0.53,0.53 0 0 0 -0.13,0.26 2.17,2.17 0 0 0 0,0.4 v 1.9 a 1.39,1.39 0 0 0 0.1,0.57 0.4,0.4 0 0 0 0.39,0.19 0.41,0.41 0 0 0 0.39,-0.2 1.33,1.33 0 0 0 0.11,-0.6 v -0.43 h -0.49 v -0.52 h 1.23 v 2.3 h -0.53 l -0.06,-0.44 a 0.77,0.77 0 0 1 -0.76,0.5 1.05,1.05 0 0 1 -1.03,-0.42 z"
       id="path339" />
    <path
       class="cls-19"
       d="m 53.28,139.65 -0.92,-2.79 h 0.77 l 0.56,1.79 0.53,-1.79 H 55 l -0.91,2.79 v 1.73 h -0.78 z"
       id="path340" />
    <path
       class="cls-19"
       d="m 40.26,154.3 a 9.13,9.13 0 1 0 9.13,9.13 9.13,9.13 0 0 0 -9.13,-9.13 m -0.68,3.61 a 0.69,0.69 0 0 1 0.68,-0.64 0.7,0.7 0 0 1 0.68,0.64 V 161 a 0.7,0.7 0 0 1 -0.68,0.64 0.7,0.7 0 0 1 -0.68,-0.64 z m 0.68,10.2 a 4.75,4.75 0 0 1 -1.41,-9.29 v 1.77 a 3.12,3.12 0 1 0 2.81,0 v -1.77 a 4.75,4.75 0 0 1 -1.4,9.29"
       id="path341" />
    <path
       class="cls-19"
       d="m 29.77,163.35 a 0.76,0.76 0 0 0 -0.7,-0.75 h -4 a 0.77,0.77 0 0 0 -0.7,0.75 0.76,0.76 0 0 0 0.7,0.75 h 4 a 0.75,0.75 0 0 0 0.7,-0.75"
       id="path342" />
    <path
       class="cls-19"
       d="m 56.15,163.35 a 0.77,0.77 0 0 0 -0.7,-0.75 h -4 a 0.75,0.75 0 0 0 0,1.5 h 4 a 0.76,0.76 0 0 0 0.7,-0.75"
       id="path343" />
    <path
       class="cls-19"
       d="m 40.26,179.24 a 0.76,0.76 0 0 0 0.75,-0.7 v -4 a 0.77,0.77 0 0 0 -0.75,-0.7 0.76,0.76 0 0 0 -0.75,0.7 v 4 a 0.75,0.75 0 0 0 0.75,0.7"
       id="path344" />
    <path
       class="cls-19"
       d="m 54.05,171.24 a 0.75,0.75 0 0 0 -0.24,-1 l -3.47,-2 a 0.75,0.75 0 0 0 -0.74,1.3 l 3.47,2 a 0.77,0.77 0 0 0 1,-0.31"
       id="path345" />
    <path
       class="cls-19"
       d="m 32.37,177.14 a 0.75,0.75 0 0 0 1,-0.23 l 2,-3.47 a 0.75041655,0.75041655 0 0 0 -1.3,-0.75 l -2,3.47 a 0.76,0.76 0 0 0 0.31,1"
       id="path346" />
    <path
       class="cls-19"
       d="m 48.18,177.13 a 0.76,0.76 0 0 0 0.3,-1 l -2,-3.47 a 0.78,0.78 0 0 0 -1,-0.24 0.77,0.77 0 0 0 -0.29,1 l 2,3.46 a 0.77,0.77 0 0 0 1,0.24"
       id="path347" />
    <path
       class="cls-19"
       d="m 26.48,171.28 a 0.76,0.76 0 0 0 1,0.29 l 3.47,-2 a 0.75041655,0.75041655 0 0 0 -0.75,-1.3 l -3.46,2 a 0.79,0.79 0 0 0 -0.24,1"
       id="path348" />
    <path
       class="cls-19"
       d="m 40.26,152.87 a 0.77,0.77 0 0 0 0.75,-0.7 v -4 a 0.75,0.75 0 0 0 -1.5,0 v 4 a 0.76,0.76 0 0 0 0.75,0.7"
       id="path349" />
    <path
       class="cls-19"
       d="m 31.16,158.14 a 0.76,0.76 0 0 0 -0.24,-1 l -3.47,-2 a 0.75,0.75 0 0 0 -0.74,1.3 l 3.47,2 a 0.77,0.77 0 0 0 1,-0.31"
       id="path350" />
    <path
       class="cls-19"
       d="m 45.47,154.25 a 0.74,0.74 0 0 0 1,-0.23 l 2,-3.47 a 0.75041655,0.75041655 0 0 0 -1.3,-0.75 l -2,3.47 a 0.77,0.77 0 0 0 0.31,1"
       id="path351" />
    <path
       class="cls-19"
       d="m 35,154.26 a 0.76,0.76 0 0 0 0.3,-1 l -2,-3.46 a 0.75,0.75 0 0 0 -1.3,0.74 l 2,3.46 a 0.76,0.76 0 0 0 1,0.23"
       id="path352" />
    <path
       class="cls-19"
       d="m 49.35,158.13 a 0.77,0.77 0 0 0 1,0.3 l 3.46,-2 a 0.75,0.75 0 0 0 -0.74,-1.3 l -3.47,2 a 0.76,0.76 0 0 0 -0.23,1"
       id="path353" />
  </g>
</svg>
