<?xml version="1.0" encoding="UTF-8" standalone="no"?>
<svg
   id="SDGs"
   viewBox="0 0 62.130002 62.13"
   version="1.1"
   sodipodi:docname="sdg-17.svg"
   width="62.130001"
   height="62.130001"
   inkscape:version="1.3 (0e150ed6c4, 2023-07-21)"
   xmlns:inkscape="http://www.inkscape.org/namespaces/inkscape"
   xmlns:sodipodi="http://sodipodi.sourceforge.net/DTD/sodipodi-0.dtd"
   xmlns="http://www.w3.org/2000/svg"
   xmlns:svg="http://www.w3.org/2000/svg">
  <sodipodi:namedview
     id="namedview523"
     pagecolor="#505050"
     bordercolor="#eeeeee"
     borderopacity="1"
     inkscape:showpageshadow="0"
     inkscape:pageopacity="0"
     inkscape:pagecheckerboard="0"
     inkscape:deskcolor="#505050"
     inkscape:zoom="1.7804714"
     inkscape:cx="-65.151287"
     inkscape:cy="-46.897693"
     inkscape:window-width="1920"
     inkscape:window-height="1057"
     inkscape:window-x="0"
     inkscape:window-y="0"
     inkscape:window-maximized="1"
     inkscape:current-layer="SDGs" />
  <defs
     id="defs1">
    <style
       id="style1">.cls-1{fill:#f4f4f5;}.cls-2{fill:#5fbb46;}.cls-3{fill:#d19f2a;}.cls-4{fill:#c22033;}.cls-5{fill:#2d9a47;}.cls-6{fill:#48773c;}.cls-7{fill:#fdb714;}.cls-8{fill:#ef412a;}.cls-9{fill:#f99d25;}.cls-10{fill:#007dbb;}.cls-11{fill:#8f1838;}.cls-12{fill:#00add8;}.cls-13{fill:#f36e24;}.cls-14{fill:#ea1d2d;}.cls-15{fill:#e01a83;}.cls-16{fill:#1a3668;}.cls-17{fill:#cd8b2a;}.cls-18{fill:#00558a;}.cls-19{fill:#fff;}.cls-20{fill:#40ae49;}.cls-21{fill:#009edb;}</style>
  </defs>
  <g
     id="SDG17"
     transform="translate(-290.35001,-194.37)">
    <rect
       class="cls-16"
       x="290.35001"
       y="194.37"
       width="62.130001"
       height="62.130001"
       id="rect17" />
    <path
       class="cls-19"
       d="m 295.76,202.11 c -0.11,0.06 -0.42,0.18 -0.94,0.37 l -0.77,0.28 v -1.68 a 10.75,10.75 0 0 0 1.2,-0.59 3.88,3.88 0 0 0 1,-0.72 H 298 v 11.85 h -2.27 z"
       id="path18" />
    <path
       class="cls-19"
       d="m 302.59,201.5 h -3.22 v -1.73 h 5.43 v 1.48 l -2.5,10.37 h -2.2 z"
       id="path19" />
    <path
       class="cls-19"
       d="m 310.2,199.76 h 1.33 c 0.78,0 1.16,0.43 1.16,1.29 a 1.08,1.08 0 0 1 -1.21,1.23 H 311 v 2 h -0.82 z m 1.14,1.94 a 0.6,0.6 0 0 0 0.46,-0.14 0.92,0.92 0 0 0 0.11,-0.51 1.56,1.56 0 0 0 0,-0.42 0.32,0.32 0 0 0 -0.15,-0.21 0.75,0.75 0 0 0 -0.38,-0.07 H 311 v 1.35 z"
       id="path20" />
    <path
       class="cls-19"
       d="m 313.48,199.76 h 0.88 l 0.91,4.53 h -0.77 l -0.18,-1 h -0.78 l -0.19,1 h -0.78 z m 0.76,3 -0.31,-1.9 -0.31,1.9 z"
       id="path21" />
    <path
       class="cls-19"
       d="m 315.6,199.76 h 1.09 a 1.75,1.75 0 0 1 1.07,0.28 1.12,1.12 0 0 1 0.35,0.93 1.59,1.59 0 0 1 -0.13,0.7 0.73,0.73 0 0 1 -0.43,0.39 l 0.63,2.23 h -0.82 l -0.55,-2.07 h -0.39 v 2.07 h -0.82 z m 1.08,2 a 0.63,0.63 0 0 0 0.5,-0.17 0.75,0.75 0 0 0 0.15,-0.53 0.81,0.81 0 0 0 -0.13,-0.52 0.57,0.57 0 0 0 -0.47,-0.16 h -0.31 v 1.38 z"
       id="path22" />
    <path
       class="cls-19"
       d="m 319.06,200.37 h -0.76 v -0.61 h 2.32 v 0.61 h -0.74 v 3.92 h -0.82 z"
       id="path23" />
    <path
       class="cls-19"
       d="m 320.86,199.76 h 0.58 l 1.1,2.59 v -2.59 h 0.68 v 4.53 h -0.55 l -1.1,-2.7 v 2.7 h -0.71 z"
       id="path24" />
    <path
       class="cls-19"
       d="m 323.79,199.76 h 1.9 v 0.59 h -1.08 v 1.3 h 0.85 v 0.58 h -0.85 v 1.5 h 1.09 v 0.56 h -1.91 z"
       id="path25" />
    <path
       class="cls-19"
       d="m 326.06,199.76 h 1.09 a 1.77,1.77 0 0 1 1.07,0.28 1.12,1.12 0 0 1 0.35,0.93 1.59,1.59 0 0 1 -0.13,0.7 0.75,0.75 0 0 1 -0.43,0.39 l 0.63,2.23 h -0.83 l -0.54,-2.07 h -0.39 v 2.07 h -0.82 z m 1.08,2 a 0.64,0.64 0 0 0 0.5,-0.17 0.75,0.75 0 0 0 0.15,-0.53 0.81,0.81 0 0 0 -0.13,-0.52 0.58,0.58 0 0 0 -0.47,-0.16 h -0.31 v 1.38 z"
       id="path26" />
    <path
       class="cls-19"
       d="m 329.29,204 a 1.67,1.67 0 0 1 -0.33,-1 l 0.71,-0.14 a 1.55,1.55 0 0 0 0.14,0.66 0.39,0.39 0 0 0 0.37,0.23 0.36,0.36 0 0 0 0.29,-0.12 0.48,0.48 0 0 0 0.09,-0.31 0.79,0.79 0 0 0 -0.12,-0.45 2.26,2.26 0 0 0 -0.38,-0.41 l -0.57,-0.5 a 1.83,1.83 0 0 1 -0.39,-0.48 1.29,1.29 0 0 1 -0.14,-0.62 1.06,1.06 0 0 1 0.32,-0.82 1.2,1.2 0 0 1 0.86,-0.3 1,1 0 0 1 0.84,0.34 1.65,1.65 0 0 1 0.29,0.89 l -0.71,0.13 a 1.82,1.82 0 0 0 -0.1,-0.56 0.32,0.32 0 0 0 -0.32,-0.19 0.37,0.37 0 0 0 -0.29,0.12 0.41,0.41 0 0 0 -0.11,0.31 0.66,0.66 0 0 0 0.09,0.36 1.3,1.3 0 0 0 0.28,0.32 l 0.56,0.5 a 2.66,2.66 0 0 1 0.5,0.59 1.43,1.43 0 0 1 0.18,0.72 1.11,1.11 0 0 1 -0.15,0.58 0.89,0.89 0 0 1 -0.4,0.39 1.13,1.13 0 0 1 -0.59,0.15 1.18,1.18 0 0 1 -0.92,-0.39 z"
       id="path27" />
    <path
       class="cls-19"
       d="m 331.72,199.76 h 0.82 v 1.89 h 0.93 v -1.89 h 0.82 v 4.53 h -0.82 v -2 h -0.93 v 2 h -0.82 z"
       id="path28" />
    <path
       class="cls-19"
       d="m 334.89,199.76 h 0.81 v 4.53 h -0.81 z"
       id="path29" />
    <path
       class="cls-19"
       d="m 336.28,199.76 h 1.33 c 0.77,0 1.16,0.43 1.16,1.29 a 1.08,1.08 0 0 1 -1.22,1.23 h -0.45 v 2 h -0.82 z m 1.14,1.94 a 0.59,0.59 0 0 0 0.45,-0.14 0.83,0.83 0 0 0 0.12,-0.51 1.56,1.56 0 0 0 0,-0.42 0.34,0.34 0 0 0 -0.16,-0.21 0.71,0.71 0 0 0 -0.37,-0.07 h -0.32 v 1.35 z"
       id="path30" />
    <path
       class="cls-19"
       d="m 339.32,204 a 1.67,1.67 0 0 1 -0.33,-1 l 0.71,-0.14 a 1.55,1.55 0 0 0 0.14,0.66 0.4,0.4 0 0 0 0.38,0.23 0.34,0.34 0 0 0 0.28,-0.12 0.48,0.48 0 0 0 0.09,-0.31 0.79,0.79 0 0 0 -0.12,-0.45 2.26,2.26 0 0 0 -0.38,-0.41 l -0.57,-0.5 a 2.06,2.06 0 0 1 -0.39,-0.48 1.29,1.29 0 0 1 -0.13,-0.62 1.06,1.06 0 0 1 0.31,-0.82 1.21,1.21 0 0 1 0.87,-0.3 1,1 0 0 1 0.83,0.34 1.57,1.57 0 0 1 0.29,0.89 l -0.71,0.13 a 1.56,1.56 0 0 0 -0.1,-0.56 0.31,0.31 0 0 0 -0.31,-0.19 0.38,0.38 0 0 0 -0.3,0.12 0.45,0.45 0 0 0 -0.11,0.31 0.66,0.66 0 0 0 0.09,0.36 1.3,1.3 0 0 0 0.28,0.32 l 0.56,0.5 a 2.42,2.42 0 0 1 0.5,0.59 1.43,1.43 0 0 1 0.18,0.72 1.21,1.21 0 0 1 -0.14,0.58 1,1 0 0 1 -0.4,0.39 1.16,1.16 0 0 1 -0.6,0.15 1.18,1.18 0 0 1 -0.92,-0.39 z"
       id="path31" />
    <path
       class="cls-19"
       d="m 310.2,207.16 h 1.87 v 0.57 H 311 v 1.32 h 0.85 v 0.58 H 311 v 2.06 h -0.82 z"
       id="path32" />
    <path
       class="cls-19"
       d="m 312.57,211.38 a 1.75,1.75 0 0 1 -0.3,-1.11 v -1.7 a 1.71,1.71 0 0 1 0.3,-1.09 1.27,1.27 0 0 1 1,-0.37 1.23,1.23 0 0 1 1,0.37 1.71,1.71 0 0 1 0.3,1.09 v 1.7 a 1.74,1.74 0 0 1 -0.3,1.1 1.19,1.19 0 0 1 -1,0.39 1.24,1.24 0 0 1 -1,-0.38 z M 314,211 a 1.09,1.09 0 0 0 0.09,-0.5 v -2.09 A 1,1 0 0 0 314,207.92 c -0.06,-0.12 -0.18,-0.17 -0.37,-0.17 -0.19,0 -0.31,0.05 -0.37,0.17 a 0.94,0.94 0 0 0 -0.1,0.49 v 2.09 a 1,1 0 0 0 0.1,0.5 0.37,0.37 0 0 0 0.37,0.18 A 0.38,0.38 0 0 0 314,211 Z"
       id="path33" />
    <path
       class="cls-19"
       d="m 315.33,207.16 h 1.09 a 1.66,1.66 0 0 1 1.06,0.28 1.09,1.09 0 0 1 0.36,0.93 1.75,1.75 0 0 1 -0.13,0.7 0.75,0.75 0 0 1 -0.43,0.39 l 0.63,2.23 h -0.83 l -0.54,-2.07 h -0.39 v 2.07 h -0.82 z m 1.08,1.94 a 0.64,0.64 0 0 0 0.5,-0.16 0.76,0.76 0 0 0 0.15,-0.53 0.81,0.81 0 0 0 -0.13,-0.52 0.58,0.58 0 0 0 -0.47,-0.16 h -0.31 v 1.37 z"
       id="path34" />
    <path
       class="cls-19"
       d="m 319.93,207.77 h -0.76 v -0.61 h 2.32 v 0.61 h -0.74 v 3.92 h -0.82 z"
       id="path35" />
    <path
       class="cls-19"
       d="m 321.7,207.16 h 0.82 v 1.89 h 0.93 v -1.89 h 0.82 v 4.53 h -0.82 v -2 h -0.93 v 2 h -0.82 z"
       id="path36" />
    <path
       class="cls-19"
       d="m 324.8,207.16 h 1.9 v 0.59 h -1.08 v 1.3 h 0.85 v 0.57 h -0.85 v 1.51 h 1.09 v 0.56 h -1.91 z"
       id="path37" />
    <path
       class="cls-19"
       d="m 328.43,211.36 a 2,2 0 0 1 -0.29,-1.16 v -1.52 a 2,2 0 0 1 0.29,-1.17 1.16,1.16 0 0 1 1,-0.4 1.22,1.22 0 0 1 1,0.34 1.47,1.47 0 0 1 0.29,1 v 0.24 h -0.79 v -0.26 a 2.06,2.06 0 0 0 0,-0.39 0.37,0.37 0 0 0 -0.13,-0.22 0.42,0.42 0 0 0 -0.29,-0.08 0.41,0.41 0 0 0 -0.31,0.1 0.46,0.46 0 0 0 -0.13,0.26 2.17,2.17 0 0 0 0,0.4 v 1.9 a 1.26,1.26 0 0 0 0.1,0.58 0.48,0.48 0 0 0 0.78,0 1.31,1.31 0 0 0 0.11,-0.6 v -0.42 h -0.49 v -0.52 h 1.23 v 2.29 h -0.54 l -0.05,-0.44 a 0.77,0.77 0 0 1 -0.77,0.51 1,1 0 0 1 -1.01,-0.44 z"
       id="path38" />
    <path
       class="cls-19"
       d="m 331.4,211.38 a 1.75,1.75 0 0 1 -0.3,-1.11 v -1.7 a 1.71,1.71 0 0 1 0.3,-1.09 1.26,1.26 0 0 1 1,-0.37 1.23,1.23 0 0 1 1,0.37 1.71,1.71 0 0 1 0.3,1.09 v 1.7 a 1.74,1.74 0 0 1 -0.3,1.1 1.21,1.21 0 0 1 -1,0.39 1.23,1.23 0 0 1 -1,-0.38 z m 1.38,-0.41 a 1.09,1.09 0 0 0 0.09,-0.5 v -2.09 a 1,1 0 0 0 -0.09,-0.49 c -0.06,-0.12 -0.18,-0.17 -0.37,-0.17 a 0.39,0.39 0 0 0 -0.38,0.17 1.07,1.07 0 0 0 -0.09,0.49 v 2.09 a 1.09,1.09 0 0 0 0.09,0.5 0.4,0.4 0 0 0 0.38,0.18 0.38,0.38 0 0 0 0.37,-0.15 z"
       id="path39" />
    <path
       class="cls-19"
       d="m 334.83,207.16 h 0.88 l 0.91,4.53 h -0.77 l -0.17,-1 h -0.79 l -0.19,1 h -0.77 z m 0.76,3 -0.31,-1.9 -0.31,1.9 z"
       id="path40" />
    <path
       class="cls-19"
       d="m 336.91,207.16 h 0.82 v 4 h 1.1 v 0.56 h -1.92 z"
       id="path41" />
    <path
       class="cls-19"
       d="m 339.31,211.41 a 1.67,1.67 0 0 1 -0.33,-1 l 0.71,-0.14 a 1.55,1.55 0 0 0 0.14,0.66 0.4,0.4 0 0 0 0.38,0.23 0.34,0.34 0 0 0 0.28,-0.12 0.48,0.48 0 0 0 0.09,-0.31 0.79,0.79 0 0 0 -0.12,-0.45 2.26,2.26 0 0 0 -0.38,-0.41 l -0.57,-0.5 a 1.71,1.71 0 0 1 -0.39,-0.49 1.25,1.25 0 0 1 -0.13,-0.61 1.08,1.08 0 0 1 0.31,-0.83 1.25,1.25 0 0 1 0.87,-0.29 1,1 0 0 1 0.83,0.34 1.65,1.65 0 0 1 0.29,0.89 l -0.71,0.13 a 1.52,1.52 0 0 0 -0.1,-0.56 0.31,0.31 0 0 0 -0.31,-0.19 0.38,0.38 0 0 0 -0.3,0.12 0.41,0.41 0 0 0 -0.11,0.31 0.69,0.69 0 0 0 0.09,0.36 1.52,1.52 0 0 0 0.28,0.32 l 0.56,0.5 a 2.66,2.66 0 0 1 0.5,0.59 1.43,1.43 0 0 1 0.18,0.72 1.21,1.21 0 0 1 -0.14,0.58 1,1 0 0 1 -0.4,0.39 1.34,1.34 0 0 1 -1.52,-0.2 z"
       id="path42" />
    <path
       class="cls-19"
       d="m 337.27,232.08 a 8.13,8.13 0 0 0 -7.83,-8.12 8.13,8.13 0 0 0 -15.33,0 8.12,8.12 0 0 0 -4.69,14.53 8,8 0 0 0 -0.32,2.26 8.13,8.13 0 0 0 12.72,6.7 8,8 0 0 0 4.51,1.37 8.12,8.12 0 0 0 7.82,-10.34 8.11,8.11 0 0 0 3.12,-6.4 m -9,-5.41 a 6.5,6.5 0 0 1 -5.53,6.41 6.64,6.64 0 0 1 -0.09,-1 6.49,6.49 0 0 1 5.54,-6.41 6.43,6.43 0 0 1 0.08,1 m -6.46,18.67 a 6.48,6.48 0 0 1 -0.06,-9.25 6.48,6.48 0 0 1 0.06,9.25 m -6.44,-19.67 a 6.49,6.49 0 0 1 5.54,6.41 6.64,6.64 0 0 1 -0.09,1 6.46,6.46 0 0 1 -5.45,-7.41 m 4.84,9.32 a 6.49,6.49 0 0 1 -5.8,3.58 6.38,6.38 0 0 1 -3,-0.73 6.5,6.5 0 0 1 5.8,-3.59 6.35,6.35 0 0 1 3,0.74 m 3.11,-0.05 a 6.48,6.48 0 0 1 8.83,2.89 6.48,6.48 0 0 1 -8.83,-2.89 m -1.54,-14.77 a 6.49,6.49 0 0 1 6,3.91 8.14,8.14 0 0 0 -6,4.56 8.16,8.16 0 0 0 -5.95,-4.56 6.49,6.49 0 0 1 5.95,-3.91 m -13.86,11.91 a 6.5,6.5 0 0 1 5.8,-6.45 7.08,7.08 0 0 0 -0.07,1 8.08,8.08 0 0 0 2.66,6 8.18,8.18 0 0 0 -6.24,4.22 6.47,6.47 0 0 1 -2.15,-4.81 m 2.82,8.67 a 6.57,6.57 0 0 1 0.14,-1.35 8.06,8.06 0 0 0 3.53,0.81 8.14,8.14 0 0 0 3.93,-1 8.09,8.09 0 0 0 2.16,7.15 6.48,6.48 0 0 1 -9.76,-5.6 m 22.08,-0.06 a 6.5,6.5 0 0 1 -6.49,6.49 6.4,6.4 0 0 1 -3.2,-0.85 8.1,8.1 0 0 0 2.23,-5.58 7.94,7.94 0 0 0 -0.15,-1.56 8.07,8.07 0 0 0 3.93,1 8,8 0 0 0 3.55,-0.82 6.23,6.23 0 0 1 0.13,1.3 m -5.52,-8.07 a 8.09,8.09 0 0 0 2.61,-6 8.79,8.79 0 0 0 -0.07,-1 6.48,6.48 0 0 1 3.66,11.25 8.16,8.16 0 0 0 -6.2,-4.26"
       id="path43" />
  </g>
</svg>
