<?xml version="1.0" encoding="UTF-8" standalone="no"?>
<!-- Created with Inkscape (http://www.inkscape.org/) -->

<svg
   width="16.570854mm"
   height="16.615833mm"
   viewBox="0 0 16.570854 16.615833"
   version="1.1"
   id="svg1"
   inkscape:version="1.3 (0e150ed6c4, 2023-07-21)"
   sodipodi:docname="sdg-1.svg"
   xmlns:inkscape="http://www.inkscape.org/namespaces/inkscape"
   xmlns:sodipodi="http://sodipodi.sourceforge.net/DTD/sodipodi-0.dtd"
   xmlns="http://www.w3.org/2000/svg"
   xmlns:svg="http://www.w3.org/2000/svg">
  <sodipodi:namedview
     id="namedview1"
     pagecolor="#505050"
     bordercolor="#eeeeee"
     borderopacity="1"
     inkscape:showpageshadow="0"
     inkscape:pageopacity="0"
     inkscape:pagecheckerboard="0"
     inkscape:deskcolor="#505050"
     inkscape:document-units="mm"
     inkscape:zoom="14.824841"
     inkscape:cx="31.298818"
     inkscape:cy="31.4"
     inkscape:window-width="1920"
     inkscape:window-height="1057"
     inkscape:window-x="0"
     inkscape:window-y="0"
     inkscape:window-maximized="1"
     inkscape:current-layer="layer1" />
  <defs
     id="defs1" />
  <g
     inkscape:label="Layer 1"
     inkscape:groupmode="layer"
     id="layer1"
     transform="translate(-96.04375,-139.43542)">
    <g
       id="SDG1"
       transform="matrix(0.26458333,0,0,0.26458333,93.752458,125.4125)">
      <rect
         class="cls-14"
         x="8.6599998"
         y="53"
         width="62.630001"
         height="62.799999"
         id="rect457"
         style="fill:#ea1d2d" />
      <path
         class="cls-19"
         d="m 14.12,60.83 a 9.26,9.26 0 0 1 -0.94,0.37 c -0.42,0.14 -0.68,0.23 -0.79,0.28 v -1.7 a 8.74,8.74 0 0 0 1.22,-0.59 4.53,4.53 0 0 0 1,-0.72 h 1.79 v 12 h -2.3 z"
         id="path458"
         style="fill:#ffffff" />
      <path
         class="cls-19"
         d="M 21.44,58.46 H 22 l 1.11,2.61 V 58.46 H 23.8 V 63 h -0.55 l -1.1,-2.7 V 63 h -0.71 z"
         id="path459"
         style="fill:#ffffff" />
      <path
         class="cls-19"
         d="M 24.64,62.72 A 1.74,1.74 0 0 1 24.33,61.6 v -1.72 a 1.68,1.68 0 0 1 0.31,-1.1 1.22,1.22 0 0 1 1,-0.37 1.25,1.25 0 0 1 1,0.37 1.74,1.74 0 0 1 0.3,1.1 v 1.72 a 1.69,1.69 0 0 1 -0.31,1.11 1.2,1.2 0 0 1 -1,0.39 1.23,1.23 0 0 1 -0.99,-0.38 z M 26,62.31 A 1.16,1.16 0 0 0 26.09,61.8 V 59.69 A 1.09,1.09 0 0 0 26,59.19 c -0.06,-0.12 -0.19,-0.17 -0.38,-0.17 a 0.37,0.37 0 0 0 -0.37,0.17 1,1 0 0 0 -0.1,0.5 v 2.11 a 1,1 0 0 0 0.1,0.51 0.39,0.39 0 0 0 0.37,0.17 0.41,0.41 0 0 0 0.38,-0.17 z"
         id="path460"
         style="fill:#ffffff" />
      <path
         class="cls-19"
         d="m 21.44,65.94 h 1.34 c 0.78,0 1.17,0.43 1.17,1.3 a 1.09,1.09 0 0 1 -1.22,1.24 h -0.46 v 2 h -0.83 z m 1.15,2 a 0.6,0.6 0 0 0 0.46,-0.14 0.84,0.84 0 0 0 0.12,-0.52 1.93,1.93 0 0 0 0,-0.41 A 0.37,0.37 0 0 0 23,66.6 0.74,0.74 0 0 0 22.62,66.52 H 22.3 v 1.37 z"
         id="path461"
         style="fill:#ffffff" />
      <path
         class="cls-19"
         d="m 24.62,70.2 a 1.8,1.8 0 0 1 -0.31,-1.12 v -1.72 a 1.72,1.72 0 0 1 0.31,-1.1 1.23,1.23 0 0 1 1,-0.37 1.22,1.22 0 0 1 1,0.37 1.72,1.72 0 0 1 0.3,1.1 v 1.72 a 1.75,1.75 0 0 1 -0.3,1.11 1.53,1.53 0 0 1 -2,0 z M 26,69.79 a 1.15,1.15 0 0 0 0.1,-0.51 V 67.17 A 1,1 0 0 0 26,66.67 c -0.06,-0.12 -0.18,-0.17 -0.37,-0.17 -0.19,0 -0.32,0 -0.38,0.17 a 1,1 0 0 0 -0.1,0.5 v 2.11 a 1,1 0 0 0 0.1,0.51 0.4,0.4 0 0 0 0.38,0.17 0.39,0.39 0 0 0 0.37,-0.17 z"
         id="path462"
         style="fill:#ffffff" />
      <path
         class="cls-19"
         d="m 27.33,65.94 h 0.73 l 0.61,3.24 0.57,-3.24 H 30 l -0.92,4.57 h -0.82 z"
         id="path463"
         style="fill:#ffffff" />
      <path
         class="cls-19"
         d="m 30.43,65.94 h 1.92 v 0.58 h -1.09 v 1.32 h 0.86 v 0.58 h -0.86 v 1.52 h 1.1 v 0.57 h -1.93 z"
         id="path464"
         style="fill:#ffffff" />
      <path
         class="cls-19"
         d="m 32.82,65.94 h 1.1 a 1.75,1.75 0 0 1 1.08,0.27 1.11,1.11 0 0 1 0.36,0.94 1.61,1.61 0 0 1 -0.13,0.71 0.76,0.76 0 0 1 -0.44,0.4 l 0.64,2.25 H 34.6 l -0.55,-2.09 h -0.4 v 2.09 h -0.83 z m 1.1,2 a 0.64,0.64 0 0 0 0.5,-0.17 0.76,0.76 0 0 0 0.15,-0.53 0.84,0.84 0 0 0 -0.13,-0.53 0.59,0.59 0 0 0 -0.48,-0.16 h -0.31 v 1.35 z"
         id="path465"
         style="fill:#ffffff" />
      <path
         class="cls-19"
         d="M 36.41,66.55 H 35.65 V 65.94 H 38 v 0.61 h -0.75 v 4 h -0.83 z"
         id="path466"
         style="fill:#ffffff" />
      <path
         class="cls-19"
         d="m 39,68.77 -1,-2.83 h 0.78 l 0.57,1.81 0.53,-1.81 h 0.76 l -0.91,2.83 v 1.74 H 39 Z"
         id="path467"
         style="fill:#ffffff" />
      <path
         class="cls-19"
         d="M 57,83 A 1.75,1.75 0 1 1 58.75,84.75 1.75,1.75 0 0 1 57,83"
         id="path468"
         style="fill:#ffffff" />
      <path
         class="cls-19"
         d="m 60.81,85.38 a 2.33,2.33 0 0 1 2.11,2.32 v 4.84 a 0.68,0.68 0 1 1 -1.35,0 v -4.16 a 0.31,0.31 0 0 0 -0.33,-0.36 c -0.2,0 -0.24,0.2 -0.25,0.34 v 12.46 a 1,1 0 0 1 -1.94,0 v -7.18 a 0.27,0.27 0 0 0 -0.28,-0.29 v 0 a 0.27,0.27 0 0 0 -0.28,0.29 v 7.18 a 1,1 0 0 1 -2,0 V 88.36 c 0,-0.14 0,-0.34 -0.24,-0.34 -0.24,0 -0.33,0.21 -0.33,0.36 v 4.16 a 0.68,0.68 0 1 1 -1.36,0 V 87.7 a 2.33,2.33 0 0 1 2.12,-2.32 h 4.08"
         id="path469"
         style="fill:#ffffff" />
      <path
         class="cls-19"
         d="M 46.63,83.88 A 1.65,1.65 0 1 0 45,85.53 1.65,1.65 0 0 0 46.65,83.88"
         id="path470"
         style="fill:#ffffff" />
      <path
         class="cls-19"
         d="m 41.65,87.62 -1.38,4.48 c 0,0 -0.24,0.82 0.46,1 0.7,0.18 0.9,-0.59 0.9,-0.59 l 1.11,-3.74 c 0,0 0.06,-0.28 0.27,-0.22 0.21,0.06 0.14,0.37 0.14,0.37 l -1.93,7 H 43 v 5 a 0.87,0.87 0 0 0 1.73,0 v -5 h 0.49 v 5 A 0.89089842,0.89089842 0 1 0 47,101 v -5 h 1.79 l -1.92,-7 c 0,0 -0.09,-0.31 0.13,-0.37 0.22,-0.06 0.28,0.22 0.28,0.22 l 1.1,3.74 c 0,0 0.22,0.8 0.91,0.59 0.69,-0.21 0.45,-1 0.45,-1 L 48.36,87.7 c 0,0 -0.49,-1.29 -1.58,-1.29 h -3.5 c -1.09,0 -1.58,1.29 -1.58,1.29"
         id="path471"
         style="fill:#ffffff" />
      <path
         class="cls-19"
         d="m 36.73,83.88 a 1.66,1.66 0 1 0 -1.65,1.65 1.65,1.65 0 0 0 1.65,-1.65"
         id="path472"
         style="fill:#ffffff" />
      <path
         class="cls-19"
         d="m 31.74,87.62 -1.37,4.48 c 0,0 -0.25,0.82 0.45,1 0.7,0.18 0.9,-0.59 0.9,-0.59 l 1.11,-3.74 c 0,0 0.06,-0.28 0.28,-0.22 0.22,0.06 0.13,0.37 0.13,0.37 l -1.93,7 h 1.8 v 5 a 0.86,0.86 0 0 0 1.72,0 v -5 h 0.49 v 5 A 0.86,0.86 0 0 0 37,101 v -5 h 1.8 l -1.93,-7 c 0,0 -0.08,-0.31 0.13,-0.37 0.21,-0.06 0.28,0.22 0.28,0.22 l 1.11,3.74 c 0,0 0.21,0.8 0.9,0.59 0.69,-0.21 0.45,-1 0.45,-1 L 38.37,87.7 c 0,0 -0.49,-1.29 -1.58,-1.29 h -3.47 c -1.08,0 -1.58,1.29 -1.58,1.29"
         id="path473"
         style="fill:#ffffff" />
      <path
         class="cls-19"
         d="m 52.19,93.13 a 1.38,1.38 0 1 0 -1.38,-1.37 1.37,1.37 0 0 0 1.38,1.37"
         id="path474"
         style="fill:#ffffff" />
      <path
         class="cls-19"
         d="m 48.89,97.41 a 0.48,0.48 0 0 0 0.2,0.65 0.45,0.45 0 0 0 0.59,-0.19 l 0.75,-2.39 c 0,0 0.13,-0.16 0.13,0 v 5.62 0 a 0.7,0.7 0 0 0 0.71,0.7 0.7,0.7 0 0 0 0.7,-0.7 v -2.21 c 0,0 0,-0.31 0.22,-0.31 0.22,0 0.21,0.31 0.21,0.31 v 2.22 a 0.7,0.7 0 0 0 0.71,0.7 0.7,0.7 0 0 0 0.7,-0.7 v -5.62 c 0,-0.17 0.09,0 0.09,0 l 0.59,1.64 a 3.73,3.73 0 0 0 0.33,0.76 0.52,0.52 0 0 0 0.68,-0.28 0.51,0.51 0 0 0 0,-0.51 v 0 c 0,0 -0.87,-2.16 -1,-2.46 -0.31,-0.91 -0.87,-0.9 -1.41,-0.91 -0.54,-0.01 -0.87,0 -0.87,0 0,0 -0.35,0 -1.07,0 -0.72,0 -0.94,0.39 -1.74,2.43 -0.11,0.29 -0.49,1.24 -0.5,1.3 z"
         id="path475"
         style="fill:#ffffff" />
      <path
         class="cls-19"
         d="M 22,83 A 1.75,1.75 0 1 0 20.25,84.75 1.75,1.75 0 0 0 22,83"
         id="path476"
         style="fill:#ffffff" />
      <path
         class="cls-19"
         d="m 18.17,85.38 a 2.33,2.33 0 0 0 -2.11,2.32 v 4.84 a 0.68,0.68 0 1 0 1.35,0 v -4.16 a 0.31,0.31 0 0 1 0.33,-0.36 c 0.2,0 0.24,0.2 0.25,0.34 v 12.46 a 1,1 0 1 0 1.94,0 v -7.18 a 0.27,0.27 0 0 1 0.28,-0.29 v 0 a 0.27,0.27 0 0 1 0.28,0.29 v 7.18 a 1,1 0 0 0 2,0 V 88.36 c 0,-0.14 0,-0.34 0.24,-0.34 0.24,0 0.33,0.21 0.33,0.36 v 4.16 a 0.68,0.68 0 0 0 1.36,0 V 87.7 A 2.33,2.33 0 0 0 22.3,85.38 h -4.13"
         id="path477"
         style="fill:#ffffff" />
      <path
         class="cls-19"
         d="M 15.1,101.84 H 15 a 0.37,0.37 0 0 1 -0.3,-0.43 l 1.55,-8.22 a 0.37,0.37 0 0 1 0.44,-0.3 0.36,0.36 0 0 1 0.29,0.43 l -1.55,8.22 a 0.37,0.37 0 0 1 -0.33,0.3 z"
         id="path478"
         style="fill:#ffffff" />
      <path
         class="cls-19"
         d="m 25.19,92.41 a 0.5,0.5 0 0 0 -0.92,0.27 0.9,0.9 0 0 0 0.05,0.22 l 1.38,2.51 a 0.83,0.83 0 0 1 0.09,0.33 v 5.39 0 a 0.68,0.68 0 0 0 1.36,0 V 99 c 0,0 0,-0.31 0.2,-0.31 0.2,0 0.21,0.31 0.21,0.31 v 2.12 a 0.68,0.68 0 0 0 1.36,0 V 95.74 A 0.91,0.91 0 0 1 29,95.41 l 1.28,-2.32 a 2.19,2.19 0 0 0 0.16,-0.41 0.5,0.5 0 0 0 -0.5,-0.5 0.51,0.51 0 0 0 -0.43,0.23 v 0 c 0,0 -0.69,1.18 -0.9,1.39 A 0.52,0.52 0 0 1 28.19,94 H 26.52 A 0.55,0.55 0 0 1 26.09,93.8 C 25.88,93.59 25.24,92.44 25.2,92.41 Z"
         id="path479"
         style="fill:#ffffff" />
      <path
         class="cls-19"
         d="M 27.35,93.13 A 1.38,1.38 0 1 0 26,91.76 a 1.37,1.37 0 0 0 1.37,1.37"
         id="path480"
         style="fill:#ffffff" />
      <polygon
         class="cls-19"
         points="29.65,98.92 27.36,98.92 25.06,98.92 25.8,96.2 27.36,95.07 28.91,96.2 "
         id="polygon480"
         style="fill:#ffffff" />
    </g>
  </g>
</svg>
