<?xml version="1.0" encoding="UTF-8" standalone="no"?>
<svg
   id="SDGs"
   viewBox="0 0 62.150001 62.149999"
   version="1.1"
   sodipodi:docname="sdg-10.svg"
   width="62.150002"
   height="62.150002"
   inkscape:version="1.3 (0e150ed6c4, 2023-07-21)"
   xmlns:inkscape="http://www.inkscape.org/namespaces/inkscape"
   xmlns:sodipodi="http://sodipodi.sourceforge.net/DTD/sodipodi-0.dtd"
   xmlns="http://www.w3.org/2000/svg"
   xmlns:svg="http://www.w3.org/2000/svg">
  <sodipodi:namedview
     id="namedview523"
     pagecolor="#505050"
     bordercolor="#eeeeee"
     borderopacity="1"
     inkscape:showpageshadow="0"
     inkscape:pageopacity="0"
     inkscape:pagecheckerboard="0"
     inkscape:deskcolor="#505050"
     inkscape:zoom="1.7804714"
     inkscape:cx="3.9315432"
     inkscape:cy="23.308434"
     inkscape:window-width="1920"
     inkscape:window-height="1057"
     inkscape:window-x="0"
     inkscape:window-y="0"
     inkscape:window-maximized="1"
     inkscape:current-layer="SDGs" />
  <defs
     id="defs1">
    <style
       id="style1">.cls-1{fill:#f4f4f5;}.cls-2{fill:#5fbb46;}.cls-3{fill:#d19f2a;}.cls-4{fill:#c22033;}.cls-5{fill:#2d9a47;}.cls-6{fill:#48773c;}.cls-7{fill:#fdb714;}.cls-8{fill:#ef412a;}.cls-9{fill:#f99d25;}.cls-10{fill:#007dbb;}.cls-11{fill:#8f1838;}.cls-12{fill:#00add8;}.cls-13{fill:#f36e24;}.cls-14{fill:#ea1d2d;}.cls-15{fill:#e01a83;}.cls-16{fill:#1a3668;}.cls-17{fill:#cd8b2a;}.cls-18{fill:#00558a;}.cls-19{fill:#fff;}.cls-20{fill:#40ae49;}.cls-21{fill:#009edb;}</style>
  </defs>
  <g
     id="SDG10"
     transform="translate(-220.16,-124.02)">
    <rect
       class="cls-15"
       x="220.16"
       y="124.02"
       width="62.150002"
       height="62.150002"
       id="rect218" />
    <path
       class="cls-19"
       d="m 225.58,131.77 c -0.11,0 -0.42,0.18 -0.94,0.36 -0.52,0.18 -0.67,0.23 -0.77,0.28 v -1.68 a 9.24,9.24 0 0 0 1.2,-0.59 4.15,4.15 0 0 0 1,-0.71 h 1.77 v 11.85 h -2.27 z"
       id="path219" />
    <path
       class="cls-19"
       d="m 229.83,140.55 a 3.66,3.66 0 0 1 -0.81,-2.49 v -5.31 a 3.81,3.81 0 0 1 0.79,-2.56 3.5,3.5 0 0 1 4.75,0 3.81,3.81 0 0 1 0.79,2.56 v 5.31 a 3.6,3.6 0 0 1 -0.82,2.48 2.92,2.92 0 0 1 -2.34,0.94 3,3 0 0 1 -2.36,-0.93 z m 3.22,-2.54 v -5.22 a 3.2,3.2 0 0 0 -0.16,-1.1 0.79,0.79 0 0 0 -1.42,0 3.32,3.32 0 0 0 -0.16,1.1 V 138 c 0,1 0.3,1.48 0.88,1.48 0.58,0 0.86,-0.48 0.86,-1.48 z"
       id="path220" />
    <path
       class="cls-19"
       d="m 240,134 v -4.53 h 1.08 a 2.26,2.26 0 0 1 0.78,0.11 0.85,0.85 0 0 1 0.48,0.37 1.31,1.31 0 0 1 0.16,0.71 2.49,2.49 0 0 1 -0.05,0.5 0.9,0.9 0 0 1 -0.17,0.37 0.83,0.83 0 0 1 -0.33,0.24 l 0.63,2.23 h -0.83 l -0.55,-2.08 h -0.38 V 134 Z m 0.82,-2.6 h 0.26 a 0.81,0.81 0 0 0 0.38,-0.07 0.38,0.38 0 0 0 0.21,-0.22 1.12,1.12 0 0 0 0.06,-0.4 0.84,0.84 0 0 0 -0.13,-0.51 0.56,0.56 0 0 0 -0.47,-0.17 h -0.31 z"
       id="path221" />
    <path
       class="cls-19"
       d="m 243,134 v -4.53 h 1.9 V 130 h -1.08 v 1.3 h 0.85 v 0.58 h -0.85 v 1.5 h 1.09 V 134 Z"
       id="path222" />
    <path
       class="cls-19"
       d="m 245.26,134 v -4.53 h 1.06 a 2.06,2.06 0 0 1 0.87,0.15 0.86,0.86 0 0 1 0.44,0.46 2.06,2.06 0 0 1 0.13,0.8 v 1.65 a 2.17,2.17 0 0 1 -0.13,0.82 0.92,0.92 0 0 1 -0.44,0.49 1.88,1.88 0 0 1 -0.83,0.16 z m 0.82,-0.58 h 0.26 a 0.6,0.6 0 0 0 0.4,-0.1 0.38,0.38 0 0 0 0.15,-0.29 3.23,3.23 0 0 0 0,-0.48 v -1.73 a 1.78,1.78 0 0 0 0,-0.44 0.37,0.37 0 0 0 -0.16,-0.25 0.77,0.77 0 0 0 -0.4,-0.08 h -0.24 z"
       id="path223" />
    <path
       class="cls-19"
       d="m 249.47,134 a 1.38,1.38 0 0 1 -0.79,-0.19 0.93,0.93 0 0 1 -0.38,-0.52 2.81,2.81 0 0 1 -0.11,-0.82 v -3.06 H 249 v 3.16 a 2.6,2.6 0 0 0 0,0.4 0.52,0.52 0 0 0 0.13,0.3 0.38,0.38 0 0 0 0.31,0.11 0.37,0.37 0 0 0 0.31,-0.11 0.59,0.59 0 0 0 0.13,-0.3 2.6,2.6 0 0 0 0,-0.4 v -3.16 h 0.8 v 3.06 a 2.83,2.83 0 0 1 -0.1,0.82 0.9,0.9 0 0 1 -0.39,0.52 1.32,1.32 0 0 1 -0.72,0.19 z"
       id="path224" />
    <path
       class="cls-19"
       d="m 252.47,134 a 1.32,1.32 0 0 1 -0.78,-0.2 1.06,1.06 0 0 1 -0.4,-0.53 2.67,2.67 0 0 1 -0.11,-0.78 v -1.62 a 2.66,2.66 0 0 1 0.11,-0.8 1,1 0 0 1 0.4,-0.53 1.41,1.41 0 0 1 0.78,-0.18 1.39,1.39 0 0 1 0.73,0.16 0.85,0.85 0 0 1 0.38,0.45 2.08,2.08 0 0 1 0.11,0.69 v 0.38 h -0.79 v -0.39 c 0,-0.13 0,-0.24 0,-0.35 a 0.48,0.48 0 0 0 -0.11,-0.25 0.54,0.54 0 0 0 -0.61,0 0.42,0.42 0 0 0 -0.12,0.26 2.13,2.13 0 0 0 0,0.37 v 2 a 1.58,1.58 0 0 0 0,0.41 0.42,0.42 0 0 0 0.14,0.24 0.47,0.47 0 0 0 0.28,0.08 0.38,0.38 0 0 0 0.3,-0.1 0.47,0.47 0 0 0 0.1,-0.26 2,2 0 0 0 0,-0.36 v -0.41 h 0.79 v 0.36 a 2,2 0 0 1 -0.11,0.72 0.89,0.89 0 0 1 -0.37,0.48 1.28,1.28 0 0 1 -0.72,0.16 z"
       id="path225" />
    <path
       class="cls-19"
       d="m 254.12,134 v -4.53 H 256 V 130 h -1 v 1.3 h 0.84 v 0.58 H 255 v 1.5 h 1 V 134 Z"
       id="path226" />
    <path
       class="cls-19"
       d="m 256.37,134 v -4.53 h 1.07 a 2,2 0 0 1 0.86,0.15 0.88,0.88 0 0 1 0.45,0.46 2.27,2.27 0 0 1 0.13,0.8 v 1.65 a 2.39,2.39 0 0 1 -0.13,0.82 1,1 0 0 1 -0.44,0.49 1.9,1.9 0 0 1 -0.84,0.16 z m 0.83,-0.58 h 0.25 a 0.63,0.63 0 0 0 0.41,-0.1 0.45,0.45 0 0 0 0.14,-0.32 3.23,3.23 0 0 0 0,-0.48 v -1.73 a 2.45,2.45 0 0 0 0,-0.44 0.41,0.41 0 0 0 -0.16,-0.25 0.83,0.83 0 0 0 -0.4,-0.08 h -0.24 z"
       id="path227" />
    <path
       class="cls-19"
       d="m 240.05,141.35 v -4.53 h 0.81 v 4.53 z"
       id="path228" />
    <path
       class="cls-19"
       d="m 241.42,141.35 v -4.53 H 242 l 1.11,2.58 v -2.58 h 0.68 v 4.53 h -0.55 l -1.11,-2.71 v 2.71 z"
       id="path229" />
    <path
       class="cls-19"
       d="m 244.32,141.35 v -4.53 h 1.9 v 0.58 h -1.07 v 1.3 H 246 v 0.58 h -0.84 v 1.5 h 1.08 v 0.57 z"
       id="path230" />
    <path
       class="cls-19"
       d="m 248.78,142.25 a 1.94,1.94 0 0 1 -0.3,-0.2 2.27,2.27 0 0 1 -0.31,-0.31 2.12,2.12 0 0 1 -0.27,-0.34 h -0.1 a 1.44,1.44 0 0 1 -0.77,-0.18 1,1 0 0 1 -0.4,-0.51 2.17,2.17 0 0 1 -0.13,-0.8 v -1.69 a 2.08,2.08 0 0 1 0.13,-0.79 1,1 0 0 1 0.4,-0.5 1.85,1.85 0 0 1 1.55,0 1,1 0 0 1 0.41,0.5 2.3,2.3 0 0 1 0.12,0.79 v 1.7 a 2.58,2.58 0 0 1 -0.06,0.58 1.29,1.29 0 0 1 -0.2,0.46 1,1 0 0 1 -0.37,0.3 l 0.15,0.16 0.16,0.16 a 0.79,0.79 0 0 0 0.15,0.12 z m -1,-1.45 a 0.46,0.46 0 0 0 0.31,-0.09 0.4,0.4 0 0 0 0.13,-0.25 1.18,1.18 0 0 0 0,-0.34 V 138 a 1.18,1.18 0 0 0 0,-0.34 0.41,0.41 0 0 0 -0.13,-0.24 0.46,0.46 0 0 0 -0.31,-0.09 0.45,0.45 0 0 0 -0.3,0.09 0.41,0.41 0 0 0 -0.13,0.24 1.72,1.72 0 0 0 0,0.34 v 2.08 a 1.72,1.72 0 0 0 0,0.34 0.4,0.4 0 0 0 0.13,0.25 0.45,0.45 0 0 0 0.32,0.13 z"
       id="path231" />
    <path
       class="cls-19"
       d="m 250.82,141.41 a 1.43,1.43 0 0 1 -0.78,-0.18 1,1 0 0 1 -0.39,-0.53 2.83,2.83 0 0 1 -0.1,-0.82 v -3.06 h 0.8 V 140 a 2.6,2.6 0 0 0 0,0.4 0.59,0.59 0 0 0 0.13,0.3 0.38,0.38 0 0 0 0.31,0.11 0.39,0.39 0 0 0 0.32,-0.11 0.69,0.69 0 0 0 0.13,-0.3 2.6,2.6 0 0 0 0,-0.4 v -3.16 h 0.8 v 3.06 a 2.81,2.81 0 0 1 -0.11,0.82 1,1 0 0 1 -0.38,0.53 1.47,1.47 0 0 1 -0.73,0.16 z"
       id="path232" />
    <path
       class="cls-19"
       d="m 252.35,141.35 0.9,-4.53 h 0.89 l 0.9,4.53 h -0.76 l -0.18,-1 h -0.79 l -0.18,1 z m 1,-1.57 H 254 l -0.31,-1.91 z"
       id="path233" />
    <path
       class="cls-19"
       d="m 255.33,141.35 v -4.53 h 0.83 v 4 h 1.09 v 0.57 z"
       id="path234" />
    <path
       class="cls-19"
       d="m 257.54,141.35 v -4.53 h 0.82 v 4.53 z"
       id="path235" />
    <path
       class="cls-19"
       d="m 259.36,141.35 v -3.92 h -0.72 v -0.61 h 2.26 v 0.61 h -0.71 v 3.92 z"
       id="path236" />
    <path
       class="cls-19"
       d="m 261.19,141.35 v -4.53 H 262 v 4.53 z"
       id="path237" />
    <path
       class="cls-19"
       d="m 262.56,141.35 v -4.53 h 1.9 v 0.58 h -1.07 v 1.3 h 0.85 v 0.58 h -0.85 v 1.5 h 1.09 v 0.57 z"
       id="path238" />
    <path
       class="cls-19"
       d="m 266,141.41 a 1.29,1.29 0 0 1 -0.68,-0.16 1,1 0 0 1 -0.41,-0.47 1.81,1.81 0 0 1 -0.16,-0.75 l 0.71,-0.14 a 2.86,2.86 0 0 0 0.06,0.46 0.61,0.61 0 0 0 0.17,0.31 0.36,0.36 0 0 0 0.28,0.11 0.33,0.33 0 0 0 0.29,-0.12 0.48,0.48 0 0 0 0.08,-0.3 0.83,0.83 0 0 0 -0.13,-0.49 2.1,2.1 0 0 0 -0.36,-0.38 l -0.57,-0.5 a 1.79,1.79 0 0 1 -0.38,-0.46 1.22,1.22 0 0 1 -0.14,-0.63 1.06,1.06 0 0 1 0.31,-0.83 1.17,1.17 0 0 1 0.85,-0.29 1.24,1.24 0 0 1 0.54,0.1 0.73,0.73 0 0 1 0.33,0.27 1,1 0 0 1 0.19,0.39 2.31,2.31 0 0 1 0.08,0.47 l -0.71,0.12 a 2.11,2.11 0 0 0 0,-0.38 0.58,0.58 0 0 0 -0.13,-0.26 0.33,0.33 0 0 0 -0.27,-0.1 0.36,0.36 0 0 0 -0.29,0.12 0.49,0.49 0 0 0 -0.09,0.3 0.74,0.74 0 0 0 0.09,0.38 1.54,1.54 0 0 0 0.28,0.3 l 0.56,0.5 a 2.29,2.29 0 0 1 0.48,0.55 1.45,1.45 0 0 1 0.2,0.77 1.17,1.17 0 0 1 -0.14,0.57 1.1,1.1 0 0 1 -0.4,0.4 1.27,1.27 0 0 1 -0.64,0.14 z"
       id="path239" />
    <path
       class="cls-19"
       d="m 257,164.8 h -11.44 a 0.13,0.13 0 0 0 -0.13,0.14 v 3.44 a 0.13,0.13 0 0 0 0.13,0.14 H 257 a 0.13,0.13 0 0 0 0.13,-0.14 v -3.44 A 0.13,0.13 0 0 0 257,164.8"
       id="path240" />
    <path
       class="cls-19"
       d="m 257,157.48 h -11.44 a 0.13,0.13 0 0 0 -0.13,0.14 v 3.44 a 0.13,0.13 0 0 0 0.13,0.14 H 257 a 0.13,0.13 0 0 0 0.13,-0.14 v -3.44 A 0.13,0.13 0 0 0 257,157.48"
       id="path241" />
    <path
       class="cls-19"
       d="m 256.84,152.28 -5.49,-5.49 a 0.1,0.1 0 0 0 -0.14,0 l -5.49,5.49 a 0.09,0.09 0 0 0 0.07,0.16 h 11 a 0.09,0.09 0 0 0 0.05,-0.16 z"
       id="path242" />
    <path
       class="cls-19"
       d="m 262,168.56 5.49,-5.49 a 0.1,0.1 0 0 0 0,-0.14 L 262,157.44 a 0.09,0.09 0 0 0 -0.16,0.07 v 11 a 0.09,0.09 0 0 0 0.16,0.05 z"
       id="path243" />
    <path
       class="cls-19"
       d="m 245.72,173.72 5.49,5.49 a 0.1,0.1 0 0 0 0.14,0 l 5.49,-5.49 a 0.09,0.09 0 0 0 -0.07,-0.16 h -11 a 0.09,0.09 0 0 0 -0.05,0.16 z"
       id="path244" />
    <path
       class="cls-19"
       d="m 240.56,157.44 -5.49,5.49 a 0.1,0.1 0 0 0 0,0.14 l 5.49,5.49 a 0.09,0.09 0 0 0 0.16,-0.07 v -11 a 0.09,0.09 0 0 0 -0.16,-0.05 z"
       id="path245" />
  </g>
</svg>
