<?xml version="1.0" encoding="UTF-8" standalone="no"?>
<svg
   id="SDGs"
   viewBox="0 0 61.310001 61.309999"
   version="1.1"
   sodipodi:docname="sdg-6.svg"
   width="61.310001"
   height="61.310001"
   inkscape:version="1.3 (0e150ed6c4, 2023-07-21)"
   xmlns:inkscape="http://www.inkscape.org/namespaces/inkscape"
   xmlns:sodipodi="http://sodipodi.sourceforge.net/DTD/sodipodi-0.dtd"
   xmlns="http://www.w3.org/2000/svg"
   xmlns:svg="http://www.w3.org/2000/svg">
  <sodipodi:namedview
     id="namedview523"
     pagecolor="#505050"
     bordercolor="#eeeeee"
     borderopacity="1"
     inkscape:showpageshadow="0"
     inkscape:pageopacity="0"
     inkscape:pagecheckerboard="0"
     inkscape:deskcolor="#505050"
     inkscape:zoom="1.7804714"
     inkscape:cx="-135.91906"
     inkscape:cy="93.514562"
     inkscape:window-width="1920"
     inkscape:window-height="1057"
     inkscape:window-x="0"
     inkscape:window-y="0"
     inkscape:window-maximized="1"
     inkscape:current-layer="SDGs" />
  <defs
     id="defs1">
    <style
       id="style1">.cls-1{fill:#f4f4f5;}.cls-2{fill:#5fbb46;}.cls-3{fill:#d19f2a;}.cls-4{fill:#c22033;}.cls-5{fill:#2d9a47;}.cls-6{fill:#48773c;}.cls-7{fill:#fdb714;}.cls-8{fill:#ef412a;}.cls-9{fill:#f99d25;}.cls-10{fill:#007dbb;}.cls-11{fill:#8f1838;}.cls-12{fill:#00add8;}.cls-13{fill:#f36e24;}.cls-14{fill:#ea1d2d;}.cls-15{fill:#e01a83;}.cls-16{fill:#1a3668;}.cls-17{fill:#cd8b2a;}.cls-18{fill:#00558a;}.cls-19{fill:#fff;}.cls-20{fill:#40ae49;}.cls-21{fill:#009edb;}</style>
  </defs>
  <g
     id="SDG6"
     transform="translate(-360.31,-53.75)">
    <rect
       class="cls-12"
       x="360.31"
       y="53.75"
       width="61.310001"
       height="61.310001"
       id="rect353" />
    <path
       class="cls-19"
       d="m 402.31,78.51 a 0.28,0.28 0 0 0 -0.2,-0.08 h -22.35 a 0.32,0.32 0 0 0 -0.2,0.08 0.34,0.34 0 0 0 -0.05,0.22 l 3.75,22.7 a 0.26,0.26 0 0 0 0.26,0.22 h 4.61 l 0.31,3.7 h -1.94 l 4.51,4.51 4.53,-4.52 h -1.94 l 0.31,-3.69 h 4.69 a 0.26,0.26 0 0 0 0.26,-0.22 l 3.51,-22.7 a 0.29,0.29 0 0 0 -0.06,-0.22 z m -8.63,18.18 a 4.3,4.3 0 0 1 -5.34,0 4,4 0 0 1 -0.49,-4.83 c 0.36,-0.67 2.93,-4.53 3.15,-4.86 v 0 0 0 c 0.21,0.33 2.79,4.19 3.15,4.86 a 4,4 0 0 1 -0.47,4.83 z m 7.08,-13.4 a 2.75,2.75 0 0 0 -2.11,0.13 c -2.77,1.12 -4.66,1.53 -7.57,0.61 -1.84,-0.57 -3.56,-1.77 -5.59,-1 a 11.42,11.42 0 0 1 -4.12,0.93 l -0.89,-4.51 h 20.92 z"
       id="path354" />
    <path
       class="cls-19"
       d="m 369.49,71.35 c 2.22,0 3.08,-1.21 3.08,-3.13 v -1.83 c 0,-2 -0.81,-3.06 -2.31,-3.06 a 1.77,1.77 0 0 0 -1.72,1 v 0 -2.67 c 0,-0.75 0.24,-1.28 1,-1.28 0.76,0 1,0.44 1,1.21 v 0.82 h 1.91 v -0.66 c 0,-1.83 -0.61,-3.11 -2.92,-3.11 -2.31,0 -3,1.41 -3,3.35 V 68 c 0,1.92 0.84,3.31 3,3.31 m -1,-5.22 c 0,-0.69 0.33,-1.13 1,-1.13 0.67,0 1,0.44 1,1.24 v 2.2 c 0,0.79 -0.29,1.25 -1,1.25 -0.71,0 -1,-0.48 -1,-1.25 z"
       id="path355" />
    <path
       class="cls-19"
       d="m 378,62.77 v -2.52 a 1.23,1.23 0 0 1 1.3,-1.4 c 1,0 1.24,0.54 1.24,1.3 v 0.62 h -0.8 v -0.68 c 0,-0.33 -0.11,-0.51 -0.42,-0.51 -0.31,0 -0.44,0.22 -0.44,0.54 v 2.78 c 0,0.32 0.13,0.54 0.44,0.54 0.31,0 0.42,-0.2 0.42,-0.51 V 62 h 0.8 v 0.89 c 0,0.74 -0.31,1.3 -1.24,1.3 A 1.23,1.23 0 0 1 378,62.77 Z"
       id="path356" />
    <path
       class="cls-19"
       d="m 381.05,58.91 h 0.87 v 4.48 H 383 v 0.71 h -1.92 z"
       id="path357" />
    <path
       class="cls-19"
       d="m 383.36,58.91 h 2.09 v 0.72 h -1.21 v 1.48 h 0.86 v 0.71 h -0.86 v 1.57 h 1.21 v 0.71 h -2.09 z"
       id="path358" />
    <path
       class="cls-19"
       d="m 385.77,64.1 1,-5.19 h 1 l 1,5.19 h -0.9 l -0.16,-0.94 h -0.92 l -0.16,0.94 z m 1.1,-1.64 h 0.7 l -0.35,-2.08 v 0 z"
       id="path359" />
    <path
       class="cls-19"
       d="m 389.83,60.84 v 3.26 h -0.73 v -5.19 h 0.9 l 0.95,3 v -3 h 0.72 v 5.19 h -0.76 z"
       id="path360" />
    <path
       class="cls-19"
       d="m 395.32,60.9 -0.49,3.2 H 394 l -0.7,-5.19 h 0.84 l 0.41,3.3 v 0 l 0.43,-3.3 h 0.72 l 0.48,3.3 v 0 l 0.39,-3.3 h 0.74 l -0.67,5.19 h -0.83 l -0.51,-3.2 z"
       id="path361" />
    <path
       class="cls-19"
       d="m 397.27,64.1 1,-5.19 h 1 l 1,5.19 h -0.89 l -0.16,-0.94 h -0.93 l -0.15,0.94 z m 1.09,-1.64 h 0.7 l -0.34,-2.08 v 0 z"
       id="path362" />
    <path
       class="cls-19"
       d="m 400.11,58.91 h 2.32 v 0.72 h -0.72 v 4.47 h -0.88 v -4.47 h -0.72 z"
       id="path363" />
    <path
       class="cls-19"
       d="m 402.83,58.91 h 2.09 v 0.72 h -1.21 v 1.48 h 0.86 v 0.71 h -0.86 v 1.57 h 1.21 v 0.71 h -2.09 z"
       id="path364" />
    <path
       class="cls-19"
       d="m 406.26,61.72 v 2.38 h -0.88 v -5.19 h 1.27 c 0.88,0 1.21,0.44 1.21,1.17 v 0.66 c 0,0.56 -0.2,0.89 -0.7,1 L 408,64.1 h -0.91 z m 0,-2.09 v 1.61 h 0.29 a 0.38,0.38 0 0 0 0.43,-0.43 v -0.76 c 0,-0.29 -0.13,-0.42 -0.43,-0.42 z"
       id="path365" />
    <path
       class="cls-19"
       d="m 377.91,71.38 1,-5.2 h 1 l 1,5.2 H 380 l -0.16,-0.95 h -0.92 l -0.16,0.95 z M 379,69.73 h 0.7 l -0.35,-2.08 v 0 z"
       id="path366" />
    <path
       class="cls-19"
       d="m 382,68.11 v 3.27 h -0.73 v -5.2 h 0.86 l 0.94,3 v -3 h 0.72 v 5.2 H 383 Z"
       id="path367" />
    <path
       class="cls-19"
       d="M 386.86,67.58 V 70 c 0,0.8 -0.33,1.4 -1.26,1.4 h -1.35 v -5.2 h 1.35 c 0.93,-0.02 1.26,0.58 1.26,1.38 z m -1.37,3.08 a 0.45,0.45 0 0 0 0.5,-0.52 v -2.72 a 0.45,0.45 0 0 0 -0.5,-0.52 h -0.37 v 3.76 z"
       id="path368" />
    <path
       class="cls-19"
       d="m 388.63,70.26 v -0.7 h 0.81 v 0.71 c 0,0.29 0.13,0.46 0.43,0.46 0.3,0 0.39,-0.18 0.39,-0.46 v -0.2 a 0.93,0.93 0 0 0 -0.39,-0.73 l -0.51,-0.51 a 1.75,1.75 0 0 1 -0.73,-1.39 v -0.18 a 1.09,1.09 0 0 1 1.23,-1.14 c 0.87,0 1.22,0.43 1.22,1.18 v 0.42 h -0.8 v -0.45 c 0,-0.3 -0.14,-0.44 -0.41,-0.44 a 0.39,0.39 0 0 0 -0.42,0.43 v 0.1 c 0,0.29 0.16,0.46 0.42,0.71 l 0.56,0.55 a 1.74,1.74 0 0 1 0.7,1.35 v 0.25 a 1.13,1.13 0 0 1 -1.27,1.22 1.08,1.08 0 0 1 -1.23,-1.18 z"
       id="path369" />
    <path
       class="cls-19"
       d="m 391.37,71.38 1,-5.2 h 1 l 1,5.2 h -0.9 l -0.16,-0.95 h -0.93 l -0.15,0.95 z m 1.1,-1.65 h 0.7 l -0.35,-2.08 v 0 z"
       id="path370" />
    <path
       class="cls-19"
       d="m 395.43,68.11 v 3.27 h -0.73 v -5.2 h 0.85 l 0.95,3 v -3 h 0.72 v 5.2 h -0.76 z"
       id="path371" />
    <path
       class="cls-19"
       d="m 397.72,66.18 h 0.87 v 5.2 h -0.87 z"
       id="path372" />
    <path
       class="cls-19"
       d="m 399,66.18 h 2.32 v 0.72 h -0.72 v 4.48 h -0.88 V 66.9 H 399 Z"
       id="path373" />
    <path
       class="cls-19"
       d="m 401.2,71.38 1,-5.2 h 1 l 1,5.2 h -0.9 l -0.16,-0.95 h -0.93 l -0.15,0.95 z m 1.1,-1.65 h 0.7 l -0.34,-2.08 v 0 z"
       id="path374" />
    <path
       class="cls-19"
       d="m 404,66.18 h 2.32 v 0.72 h -0.72 v 4.48 h -0.88 V 66.9 H 404 Z"
       id="path375" />
    <path
       class="cls-19"
       d="m 406.77,66.18 h 0.87 v 5.2 h -0.87 z"
       id="path376" />
    <path
       class="cls-19"
       d="m 408.15,70 v -2.47 a 1.32,1.32 0 1 1 2.64,0 V 70 a 1.32,1.32 0 1 1 -2.64,0 z m 1.77,0.13 v -2.74 c 0,-0.32 -0.14,-0.54 -0.46,-0.54 -0.32,0 -0.44,0.22 -0.44,0.54 v 2.78 c 0,0.32 0.14,0.54 0.44,0.54 0.3,0 0.46,-0.22 0.46,-0.54 z"
       id="path377" />
    <path
       class="cls-19"
       d="m 412,68.11 v 3.27 h -0.74 v -5.2 h 0.86 l 0.94,3 v -3 h 0.73 v 5.2 h -0.76 z"
       id="path378" />
  </g>
</svg>
