<?xml version="1.0" encoding="UTF-8" standalone="no"?>
<svg
   id="SDGs"
   viewBox="0 0 62.060002 62.06"
   version="1.1"
   sodipodi:docname="sdg-16.svg"
   width="62.060001"
   height="62.060001"
   inkscape:version="1.3 (0e150ed6c4, 2023-07-21)"
   xmlns:inkscape="http://www.inkscape.org/namespaces/inkscape"
   xmlns:sodipodi="http://sodipodi.sourceforge.net/DTD/sodipodi-0.dtd"
   xmlns="http://www.w3.org/2000/svg"
   xmlns:svg="http://www.w3.org/2000/svg">
  <sodipodi:namedview
     id="namedview523"
     pagecolor="#505050"
     bordercolor="#eeeeee"
     borderopacity="1"
     inkscape:showpageshadow="0"
     inkscape:pageopacity="0"
     inkscape:pagecheckerboard="0"
     inkscape:deskcolor="#505050"
     inkscape:zoom="1.7804714"
     inkscape:cx="5.0548412"
     inkscape:cy="-46.897693"
     inkscape:window-width="1920"
     inkscape:window-height="1057"
     inkscape:window-x="0"
     inkscape:window-y="0"
     inkscape:window-maximized="1"
     inkscape:current-layer="SDGs" />
  <defs
     id="defs1">
    <style
       id="style1">.cls-1{fill:#f4f4f5;}.cls-2{fill:#5fbb46;}.cls-3{fill:#d19f2a;}.cls-4{fill:#c22033;}.cls-5{fill:#2d9a47;}.cls-6{fill:#48773c;}.cls-7{fill:#fdb714;}.cls-8{fill:#ef412a;}.cls-9{fill:#f99d25;}.cls-10{fill:#007dbb;}.cls-11{fill:#8f1838;}.cls-12{fill:#00add8;}.cls-13{fill:#f36e24;}.cls-14{fill:#ea1d2d;}.cls-15{fill:#e01a83;}.cls-16{fill:#1a3668;}.cls-17{fill:#cd8b2a;}.cls-18{fill:#00558a;}.cls-19{fill:#fff;}.cls-20{fill:#40ae49;}.cls-21{fill:#009edb;}</style>
  </defs>
  <g
     id="SDG16"
     transform="translate(-220,-194.39999)">
    <rect
       class="cls-18"
       x="220"
       y="194.39999"
       width="62.060001"
       height="62.060001"
       id="rect43" />
    <path
       class="cls-19"
       d="m 225.33,202.14 a 8.79,8.79 0 0 1 -0.94,0.36 c -0.41,0.14 -0.67,0.23 -0.77,0.28 v -1.68 a 9,9 0 0 0 1.2,-0.58 3.8,3.8 0 0 0 1,-0.72 h 1.77 v 11.84 h -2.26 z"
       id="path44" />
    <path
       class="cls-19"
       d="m 229.61,210.74 a 4.64,4.64 0 0 1 -0.78,-2.83 v -4.21 a 5.42,5.42 0 0 1 0.7,-3 2.73,2.73 0 0 1 2.47,-1.06 3,3 0 0 1 2.28,0.74 3.23,3.23 0 0 1 0.72,2.25 v 0.21 h -2.15 a 2.82,2.82 0 0 0 -0.16,-1.15 0.66,0.66 0 0 0 -0.67,-0.33 0.7,0.7 0 0 0 -0.56,0.22 1.43,1.43 0 0 0 -0.28,0.73 10.45,10.45 0 0 0 -0.08,1.45 V 205 a 1.29,1.29 0 0 1 0.61,-0.5 2.5,2.5 0 0 1 1,-0.18 2.09,2.09 0 0 1 1.9,0.91 4.5,4.5 0 0 1 0.6,2.49 5.38,5.38 0 0 1 -0.73,3 2.73,2.73 0 0 1 -2.48,1.08 2.79,2.79 0 0 1 -2.39,-1.06 z m 3.13,-1.11 a 4.93,4.93 0 0 0 0.18,-1.56 11.37,11.37 0 0 0 0,-1.15 1.27,1.27 0 0 0 -0.24,-0.66 0.72,0.72 0 0 0 -0.68,-0.26 1,1 0 0 0 -0.55,0.16 1.33,1.33 0 0 0 -0.37,0.38 v 1.89 c 0,1.12 0.31,1.68 0.94,1.68 a 0.69,0.69 0 0 0 0.72,-0.48 z"
       id="path45" />
    <path
       class="cls-19"
       d="m 239.84,204.32 v -4.53 h 1.33 a 1.29,1.29 0 0 1 0.66,0.15 0.89,0.89 0 0 1 0.37,0.44 1.83,1.83 0 0 1 0.12,0.7 1.47,1.47 0 0 1 -0.15,0.71 0.88,0.88 0 0 1 -0.42,0.39 1.41,1.41 0 0 1 -0.64,0.13 h -0.44 v 2 z m 0.83,-2.59 H 241 a 0.83,0.83 0 0 0 0.35,-0.07 0.34,0.34 0 0 0 0.17,-0.2 1.37,1.37 0 0 0 0.05,-0.39 1.54,1.54 0 0 0 0,-0.4 0.32,0.32 0 0 0 -0.15,-0.22 0.74,0.74 0 0 0 -0.38,-0.08 h -0.31 z"
       id="path46" />
    <path
       class="cls-19"
       d="m 242.65,204.32 v -4.53 h 1.9 v 0.58 h -1.07 v 1.31 h 0.84 v 0.57 h -0.84 v 1.5 h 1.08 v 0.57 z"
       id="path47" />
    <path
       class="cls-19"
       d="m 244.7,204.32 0.9,-4.53 h 0.89 l 0.9,4.53 h -0.76 l -0.18,-1 h -0.79 l -0.19,1 z m 1,-1.57 h 0.62 l -0.31,-1.9 z"
       id="path48" />
    <path
       class="cls-19"
       d="m 248.9,204.38 a 1.36,1.36 0 0 1 -0.78,-0.2 1,1 0 0 1 -0.39,-0.53 2.28,2.28 0 0 1 -0.12,-0.78 v -1.61 a 2.47,2.47 0 0 1 0.12,-0.81 0.93,0.93 0 0 1 0.39,-0.52 1.36,1.36 0 0 1 0.78,-0.19 1.46,1.46 0 0 1 0.73,0.16 0.86,0.86 0 0 1 0.38,0.46 1.76,1.76 0 0 1 0.11,0.68 v 0.38 h -0.79 V 201 c 0,-0.12 0,-0.24 0,-0.34 a 0.39,0.39 0 0 0 -0.11,-0.25 0.38,0.38 0 0 0 -0.3,-0.09 0.46,0.46 0 0 0 -0.31,0.09 0.56,0.56 0 0 0 -0.12,0.27 2.05,2.05 0 0 0 0,0.37 v 2 a 1.58,1.58 0 0 0 0,0.41 0.41,0.41 0 0 0 0.14,0.24 0.49,0.49 0 0 0 0.28,0.08 0.38,0.38 0 0 0 0.3,-0.1 0.48,0.48 0 0 0 0.11,-0.26 c 0,-0.1 0,-0.23 0,-0.36 v -0.41 h 0.79 V 203 a 2.26,2.26 0 0 1 -0.1,0.71 0.91,0.91 0 0 1 -0.38,0.48 1.28,1.28 0 0 1 -0.73,0.19 z"
       id="path49" />
    <path
       class="cls-19"
       d="m 250.59,204.32 v -4.53 h 1.9 v 0.58 h -1.08 v 1.31 h 0.85 v 0.57 h -0.85 v 1.5 h 1.09 v 0.57 z"
       id="path50" />
    <path
       class="cls-19"
       d="m 252.88,205.08 -0.08,-0.28 a 0.6,0.6 0 0 0 0.26,-0.16 0.46,0.46 0 0 0 0.1,-0.32 h -0.4 v -0.76 h 0.74 v 0.69 a 0.91,0.91 0 0 1 -0.15,0.56 0.77,0.77 0 0 1 -0.47,0.27 z"
       id="path51" />
    <path
       class="cls-19"
       d="m 254.9,204.43 v -0.58 h 0.3 a 0.51,0.51 0 0 0 0.18,-0.08 0.31,0.31 0 0 0 0.09,-0.18 1.12,1.12 0 0 0 0,-0.29 v -3.49 h 0.82 v 3.52 a 1.83,1.83 0 0 1 -0.09,0.63 0.64,0.64 0 0 1 -0.31,0.37 1.28,1.28 0 0 1 -0.62,0.12 z"
       id="path52" />
    <path
       class="cls-19"
       d="m 258.14,204.38 a 1.41,1.41 0 0 1 -0.78,-0.18 1,1 0 0 1 -0.39,-0.53 2.81,2.81 0 0 1 -0.11,-0.82 v -3.06 h 0.81 V 203 a 2.6,2.6 0 0 0 0,0.4 0.59,0.59 0 0 0 0.13,0.3 0.38,0.38 0 0 0 0.31,0.11 0.37,0.37 0 0 0 0.31,-0.11 0.59,0.59 0 0 0 0.13,-0.3 2.6,2.6 0 0 0 0,-0.4 v -3.16 h 0.8 v 3.06 a 2.83,2.83 0 0 1 -0.1,0.82 1,1 0 0 1 -0.39,0.53 1.41,1.41 0 0 1 -0.72,0.13 z"
       id="path53" />
    <path
       class="cls-19"
       d="m 261.09,204.38 a 1.29,1.29 0 0 1 -0.68,-0.16 1,1 0 0 1 -0.42,-0.47 2,2 0 0 1 -0.15,-0.75 l 0.71,-0.14 a 1.56,1.56 0 0 0 0.06,0.46 0.69,0.69 0 0 0 0.16,0.31 0.36,0.36 0 0 0 0.29,0.11 0.31,0.31 0 0 0 0.28,-0.12 0.49,0.49 0 0 0 0.09,-0.3 0.84,0.84 0 0 0 -0.14,-0.49 2,2 0 0 0 -0.35,-0.38 l -0.57,-0.5 a 1.87,1.87 0 0 1 -0.39,-0.46 1.33,1.33 0 0 1 -0.14,-0.63 1.08,1.08 0 0 1 0.32,-0.83 1.2,1.2 0 0 1 0.85,-0.29 1.35,1.35 0 0 1 0.53,0.1 1,1 0 0 1 0.34,0.27 1.64,1.64 0 0 1 0.19,0.4 2.21,2.21 0 0 1 0.07,0.46 l -0.7,0.12 a 2.18,2.18 0 0 0 -0.05,-0.38 0.46,0.46 0 0 0 -0.13,-0.26 0.37,0.37 0 0 0 -0.27,-0.09 0.35,0.35 0 0 0 -0.28,0.12 0.49,0.49 0 0 0 -0.1,0.3 0.62,0.62 0 0 0 0.1,0.37 1.45,1.45 0 0 0 0.27,0.31 l 0.57,0.5 a 2.1,2.1 0 0 1 0.47,0.55 1.33,1.33 0 0 1 0.2,0.76 1.17,1.17 0 0 1 -0.14,0.57 1.1,1.1 0 0 1 -0.4,0.4 1.25,1.25 0 0 1 -0.59,0.14 z"
       id="path54" />
    <path
       class="cls-19"
       d="m 263.05,204.32 v -3.92 h -0.72 v -0.61 h 2.25 v 0.61 h -0.7 v 3.92 z"
       id="path55" />
    <path
       class="cls-19"
       d="m 264.91,204.32 v -4.53 h 0.81 v 4.53 z"
       id="path56" />
    <path
       class="cls-19"
       d="m 267.53,204.38 a 1.36,1.36 0 0 1 -0.78,-0.2 1,1 0 0 1 -0.39,-0.53 2.28,2.28 0 0 1 -0.12,-0.78 v -1.61 a 2.47,2.47 0 0 1 0.12,-0.81 0.93,0.93 0 0 1 0.39,-0.52 1.36,1.36 0 0 1 0.78,-0.19 1.46,1.46 0 0 1 0.73,0.16 0.86,0.86 0 0 1 0.38,0.46 2,2 0 0 1 0.11,0.68 v 0.38 H 268 V 201 c 0,-0.12 0,-0.24 0,-0.34 a 0.39,0.39 0 0 0 -0.11,-0.25 0.38,0.38 0 0 0 -0.3,-0.09 0.46,0.46 0 0 0 -0.31,0.09 0.56,0.56 0 0 0 -0.12,0.27 2.05,2.05 0 0 0 0,0.37 v 2 a 1.58,1.58 0 0 0 0,0.41 0.41,0.41 0 0 0 0.14,0.24 0.47,0.47 0 0 0 0.28,0.08 0.38,0.38 0 0 0 0.3,-0.1 0.48,0.48 0 0 0 0.11,-0.26 c 0,-0.1 0,-0.23 0,-0.36 v -0.41 h 0.79 V 203 a 2.26,2.26 0 0 1 -0.1,0.71 1,1 0 0 1 -0.38,0.48 1.28,1.28 0 0 1 -0.77,0.19 z"
       id="path57" />
    <path
       class="cls-19"
       d="m 269.22,204.32 v -4.53 h 1.89 v 0.58 H 270 v 1.31 h 0.85 v 0.57 H 270 v 1.5 h 1.09 v 0.57 z"
       id="path58" />
    <path
       class="cls-19"
       d="m 239.61,211.71 0.9,-4.53 h 0.89 l 0.9,4.53 h -0.76 l -0.18,-1.05 h -0.79 l -0.18,1.05 z m 1,-1.57 h 0.62 l -0.31,-1.9 z"
       id="path59" />
    <path
       class="cls-19"
       d="m 242.62,211.71 v -4.53 h 0.58 l 1.1,2.58 v -2.58 h 0.7 v 4.53 h -0.55 l -1.11,-2.7 v 2.7 z"
       id="path60" />
    <path
       class="cls-19"
       d="m 245.55,211.71 v -4.53 h 1.07 a 2,2 0 0 1 0.86,0.15 0.88,0.88 0 0 1 0.44,0.47 2,2 0 0 1 0.14,0.79 v 1.66 a 2.1,2.1 0 0 1 -0.14,0.81 0.9,0.9 0 0 1 -0.43,0.49 1.77,1.77 0 0 1 -0.84,0.16 z m 0.83,-0.58 h 0.25 a 0.63,0.63 0 0 0 0.41,-0.1 0.43,0.43 0 0 0 0.15,-0.29 3.18,3.18 0 0 0 0,-0.47 v -1.73 a 2.58,2.58 0 0 0 0,-0.45 0.38,0.38 0 0 0 -0.16,-0.24 0.83,0.83 0 0 0 -0.4,-0.08 h -0.24 z"
       id="path61" />
    <path
       class="cls-19"
       d="m 250.94,211.77 a 1.29,1.29 0 0 1 -0.68,-0.16 1,1 0 0 1 -0.42,-0.47 2,2 0 0 1 -0.15,-0.75 l 0.71,-0.14 a 2,2 0 0 0 0.06,0.46 0.69,0.69 0 0 0 0.16,0.31 0.38,0.38 0 0 0 0.29,0.11 0.34,0.34 0 0 0 0.29,-0.12 0.56,0.56 0 0 0 0.08,-0.3 0.84,0.84 0 0 0 -0.14,-0.49 2,2 0 0 0 -0.35,-0.38 l -0.57,-0.5 a 1.87,1.87 0 0 1 -0.39,-0.46 1.33,1.33 0 0 1 -0.14,-0.63 1.08,1.08 0 0 1 0.32,-0.83 1.2,1.2 0 0 1 0.85,-0.29 1.35,1.35 0 0 1 0.53,0.1 1,1 0 0 1 0.34,0.27 1.64,1.64 0 0 1 0.19,0.4 2.21,2.21 0 0 1 0.07,0.46 l -0.7,0.13 a 2,2 0 0 0 0,-0.38 0.46,0.46 0 0 0 -0.13,-0.27 0.37,0.37 0 0 0 -0.27,-0.09 0.35,0.35 0 0 0 -0.28,0.12 0.49,0.49 0 0 0 -0.1,0.3 0.6,0.6 0 0 0 0.1,0.37 1.45,1.45 0 0 0 0.27,0.31 l 0.57,0.5 a 2.28,2.28 0 0 1 0.47,0.55 1.33,1.33 0 0 1 0.2,0.76 1.17,1.17 0 0 1 -0.14,0.57 1.1,1.1 0 0 1 -0.4,0.4 1.22,1.22 0 0 1 -0.64,0.14 z"
       id="path62" />
    <path
       class="cls-19"
       d="m 252.9,211.71 v -3.92 h -0.72 v -0.61 h 2.25 v 0.61 h -0.7 v 3.92 z"
       id="path63" />
    <path
       class="cls-19"
       d="m 254.74,211.71 v -4.53 h 1.08 a 2.41,2.41 0 0 1 0.77,0.11 1,1 0 0 1 0.48,0.37 1.37,1.37 0 0 1 0.17,0.72 2.38,2.38 0 0 1 -0.05,0.49 0.84,0.84 0 0 1 -0.17,0.37 0.83,0.83 0 0 1 -0.33,0.24 l 0.63,2.23 h -0.83 l -0.55,-2.07 h -0.38 v 2.07 z m 0.82,-2.59 h 0.26 a 1,1 0 0 0 0.38,-0.07 0.4,0.4 0 0 0 0.21,-0.23 1.07,1.07 0 0 0 0.06,-0.39 0.8,0.8 0 0 0 -0.13,-0.51 0.57,0.57 0 0 0 -0.48,-0.17 h -0.3 z"
       id="path64" />
    <path
       class="cls-19"
       d="m 259,211.77 a 1.42,1.42 0 0 1 -0.77,-0.18 1,1 0 0 1 -0.41,-0.51 2.41,2.41 0 0 1 -0.12,-0.8 v -1.69 a 2.24,2.24 0 0 1 0.12,-0.78 0.93,0.93 0 0 1 0.41,-0.5 1.42,1.42 0 0 1 0.77,-0.18 1.44,1.44 0 0 1 0.77,0.18 1,1 0 0 1 0.41,0.5 2.24,2.24 0 0 1 0.12,0.78 v 1.7 a 2.28,2.28 0 0 1 -0.12,0.78 1,1 0 0 1 -0.41,0.52 1.44,1.44 0 0 1 -0.77,0.18 z m 0,-0.61 a 0.45,0.45 0 0 0 0.3,-0.09 0.47,0.47 0 0 0 0.13,-0.24 1.87,1.87 0 0 0 0,-0.34 v -2.09 a 1.79,1.79 0 0 0 0,-0.34 0.47,0.47 0 0 0 -0.13,-0.24 0.51,0.51 0 0 0 -0.3,-0.08 0.49,0.49 0 0 0 -0.3,0.08 0.41,0.41 0 0 0 -0.13,0.24 1.22,1.22 0 0 0 0,0.34 v 2.09 a 1.87,1.87 0 0 0 0,0.34 0.47,0.47 0 0 0 0.13,0.24 0.46,0.46 0 0 0 0.3,0.09 z"
       id="path65" />
    <path
       class="cls-19"
       d="m 260.77,211.71 v -4.53 h 0.57 l 1.11,2.58 v -2.58 h 0.68 v 4.53 h -0.55 l -1.11,-2.7 v 2.7 z"
       id="path66" />
    <path
       class="cls-19"
       d="m 264.84,211.77 a 1.15,1.15 0 0 1 -0.71,-0.19 1.07,1.07 0 0 1 -0.38,-0.54 2.54,2.54 0 0 1 -0.11,-0.82 v -1.52 a 2.59,2.59 0 0 1 0.11,-0.84 1,1 0 0 1 0.39,-0.54 1.45,1.45 0 0 1 0.78,-0.19 1.56,1.56 0 0 1 0.74,0.16 0.86,0.86 0 0 1 0.39,0.45 1.88,1.88 0 0 1 0.12,0.71 v 0.24 h -0.79 v -0.26 a 1.9,1.9 0 0 0 0,-0.37 0.39,0.39 0 0 0 -0.12,-0.24 0.42,0.42 0 0 0 -0.3,-0.08 0.4,0.4 0 0 0 -0.31,0.1 0.52,0.52 0 0 0 -0.13,0.28 c 0,0.12 0,0.24 0,0.38 v 1.9 a 1.59,1.59 0 0 0 0,0.4 0.44,0.44 0 0 0 0.14,0.27 0.45,0.45 0 0 0 0.3,0.09 0.41,0.41 0 0 0 0.31,-0.1 0.58,0.58 0 0 0 0.15,-0.28 1.76,1.76 0 0 0 0,-0.42 v -0.43 H 265 v -0.52 h 1.23 v 2.3 h -0.53 l -0.06,-0.45 a 0.91,0.91 0 0 1 -0.27,0.37 0.81,0.81 0 0 1 -0.53,0.14 z"
       id="path67" />
    <path
       class="cls-19"
       d="m 239.86,219.1 v -4.53 h 0.82 v 4.53 z"
       id="path68" />
    <path
       class="cls-19"
       d="m 241.26,219.1 v -4.53 h 0.58 l 1.1,2.59 v -2.59 h 0.68 v 4.53 h -0.55 l -1.1,-2.7 v 2.7 z"
       id="path69" />
    <path
       class="cls-19"
       d="m 245.34,219.16 a 1.33,1.33 0 0 1 -0.69,-0.16 1,1 0 0 1 -0.41,-0.46 2.31,2.31 0 0 1 -0.16,-0.76 l 0.71,-0.14 a 2.12,2.12 0 0 0 0.07,0.47 0.7,0.7 0 0 0 0.16,0.31 0.39,0.39 0 0 0 0.29,0.1 0.31,0.31 0 0 0 0.28,-0.12 0.49,0.49 0 0 0 0.09,-0.3 0.84,0.84 0 0 0 -0.14,-0.49 2.48,2.48 0 0 0 -0.36,-0.38 l -0.57,-0.5 a 1.83,1.83 0 0 1 -0.38,-0.46 1.33,1.33 0 0 1 -0.14,-0.63 1,1 0 0 1 0.31,-0.82 1.2,1.2 0 0 1 0.86,-0.3 1.35,1.35 0 0 1 0.53,0.1 1,1 0 0 1 0.34,0.27 1.32,1.32 0 0 1 0.18,0.4 2.21,2.21 0 0 1 0.08,0.46 l -0.7,0.13 a 3.22,3.22 0 0 0 -0.05,-0.38 0.53,0.53 0 0 0 -0.13,-0.27 0.37,0.37 0 0 0 -0.27,-0.09 0.34,0.34 0 0 0 -0.28,0.12 0.44,0.44 0 0 0 -0.1,0.3 0.65,0.65 0 0 0 0.1,0.38 1.43,1.43 0 0 0 0.27,0.3 l 0.56,0.5 a 2.11,2.11 0 0 1 0.48,0.55 1.41,1.41 0 0 1 0.2,0.76 1.15,1.15 0 0 1 -0.14,0.57 1.1,1.1 0 0 1 -0.4,0.4 1.25,1.25 0 0 1 -0.59,0.14 z"
       id="path70" />
    <path
       class="cls-19"
       d="m 247.3,219.1 v -3.92 h -0.72 v -0.61 h 2.25 v 0.61 h -0.71 v 3.92 z"
       id="path71" />
    <path
       class="cls-19"
       d="m 249.16,219.1 v -4.53 H 250 v 4.53 z"
       id="path72" />
    <path
       class="cls-19"
       d="m 251,219.1 v -3.92 h -0.72 v -0.61 h 2.26 v 0.61 h -0.71 v 3.92 z"
       id="path73" />
    <path
       class="cls-19"
       d="m 254.09,219.16 a 1.41,1.41 0 0 1 -0.78,-0.18 1,1 0 0 1 -0.39,-0.53 2.78,2.78 0 0 1 -0.11,-0.81 v -3.07 h 0.81 v 3.16 a 2.5,2.5 0 0 0 0,0.4 0.52,0.52 0 0 0 0.13,0.3 0.39,0.39 0 0 0 0.31,0.12 0.37,0.37 0 0 0 0.31,-0.12 0.52,0.52 0 0 0 0.13,-0.3 2.5,2.5 0 0 0 0,-0.4 v -3.16 h 0.8 v 3.07 a 2.8,2.8 0 0 1 -0.1,0.81 1,1 0 0 1 -0.39,0.53 1.41,1.41 0 0 1 -0.72,0.18 z"
       id="path74" />
    <path
       class="cls-19"
       d="m 256.35,219.1 v -3.92 h -0.72 v -0.61 h 2.26 v 0.61 h -0.71 v 3.92 z"
       id="path75" />
    <path
       class="cls-19"
       d="m 258.21,219.1 v -4.53 H 259 v 4.53 z"
       id="path76" />
    <path
       class="cls-19"
       d="m 260.84,219.16 a 1.4,1.4 0 0 1 -0.76,-0.18 1,1 0 0 1 -0.41,-0.51 2.39,2.39 0 0 1 -0.12,-0.79 V 216 a 2.28,2.28 0 0 1 0.12,-0.78 0.93,0.93 0 0 1 0.41,-0.5 1.4,1.4 0 0 1 0.76,-0.18 1.45,1.45 0 0 1 0.78,0.18 1,1 0 0 1 0.4,0.5 2.06,2.06 0 0 1 0.13,0.78 v 1.7 a 2.15,2.15 0 0 1 -0.13,0.79 1,1 0 0 1 -0.4,0.51 1.45,1.45 0 0 1 -0.78,0.16 z m 0,-0.61 a 0.46,0.46 0 0 0 0.31,-0.09 0.47,0.47 0 0 0 0.13,-0.24 1.87,1.87 0 0 0 0,-0.34 v -2.09 a 1.79,1.79 0 0 0 0,-0.34 0.47,0.47 0 0 0 -0.13,-0.24 0.52,0.52 0 0 0 -0.31,-0.08 0.46,0.46 0 0 0 -0.29,0.08 0.42,0.42 0 0 0 -0.14,0.24 1.79,1.79 0 0 0 0,0.34 v 2.09 a 1.87,1.87 0 0 0 0,0.34 0.41,0.41 0 0 0 0.13,0.24 0.45,0.45 0 0 0 0.3,0.09 z"
       id="path77" />
    <path
       class="cls-19"
       d="m 262.65,219.1 v -4.53 h 0.57 l 1.1,2.59 v -2.59 H 265 v 4.53 h -0.54 l -1.11,-2.7 v 2.7 z"
       id="path78" />
    <path
       class="cls-19"
       d="M 266.72,219.16 A 1.29,1.29 0 0 1 266,219 a 1,1 0 0 1 -0.42,-0.46 2.09,2.09 0 0 1 -0.15,-0.76 l 0.71,-0.14 a 2.15,2.15 0 0 0 0.06,0.47 0.82,0.82 0 0 0 0.16,0.31 0.41,0.41 0 0 0 0.29,0.1 0.34,0.34 0 0 0 0.29,-0.12 0.56,0.56 0 0 0 0.08,-0.3 0.91,0.91 0 0 0 -0.13,-0.49 2.48,2.48 0 0 0 -0.36,-0.38 l -0.57,-0.5 a 1.64,1.64 0 0 1 -0.38,-0.46 1.22,1.22 0 0 1 -0.15,-0.63 1,1 0 0 1 0.32,-0.82 1.16,1.16 0 0 1 0.85,-0.3 1.35,1.35 0 0 1 0.53,0.1 0.93,0.93 0 0 1 0.34,0.27 1.34,1.34 0 0 1 0.19,0.4 2.21,2.21 0 0 1 0.07,0.46 l -0.7,0.13 a 2,2 0 0 0 -0.05,-0.38 0.46,0.46 0 0 0 -0.13,-0.27 0.37,0.37 0 0 0 -0.27,-0.09 0.35,0.35 0 0 0 -0.28,0.12 0.49,0.49 0 0 0 -0.1,0.3 0.74,0.74 0 0 0 0.1,0.38 1.43,1.43 0 0 0 0.27,0.3 l 0.57,0.5 a 2.28,2.28 0 0 1 0.47,0.55 1.33,1.33 0 0 1 0.2,0.76 1,1 0 0 1 -0.14,0.57 1,1 0 0 1 -0.4,0.4 1.22,1.22 0 0 1 -0.55,0.14 z"
       id="path79" />
    <path
       class="cls-19"
       d="m 261.25,221.94 a 2.2,2.2 0 0 0 -0.43,1.58 2.23,2.23 0 0 0 1.07,1.25 2.25,2.25 0 0 0 0.43,-1.58 2.23,2.23 0 0 0 -1.07,-1.25"
       id="path80" />
    <path
       class="cls-19"
       d="m 260.26,226.53 a 1.76,1.76 0 0 0 -0.64,-2.84 2.21,2.21 0 0 0 -0.43,1.59 2.27,2.27 0 0 0 1.07,1.25"
       id="path81" />
    <path
       class="cls-19"
       d="m 262.75,225.67 a 2,2 0 0 0 1.37,0.58 2.1,2.1 0 0 0 1.26,-0.82 2,2 0 0 0 -1.36,-0.58 2.1,2.1 0 0 0 -1.27,0.82"
       id="path82" />
    <path
       class="cls-19"
       d="m 263.8,222.22 a 2.38,2.38 0 0 0 -0.51,1.67 2.31,2.31 0 0 0 1.64,-0.51 2.4,2.4 0 0 0 0.5,-1.67 2.28,2.28 0 0 0 -1.63,0.51"
       id="path83" />
    <path
       class="cls-19"
       d="m 262.49,228.06 a 2.1,2.1 0 0 0 1.41,-0.54 2,2 0 0 0 -1.22,-0.85 2.1,2.1 0 0 0 -1.41,0.54 2,2 0 0 0 1.22,0.85"
       id="path84" />
    <path
       class="cls-19"
       d="m 263.14,239.72 h -5.42 a 0.77,0.77 0 1 0 0,1.53 h 5.42 a 0.77,0.77 0 0 0 0,-1.53"
       id="path85" />
    <path
       class="cls-19"
       d="m 263.14,248.17 h -5.42 a 0.77,0.77 0 1 0 0,1.53 h 5.42 a 0.77,0.77 0 0 0 0,-1.53"
       id="path86" />
    <path
       class="cls-19"
       d="m 238.76,237.85 -0.38,-0.09 0.38,0.09"
       id="path87" />
    <path
       class="cls-19"
       d="m 262.94,241.78 h -5 a 0.44,0.44 0 0 0 -0.43,0.44 v 1.52 l -3.28,0.36 -4.79,-0.11 v -2.92 a 12.82,12.82 0 0 0 1.9,-0.39 c 4.62,-1.3 5.62,-4.17 5.52,-6.81 -0.1,-2.64 0.76,-3.73 2,-4.2 a 6.19,6.19 0 0 1 1,-0.27 8.22,8.22 0 0 0 0.44,2.34 h 0.33 a 7.65,7.65 0 0 1 -0.45,-2.36 5.67,5.67 0 0 1 1.09,0 6.89,6.89 0 0 1 -1,-0.74 5.23,5.23 0 0 1 1.75,-2.85 9,9 0 0 0 1.22,-1.44 l -0.27,-0.17 a 8.74,8.74 0 0 1 -1.19,1.38 5.66,5.66 0 0 0 -1.79,2.84 c -0.24,-0.22 -0.51,-0.49 -0.79,-0.79 -1.13,-1.28 -2.6,-0.34 -4.69,1.6 -2.09,1.94 -4.71,2 -7.28,-0.61 -3.38,-3.47 -6.33,-3.45 -8.36,-3.25 1.39,0.59 1.87,1.88 2.57,5.17 0.74,3.45 2.59,5 5.12,5.23 -1.17,0.19 -1.47,0.35 -3.36,1.66 a 5.88,5.88 0 0 1 -4.39,0.5 c 1.54,0.49 3.37,2.11 5,2.67 a 11.87,11.87 0 0 0 3,0.61 v 2.8 l -9.09,-0.19 v 1.95 l 16.54,-0.37 3.28,0.37 v 1.52 a 0.43,0.43 0 0 0 0.43,0.43 h 5 a 0.44,0.44 0 0 0 0.44,-0.43 v -5 a 0.44,0.44 0 0 0 -0.47,-0.49 z m -15.4,-0.61 a 9.74,9.74 0 0 0 1.08,0 V 244 h -1.08 z"
       id="path88" />
    <path
       class="cls-19"
       d="m 237.19,245.37 a 0.69,0.69 0 0 1 -0.64,0.74 h -0.38 a 0.7,0.7 0 0 1 -0.65,-0.74 V 244 a 0.7,0.7 0 0 1 0.65,-0.75 h 0.38 a 0.69,0.69 0 0 1 0.64,0.75 z"
       id="path89" />
  </g>
</svg>
