<?xml version="1.0" encoding="UTF-8" standalone="no"?>
<svg
   id="SDGs"
   viewBox="0 0 62.229999 62.229997"
   version="1.1"
   sodipodi:docname="sdg-8.svg"
   width="62.23"
   height="62.23"
   inkscape:version="1.3 (0e150ed6c4, 2023-07-21)"
   xmlns:inkscape="http://www.inkscape.org/namespaces/inkscape"
   xmlns:sodipodi="http://sodipodi.sourceforge.net/DTD/sodipodi-0.dtd"
   xmlns="http://www.w3.org/2000/svg"
   xmlns:svg="http://www.w3.org/2000/svg">
  <sodipodi:namedview
     id="namedview523"
     pagecolor="#505050"
     bordercolor="#eeeeee"
     borderopacity="1"
     inkscape:showpageshadow="0"
     inkscape:pageopacity="0"
     inkscape:pagecheckerboard="0"
     inkscape:deskcolor="#505050"
     inkscape:zoom="1.7804714"
     inkscape:cx="144.90545"
     inkscape:cy="23.308434"
     inkscape:window-width="1920"
     inkscape:window-height="1057"
     inkscape:window-x="0"
     inkscape:window-y="0"
     inkscape:window-maximized="1"
     inkscape:current-layer="SDGs" />
  <defs
     id="defs1">
    <style
       id="style1">.cls-1{fill:#f4f4f5;}.cls-2{fill:#5fbb46;}.cls-3{fill:#d19f2a;}.cls-4{fill:#c22033;}.cls-5{fill:#2d9a47;}.cls-6{fill:#48773c;}.cls-7{fill:#fdb714;}.cls-8{fill:#ef412a;}.cls-9{fill:#f99d25;}.cls-10{fill:#007dbb;}.cls-11{fill:#8f1838;}.cls-12{fill:#00add8;}.cls-13{fill:#f36e24;}.cls-14{fill:#ea1d2d;}.cls-15{fill:#e01a83;}.cls-16{fill:#1a3668;}.cls-17{fill:#cd8b2a;}.cls-18{fill:#00558a;}.cls-19{fill:#fff;}.cls-20{fill:#40ae49;}.cls-21{fill:#009edb;}</style>
  </defs>
  <g
     id="SDG8"
     transform="translate(-79.519997,-123.98)">
    <rect
       class="cls-11"
       x="79.519997"
       y="123.98"
       width="62.23"
       height="62.23"
       id="rect283" />
    <path
       class="cls-19"
       d="m 84.39,139.11 a 4,4 0 0 1 0.35,-1.73 2.32,2.32 0 0 1 1,-1.08 2.94,2.94 0 0 1 -0.87,-1.06 3.52,3.52 0 0 1 -0.34,-1.62 3.19,3.19 0 0 1 0.77,-2.28 3,3 0 0 1 2.23,-0.81 2.87,2.87 0 0 1 2.21,0.8 3.14,3.14 0 0 1 0.77,2.24 3.76,3.76 0 0 1 -0.33,1.67 2.67,2.67 0 0 1 -0.86,1.06 2.26,2.26 0 0 1 1,1.11 4.35,4.35 0 0 1 0.35,1.8 3.91,3.91 0 0 1 -0.76,2.58 3,3 0 0 1 -2.42,0.92 q -3.1,0 -3.1,-3.6 z m 4,1.4 a 3.8,3.8 0 0 0 0.2,-1.31 4,4 0 0 0 -0.2,-1.39 0.75,0.75 0 0 0 -0.77,-0.52 0.76,0.76 0 0 0 -0.77,0.52 4.05,4.05 0 0 0 -0.2,1.39 3.8,3.8 0 0 0 0.2,1.31 0.83,0.83 0 0 0 1.54,0 z m 0.07,-6.89 a 2.09,2.09 0 0 0 -0.21,-1 0.68,0.68 0 0 0 -0.63,-0.38 0.7,0.7 0 0 0 -0.64,0.38 2,2 0 0 0 -0.22,1 c 0,1.22 0.28,1.83 0.86,1.83 0.58,0 0.79,-0.61 0.79,-1.83 z"
       id="path284" />
    <path
       class="cls-19"
       d="m 95.21,130.66 h 1.07 a 2,2 0 0 1 0.86,0.15 0.83,0.83 0 0 1 0.44,0.46 2,2 0 0 1 0.14,0.8 v 1.66 a 2.14,2.14 0 0 1 -0.14,0.83 0.9,0.9 0 0 1 -0.44,0.48 1.75,1.75 0 0 1 -0.83,0.16 h -1.1 z m 1.08,4 a 0.72,0.72 0 0 0 0.4,-0.09 0.43,0.43 0 0 0 0.15,-0.27 2.89,2.89 0 0 0 0,-0.51 V 132 a 2.43,2.43 0 0 0 0,-0.46 0.34,0.34 0 0 0 -0.17,-0.23 0.76,0.76 0 0 0 -0.39,-0.08 H 96 v 3.37 z"
       id="path285" />
    <path
       class="cls-19"
       d="m 98.18,130.66 h 1.9 v 0.59 H 99 v 1.3 h 0.86 v 0.58 H 99 v 1.5 h 1.1 v 0.57 h -1.92 z"
       id="path286" />
    <path
       class="cls-19"
       d="m 100.65,134.87 a 1.91,1.91 0 0 1 -0.29,-1.12 v -1.62 a 1.88,1.88 0 0 1 0.29,-1.13 1.49,1.49 0 0 1 1.95,-0.05 1.46,1.46 0 0 1 0.28,1 v 0.38 h -0.8 v -0.39 a 2,2 0 0 0 0,-0.38 0.38,0.38 0 0 0 -0.11,-0.23 0.46,0.46 0 0 0 -0.29,-0.08 0.41,0.41 0 0 0 -0.3,0.09 0.47,0.47 0 0 0 -0.14,0.25 2.1,2.1 0 0 0 0,0.4 v 2 a 1.24,1.24 0 0 0 0.1,0.56 0.4,0.4 0 0 0 0.37,0.17 0.38,0.38 0 0 0 0.28,-0.09 0.46,0.46 0 0 0 0.12,-0.24 2.18,2.18 0 0 0 0,-0.39 v -0.41 h 0.8 v 0.36 a 1.67,1.67 0 0 1 -0.27,1 1.15,1.15 0 0 1 -1,0.36 1.18,1.18 0 0 1 -0.99,-0.44 z"
       id="path287" />
    <path
       class="cls-19"
       d="m 103.31,130.66 h 1.91 v 0.59 h -1.09 v 1.3 H 105 v 0.58 h -0.86 v 1.5 h 1.1 v 0.57 h -1.92 z"
       id="path288" />
    <path
       class="cls-19"
       d="m 105.56,130.66 h 0.58 l 1.1,2.59 v -2.59 h 0.69 v 4.54 h -0.55 l -1.11,-2.71 v 2.71 h -0.71 z"
       id="path289" />
    <path
       class="cls-19"
       d="m 108.91,131.27 h -0.75 v -0.61 h 2.32 v 0.61 h -0.74 v 3.93 h -0.83 z"
       id="path290" />
    <path
       class="cls-19"
       d="m 111.75,130.66 h 0.69 l 0.38,2.94 0.47,-2.93 h 0.56 l 0.48,2.93 0.37,-2.94 h 0.69 l -0.64,4.54 h -0.67 l -0.5,-3 -0.5,3 h -0.69 z"
       id="path291" />
    <path
       class="cls-19"
       d="m 116,134.88 a 1.74,1.74 0 0 1 -0.3,-1.1 v -1.71 a 1.71,1.71 0 0 1 0.3,-1.07 1.27,1.27 0 0 1 1,-0.37 1.23,1.23 0 0 1 1,0.37 1.65,1.65 0 0 1 0.31,1.09 v 1.71 a 1.74,1.74 0 0 1 -0.31,1.1 1.52,1.52 0 0 1 -2,0 z m 1.38,-0.4 a 1.15,1.15 0 0 0 0.1,-0.51 v -2.09 a 0.92,0.92 0 0 0 -0.1,-0.49 c -0.06,-0.12 -0.18,-0.17 -0.37,-0.17 -0.19,0 -0.31,0.05 -0.37,0.17 a 0.94,0.94 0 0 0 -0.1,0.49 V 134 a 1,1 0 0 0 0.1,0.51 0.38,0.38 0 0 0 0.37,0.17 0.39,0.39 0 0 0 0.33,-0.2 z"
       id="path292" />
    <path
       class="cls-19"
       d="m 118.74,130.66 h 1.09 a 1.74,1.74 0 0 1 1.07,0.27 1.12,1.12 0 0 1 0.36,0.94 1.75,1.75 0 0 1 -0.13,0.7 0.75,0.75 0 0 1 -0.43,0.39 l 0.63,2.24 h -0.83 l -0.54,-2.08 h -0.4 v 2.08 h -0.82 z m 1.09,2 a 0.66,0.66 0 0 0 0.5,-0.17 0.75,0.75 0 0 0 0.15,-0.53 0.88,0.88 0 0 0 -0.13,-0.52 0.59,0.59 0 0 0 -0.48,-0.16 h -0.31 v 1.38 z"
       id="path293" />
    <path
       class="cls-19"
       d="m 121.74,130.66 h 0.82 v 2 l 0.9,-2 h 0.79 l -0.87,2 1,2.52 h -0.82 l -0.76,-2.06 -0.2,0.34 v 1.72 h -0.82 z"
       id="path294" />
    <path
       class="cls-19"
       d="m 126.47,130.66 h 0.88 l 0.91,4.54 h -0.77 l -0.18,-1 h -0.79 l -0.18,1 h -0.78 z m 0.75,3 -0.31,-1.91 -0.3,1.91 z"
       id="path295" />
    <path
       class="cls-19"
       d="m 128.57,130.66 h 0.57 l 1.11,2.59 v -2.59 h 0.68 v 4.54 h -0.55 l -1.11,-2.71 v 2.71 h -0.7 z"
       id="path296" />
    <path
       class="cls-19"
       d="m 131.47,130.66 h 1.07 a 2,2 0 0 1 0.86,0.15 0.88,0.88 0 0 1 0.45,0.46 2,2 0 0 1 0.13,0.8 v 1.66 a 2.16,2.16 0 0 1 -0.13,0.83 0.93,0.93 0 0 1 -0.44,0.48 1.78,1.78 0 0 1 -0.83,0.16 h -1.11 z m 1.08,4 a 0.67,0.67 0 0 0 0.4,-0.09 0.44,0.44 0 0 0 0.16,-0.27 3.13,3.13 0 0 0 0,-0.51 V 132 a 1.81,1.81 0 0 0 0,-0.46 0.33,0.33 0 0 0 -0.16,-0.23 0.83,0.83 0 0 0 -0.4,-0.08 h -0.24 v 3.37 z"
       id="path297" />
    <path
       class="cls-19"
       d="m 95.21,138.07 h 1.9 v 0.59 H 96 V 140 h 0.85 v 0.58 H 96 V 142 h 1.09 v 0.57 h -1.88 z"
       id="path298" />
    <path
       class="cls-19"
       d="m 97.71,142.28 a 1.91,1.91 0 0 1 -0.29,-1.12 v -1.62 a 1.88,1.88 0 0 1 0.29,-1.13 1.17,1.17 0 0 1 1,-0.39 1.19,1.19 0 0 1 1,0.34 1.46,1.46 0 0 1 0.28,1 v 0.38 h -0.8 v -0.39 a 2,2 0 0 0 0,-0.38 0.38,0.38 0 0 0 -0.11,-0.23 0.46,0.46 0 0 0 -0.29,-0.08 0.4,0.4 0 0 0 -0.44,0.34 2.1,2.1 0 0 0 0,0.4 v 2 a 1.24,1.24 0 0 0 0.1,0.56 0.4,0.4 0 0 0 0.37,0.17 0.38,0.38 0 0 0 0.18,-0.13 0.46,0.46 0 0 0 0.12,-0.24 2.18,2.18 0 0 0 0,-0.39 v -0.41 h 0.8 v 0.36 a 1.61,1.61 0 0 1 -0.28,1 1.12,1.12 0 0 1 -1,0.36 1.18,1.18 0 0 1 -0.93,-0.4 z"
       id="path299" />
    <path
       class="cls-19"
       d="m 100.63,142.29 a 1.74,1.74 0 0 1 -0.3,-1.1 v -1.71 a 1.71,1.71 0 0 1 0.3,-1.09 1.27,1.27 0 0 1 1,-0.37 1.23,1.23 0 0 1 1,0.37 1.65,1.65 0 0 1 0.31,1.09 v 1.71 a 1.68,1.68 0 0 1 -0.31,1.1 1.52,1.52 0 0 1 -2,0 z m 1.38,-0.4 a 1,1 0 0 0 0.1,-0.51 v -2.09 a 0.92,0.92 0 0 0 -0.1,-0.49 c -0.06,-0.12 -0.18,-0.17 -0.37,-0.17 a 0.39,0.39 0 0 0 -0.37,0.17 0.94,0.94 0 0 0 -0.1,0.49 v 2.09 a 1,1 0 0 0 0.1,0.51 0.39,0.39 0 0 0 0.37,0.17 0.38,0.38 0 0 0 0.36,-0.17 z"
       id="path300" />
    <path
       class="cls-19"
       d="M 103.45,138.07 H 104 l 1.11,2.59 v -2.59 h 0.68 v 4.54 h -0.55 l -1.11,-2.71 v 2.71 h -0.7 z"
       id="path301" />
    <path
       class="cls-19"
       d="m 106.62,142.29 a 1.68,1.68 0 0 1 -0.31,-1.1 v -1.71 a 1.65,1.65 0 0 1 0.31,-1.09 1.23,1.23 0 0 1 1,-0.37 1.27,1.27 0 0 1 1,0.37 1.71,1.71 0 0 1 0.3,1.09 v 1.71 a 1.68,1.68 0 0 1 -0.31,1.1 1.21,1.21 0 0 1 -1,0.38 1.18,1.18 0 0 1 -0.99,-0.38 z m 1.37,-0.4 a 1,1 0 0 0 0.1,-0.51 v -2.09 a 1,1 0 0 0 -0.09,-0.49 0.5,0.5 0 0 0 -0.75,0 1.06,1.06 0 0 0 -0.1,0.49 v 2.09 a 1.15,1.15 0 0 0 0.1,0.51 0.39,0.39 0 0 0 0.37,0.17 0.38,0.38 0 0 0 0.38,-0.17 z"
       id="path302" />
    <path
       class="cls-19"
       d="m 109.49,138.07 h 0.86 l 0.65,3.15 0.66,-3.15 h 0.84 l 0.08,4.54 H 112 l -0.06,-3.15 -0.65,3.15 h -0.5 l -0.65,-3.16 -0.06,3.16 h -0.62 z"
       id="path303" />
    <path
       class="cls-19"
       d="M 113.16,138.07 H 114 v 4.54 h -0.82 z"
       id="path304" />
    <path
       class="cls-19"
       d="m 114.79,142.28 a 1.84,1.84 0 0 1 -0.29,-1.12 v -1.62 a 1.81,1.81 0 0 1 0.29,-1.13 1.17,1.17 0 0 1 1,-0.39 1.2,1.2 0 0 1 0.95,0.34 1.51,1.51 0 0 1 0.28,1 v 0.38 h -0.8 v -0.39 a 3.47,3.47 0 0 0 0,-0.38 0.4,0.4 0 0 0 -0.12,-0.23 0.43,0.43 0 0 0 -0.28,-0.08 0.38,0.38 0 0 0 -0.44,0.34 2.1,2.1 0 0 0 0,0.4 v 2 a 1.12,1.12 0 0 0 0.1,0.56 0.4,0.4 0 0 0 0.37,0.17 0.39,0.39 0 0 0 0.28,-0.09 0.46,0.46 0 0 0 0.12,-0.24 3.84,3.84 0 0 0 0,-0.39 V 141 h 0.8 v 0.36 a 1.67,1.67 0 0 1 -0.28,1 1.12,1.12 0 0 1 -0.95,0.36 1.18,1.18 0 0 1 -1.03,-0.44 z"
       id="path305" />
    <path
       class="cls-19"
       d="m 118.94,142.27 a 2,2 0 0 1 -0.28,-1.16 v -1.52 a 1.91,1.91 0 0 1 0.29,-1.17 1.14,1.14 0 0 1 1,-0.4 1.18,1.18 0 0 1 1,0.34 1.42,1.42 0 0 1 0.3,1 v 0.24 h -0.79 v -0.26 a 2.06,2.06 0 0 0 0,-0.39 0.43,0.43 0 0 0 -0.13,-0.22 0.45,0.45 0 0 0 -0.3,-0.08 0.41,0.41 0 0 0 -0.31,0.1 0.53,0.53 0 0 0 -0.13,0.26 2.22,2.22 0 0 0 0,0.41 v 1.89 a 1.24,1.24 0 0 0 0.11,0.58 0.37,0.37 0 0 0 0.38,0.19 0.41,0.41 0 0 0 0.39,-0.2 1.23,1.23 0 0 0 0.11,-0.61 v -0.42 H 120 v -0.52 h 1.23 v 2.3 h -0.54 l -0.06,-0.44 a 0.76,0.76 0 0 1 -0.76,0.5 1.05,1.05 0 0 1 -0.93,-0.42 z"
       id="path306" />
    <path
       class="cls-19"
       d="m 121.75,138.07 h 1.09 a 1.67,1.67 0 0 1 1.07,0.28 1.09,1.09 0 0 1 0.35,0.93 1.73,1.73 0 0 1 -0.12,0.7 0.83,0.83 0 0 1 -0.44,0.4 l 0.64,2.23 h -0.83 l -0.55,-2.08 h -0.39 v 2.08 h -0.82 z m 1.09,2 a 0.66,0.66 0 0 0 0.5,-0.17 0.75,0.75 0 0 0 0.15,-0.53 0.81,0.81 0 0 0 -0.14,-0.52 0.55,0.55 0 0 0 -0.47,-0.16 h -0.31 V 140 Z"
       id="path307" />
    <path
       class="cls-19"
       d="m 125,142.29 a 1.74,1.74 0 0 1 -0.3,-1.1 v -1.71 a 1.71,1.71 0 0 1 0.3,-1.09 1.55,1.55 0 0 1 2,0 1.71,1.71 0 0 1 0.3,1.09 v 1.71 a 1.74,1.74 0 0 1 -0.3,1.1 1.23,1.23 0 0 1 -1,0.38 1.2,1.2 0 0 1 -1,-0.38 z m 1.38,-0.4 a 1.16,1.16 0 0 0 0.09,-0.51 v -2.09 a 1,1 0 0 0 -0.09,-0.49 0.37,0.37 0 0 0 -0.37,-0.17 0.41,0.41 0 0 0 -0.38,0.17 1.07,1.07 0 0 0 -0.09,0.49 v 2.09 a 1.16,1.16 0 0 0 0.09,0.51 0.41,0.41 0 0 0 0.38,0.17 0.4,0.4 0 0 0 0.38,-0.17 z"
       id="path308" />
    <path
       class="cls-19"
       d="m 127.66,138.07 h 0.69 l 0.37,2.94 0.47,-2.93 h 0.56 l 0.49,2.93 0.37,-2.94 h 0.68 l -0.63,4.54 H 130 l -0.51,-3 -0.49,3 h -0.69 z"
       id="path309" />
    <path
       class="cls-19"
       d="m 132.14,138.68 h -0.75 v -0.61 h 2.32 v 0.61 H 133 v 3.93 h -0.83 z"
       id="path310" />
    <path
       class="cls-19"
       d="m 134,138.07 h 0.82 V 140 h 0.92 v -1.9 h 0.83 v 4.54 h -0.83 v -2.05 h -0.92 v 2.05 H 134 Z"
       id="path311" />
    <path
       class="cls-19"
       d="m 122.5,155.87 -6.36,6 a 1,1 0 0 0 -0.36,0.9 v 16.94 a 0.37,0.37 0 0 0 0.36,0.37 h 6.57 a 0.37,0.37 0 0 0 0.36,-0.37 V 156 c 0,-0.2 -0.16,-0.56 -0.57,-0.15"
       id="path312" />
    <path
       class="cls-19"
       d="m 104.19,163.75 -6.35,6 a 1.05,1.05 0 0 0 -0.37,0.91 v 9.06 a 0.38,0.38 0 0 0 0.37,0.37 h 6.56 a 0.37,0.37 0 0 0 0.36,-0.37 V 163.9 c 0,-0.2 -0.16,-0.57 -0.57,-0.15"
       id="path313" />
    <path
       class="cls-19"
       d="m 125.38,148.54 a 0.16,0.16 0 0 0 0,-0.14 0.26,0.26 0 0 0 -0.12,-0.05 h -0.08 l -4.87,1.1 h -0.09 -0.09 a 0.2,0.2 0 0 0 0,0.27 v 0.05 l 1.11,1.11 -11,11 -5.09,-5.1 a 0.17,0.17 0 0 0 -0.21,0 l -1.38,1.39 v 0 l -8.17,8.16 a 0.17,0.17 0 0 0 0,0.21 l 1.37,1.46 a 0.13,0.13 0 0 0 0.2,0 l 8.04,-8 3.7,3.7 v 0 l 1.38,1.38 a 0.14,0.14 0 0 0 0.21,0 l 12.51,-12.51 1.2,1.13 a 0.19,0.19 0 0 0 0.26,0 0.21,0.21 0 0 0 0,-0.12 v 0 l 1.07,-5 z"
       id="path314" />
    <path
       class="cls-19"
       d="m 113.38,164.81 -3.08,3.1 a 0.14,0.14 0 0 1 -0.19,0 l -2.79,-2.84 c -0.51,-0.51 -0.62,-0.1 -0.62,0.1 v 14.6 a 0.37,0.37 0 0 0 0.36,0.37 h 6.57 a 0.37,0.37 0 0 0 0.36,-0.37 v -14.85 c 0,-0.2 -0.16,-0.56 -0.61,-0.11"
       id="path315" />
  </g>
</svg>
