<?xml version="1.0" encoding="UTF-8" standalone="no"?>
<!-- Created with Inkscape (http://www.inkscape.org/) -->

<svg
   width="1550"
   height="740"
   id="svg5723"
   version="1.1"
   inkscape:version="1.3 (0e150ed6c4, 2023-07-21)"
   sodipodi:docname="dportal_logo.svg"
   inkscape:export-filename="dportal_logo.png"
   inkscape:export-xdpi="96"
   inkscape:export-ydpi="96"
   xmlns:inkscape="http://www.inkscape.org/namespaces/inkscape"
   xmlns:sodipodi="http://sodipodi.sourceforge.net/DTD/sodipodi-0.dtd"
   xmlns="http://www.w3.org/2000/svg"
   xmlns:svg="http://www.w3.org/2000/svg"
   xmlns:rdf="http://www.w3.org/1999/02/22-rdf-syntax-ns#"
   xmlns:cc="http://creativecommons.org/ns#"
   xmlns:dc="http://purl.org/dc/elements/1.1/">
  <defs
     id="defs5725" />
  <sodipodi:namedview
     id="base"
     pagecolor="#505050"
     bordercolor="#666666"
     borderopacity="1.0"
     inkscape:pageopacity="0.0"
     inkscape:pageshadow="2"
     inkscape:zoom="0.49156547"
     inkscape:cx="809.65817"
     inkscape:cy="125.1105"
     inkscape:document-units="px"
     inkscape:current-layer="layer1"
     showgrid="false"
     inkscape:window-width="1920"
     inkscape:window-height="1057"
     inkscape:window-x="0"
     inkscape:window-y="0"
     inkscape:window-maximized="1"
     fit-margin-top="0"
     fit-margin-left="0"
     fit-margin-right="0"
     fit-margin-bottom="0"
     inkscape:showpageshadow="0"
     inkscape:pagecheckerboard="true"
     inkscape:deskcolor="#505050" />
  <metadata
     id="metadata5728">
    <rdf:RDF>
      <cc:Work
         rdf:about="">
        <dc:format>image/svg+xml</dc:format>
        <dc:type
           rdf:resource="http://purl.org/dc/dcmitype/StillImage" />
      </cc:Work>
    </rdf:RDF>
  </metadata>
  <g
     inkscape:label="Layer 1"
     inkscape:groupmode="layer"
     id="layer1"
     transform="translate(3020.7418,-1352.4898)">
    <g
       id="g4883"
       transform="matrix(2.7,0,0,2.6999973,-3230.6255,1096.456)">
      <rect
         inkscape:export-ydpi="799.92004"
         inkscape:export-xdpi="799.92004"
         inkscape:export-filename="/home/shi/Copy/2014/iati/dplogo-highres/dportal.logo.png"
         y="131.8645"
         x="114.77175"
         height="200"
         width="500"
         id="rect4885"
         style="fill:none;fill-opacity:1;fill-rule:evenodd;stroke:none" />
      <path
         style="font-style:normal;font-variant:normal;font-weight:500;font-stretch:normal;font-size:34.8171px;line-height:125%;font-family:'Qlassik Medium';-inkscape-font-specification:'Qlassik Medium, Medium';text-align:start;letter-spacing:0px;word-spacing:0px;writing-mode:lr-tb;text-anchor:start;fill:#ffffff;fill-opacity:1;stroke:none"
         d="m 170.71385,192.28333 c -6.38701,0 -10.94233,0.57324 -12.5,4.15625 0.15666,3.73834 0.3125,8.36507 0.3125,15.21875 v 18.53125 c -2.49234,-1.55767 -6.64141,-2.8125 -12.09375,-2.8125 -7.47735,0 -14.95541,2.89458 -20.71875,9.28125 -6.23168,7.01001 -10.31217,17.57432 -10.3125,31.75 0,26.48204 11.39039,35.2835 26.96875,36.0625 4.20567,0.15666 7.94799,-0.47416 11.375,-2.1875 1.714,-0.77867 3.53375,-2.50283 4.46875,-3.4375 1.55767,2.025 5.637,5.56192 9.375,5.40625 4.05034,-0.15666 6.97242,-1.66191 8.21875,-3.53125 0,-0.779 0.0654,-3.569 0.21875,-5.75 -4.98501,1.09067 -4.375,-7.1875 -4.375,-7.1875 0,-8.25635 0.3125,-20.59541 0.3125,-31.34375 v -52.28125 c 0,-7.00968 -0.31667,-9.69433 -1.25,-11.875 z m -22.1875,45.5 c 4.36167,0 7.66299,0.9125 10,2.9375 v 38.53125 c 0,3.27134 0.0629,5.53758 -0.0937,7.40625 0,0.77866 -0.37559,1.87583 -0.53125,2.1875 -2.18067,2.64833 -6.67108,4.375 -11.34375,4.375 -9.50268,0 -16.56217,-6.43564 -16.5625,-26.375 0,-21.3417 9.34024,-29.0625 18.53125,-29.0625 z"
         id="path4887"
         inkscape:connector-curvature="0" />
      <path
         style="font-style:normal;font-variant:normal;font-weight:500;font-stretch:normal;font-size:34.8171px;line-height:125%;font-family:'Qlassik Medium';-inkscape-font-specification:'Qlassik Medium, Medium';text-align:start;letter-spacing:0px;word-spacing:0px;writing-mode:lr-tb;text-anchor:start;fill:#d7f4ee;fill-opacity:1;stroke:none"
         d="m 453.20865,220.39389 c -4.75868,0 -8.21468,0.35167 -9.37535,3.021 0.11667,3.48168 0.20667,7.43835 0.21,13.12502 v 58.75008 1.25 c 0,2.321 0.95534,4.45267 2.81234,5.72934 1.27667,0.812 2.77367,1.56234 4.16667,1.56234 3.01701,-0.11667 5.21767,-1.31567 6.14568,-2.70834 0,-0.58033 0,-2.646 0.10333,-4.27067 -3.59801,0.69633 -3.22934,-5.31268 -3.229,-5.31268 v -60.41674 c 0,-5.80301 -0.13667,-8.40801 -0.83334,-10.72935 z"
         id="path4889"
         inkscape:connector-curvature="0" />
      <path
         style="font-style:normal;font-variant:normal;font-weight:500;font-stretch:normal;font-size:34.8171px;line-height:125%;font-family:'Qlassik Medium';-inkscape-font-specification:'Qlassik Medium, Medium';text-align:start;letter-spacing:0px;word-spacing:0px;writing-mode:lr-tb;text-anchor:start;fill:#d7f4ee;fill-opacity:1;stroke:none"
         d="m 374.77088,232.99824 c -5.45501,0.34833 -7.93768,2.36634 -8.75001,4.68767 l -0.521,10.41668 c -1.74067,0.812 -5.35468,1.21134 -6.97901,2.60401 -0.92834,0.92833 -1.04167,0.36066 -1.04167,3.95833 1.39267,0.69634 3.265,1.25001 6.97934,1.25001 v 28.6457 c 0,9.40068 1.915,19.47936 12.70802,19.47936 3.59834,0 7.58634,-0.79467 9.79201,-2.18734 0.928,-0.69666 1.539,-1.36333 1.77067,-2.292 0.11667,-1.04433 0.10333,-2.28834 0.10333,-3.33334 0,-0.92833 -0.0933,-1.80333 -0.20666,-2.5 -0.92901,0.81267 -6.28001,2.408 -8.02101,2.292 -4.64268,0 -5.68168,-4.54234 -6.14568,-11.04201 0,-3.82967 -0.10333,-8.33068 -0.10333,-13.43735 0,-4.99034 0.0933,-10.39068 0.20666,-15.72936 4.99068,0 6.46168,-0.0933 9.47935,-0.20666 0.928,0 1.884,-0.0933 2.81234,-0.21 1.62433,-0.348 2.256,-1.59267 2.60433,-7.39568 h -14.89602 c 0,-4.75834 0.0933,-9.66135 0.20667,-15.00002 z"
         id="path4891"
         inkscape:connector-curvature="0" />
      <path
         style="font-style:normal;font-variant:normal;font-weight:500;font-stretch:normal;font-size:34.8171px;line-height:125%;font-family:'Qlassik Medium';-inkscape-font-specification:'Qlassik Medium, Medium';text-align:start;letter-spacing:0px;word-spacing:0px;writing-mode:lr-tb;text-anchor:start;fill:#d7f4ee;fill-opacity:1;stroke:none"
         d="m 243.9326,246.34583 c -2.1246,0.11479 -3.89829,0.63266 -6.03125,1.34375 -2.669,0.812 -5.24624,2.14775 -8.03125,4.46875 -0.46467,-1.973 -1.56692,-3.43717 -3.65625,-3.4375 0,0 -0.34783,0.0217 -0.8125,0.125 -2.437,1.16067 -4.03566,1.89708 -4.5,2.59375 0.81267,2.321 1.25034,5.036 1.25,8.75 v 54.15625 c 0,5.80267 -0.006,9.71417 0.34375,11.6875 1.045,0.23334 2.348,0.3125 3.625,0.3125 2.55301,0 5.03075,-0.48217 5.84375,-1.0625 0.23334,-1.50867 0.3125,-3.143 0.3125,-5 v -19.25 c 1.97267,1.50867 5.78683,3 10.3125,3 3.59834,0 8.00916,-0.88466 12.1875,-4.25 5.91867,-4.75868 10.09342,-13.72073 10.09375,-28.34375 0,-17.87303 -8.97465,-25.09375 -20,-25.09375 -0.31921,0 -0.63399,-0.0164 -0.9375,0 z m -1.46875,8.53125 c 7.31201,0 11.46875,4.9879 11.46875,17.40625 0,19.26536 -7.78633,23.93784 -13.125,23.9375 -3.59767,0 -6.90691,-1.536 -8.53125,-3.625 v -33.25 c 2.437,-2.08967 6.12549,-4.46875 10.1875,-4.46875 z"
         id="path4893"
         inkscape:connector-curvature="0" />
      <path
         style="font-style:normal;font-variant:normal;font-weight:500;font-stretch:normal;font-size:34.8171px;line-height:125%;font-family:'Qlassik Medium';-inkscape-font-specification:'Qlassik Medium, Medium';text-align:start;letter-spacing:0px;word-spacing:0px;writing-mode:lr-tb;text-anchor:start;fill:#d7f4ee;fill-opacity:1;stroke:none"
         d="m 294.5576,246.43958 c -13.34635,0 -22.71875,9.1008 -22.71875,29.0625 0,20.07802 8.01557,28.53125 22.40625,28.53125 12.88269,0 22.40625,-9.86864 22.40625,-29.25 0,-18.68535 -7.4704,-28.34408 -22.09375,-28.34375 z m -0.3125,7.8125 h 0.21875 c 6.96301,0 11.46875,5.73382 11.46875,20.9375 0,16.01569 -5.31807,21.34375 -11.46875,21.34375 -6.84801,0 -11.87433,-5.54647 -11.875,-21.5625 0,-15.08735 5.50557,-20.71875 11.65625,-20.71875 z"
         id="path4895"
         inkscape:connector-curvature="0" />
      <path
         style="font-style:normal;font-variant:normal;font-weight:500;font-stretch:normal;font-size:34.8171px;line-height:125%;font-family:'Qlassik Medium';-inkscape-font-specification:'Qlassik Medium, Medium';text-align:start;letter-spacing:0px;word-spacing:0px;writing-mode:lr-tb;text-anchor:start;fill:#d7f4ee;fill-opacity:1;stroke:none"
         d="m 415.58885,246.43958 c -7.77567,0.23334 -14.75017,3.30433 -17.1875,5.625 -0.11667,0.34833 -0.3125,0.78633 -0.3125,1.25 0,0.46433 0.10538,0.90167 0.21875,1.25 0.23333,1.393 0.61191,3.52684 1.65625,4.6875 0.92833,0 2.16116,-0.35717 3.4375,-0.9375 3.366,-1.39267 8.12516,-3.03125 12.1875,-3.03125 4.99034,0 5.53091,2.90232 5.53125,8.125 v 6.6875 c -1.04501,-0.23333 -2.33508,-0.4375 -3.84375,-0.4375 -1.045,0 -2.08966,-0.01 -3.25,0.0937 -6.96367,0.69633 -19.56316,4.38123 -19.5625,18.65625 0,10.67735 7.04108,15.31284 14.46875,15.3125 3.13367,0 5.88383,-0.28683 8.4375,-1.5625 1.27634,-0.69634 2.7415,-1.89708 3.4375,-2.59375 1.16067,1.625 4.18275,4.15659 6.96875,4.15625 3.017,-0.11666 5.22791,-1.44242 6.15625,-2.71875 0,-0.69667 -0.01,-2.62533 0.0937,-4.25 -3.71401,0.69634 -3.31283,-5.31283 -3.3125,-5.3125 0,-6.15134 0.3125,-15.42949 0.3125,-23.4375 v -5.3125 c 0,-9.86502 -2.78633,-15.48249 -11.375,-16.0625 -1.97234,-0.11666 -2.20583,-0.19084 -4.0625,-0.1875 z m 3.25,30.09375 c 0.81267,0 1.58458,-0.01 2.28125,0.0937 v 8.25 c 0,2.43734 0.0246,4.23233 -0.21875,5.625 -0.11667,0.69633 -0.28958,1.3305 -0.40625,1.5625 -1.62433,1.97301 -5.36208,3.625 -8.84375,3.625 h -0.84375 c -3.59767,-0.23333 -6.15625,-2.29974 -6.15625,-8.21875 0,-7.31134 4.74183,-9.79041 10.3125,-10.71875 1.16067,-0.11667 2.48266,-0.21875 3.875,-0.21875 z"
         id="path4897"
         inkscape:connector-curvature="0" />
      <path
         style="font-style:normal;font-variant:normal;font-weight:500;font-stretch:normal;font-size:34.8171px;line-height:125%;font-family:'Qlassik Medium';-inkscape-font-specification:'Qlassik Medium, Medium';text-align:start;letter-spacing:0px;word-spacing:0px;writing-mode:lr-tb;text-anchor:start;fill:#d7f4ee;fill-opacity:1;stroke:none"
         d="m 508.08885,246.43958 c -13.34669,0 -22.78158,9.1008 -22.78125,29.0625 0,20.07802 7.98398,28.53125 22.375,28.53125 12.88235,0 22.5,-9.86864 22.5,-29.25 0,-18.68535 -7.47073,-28.34408 -22.09375,-28.34375 z m -0.40625,7.8125 h 0.3125 c 6.96368,0 11.46842,5.73382 11.46875,20.9375 0,16.01569 -5.31741,21.34375 -11.46875,21.34375 -6.84734,0 -11.875,-5.54647 -11.875,-21.5625 0,-15.08735 5.41149,-20.71875 11.5625,-20.71875 z"
         id="path4899"
         inkscape:connector-curvature="0" />
      <path
         style="font-style:normal;font-variant:normal;font-weight:500;font-stretch:normal;font-size:34.8171px;line-height:125%;font-family:'Qlassik Medium';-inkscape-font-specification:'Qlassik Medium, Medium';text-align:start;letter-spacing:0px;word-spacing:0px;writing-mode:lr-tb;text-anchor:start;fill:#d7f4ee;fill-opacity:1;stroke:none"
         d="m 347.27084,246.95559 c -1.53467,0.05 -3.03334,0.415 -4.68767,0.93734 -2.43667,0.81266 -5.24734,2.15833 -7.91668,4.47934 -0.57967,-1.97301 -1.557,-3.43768 -3.64567,-3.43734 -0.23333,0 -0.48533,0 -0.83333,0.10333 -2.66934,1.16067 -3.99068,2.012 -4.68768,2.70834 0.81267,2.321 1.45834,4.932 1.45867,8.64568 l -0.10333,19.58335 c 0,9.05268 -0.0933,16.54569 -0.20667,22.8127 6.26734,0 7.65801,-0.1 9.16668,-1.146 0.92833,-1.27634 1.04167,-2.71434 1.04167,-4.68734 v -36.97938 c 2.321,-2.437 5.33634,-3.74967 9.16668,-3.75001 0.58,0 1.27067,-0.0333 2.08333,0.21 0.928,0.11667 2.00034,0.20667 2.81234,0.20667 0.58033,0 0.57767,0 1.042,-0.10333 1.39234,-2.08901 1.87534,-5.04201 1.87467,-6.66668 -0.34767,-1.62467 -1.98234,-2.56833 -5.00001,-2.91667 -0.522,-0.0867 -1.05066,-0.0333 -1.56233,0 z"
         id="path4901"
         inkscape:connector-curvature="0" />
      <path
         style="font-style:normal;font-variant:normal;font-weight:500;font-stretch:normal;font-size:34.8171px;line-height:125%;font-family:'Qlassik Medium';-inkscape-font-specification:'Qlassik Medium, Medium';text-align:start;letter-spacing:0px;word-spacing:0px;writing-mode:lr-tb;text-anchor:start;fill:#d7f4ee;fill-opacity:1;stroke:none"
         d="m 560.81279,246.95559 c -1.564,0.05 -3.13801,0.415 -4.79167,0.93734 -2.43734,0.81266 -5.14334,2.15833 -7.81235,4.47934 -0.58033,-1.97301 -1.55667,-3.43768 -3.646,-3.43734 -0.23334,0 -0.485,0 -0.83334,0.10333 -2.669,1.16067 -3.99134,2.012 -4.68734,2.70834 0.812,2.321 1.45801,4.932 1.45801,8.64568 l -0.10334,19.58335 c 0,9.05268 -0.0933,16.54569 -0.20667,22.8127 6.26701,0 7.65768,-0.1 9.16668,-1.146 0.928,-1.27634 1.04167,-2.71434 1.04167,-4.68734 v -36.97938 c 2.32134,-2.437 5.33668,-3.74967 9.16668,-3.75001 0.58033,0 1.271,-0.0333 2.08334,0.21 0.92833,0.11667 1.99967,0.20667 2.81267,0.20667 0.57966,0 0.57733,0 1.04133,-0.10333 1.393,-2.08901 1.771,-5.04201 1.771,-6.66668 -0.34833,-1.62467 -1.87867,-2.56833 -4.89567,-2.91667 -0.52267,-0.0867 -1.04133,-0.0333 -1.56267,0 z"
         id="path4903"
         inkscape:connector-curvature="0" />
      <path
         style="font-style:normal;font-variant:normal;font-weight:500;font-stretch:normal;font-size:34.8171px;line-height:125%;font-family:'Qlassik Medium';-inkscape-font-specification:'Qlassik Medium, Medium';text-align:start;letter-spacing:0px;word-spacing:0px;writing-mode:lr-tb;text-anchor:start;fill:#ffffff;fill-opacity:1;stroke:none"
         d="m 208.41633,266.85162 c -5.33801,0.69633 -13.61669,1.81533 -20.00003,2.39567 -1.62433,0 -2.44034,2.566 -3.02067,8.02101 0.92833,0.23333 1.67567,0.41633 2.604,0.41667 5.45534,0 13.63135,-1.06267 18.85436,-1.87534 2.669,-0.348 3.81801,-3.83034 4.16667,-8.12468 -0.69666,-0.34833 -1.79167,-0.71733 -2.60433,-0.83333 z"
         id="path4905"
         inkscape:connector-curvature="0" />
      <path
         style="font-style:normal;font-variant:normal;font-weight:500;font-stretch:normal;font-size:34.8171px;line-height:125%;font-family:'Qlassik Medium';-inkscape-font-specification:'Qlassik Medium, Medium';text-align:start;letter-spacing:0px;word-spacing:0px;writing-mode:lr-tb;text-anchor:start;fill:#d7f4ee;fill-opacity:1;stroke:none"
         d="m 471.95867,289.87231 c -4.75867,0 -6.87501,2.36067 -6.87534,6.77068 0,4.75867 1.51567,6.97934 6.04201,6.97934 5.45467,0 6.75867,-3.11367 6.87467,-7.29167 0.11667,-4.29401 -0.819,-6.45835 -6.04134,-6.45835 z"
         id="path4907"
         inkscape:connector-curvature="0" />
      <path
         sodipodi:nodetypes="scscscscsccscsccscccccscsssssss"
         inkscape:connector-curvature="0"
         id="path4909"
         d="m 570.17447,275.6543 c 0,14.62301 6.30267,20.92569 10.05901,24.06203 4.17801,3.36567 8.63035,4.339 12.22835,4.339 4.52601,0 8.34868,-1.51533 10.32135,-3.024 v 10.84768 c 0,1.05633 -0.0433,2.03067 0,2.958 0,10.00602 -10.48168,9.36702 -14.39769,9.00735 -2.76967,-0.25333 -7.09234,-1.48867 -8.02068,-2.30134 -0.11333,0.69634 -0.19666,1.63567 -0.19666,2.56401 0,1.04466 -0.05,2.177 0.0667,3.22167 0.23334,0.92833 0.84634,1.60467 1.77467,2.301 2.20534,1.39267 6.13234,2.235 9.73002,2.235 10.46834,0 20.89369,-2.76033 21.10402,-18.67102 0,-0.28334 0.0667,-0.57134 0.0667,-0.85467 v -17.88236 h -0.0667 v -34.25204 c 0,-3.71367 0.50234,-6.42268 1.31467,-8.74368 -0.46433,-0.69667 -2.099,-1.46933 -4.53634,-2.63 -0.46433,-0.11334 -0.85467,-0.13 -0.85467,-0.13 -2.089,0 -3.21733,1.51133 -3.68167,3.48434 -2.78533,-2.32134 -5.35134,-3.72401 -8.02067,-4.53634 -2.42334,-0.83101 -8.03735,-0.73034 -11.30369,0.37933 -12.36801,4.20234 -15.42368,18.16702 -15.58435,27.62704 z m 18.14535,-19.40703 c 6.30135,-2.96767 12.02635,1.01367 14.46336,3.10267 v 33.20038 c -1.62467,2.089 -5.01468,3.74734 -8.61235,3.74734 -5.33834,0 -13.08268,-0.58867 -13.08268,-19.85436 0,-12.41802 1.74567,-17.61236 7.23167,-20.19603 z"
         style="font-style:normal;font-variant:normal;font-weight:500;font-stretch:normal;font-size:55.1659px;line-height:125%;font-family:'Qlassik Medium';-inkscape-font-specification:'Qlassik Medium, Medium';text-align:start;letter-spacing:0px;word-spacing:0px;writing-mode:lr-tb;text-anchor:start;fill:#d7f4ee;fill-opacity:1;stroke:none" />
      <path
         style="font-style:normal;font-variant:normal;font-weight:500;font-stretch:normal;font-size:12.25px;line-height:125%;font-family:'Qlassik Medium';-inkscape-font-specification:'Qlassik Medium, Medium';text-align:start;letter-spacing:0px;word-spacing:0px;writing-mode:lr-tb;text-anchor:start;fill:#ffffff;fill-opacity:1;stroke:none"
         d="m 239.2497,200.4982 c -1.676,0 -2.924,0.1 -3.33334,1.04167 0.04,1.22666 0.10334,2.68367 0.10334,4.68733 v 20.72937 0.41666 c 0,0.81767 0.38733,1.52934 1.04166,1.97934 0.44967,0.28667 0.96767,0.625 1.45834,0.62467 1.06333,-0.04 1.86034,-0.44667 2.18767,-0.93734 0,-0.20333 -0.04,-0.98967 0,-1.56267 -1.268,0.24667 -1.146,-1.875 -1.146,-1.87467 v -21.25002 c 0,-2.04501 -0.0667,-3.03667 -0.31334,-3.85434 z"
         id="path4911"
         inkscape:connector-curvature="0" />
      <path
         style="font-style:normal;font-variant:normal;font-weight:500;font-stretch:normal;font-size:12.25px;line-height:125%;font-family:'Qlassik Medium';-inkscape-font-specification:'Qlassik Medium, Medium';text-align:start;letter-spacing:0px;word-spacing:0px;writing-mode:lr-tb;text-anchor:start;fill:#ffffff;fill-opacity:1;stroke:none"
         d="m 348.31251,204.9772 c -1.922,0.12334 -2.735,0.84934 -3.02067,1.66667 l -0.21,3.64601 c -0.613,0.28666 -1.927,0.447 -2.5,0.93733 -0.32667,0.32667 -0.31334,0.0867 -0.31334,1.35434 0.49067,0.24666 1.19134,0.41666 2.50001,0.41666 v 10.10435 c 0,3.31167 0.67633,6.87501 4.479,6.87468 1.268,0 2.66067,-0.23667 3.43767,-0.72901 0.32667,-0.24666 0.54334,-0.50633 0.625,-0.83333 0.04,-0.368 0,-0.77767 0,-1.14567 0,-0.32666 -0.0633,-0.69233 -0.10333,-0.93767 -0.32667,0.28667 -2.19934,0.87434 -2.81267,0.83334 -1.63567,0 -2.02434,-1.56434 -2.18734,-3.85434 v -4.79134 c 0,-1.759 0.0633,-3.64 0.10334,-5.52101 1.75833,0 2.27,0.04 3.33333,0 0.32667,0 0.61034,-0.0633 0.93734,-0.10333 0.573,-0.12333 0.815,-0.55933 0.93767,-2.604 h -5.20834 c 0,-1.67667 -0.04,-3.43101 0,-5.31268 z"
         id="path4913"
         inkscape:connector-curvature="0" />
      <path
         style="font-style:normal;font-variant:normal;font-weight:500;font-stretch:normal;font-size:12.25px;line-height:125%;font-family:'Qlassik Medium';-inkscape-font-specification:'Qlassik Medium, Medium';text-align:start;letter-spacing:0px;word-spacing:0px;writing-mode:lr-tb;text-anchor:start;fill:#ffffff;fill-opacity:1;stroke:none"
         d="m 270.4951,209.65833 c -0.899,0 -1.64067,0.24358 -2.5,0.53125 -0.94,0.28666 -1.83116,0.74483 -2.8125,1.5625 -0.16333,-0.695 -0.514,-1.25 -1.25,-1.25 0,0 -0.14917,-0.04 -0.3125,0 -0.85934,0.409 -1.39884,0.69183 -1.5625,0.9375 0.28666,0.81733 0.40625,1.81666 0.40625,3.125 v 19.0625 c 0,2.04467 -0.0116,3.46125 0.125,4.15625 0.36866,0.08 0.80067,0.125 1.25,0.125 0.9,0 1.77683,-0.23083 2.0625,-0.4375 0.0833,-0.53133 0.125,-1.09567 0.125,-1.75 v -6.78125 c 0.695,0.53134 2.03066,1.03158 3.625,1.03125 1.268,0 2.80924,-0.25283 4.28125,-1.4375 2.08533,-1.677 3.53125,-4.84832 3.53125,-10 0,-6.29767 -3.08374,-8.875 -6.96875,-8.875 z m -0.84375,3.03125 c 2.57667,0 4.0625,1.74966 4.0625,6.125 0,6.78801 -2.8065,8.4375 -4.6875,8.4375 -1.268,0 -2.42767,-0.60775 -3,-1.34375 v -11.65625 c 0.85866,-0.736 2.194,-1.5625 3.625,-1.5625 z"
         id="path4915"
         inkscape:connector-curvature="0" />
      <path
         style="font-style:normal;font-variant:normal;font-weight:500;font-stretch:normal;font-size:12.25px;line-height:125%;font-family:'Qlassik Medium';-inkscape-font-specification:'Qlassik Medium, Medium';text-align:start;letter-spacing:0px;word-spacing:0px;writing-mode:lr-tb;text-anchor:start;fill:#ffffff;fill-opacity:1;stroke:none"
         d="m 194.2451,209.75208 v 0.0312 c -4.49767,0 -7.90591,2.91982 -7.90625,10.8125 0,3.39367 0.75617,5.93425 2.1875,7.40625 1.59467,1.59467 3.703,1.96908 5.625,1.96875 1.26767,0 2.387,-0.24292 3,-0.40625 1.14534,-0.28667 2.36525,-1.15109 2.40625,-1.96875 -0.04,-0.49067 -0.0675,-1.3195 -0.1875,-1.6875 -1.30867,0.695 -2.87642,1.0625 -4.59375,1.0625 -2.86234,0 -4.74025,-1.43949 -4.78125,-5.9375 0.65433,0.04 1.22066,-3.3e-4 1.875,0 1.922,0 4.0455,-0.0555 5.3125,-0.21875 1.10467,-0.16333 2.4035,-0.6105 2.8125,-0.9375 0.16333,-0.65433 0.1875,-1.54725 0.1875,-2.40625 0,-0.69467 0.04,-1.35541 0,-1.96875 -0.368,-3.51667 -2.25683,-5.75 -5.9375,-5.75 z m -0.40625,2.625 c 1.84067,0 2.70225,1.14783 2.90625,3.4375 0,0.28666 0.0937,0.61049 0.0937,0.9375 0,0.53166 -0.0675,1.01608 -0.1875,1.34375 -0.24667,0.16333 -0.5695,0.17875 -0.9375,0.21875 -0.77734,0.0833 -2.46783,0.18416 -4.0625,0.1875 h -1.5625 c 0.20666,-3.96701 1.6775,-5.78558 3.3125,-6.03125 0.12334,-0.04 0.31417,-0.0937 0.4375,-0.0937 z"
         id="path4917"
         inkscape:connector-curvature="0" />
      <path
         style="font-style:normal;font-variant:normal;font-weight:500;font-stretch:normal;font-size:12.25px;line-height:125%;font-family:'Qlassik Medium';-inkscape-font-specification:'Qlassik Medium, Medium';text-align:start;letter-spacing:0px;word-spacing:0px;writing-mode:lr-tb;text-anchor:start;fill:#ffffff;fill-opacity:1;stroke:none"
         d="m 226.52635,209.75208 v 0.0312 c -4.49867,0 -7.8125,2.91982 -7.8125,10.8125 0,3.39367 0.7565,5.93425 2.1875,7.40625 1.59534,1.59467 3.60925,1.96908 5.53125,1.96875 1.26767,0 2.51167,-0.24292 3.125,-0.40625 1.14501,-0.28667 2.36525,-1.15109 2.40625,-1.96875 -0.04,-0.49067 -0.18916,-1.3195 -0.3125,-1.6875 -1.30866,0.695 -2.78233,1.0625 -4.5,1.0625 -2.862,0 -4.834,-1.43949 -4.875,-5.9375 0.65434,0.04 1.22067,-3.3e-4 1.875,0 1.92201,0 4.0445,-0.0555 5.3125,-0.21875 1.10367,-0.16333 2.49691,-0.6105 2.90625,-0.9375 0.16333,-0.65433 0.21875,-1.54725 0.21875,-2.40625 0,-0.69467 -0.085,-1.35541 -0.125,-1.96875 -0.368,-3.51667 -2.25783,-5.75 -5.9375,-5.75 z m -0.40625,2.625 c 1.83967,0 2.82691,1.14783 3.03125,3.4375 v 0.9375 c 0,0.53166 -0.0988,1.01608 -0.21875,1.34375 -0.24667,0.16333 -0.56916,0.17875 -0.9375,0.21875 -0.77633,0.0833 -2.46783,0.18416 -4.0625,0.1875 h -1.5625 c 0.20333,-3.96701 1.80183,-5.78558 3.4375,-6.03125 0.12333,-0.04 0.18917,-0.0937 0.3125,-0.0937 z"
         id="path4919"
         inkscape:connector-curvature="0" />
      <path
         style="font-style:normal;font-variant:normal;font-weight:500;font-stretch:normal;font-size:12.25px;line-height:125%;font-family:'Qlassik Medium';-inkscape-font-specification:'Qlassik Medium, Medium';text-align:start;letter-spacing:0px;word-spacing:0px;writing-mode:lr-tb;text-anchor:start;fill:#ffffff;fill-opacity:1;stroke:none"
         d="m 251.1201,209.78333 c -4.70301,0 -8.03125,3.15416 -8.03125,10.1875 0,7.07435 2.86682,10 7.9375,10 4.539,0 7.81283,-3.48349 7.8125,-10.3125 0,-6.58368 -2.56674,-9.875 -7.71875,-9.875 z m -0.0937,2.6875 c 2.45333,0 4.0625,2.04958 4.0625,7.40625 0,5.64301 -1.89517,7.5 -4.0625,7.5 -2.41267,0 -4.1875,-1.98199 -4.1875,-7.625 0,-5.31634 2.02016,-7.28125 4.1875,-7.28125 z"
         id="path4921"
         inkscape:connector-curvature="0" />
      <path
         style="font-style:normal;font-variant:normal;font-weight:500;font-stretch:normal;font-size:12.25px;line-height:125%;font-family:'Qlassik Medium';-inkscape-font-specification:'Qlassik Medium, Medium';text-align:start;letter-spacing:0px;word-spacing:0px;writing-mode:lr-tb;text-anchor:start;fill:#ffffff;fill-opacity:1;stroke:none"
         d="m 289.3541,209.76821 c -0.94067,0 -1.74534,0.13 -2.60434,0.41667 -0.85833,0.28666 -1.831,0.74466 -2.81233,1.56233 -0.16334,-0.695 -0.473,-1.25 -1.25001,-1.25 -0.04,0 -0.19,-0.04 -0.31333,0 -0.9,0.409 -1.46267,0.692 -1.66667,0.93767 0.28667,0.81733 0.52067,1.81633 0.52067,3.12467 v 7.29201 c 0,3.06634 0.04,5.62267 0,7.70801 2.16733,0 2.59334,0 3.125,-0.41667 0.32667,-0.40833 0.41667,-0.763 0.41667,-1.458 v -13.33335 c 0.85867,-0.941 2.02867,-1.66667 3.54167,-1.66667 2.04467,0 2.70834,1.081 2.70834,4.27067 v 5.00001 c 0,3.067 0.08,5.51867 0,7.60401 h 1.66667 c 0.695,0 1.068,0.04 1.35433,0 0.32667,-0.08 0.625,-0.32 0.62467,-0.729 v -9.58335 -4.79167 c 0.85933,-0.94067 2.00634,-1.77067 3.43767,-1.77067 2.08534,0 2.70834,1.18533 2.70834,4.37467 v 11.14602 c 0,0.57233 0.15,1.02733 0.31333,1.354 2.28934,0 2.84201,-0.15333 3.33334,-0.52067 -0.0833,-1.472 -0.10333,-3.268 -0.10333,-5.31267 v -6.87468 c 0,-4.08967 -0.77667,-6.79767 -4.37501,-7.08334 -0.24667,-0.04 -0.547,0 -0.83333,0 -0.85867,0 -1.64134,0.13 -2.50001,0.41667 -0.94067,0.28666 -2.03933,0.84833 -3.02067,1.66667 -0.69567,-1.18634 -1.70167,-1.96067 -3.542,-2.08334 -0.24334,-0.04 -0.52467,0 -0.729,0 z"
         id="path4923"
         inkscape:connector-curvature="0" />
      <path
         style="font-style:normal;font-variant:normal;font-weight:500;font-stretch:normal;font-size:12.25px;line-height:125%;font-family:'Qlassik Medium';-inkscape-font-specification:'Qlassik Medium, Medium';text-align:start;letter-spacing:0px;word-spacing:0px;writing-mode:lr-tb;text-anchor:start;fill:#ffffff;fill-opacity:1;stroke:none"
         d="m 315.8076,209.75208 v 0.0312 c -4.49801,0 -7.90625,2.91982 -7.90625,10.8125 0,3.39367 0.75649,5.93425 2.1875,7.40625 1.59533,1.59467 3.70299,1.96908 5.625,1.96875 1.267,0 2.38666,-0.24292 3,-0.40625 1.145,-0.28667 2.36525,-1.15109 2.40625,-1.96875 -0.04,-0.49067 -0.0954,-1.3195 -0.21875,-1.6875 -1.308,0.695 -2.8445,1.0625 -4.5625,1.0625 -2.862,0 -4.77183,-1.43949 -4.8125,-5.9375 0.65367,0.04 1.221,-3.3e-4 1.875,0 1.92234,0 4.04484,-0.0555 5.3125,-0.21875 1.10401,-0.16333 2.4035,-0.6105 2.8125,-0.9375 0.16334,-0.65433 0.21875,-1.54725 0.21875,-2.40625 0,-0.69467 0.04,-1.35541 0,-1.96875 -0.36767,-3.51667 -2.25716,-5.75 -5.9375,-5.75 z m -0.40625,2.625 c 1.84,0 2.70192,1.14783 2.90625,3.4375 v 0.9375 c 0,0.53166 -0.0675,1.01608 -0.1875,1.34375 -0.24666,0.16333 -0.56917,0.17875 -0.9375,0.21875 -0.77634,0.0833 -2.37408,0.18416 -3.96875,0.1875 h -1.5625 c 0.20334,-3.96701 1.70808,-5.78558 3.34375,-6.03125 0.12333,-0.04 0.28291,-0.0937 0.40625,-0.0937 z"
         id="path4925"
         inkscape:connector-curvature="0" />
      <path
         style="font-style:normal;font-variant:normal;font-weight:500;font-stretch:normal;font-size:12.25px;line-height:125%;font-family:'Qlassik Medium';-inkscape-font-specification:'Qlassik Medium, Medium';text-align:start;letter-spacing:0px;word-spacing:0px;writing-mode:lr-tb;text-anchor:start;fill:#ffffff;fill-opacity:1;stroke:none"
         d="m 333.41649,209.76821 c -0.899,0 -1.74534,0.13 -2.604,0.41667 -0.89967,0.28666 -1.83101,0.84833 -2.81267,1.66667 -0.16334,-0.69567 -0.51334,-1.25034 -1.25,-1.25001 -0.04,0 -0.19001,-0.04 -0.31334,0 -0.89967,0.40834 -1.358,0.692 -1.56233,0.93734 0.28666,0.81767 0.41666,1.81633 0.41666,3.125 v 6.87501 c 0,3.14867 0.04,5.81301 0,8.02068 2.20767,-0.04 2.63401,0 3.12467,-0.41667 0.36867,-0.53133 0.417,-1.016 0.41667,-1.87467 v -12.81268 c 0.85934,-0.94067 2.06967,-1.66667 3.54201,-1.66667 2.453,0 3.229,1.12233 3.229,4.27067 v 10.83335 c 0,0.65467 0.0667,1.21733 0.31333,1.66667 2.33101,0 2.92467,-0.15333 3.33334,-0.52067 -0.04,-1.63567 -0.10333,-3.58434 -0.10333,-5.83334 v -6.25001 c 0,-4.62067 -0.863,-7.18734 -5.72934,-7.18734 z"
         id="path4927"
         inkscape:connector-curvature="0" />
      <path
         style="font-style:normal;font-variant:normal;font-weight:500;font-stretch:normal;font-size:12.25px;line-height:125%;font-family:'Qlassik Medium';-inkscape-font-specification:'Qlassik Medium, Medium';text-align:start;letter-spacing:0px;word-spacing:0px;writing-mode:lr-tb;text-anchor:start;fill:#ffffff;fill-opacity:1;stroke:none"
         d="m 205.29166,209.97488 c -2.16767,0 -2.98401,0.30666 -3.22934,1.042 0.16333,0.613 1.61067,5.16434 1.97933,6.14567 1.59434,4.94801 2.64201,8.39535 3.54134,11.66668 0.16334,0.49067 0.972,0.83334 1.66667,0.83334 0.04,0 0.0867,0.04 0.21,0 0.53134,-0.12333 1.321,-0.28 1.77067,-0.729 1.96267,-6.13434 3.48701,-11.30268 5.00001,-16.25002 0.28666,-0.81834 0.41666,-1.34367 0.41666,-1.87534 0,-0.16333 0.0333,-0.357 -0.10333,-0.52067 -1.02267,-0.12333 -1.697,-0.10333 -2.18767,-0.10333 -0.44967,0 -0.588,-0.06 -0.83333,0.10333 -0.44967,1.71734 -0.99,3.81101 -1.56234,5.93734 -0.982,3.59901 -1.883,8.02235 -2.292,9.16668 -0.40834,-1.267 -1.32867,-5.46 -2.18734,-8.85401 -0.57233,-1.881 -1.09033,-3.77334 -1.45833,-5 -0.16334,-0.65434 -0.402,-1.23534 -0.729,-1.56267 z"
         id="path4929"
         inkscape:connector-curvature="0" />
      <path
         style="opacity:0.42;fill:#ffffff;fill-opacity:1;stroke:none"
         d="m 453.38698,131.86477 c 3.62634,0 6.56601,2.93967 6.56601,6.56601 0,1.16067 -0.29333,2.20001 -0.82067,3.14634 l 10.19068,9.84901 c 1.197,-0.77433 2.64067,-1.23133 4.17234,-1.23133 4.23067,0 7.66034,3.42967 7.66034,7.66034 0,4.23067 -3.42967,7.66034 -7.66034,7.66034 -1.58633,0 -3.08667,-0.47333 -4.309,-1.29966 l -10.05402,9.71234 c 0.52834,0.94634 0.82067,2.05401 0.82067,3.21467 0,3.62634 -2.93967,6.56601 -6.56601,6.56601 -3.62667,0 -6.56601,-2.93967 -6.56601,-6.56601 0,-3.62633 2.93934,-6.56601 6.56601,-6.56601 1.271,0 2.48267,0.33334 3.48801,0.95767 l 10.05401,-9.71234 c -0.69634,-1.154 -1.09367,-2.52067 -1.09367,-3.96701 0,-1.49967 0.41733,-2.92234 1.16234,-4.10367 l -10.19068,-9.78068 c -0.99467,0.606 -2.17067,1.026 -3.42001,1.026 -3.62667,0 -6.56601,-2.93967 -6.56601,-6.56601 0,-3.62634 2.93934,-6.56601 6.56601,-6.56601 z"
         id="path4931"
         inkscape:connector-curvature="0" />
      <path
         style="opacity:0.23;fill:#ffffff;fill-opacity:1;stroke:none"
         d="m 490.5177,131.86477 c -3.62634,0 -6.56568,2.93967 -6.56568,6.56601 0,3.58467 2.304,5.58034 5.47134,6.42934 v 25.8537 c -3.11867,0.50967 -5.47134,3.16634 -5.47134,6.42901 0,3.62634 2.93934,6.56601 6.56568,6.56601 3.62633,0 6.566,-2.93967 6.566,-6.56601 0,-2.843 -1.849,-5.24234 -4.377,-6.15567 v -26.4007 c 0.66267,-0.23667 1.23367,-0.60034 1.778,-1.026 l 9.71235,10.12268 c -0.77534,1.19733 -1.231,2.63933 -1.231,4.172 0,4.23067 3.42967,7.66034 7.66034,7.66034 4.23034,0 7.66001,-3.42967 7.66001,-7.66034 0,-4.23067 -3.42967,-7.66034 -7.66001,-7.66034 -1.49834,0 -2.92334,0.41933 -4.10401,1.163 l -9.98568,-10.39635 c 0.33334,-0.78567 0.547,-1.624 0.547,-2.53067 0,-3.62634 -2.93967,-6.56601 -6.566,-6.56601 z"
         id="path4933"
         inkscape:connector-curvature="0"
         sodipodi:nodetypes="scccsssccccssssccss" />
      <path
         inkscape:connector-curvature="0"
         id="path4935"
         d="m 443.69863,159.71314 c 0,3.62634 -2.93967,6.56601 -6.566,6.56601 -1.16067,0 -2.20001,-0.29333 -3.14601,-0.82067 l -9.84934,10.19068 c 0.77433,1.19701 1.23133,2.64067 1.23133,4.17234 0,4.23068 -3.42967,7.66035 -7.66034,7.66035 -4.23067,0 -7.66035,-3.42967 -7.66035,-7.66035 0,-1.58633 0.47367,-3.08667 1.29934,-4.309 l -9.71201,-10.05402 c -0.94634,0.52834 -2.05401,0.82067 -3.21467,0.82067 -3.62634,0 -6.56601,-2.93967 -6.56601,-6.56601 0,-3.62667 2.93967,-6.566 6.56601,-6.566 3.62633,0 6.566,2.93933 6.566,6.566 0,1.27101 -0.33333,2.48267 -0.95766,3.48801 l 9.71234,10.05401 c 1.154,-0.696 2.52067,-1.09367 3.96701,-1.09367 1.49967,0 2.92233,0.41734 4.10367,1.16234 l 9.78068,-10.19068 c -0.606,-0.99467 -1.026,-2.17067 -1.026,-3.42001 0,-3.62667 2.93967,-6.566 6.56601,-6.566 3.62633,0 6.566,2.93933 6.566,6.566 z"
         style="opacity:0.69;fill:#ffffff;fill-opacity:1;stroke:none" />
      <path
         sodipodi:nodetypes="scccsssccccssssccss"
         inkscape:connector-curvature="0"
         id="path4937"
         d="m 443.69863,196.84386 c 0,-3.62601 -2.93967,-6.56568 -6.566,-6.56568 -3.58467,0 -5.58068,2.30401 -6.42935,5.47168 h -25.85336 c -0.51,-3.11867 -3.16667,-5.47168 -6.42934,-5.47168 -3.62634,0 -6.56601,2.93967 -6.56601,6.56568 0,3.62634 2.93967,6.56601 6.56601,6.56601 2.843,0 5.24234,-1.849 6.15567,-4.37701 h 26.4007 c 0.23667,0.66267 0.60034,1.23367 1.026,1.778 l -10.12268,9.71235 c -1.19733,-0.77533 -2.63933,-1.231 -4.172,-1.231 -4.23067,0 -7.66035,3.42967 -7.66035,7.66034 0,4.23034 3.42968,7.66001 7.66035,7.66001 4.23067,0 7.66034,-3.42967 7.66034,-7.66001 0,-1.49833 -0.41933,-2.92333 -1.163,-4.104 l 10.39635,-9.98568 c 0.78566,0.33333 1.624,0.547 2.53067,0.547 3.62633,0 6.566,-2.93967 6.566,-6.56601 z"
         style="fill:#ffffff;fill-opacity:1;stroke:none" />
    </g>
  </g>
</svg>
