<?xml version="1.0" encoding="UTF-8" standalone="no"?>
<!-- Created with Inkscape (http://www.inkscape.org/) -->

<svg
   width="1550"
   height="740"
   id="svg5723"
   version="1.1"
   inkscape:version="1.3 (0e150ed6c4, 2023-07-21)"
   sodipodi:docname="dportal_logo_white.svg"
   inkscape:export-filename="dportal_logo_white.png"
   inkscape:export-xdpi="96"
   inkscape:export-ydpi="96"
   xmlns:inkscape="http://www.inkscape.org/namespaces/inkscape"
   xmlns:sodipodi="http://sodipodi.sourceforge.net/DTD/sodipodi-0.dtd"
   xmlns="http://www.w3.org/2000/svg"
   xmlns:svg="http://www.w3.org/2000/svg"
   xmlns:rdf="http://www.w3.org/1999/02/22-rdf-syntax-ns#"
   xmlns:cc="http://creativecommons.org/ns#"
   xmlns:dc="http://purl.org/dc/elements/1.1/">
  <defs
     id="defs5725" />
  <sodipodi:namedview
     id="base"
     pagecolor="#505050"
     bordercolor="#666666"
     borderopacity="1.0"
     inkscape:pageopacity="0.0"
     inkscape:pageshadow="2"
     inkscape:zoom="0.57578737"
     inkscape:cx="715.54192"
     inkscape:cy="311.74702"
     inkscape:document-units="px"
     inkscape:current-layer="layer1"
     showgrid="false"
     inkscape:window-width="1920"
     inkscape:window-height="1057"
     inkscape:window-x="0"
     inkscape:window-y="0"
     inkscape:window-maximized="1"
     fit-margin-top="0"
     fit-margin-left="0"
     fit-margin-right="0"
     fit-margin-bottom="0"
     inkscape:showpageshadow="0"
     inkscape:pagecheckerboard="true"
     inkscape:deskcolor="#505050" />
  <metadata
     id="metadata5728">
    <rdf:RDF>
      <cc:Work
         rdf:about="">
        <dc:format>image/svg+xml</dc:format>
        <dc:type
           rdf:resource="http://purl.org/dc/dcmitype/StillImage" />
      </cc:Work>
    </rdf:RDF>
  </metadata>
  <g
     inkscape:label="Layer 1"
     inkscape:groupmode="layer"
     id="layer1"
     transform="translate(3120.7417,-1252.4899)">
    <g
       id="g1"
       transform="translate(0,6.5917969e-5)">
      <rect
         inkscape:export-ydpi="799.92004"
         inkscape:export-xdpi="799.92004"
         inkscape:export-filename="/home/shi/Copy/2014/iati/dplogo-highres/dportal.logo.png"
         y="1352.4899"
         x="-3020.7417"
         height="539.99945"
         width="1350"
         id="rect4885"
         style="fill:none;fill-opacity:1;fill-rule:evenodd;stroke:none;stroke-width:2.7" />
      <path
         style="font-style:normal;font-variant:normal;font-weight:500;font-stretch:normal;font-size:34.8171px;line-height:125%;font-family:'Qlassik Medium';-inkscape-font-specification:'Qlassik Medium, Medium';text-align:start;letter-spacing:0px;word-spacing:0px;writing-mode:lr-tb;text-anchor:start;fill:#ffffff;fill-opacity:1;stroke:none;stroke-width:2.7"
         d="m -2869.6981,1515.6205 c -17.2449,0 -29.5443,1.5477 -33.75,11.2218 0.423,10.0936 0.8437,22.5857 0.8437,41.0906 v 50.0344 c -6.7293,-4.2058 -17.9318,-7.5938 -32.6531,-7.5938 -20.1888,0 -40.3796,7.8154 -55.9406,25.0594 -16.8255,18.927 -27.8429,47.4506 -27.8438,85.7249 0,71.5014 30.7541,95.2653 72.8157,97.3686 11.3553,0.423 21.4595,-1.2802 30.7125,-5.9062 4.6278,-2.1024 9.5411,-6.7576 12.0656,-9.2813 4.2057,5.4675 15.2199,15.0172 25.3125,14.5969 10.9359,-0.423 18.8255,-4.4871 22.1906,-9.5344 0,-2.1033 0.1766,-9.6363 0.5906,-15.5249 -13.4595,2.9448 -11.8125,-19.4063 -11.8125,-19.4063 0,-22.2921 0.8438,-55.6075 0.8438,-84.628 v -141.1593 c 0,-18.9261 -0.855,-26.1746 -3.375,-32.0624 z m -59.9063,122.8499 c 11.7766,0 20.6901,2.4637 27,7.9312 v 104.0343 c 0,8.8326 0.1699,14.9514 -0.2529,19.9968 0,2.1024 -1.0141,5.0648 -1.4344,5.9063 -5.8878,7.1505 -18.0119,11.8125 -30.6281,11.8125 -25.6573,0 -44.7179,-17.3763 -44.7188,-71.2125 0,-57.6225 25.2187,-78.4686 50.0344,-78.4686 z"
         id="path4887"
         inkscape:connector-curvature="0" />
      <path
         style="font-style:normal;font-variant:normal;font-weight:500;font-stretch:normal;font-size:34.8171px;line-height:125%;font-family:'Qlassik Medium';-inkscape-font-specification:'Qlassik Medium, Medium';text-align:start;letter-spacing:0px;word-spacing:0px;writing-mode:lr-tb;text-anchor:start;fill:#ffffff;fill-opacity:1;stroke:none;stroke-width:2.7"
         d="m -2106.9621,1591.5189 c -12.8485,0 -22.1797,0.9495 -25.3135,8.1567 0.315,9.4005 0.558,20.0835 0.567,35.4375 v 158.6251 3.375 c 0,6.2667 2.5794,12.0222 7.5933,15.4692 3.447,2.1924 7.4889,4.2183 11.25,4.2183 8.146,-0.315 14.0877,-3.5523 16.5934,-7.3125 0,-1.5669 0,-7.1442 0.279,-11.5308 -9.7147,1.8801 -8.7193,-14.3442 -8.7183,-14.3442 v -163.1251 c 0,-15.6681 -0.369,-22.7016 -2.2501,-28.9692 z"
         id="path4889"
         inkscape:connector-curvature="0" />
      <path
         style="font-style:normal;font-variant:normal;font-weight:500;font-stretch:normal;font-size:34.8171px;line-height:125%;font-family:'Qlassik Medium';-inkscape-font-specification:'Qlassik Medium, Medium';text-align:start;letter-spacing:0px;word-spacing:0px;writing-mode:lr-tb;text-anchor:start;fill:#ffffff;fill-opacity:1;stroke:none;stroke-width:2.7"
         d="m -2318.7441,1625.5506 c -14.7286,0.9405 -21.4318,6.3891 -23.6251,12.6567 l -1.4067,28.125 c -4.6998,2.1924 -14.4576,3.2706 -18.8433,7.0309 -2.5065,2.5064 -2.8125,0.9737 -2.8125,10.6874 3.7602,1.8801 8.8155,3.3751 18.8442,3.3751 v 77.3433 c 0,25.3818 5.1705,52.5942 34.3117,52.5942 9.7155,0 20.4831,-2.1456 26.4384,-5.9058 2.5056,-1.881 4.1553,-3.681 4.7808,-6.1884 0.315,-2.8197 0.279,-6.1785 0.279,-9 0,-2.5065 -0.2519,-4.869 -0.558,-6.75 -2.5083,2.1942 -16.956,6.5016 -21.6567,6.1884 -12.5352,0 -15.3405,-12.2643 -16.5933,-29.8134 0,-10.3401 -0.279,-22.4928 -0.279,-36.2808 0,-13.4739 0.2519,-28.0548 0.558,-42.4693 13.4748,0 17.4465,-0.2519 25.5942,-0.5579 2.5056,0 5.0868,-0.252 7.5933,-0.567 4.3857,-0.9396 6.0912,-4.3002 7.0317,-19.9684 h -40.2192 c 0,-12.8475 0.2519,-26.0856 0.558,-40.5 z"
         id="path4891"
         inkscape:connector-curvature="0" />
      <path
         style="font-style:normal;font-variant:normal;font-weight:500;font-stretch:normal;font-size:34.8171px;line-height:125%;font-family:'Qlassik Medium';-inkscape-font-specification:'Qlassik Medium, Medium';text-align:start;letter-spacing:0px;word-spacing:0px;writing-mode:lr-tb;text-anchor:start;fill:#ffffff;fill-opacity:1;stroke:none;stroke-width:2.7"
         d="m -2672.0075,1661.5891 c -5.7364,0.3099 -10.5254,1.7082 -16.2844,3.6281 -7.2063,2.1924 -14.1648,5.7989 -21.6843,12.0656 -1.2546,-5.3271 -4.2307,-9.2803 -9.8719,-9.2812 0,0 -0.9391,0.059 -2.1938,0.3375 -6.5799,3.1338 -10.8962,5.1221 -12.15,7.0031 2.1943,6.2667 3.376,13.5972 3.375,23.625 v 146.2217 c 0,15.6672 -0.016,26.2282 0.9282,31.5562 2.8215,0.63 6.3396,0.8438 9.7875,0.8438 6.8931,0 13.583,-1.3019 15.7781,-2.8688 0.63,-4.0734 0.8437,-8.4861 0.8437,-13.5 v -51.9749 c 5.3263,4.0734 15.6245,8.1 27.8438,8.1 9.7155,0 21.6247,-2.3886 32.9062,-11.475 15.9805,-12.8484 27.2523,-37.0459 27.2532,-76.5281 0,-48.2571 -24.2316,-67.753 -54,-67.753 -0.8619,0 -1.7118,-0.044 -2.5313,0 z m -3.9656,23.0343 c 19.7424,0 30.9656,13.4674 30.9656,46.9969 0,52.0164 -21.0231,64.6321 -35.4375,64.6312 -9.7137,0 -18.6486,-4.1472 -23.0344,-9.7875 v -89.7749 c 6.5799,-5.6422 16.5389,-12.0657 27.5063,-12.0657 z"
         id="path4893"
         inkscape:connector-curvature="0" />
      <path
         style="font-style:normal;font-variant:normal;font-weight:500;font-stretch:normal;font-size:34.8171px;line-height:125%;font-family:'Qlassik Medium';-inkscape-font-specification:'Qlassik Medium, Medium';text-align:start;letter-spacing:0px;word-spacing:0px;writing-mode:lr-tb;text-anchor:start;fill:#ffffff;fill-opacity:1;stroke:none;stroke-width:2.7"
         d="m -2535.32,1661.8422 c -36.0351,0 -61.3406,24.5721 -61.3406,78.4687 0,54.2106 21.642,77.0343 60.4969,77.0343 34.7832,0 60.4968,-26.6453 60.4968,-78.9749 0,-50.4504 -20.17,-76.529 -59.6531,-76.5281 z m -0.8437,21.0937 h 0.5906 c 18.8001,0 30.9656,15.4813 30.9656,56.5312 0,43.2424 -14.3588,57.6281 -30.9656,57.6281 -18.4896,0 -32.0607,-14.9755 -32.0625,-58.2187 0,-40.7358 14.865,-55.9406 31.4719,-55.9406 z"
         id="path4895"
         inkscape:connector-curvature="0" />
      <path
         style="font-style:normal;font-variant:normal;font-weight:500;font-stretch:normal;font-size:34.8171px;line-height:125%;font-family:'Qlassik Medium';-inkscape-font-specification:'Qlassik Medium, Medium';text-align:start;letter-spacing:0px;word-spacing:0px;writing-mode:lr-tb;text-anchor:start;fill:#ffffff;fill-opacity:1;stroke:none;stroke-width:2.7"
         d="m -2208.5356,1661.8422 c -20.9943,0.63 -39.8255,8.9217 -46.4063,15.1875 -0.315,0.9405 -0.8437,2.1231 -0.8437,3.375 0,1.2537 0.2845,2.4345 0.5906,3.375 0.63,3.7611 1.6522,9.5224 4.4719,12.6562 2.5065,0 5.8351,-0.9643 9.2812,-2.5312 9.0882,-3.7602 21.938,-8.1844 32.9063,-8.1844 13.4739,0 14.9335,7.8363 14.9344,21.9375 v 18.0562 c -2.8216,-0.63 -6.3047,-1.1812 -10.3782,-1.1812 -2.8215,0 -5.642,-0.027 -8.775,0.253 -18.8019,1.8801 -52.8205,11.8293 -52.8187,50.3718 0,28.8288 19.0109,41.3446 39.0656,41.3437 8.4609,0 15.8864,-0.7744 22.7813,-4.2187 3.4461,-1.8802 7.402,-5.1222 9.2812,-7.0032 3.1338,4.3875 11.2934,11.2228 18.8156,11.2219 8.1459,-0.315 14.1154,-3.8945 16.6219,-7.3406 0,-1.881 -0.027,-7.0884 0.253,-11.475 -10.0278,1.8801 -8.9446,-14.3446 -8.9437,-14.3437 0,-16.6086 0.8437,-41.6596 0.8437,-63.2812 v -14.3438 c 0,-26.6355 -7.5231,-41.8026 -30.7125,-43.3687 -5.3253,-0.315 -5.9557,-0.5152 -10.9687,-0.5062 z m 8.775,81.2531 c 2.1942,0 4.2784,-0.027 6.1594,0.2529 v 22.275 c 0,6.5808 0.066,11.4273 -0.5907,15.1875 -0.315,1.8801 -0.7818,3.5924 -1.0968,4.2188 -4.3857,5.3271 -14.4776,9.7874 -23.8782,9.7874 h -2.2781 c -9.7137,-0.6299 -16.6219,-6.2092 -16.6219,-22.1906 0,-19.7406 12.803,-26.434 27.8438,-28.9406 3.1338,-0.315 6.7032,-0.5906 10.4625,-0.5906 z"
         id="path4897"
         inkscape:connector-curvature="0" />
      <path
         style="font-style:normal;font-variant:normal;font-weight:500;font-stretch:normal;font-size:34.8171px;line-height:125%;font-family:'Qlassik Medium';-inkscape-font-specification:'Qlassik Medium, Medium';text-align:start;letter-spacing:0px;word-spacing:0px;writing-mode:lr-tb;text-anchor:start;fill:#ffffff;fill-opacity:1;stroke:none;stroke-width:2.7"
         d="m -1958.7856,1661.8422 c -36.0361,0 -61.5103,24.5721 -61.5094,78.4687 0,54.2106 21.5568,77.0343 60.4125,77.0343 34.7824,0 60.75,-26.6453 60.75,-78.9749 0,-50.4504 -20.171,-76.529 -59.6531,-76.5281 z m -1.0969,21.0937 h 0.8438 c 18.8019,0 30.9647,15.4813 30.9656,56.5312 0,43.2424 -14.357,57.6281 -30.9656,57.6281 -18.4878,0 -32.0625,-14.9755 -32.0625,-58.2187 0,-40.7358 14.611,-55.9406 31.2187,-55.9406 z"
         id="path4899"
         inkscape:connector-curvature="0" />
      <path
         style="font-style:normal;font-variant:normal;font-weight:500;font-stretch:normal;font-size:34.8171px;line-height:125%;font-family:'Qlassik Medium';-inkscape-font-specification:'Qlassik Medium, Medium';text-align:start;letter-spacing:0px;word-spacing:0px;writing-mode:lr-tb;text-anchor:start;fill:#ffffff;fill-opacity:1;stroke:none;stroke-width:2.7"
         d="m -2392.9942,1663.2354 c -4.1436,0.135 -8.1901,1.1205 -12.6567,2.5309 -6.5791,2.1941 -14.1679,5.8274 -21.3751,12.0942 -1.5651,-5.3272 -4.2039,-9.2818 -9.8433,-9.2809 -0.63,0 -1.3104,0 -2.25,0.279 -7.2072,3.1338 -10.7748,5.4324 -12.6567,7.3126 2.1942,6.2666 3.9375,13.3163 3.9384,23.3433 l -0.279,52.875 c 0,24.4422 -0.2519,44.6733 -0.558,61.5942 16.9218,0 20.6766,-0.27 24.75,-3.0942 2.5065,-3.4461 2.8125,-7.3287 2.8125,-12.6558 v -99.8442 c 6.2667,-6.5799 14.4082,-10.1241 24.7501,-10.1251 1.566,0 3.4308,-0.09 5.625,0.567 2.5056,0.315 5.4009,0.558 7.5933,0.558 1.5669,0 1.5597,0 2.8134,-0.2789 3.7593,-5.6404 5.0634,-13.6135 5.0616,-18.0001 -0.9387,-4.3866 -5.3523,-6.9344 -13.5,-7.875 -1.4094,-0.2341 -2.8368,-0.09 -4.2183,0 z"
         id="path4901"
         inkscape:connector-curvature="0" />
      <path
         style="font-style:normal;font-variant:normal;font-weight:500;font-stretch:normal;font-size:34.8171px;line-height:125%;font-family:'Qlassik Medium';-inkscape-font-specification:'Qlassik Medium, Medium';text-align:start;letter-spacing:0px;word-spacing:0px;writing-mode:lr-tb;text-anchor:start;fill:#ffffff;fill-opacity:1;stroke:none;stroke-width:2.7"
         d="m -1816.431,1663.2354 c -4.2228,0.135 -8.4726,1.1205 -12.9375,2.5309 -6.5808,2.1941 -13.887,5.8274 -21.0933,12.0942 -1.5669,-5.3272 -4.203,-9.2818 -9.8442,-9.2809 -0.63,0 -1.3095,0 -2.25,0.279 -7.2063,3.1338 -10.7767,5.4324 -12.6559,7.3126 2.1924,6.2666 3.9367,13.3163 3.9367,23.3433 l -0.279,52.875 c 0,24.4422 -0.252,44.6733 -0.5581,61.5942 16.921,0 20.6758,-0.27 24.7501,-3.0942 2.5056,-3.4461 2.8125,-7.3287 2.8125,-12.6558 v -99.8442 c 6.2676,-6.5799 14.409,-10.1241 24.75,-10.1251 1.5669,0 3.4317,-0.09 5.625,0.567 2.5065,0.315 5.3992,0.558 7.5943,0.558 1.565,0 1.5587,0 2.8115,-0.2789 3.7611,-5.6404 4.7817,-13.6135 4.7817,-18.0001 -0.9404,-4.3866 -5.0724,-6.9344 -13.2183,-7.875 -1.4112,-0.2341 -2.8116,-0.09 -4.2192,0 z"
         id="path4903"
         inkscape:connector-curvature="0" />
      <path
         style="font-style:normal;font-variant:normal;font-weight:500;font-stretch:normal;font-size:34.8171px;line-height:125%;font-family:'Qlassik Medium';-inkscape-font-specification:'Qlassik Medium, Medium';text-align:start;letter-spacing:0px;word-spacing:0px;writing-mode:lr-tb;text-anchor:start;fill:#ffffff;fill-opacity:1;stroke:none;stroke-width:2.7"
         d="m -2767.9014,1716.9547 c -14.4126,1.8801 -36.7651,4.9013 -54.0001,6.4683 -4.3857,0 -6.5889,6.9282 -8.1558,21.6567 2.5065,0.63 4.5243,1.1241 7.0308,1.125 14.7294,0 36.8046,-2.8692 50.9068,-5.0634 7.2063,-0.9396 10.3086,-10.3419 11.25,-21.9366 -1.881,-0.9405 -4.8375,-1.9368 -7.0317,-2.25 z"
         id="path4905"
         inkscape:connector-curvature="0" />
      <path
         style="font-style:normal;font-variant:normal;font-weight:500;font-stretch:normal;font-size:34.8171px;line-height:125%;font-family:'Qlassik Medium';-inkscape-font-specification:'Qlassik Medium, Medium';text-align:start;letter-spacing:0px;word-spacing:0px;writing-mode:lr-tb;text-anchor:start;fill:#ffffff;fill-opacity:1;stroke:none;stroke-width:2.7"
         d="m -2056.3371,1779.1105 c -12.8484,0 -18.5625,6.3738 -18.5634,18.2808 0,12.8484 4.0923,18.8442 16.3134,18.8442 14.7276,0 18.2484,-8.4069 18.5616,-19.6875 0.315,-11.5938 -2.2113,-17.4375 -16.3116,-17.4375 z"
         id="path4907"
         inkscape:connector-curvature="0" />
      <path
         sodipodi:nodetypes="scscscscsccscsccscccccscsssssss"
         inkscape:connector-curvature="0"
         id="path4909"
         d="m -1791.1544,1740.7219 c 0,39.4821 17.0172,56.4993 27.1593,64.9674 11.2806,9.0873 23.3019,11.7153 33.0165,11.7153 12.2203,0 22.5415,-4.0914 27.8677,-8.1648 v 29.2887 c 0,2.8521 -0.1169,5.4828 0,7.9866 0,27.0162 -28.3005,25.2909 -38.8738,24.3198 -7.4781,-0.684 -19.1493,-4.0194 -21.6558,-6.2136 -0.306,1.8801 -0.531,4.4163 -0.531,6.9228 0,2.8206 -0.135,5.8779 0.1801,8.6985 0.63,2.5065 2.2851,4.3326 4.7916,6.2127 5.9544,3.7602 16.5573,6.0345 26.2711,6.0345 28.2645,0 56.4129,-7.4529 56.9808,-50.4117 0,-0.765 0.1801,-1.5426 0.1801,-2.3076 v -48.2823 h -0.1801 v -92.4804 c 0,-10.0269 1.3563,-17.3413 3.5496,-23.608 -1.2537,-1.881 -5.6673,-3.9671 -12.2481,-7.101 -1.2537,-0.306 -2.3076,-0.351 -2.3076,-0.351 -5.6403,0 -8.6868,4.0806 -9.9405,9.4078 -7.5204,-6.2677 -14.4486,-10.0549 -21.6558,-12.2481 -6.543,-2.2438 -21.7009,-1.972 -30.52,1.0241 -33.3936,11.3463 -41.6439,49.0509 -42.0777,74.593 z m 48.9924,-52.399 c 17.0137,-8.0127 32.4712,2.737 39.0511,8.3772 v 89.641 c -4.3866,5.6403 -13.5396,10.1178 -23.2534,10.1178 -14.4135,0 -35.3232,-1.5894 -35.3232,-53.6067 0,-33.5286 4.7133,-47.5534 19.5255,-54.5293 z"
         style="font-style:normal;font-variant:normal;font-weight:500;font-stretch:normal;font-size:55.1659px;line-height:125%;font-family:'Qlassik Medium';-inkscape-font-specification:'Qlassik Medium, Medium';text-align:start;letter-spacing:0px;word-spacing:0px;writing-mode:lr-tb;text-anchor:start;fill:#ffffff;fill-opacity:1;stroke:none;stroke-width:2.7" />
      <path
         style="font-style:normal;font-variant:normal;font-weight:500;font-stretch:normal;font-size:12.25px;line-height:125%;font-family:'Qlassik Medium';-inkscape-font-specification:'Qlassik Medium, Medium';text-align:start;letter-spacing:0px;word-spacing:0px;writing-mode:lr-tb;text-anchor:start;fill:#ffffff;fill-opacity:1;stroke:none;stroke-width:2.7"
         d="m -2684.6513,1537.8006 c -4.5252,0 -7.8948,0.27 -9,2.8125 0.108,3.312 0.279,7.2459 0.279,12.6558 v 55.9692 1.125 c 0,2.2077 1.0458,4.1292 2.8125,5.3442 1.2141,0.774 2.6127,1.6875 3.9375,1.6866 2.871,-0.108 5.0229,-1.206 5.9067,-2.5308 0,-0.549 -0.108,-2.6721 0,-4.2192 -3.4236,0.666 -3.0942,-5.0625 -3.0942,-5.0616 v -57.375 c 0,-5.5215 -0.1801,-8.199 -0.846,-10.4067 z"
         id="path4911"
         inkscape:connector-curvature="0" />
      <path
         style="font-style:normal;font-variant:normal;font-weight:500;font-stretch:normal;font-size:12.25px;line-height:125%;font-family:'Qlassik Medium';-inkscape-font-specification:'Qlassik Medium, Medium';text-align:start;letter-spacing:0px;word-spacing:0px;writing-mode:lr-tb;text-anchor:start;fill:#ffffff;fill-opacity:1;stroke:none;stroke-width:2.7"
         d="m -2390.1817,1549.8939 c -5.1894,0.333 -7.3845,2.2932 -8.1558,4.5 l -0.567,9.8442 c -1.6551,0.774 -5.2029,1.2069 -6.75,2.5308 -0.882,0.882 -0.846,0.2341 -0.846,3.6567 1.3248,0.666 3.2166,1.125 6.75,1.125 v 27.2817 c 0,8.9415 1.8261,18.5625 12.0933,18.5616 3.4236,0 7.1838,-0.639 9.2817,-1.9683 0.882,-0.666 1.467,-1.3671 1.6875,-2.25 0.108,-0.9936 0,-2.0997 0,-3.0933 0,-0.882 -0.1709,-1.8693 -0.279,-2.5317 -0.882,0.774 -5.9382,2.3607 -7.5942,2.25 -4.4163,0 -5.4657,-4.2237 -5.9058,-10.4067 v -12.9366 c 0,-4.7493 0.1709,-9.828 0.279,-14.9067 4.7475,0 6.129,0.108 9,0 0.882,0 1.6479,-0.1709 2.5308,-0.279 1.5471,-0.333 2.2005,-1.5102 2.5317,-7.0308 h -14.0625 c 0,-4.527 -0.108,-9.2637 0,-14.3442 z"
         id="path4913"
         inkscape:connector-curvature="0" />
      <path
         style="font-style:normal;font-variant:normal;font-weight:500;font-stretch:normal;font-size:12.25px;line-height:125%;font-family:'Qlassik Medium';-inkscape-font-specification:'Qlassik Medium, Medium';text-align:start;letter-spacing:0px;word-spacing:0px;writing-mode:lr-tb;text-anchor:start;fill:#ffffff;fill-opacity:1;stroke:none;stroke-width:2.7"
         d="m -2600.2887,1562.5329 c -2.4273,0 -4.4298,0.6577 -6.75,1.4344 -2.538,0.774 -4.9442,2.011 -7.5938,4.2188 -0.441,-1.8765 -1.3878,-3.375 -3.375,-3.375 0,0 -0.4027,-0.108 -0.8437,0 -2.3202,1.1043 -3.7769,1.8679 -4.2188,2.5312 0.774,2.2068 1.0969,4.905 1.0969,8.4375 v 51.4687 c 0,5.5206 -0.031,9.3454 0.3375,11.2219 0.9954,0.216 2.1618,0.3375 3.375,0.3375 2.43,0 4.7974,-0.6233 5.5687,-1.1813 0.225,-1.4346 0.3375,-2.9583 0.3375,-4.725 v -18.3093 c 1.8765,1.4346 5.4828,2.7852 9.7875,2.7843 3.4236,0 7.585,-0.6826 11.5594,-3.8812 5.6304,-4.5279 9.5344,-13.0905 9.5344,-27 0,-17.0037 -8.3261,-23.9625 -18.8156,-23.9625 z m -2.2782,8.1844 c 6.9571,0 10.9688,4.7241 10.9688,16.5375 0,18.3276 -7.5776,22.7812 -12.6563,22.7812 -3.4236,0 -6.5547,-1.6409 -8.1,-3.6281 v -31.4719 c 2.3184,-1.9872 5.9238,-4.2187 9.7875,-4.2187 z"
         id="path4915"
         inkscape:connector-curvature="0" />
      <path
         style="font-style:normal;font-variant:normal;font-weight:500;font-stretch:normal;font-size:12.25px;line-height:125%;font-family:'Qlassik Medium';-inkscape-font-specification:'Qlassik Medium, Medium';text-align:start;letter-spacing:0px;word-spacing:0px;writing-mode:lr-tb;text-anchor:start;fill:#ffffff;fill-opacity:1;stroke:none;stroke-width:2.7"
         d="m -2806.1637,1562.7861 v 0.084 c -12.1437,0 -21.346,7.8835 -21.3469,29.1937 0,9.1629 2.0417,16.0225 5.9062,19.9969 4.3057,4.3056 9.9981,5.3165 15.1875,5.3156 3.4228,0 6.4449,-0.6559 8.1,-1.0969 3.0925,-0.774 6.3862,-3.1079 6.4969,-5.3156 -0.108,-1.3248 -0.1822,-3.5626 -0.5062,-4.5562 -3.5334,1.8765 -7.7664,2.8687 -12.4032,2.8687 -7.7283,0 -12.7986,-3.8866 -12.9093,-16.0312 1.7667,0.108 3.2958,-9e-4 5.0625,0 5.1894,0 10.9228,-0.1499 14.3437,-0.5907 2.9826,-0.4409 6.4895,-1.6483 7.5938,-2.5312 0.441,-1.7667 0.5062,-4.1776 0.5062,-6.4969 0,-1.8756 0.108,-3.6596 0,-5.3156 -0.9936,-9.495 -6.0934,-15.525 -16.0312,-15.525 z m -1.0969,7.0875 c 4.9698,0 7.2961,3.0991 7.8469,9.2812 0,0.774 0.253,1.6483 0.253,2.5312 0,1.4355 -0.1823,2.7435 -0.5063,3.6282 -0.666,0.441 -1.5376,0.4826 -2.5312,0.5906 -2.0989,0.2249 -6.6632,0.4972 -10.9688,0.5062 h -4.2187 c 0.5579,-10.7109 4.5292,-15.621 8.9437,-16.2843 0.333,-0.108 0.8483,-0.253 1.1813,-0.253 z"
         id="path4917"
         inkscape:connector-curvature="0" />
      <path
         style="font-style:normal;font-variant:normal;font-weight:500;font-stretch:normal;font-size:12.25px;line-height:125%;font-family:'Qlassik Medium';-inkscape-font-specification:'Qlassik Medium, Medium';text-align:start;letter-spacing:0px;word-spacing:0px;writing-mode:lr-tb;text-anchor:start;fill:#ffffff;fill-opacity:1;stroke:none;stroke-width:2.7"
         d="m -2719.0044,1562.7861 v 0.084 c -12.1464,0 -21.0937,7.8835 -21.0937,29.1937 0,9.1629 2.0425,16.0225 5.9062,19.9969 4.3075,4.3056 9.745,5.3165 14.9344,5.3156 3.4227,0 6.7815,-0.6559 8.4375,-1.0969 3.0915,-0.774 6.3862,-3.1079 6.4969,-5.3156 -0.108,-1.3248 -0.5107,-3.5626 -0.8438,-4.5562 -3.5333,1.8765 -7.5122,2.8687 -12.15,2.8687 -7.7274,0 -13.0518,-3.8866 -13.1625,-16.0312 1.7668,0.108 3.2959,-9e-4 5.0625,0 5.1895,0 10.9202,-0.1499 14.3438,-0.5907 2.9799,-0.4409 6.7417,-1.6483 7.8469,-2.5312 0.441,-1.7667 0.5906,-4.1776 0.5906,-6.4969 0,-1.8756 -0.2295,-3.6596 -0.3375,-5.3156 -0.9936,-9.495 -6.0961,-15.525 -16.0313,-15.525 z m -1.0968,7.0875 c 4.9671,0 7.6326,3.0991 8.1843,9.2812 v 2.5312 c 0,1.4355 -0.2667,2.7435 -0.5906,3.6282 -0.666,0.441 -1.5367,0.4826 -2.5312,0.5906 -2.0961,0.2249 -6.6632,0.4972 -10.9688,0.5062 h -4.2187 c 0.549,-10.7109 4.8649,-15.621 9.2812,-16.2843 0.333,-0.108 0.5108,-0.253 0.8438,-0.253 z"
         id="path4919"
         inkscape:connector-curvature="0" />
      <path
         style="font-style:normal;font-variant:normal;font-weight:500;font-stretch:normal;font-size:12.25px;line-height:125%;font-family:'Qlassik Medium';-inkscape-font-specification:'Qlassik Medium, Medium';text-align:start;letter-spacing:0px;word-spacing:0px;writing-mode:lr-tb;text-anchor:start;fill:#ffffff;fill-opacity:1;stroke:none;stroke-width:2.7"
         d="m -2652.6012,1562.8704 c -12.6982,0 -21.6844,8.5163 -21.6844,27.5063 0,19.1007 7.7404,26.9999 21.4312,26.9999 12.2553,0 21.0947,-9.4054 21.0938,-27.8437 0,-17.7759 -6.9302,-26.6625 -20.8406,-26.6625 z m -0.253,7.2563 c 6.624,0 10.9687,5.5338 10.9687,19.9968 0,15.2361 -5.1169,20.25 -10.9687,20.25 -6.5142,0 -11.3063,-5.3514 -11.3063,-20.5875 0,-14.3541 5.4545,-19.6593 11.3063,-19.6593 z"
         id="path4921"
         inkscape:connector-curvature="0" />
      <path
         style="font-style:normal;font-variant:normal;font-weight:500;font-stretch:normal;font-size:12.25px;line-height:125%;font-family:'Qlassik Medium';-inkscape-font-specification:'Qlassik Medium, Medium';text-align:start;letter-spacing:0px;word-spacing:0px;writing-mode:lr-tb;text-anchor:start;fill:#ffffff;fill-opacity:1;stroke:none;stroke-width:2.7"
         d="m -2549.3694,1562.8296 c -2.5398,0 -4.7124,0.351 -7.0317,1.125 -2.3175,0.774 -4.9437,2.0106 -7.5933,4.2183 -0.4411,-1.8765 -1.2771,-3.375 -3.3751,-3.375 -0.108,0 -0.513,-0.108 -0.846,0 -2.43,1.1043 -3.9492,1.8684 -4.5,2.5317 0.774,2.2068 1.4058,4.9041 1.4058,8.4366 v 19.6884 c 0,8.2791 0.108,15.1812 0,20.8116 5.8518,0 7.0021,0 8.4375,-1.125 0.8821,-1.1025 1.1251,-2.0601 1.1251,-3.9366 v -36 c 2.3184,-2.5407 5.4774,-4.5 9.5625,-4.5 5.5206,0 7.3125,2.9187 7.3125,11.5308 v 13.5 c 0,8.2809 0.216,14.9004 0,20.5308 h 4.5 c 1.8765,0 2.8836,0.108 3.6567,0 0.882,-0.216 1.6875,-0.864 1.6866,-1.9683 v -25.875 -12.9375 c 2.3202,-2.5398 5.4171,-4.7808 9.2817,-4.7808 5.6304,0 7.3125,3.2004 7.3125,11.8116 v 30.0942 c 0,1.5453 0.405,2.7738 0.846,3.6558 6.1812,0 7.6734,-0.414 9,-1.4058 -0.2249,-3.9744 -0.279,-8.8236 -0.279,-14.3442 v -18.5616 c 0,-11.0421 -2.097,-18.3537 -11.8125,-19.125 -0.666,-0.108 -1.4769,0 -2.25,0 -2.3184,0 -4.4316,0.351 -6.75,1.125 -2.5398,0.774 -5.5062,2.2905 -8.1558,4.5 -1.8783,-3.2031 -4.5945,-5.2938 -9.5634,-5.625 -0.657,-0.108 -1.4166,0 -1.9683,0 z"
         id="path4923"
         inkscape:connector-curvature="0" />
      <path
         style="font-style:normal;font-variant:normal;font-weight:500;font-stretch:normal;font-size:12.25px;line-height:125%;font-family:'Qlassik Medium';-inkscape-font-specification:'Qlassik Medium, Medium';text-align:start;letter-spacing:0px;word-spacing:0px;writing-mode:lr-tb;text-anchor:start;fill:#ffffff;fill-opacity:1;stroke:none;stroke-width:2.7"
         d="m -2477.945,1562.7861 v 0.084 c -12.1446,0 -21.3469,7.8835 -21.3469,29.1937 0,9.1629 2.0426,16.0225 5.9063,19.9969 4.3074,4.3056 9.9981,5.3165 15.1875,5.3156 3.4209,0 6.444,-0.6559 8.1,-1.0969 3.0915,-0.774 6.3862,-3.1079 6.4969,-5.3156 -0.108,-1.3248 -0.2576,-3.5626 -0.5907,-4.5562 -3.5316,1.8765 -7.6801,2.8687 -12.3187,2.8687 -7.7274,0 -12.8839,-3.8866 -12.9938,-16.0312 1.765,0.108 3.2967,-9e-4 5.0625,0 5.1904,0 10.9211,-0.1499 14.3438,-0.5907 2.9808,-0.4409 6.4894,-1.6483 7.5937,-2.5312 0.4411,-1.7667 0.5907,-4.1776 0.5907,-6.4969 0,-1.8756 0.108,-3.6596 0,-5.3156 -0.9927,-9.495 -6.0944,-15.525 -16.0313,-15.525 z m -1.0969,7.0875 c 4.968,0 7.2952,3.0991 7.8469,9.2812 v 2.5312 c 0,1.4355 -0.1822,2.7435 -0.5062,3.6282 -0.666,0.441 -1.5368,0.4826 -2.5313,0.5906 -2.0961,0.2249 -6.41,0.4972 -10.7156,0.5062 h -4.2188 c 0.5491,-10.7109 4.6119,-15.621 9.0282,-16.2843 0.333,-0.108 0.7638,-0.253 1.0968,-0.253 z"
         id="path4925"
         inkscape:connector-curvature="0" />
      <path
         style="font-style:normal;font-variant:normal;font-weight:500;font-stretch:normal;font-size:12.25px;line-height:125%;font-family:'Qlassik Medium';-inkscape-font-specification:'Qlassik Medium, Medium';text-align:start;letter-spacing:0px;word-spacing:0px;writing-mode:lr-tb;text-anchor:start;fill:#ffffff;fill-opacity:1;stroke:none;stroke-width:2.7"
         d="m -2430.401,1562.8296 c -2.4273,0 -4.7124,0.351 -7.0308,1.125 -2.4291,0.774 -4.9437,2.2905 -7.5942,4.5 -0.441,-1.8783 -1.386,-3.3759 -3.375,-3.375 -0.108,0 -0.513,-0.108 -0.846,0 -2.4291,1.1025 -3.6666,1.8684 -4.2183,2.5308 0.774,2.2077 1.125,4.9041 1.125,8.4375 v 18.5625 c 0,8.5014 0.108,15.6951 0,21.6558 5.9607,-0.108 7.1118,0 8.4366,-1.125 0.9954,-1.4346 1.1259,-2.7432 1.125,-5.0616 v -34.5942 c 2.3202,-2.5398 5.5881,-4.5 9.5634,-4.5 6.6231,0 8.7183,3.0303 8.7183,11.5308 v 29.25 c 0,1.7676 0.1801,3.2868 0.846,4.5 6.2937,0 7.8966,-0.414 9,-1.4058 -0.108,-4.4163 -0.279,-9.6777 -0.279,-15.75 v -16.875 c 0,-12.4758 -2.33,-19.4058 -15.4692,-19.4058 z"
         id="path4927"
         inkscape:connector-curvature="0" />
      <path
         style="font-style:normal;font-variant:normal;font-weight:500;font-stretch:normal;font-size:12.25px;line-height:125%;font-family:'Qlassik Medium';-inkscape-font-specification:'Qlassik Medium, Medium';text-align:start;letter-spacing:0px;word-spacing:0px;writing-mode:lr-tb;text-anchor:start;fill:#ffffff;fill-opacity:1;stroke:none;stroke-width:2.7"
         d="m -2776.338,1563.3876 c -5.8527,0 -8.0568,0.828 -8.7192,2.8134 0.441,1.6551 4.3488,13.9437 5.3442,16.5933 4.3047,13.3596 7.1334,22.6674 9.5616,31.5 0.441,1.3248 2.6244,2.25 4.5,2.25 0.108,0 0.2341,0.108 0.567,0 1.4346,-0.333 3.5667,-0.756 4.7808,-1.9683 5.2992,-16.5627 9.4149,-30.5172 13.5,-43.875 0.774,-2.2095 1.125,-3.6279 1.125,-5.0634 0,-0.441 0.09,-0.9639 -0.279,-1.4058 -2.7612,-0.333 -4.5819,-0.279 -5.9067,-0.279 -1.2141,0 -1.5876,-0.162 -2.25,0.279 -1.2141,4.6368 -2.673,10.2897 -4.2183,16.0308 -2.6514,9.7173 -5.0841,21.6603 -6.1884,24.75 -1.1025,-3.4209 -3.5874,-14.742 -5.9058,-23.9058 -1.5453,-5.0787 -2.9439,-10.188 -3.9375,-13.5 -0.441,-1.7667 -1.0854,-3.3354 -1.9683,-4.2192 z"
         id="path4929"
         inkscape:connector-curvature="0" />
      <path
         style="opacity:0.42;fill:#ffffff;fill-opacity:1;stroke:none;stroke-width:2.7"
         d="m -2106.4807,1352.4905 c 9.7912,0 17.7283,7.9371 17.7283,17.7282 0,3.1338 -0.792,5.9401 -2.2158,8.4952 l 27.5148,26.5923 c 3.2319,-2.0907 7.1298,-3.3246 11.2653,-3.3246 11.4228,0 20.6829,9.2601 20.6829,20.6829 0,11.4228 -9.2601,20.6829 -20.6829,20.6829 -4.2831,0 -8.334,-1.278 -11.6343,-3.5091 l -27.1458,26.2233 c 1.4265,2.5551 2.2158,5.5458 2.2158,8.6796 0,9.7911 -7.9371,17.7282 -17.7283,17.7282 -9.792,0 -17.7282,-7.9371 -17.7282,-17.7282 0,-9.7911 7.9362,-17.7282 17.7282,-17.7282 3.4317,0 6.7033,0.9 9.4177,2.5857 l 27.1458,-26.2233 c -1.8801,-3.1158 -2.9529,-6.8058 -2.9529,-10.7109 0,-4.0491 1.1268,-7.8903 3.1383,-11.0799 l -27.5148,-26.4078 c -2.6856,1.6362 -5.8608,2.7702 -9.2341,2.7702 -9.792,0 -17.7282,-7.9371 -17.7282,-17.7283 0,-9.7911 7.9362,-17.7282 17.7282,-17.7282 z"
         id="path4931"
         inkscape:connector-curvature="0" />
      <path
         style="opacity:0.23;fill:#ffffff;fill-opacity:1;stroke:none;stroke-width:2.7"
         d="m -2006.2277,1352.4905 c -9.7911,0 -17.7273,7.9371 -17.7273,17.7282 0,9.6786 6.2208,15.0669 14.7726,17.3592 v 69.805 c -8.4204,1.3761 -14.7726,8.5491 -14.7726,17.3583 0,9.7911 7.9362,17.7282 17.7273,17.7282 9.7911,0 17.7282,-7.9371 17.7282,-17.7282 0,-7.6761 -4.9923,-14.1543 -11.8179,-16.6203 v -71.2818 c 1.7892,-0.639 3.3309,-1.621 4.8006,-2.7702 l 26.2233,27.3312 c -2.0934,3.2328 -3.3237,7.1262 -3.3237,11.2644 0,11.4228 9.2601,20.6829 20.683,20.6829 11.4219,0 20.682,-9.2601 20.682,-20.6829 0,-11.4228 -9.2601,-20.6829 -20.682,-20.6829 -4.0456,0 -7.8931,1.1322 -11.0809,3.1401 l -26.9613,-28.0702 c 0.9,-2.1213 1.4769,-4.3848 1.4769,-6.8328 0,-9.7911 -7.9371,-17.7282 -17.7282,-17.7282 z"
         id="path4933"
         inkscape:connector-curvature="0"
         sodipodi:nodetypes="scccsssccccssssccss" />
      <path
         inkscape:connector-curvature="0"
         id="path4935"
         d="m -2132.6392,1427.6811 c 0,9.7911 -7.9371,17.7282 -17.7282,17.7282 -3.1338,0 -5.94,-0.792 -8.4942,-2.2158 l -26.5932,27.5148 c 2.0906,3.2319 3.3245,7.1298 3.3245,11.2653 0,11.4228 -9.2601,20.6829 -20.6829,20.6829 -11.4228,0 -20.6829,-9.2601 -20.6829,-20.6829 0,-4.2831 1.2789,-8.334 3.5082,-11.6343 l -26.2224,-27.1458 c -2.5551,1.4265 -5.5459,2.2158 -8.6796,2.2158 -9.7912,0 -17.7283,-7.9371 -17.7283,-17.7282 0,-9.792 7.9371,-17.7282 17.7283,-17.7282 9.7911,0 17.7282,7.9362 17.7282,17.7282 0,3.4317 -0.9,6.7032 -2.5857,9.4176 l 26.2233,27.1458 c 3.1158,-1.8792 6.8058,-2.9529 10.7109,-2.9529 4.0491,0 7.8903,1.1268 11.0799,3.1383 l 26.4079,-27.5148 c -1.6362,-2.6856 -2.7702,-5.8608 -2.7702,-9.234 0,-9.792 7.9371,-17.7282 17.7282,-17.7282 9.7911,0 17.7282,7.9362 17.7282,17.7282 z"
         style="opacity:0.69;fill:#ffffff;fill-opacity:1;stroke:none;stroke-width:2.7" />
      <path
         sodipodi:nodetypes="scccsssccccssssccss"
         inkscape:connector-curvature="0"
         id="path4937"
         d="m -2132.6392,1527.9339 c 0,-9.7902 -7.9371,-17.7273 -17.7282,-17.7273 -9.6786,0 -15.0678,6.2208 -17.3592,14.7735 h -69.8041 c -1.377,-8.4204 -8.55,-14.7735 -17.3592,-14.7735 -9.7912,0 -17.7283,7.9371 -17.7283,17.7273 0,9.7911 7.9371,17.7282 17.7283,17.7282 7.6761,0 14.1543,-4.9923 16.6203,-11.8179 h 71.2819 c 0.639,1.7892 1.6209,3.3309 2.7702,4.8006 l -27.3313,26.2233 c -3.2328,-2.0934 -7.1262,-3.3237 -11.2644,-3.3237 -11.4228,0 -20.6829,9.2601 -20.6829,20.6829 0,11.4219 9.2601,20.682 20.6829,20.682 11.4228,0 20.6829,-9.2601 20.6829,-20.682 0,-4.0455 -1.1321,-7.893 -3.1401,-11.0808 l 28.0702,-26.9613 c 2.1213,0.9 4.3848,1.4769 6.8328,1.4769 9.7911,0 17.7282,-7.9371 17.7282,-17.7282 z"
         style="fill:#ffffff;fill-opacity:1;stroke:none;stroke-width:2.7" />
    </g>
  </g>
</svg>
