<?xml version="1.0" encoding="UTF-8" standalone="no"?>
<!-- Created with Inkscape (http://www.inkscape.org/) -->

<svg
   width="30"
   height="29.999989"
   viewBox="0 0 7.9375 7.9374969"
   version="1.1"
   id="svg1"
   xml:space="preserve"
   inkscape:version="1.4.2 (ebf0e940d0, 2025-05-08)"
   sodipodi:docname="flask_icon.svg"
   xmlns:inkscape="http://www.inkscape.org/namespaces/inkscape"
   xmlns:sodipodi="http://sodipodi.sourceforge.net/DTD/sodipodi-0.dtd"
   xmlns="http://www.w3.org/2000/svg"
   xmlns:svg="http://www.w3.org/2000/svg"><sodipodi:namedview
     id="namedview1"
     pagecolor="#505050"
     bordercolor="#ffffff"
     borderopacity="1"
     inkscape:showpageshadow="0"
     inkscape:pageopacity="0"
     inkscape:pagecheckerboard="1"
     inkscape:deskcolor="#d1d1d1"
     inkscape:document-units="mm"
     inkscape:zoom="30.733345"
     inkscape:cx="15.016263"
     inkscape:cy="14.999994"
     inkscape:window-width="1920"
     inkscape:window-height="1048"
     inkscape:window-x="0"
     inkscape:window-y="0"
     inkscape:window-maximized="1"
     inkscape:current-layer="layer1" /><defs
     id="defs1" /><g
     inkscape:label="Layer 1"
     inkscape:groupmode="layer"
     id="layer1"
     transform="translate(-37.549143,-53.618471)"><path
       id="path11"
       style="opacity:1;fill:none;stroke:#ffffff;stroke-width:0.584229;stroke-linecap:round;stroke-linejoin:round;stroke-dasharray:none"
       d="m 39.674665,53.910585 c -0.254344,-1.4e-5 -0.667815,0.151815 -0.667815,0.64554 -7e-5,0.944588 0.881149,0.755249 1.135506,0.755235 v 1.755854 l -2.197795,2.574816 c 0,0 -0.582173,1.621823 1.026653,1.621823 h 2.546698 2.546662 c 1.608824,0 1.026651,-1.621823 1.026651,-1.621823 l -2.077399,-2.574816 v -1.755887 c 0.252423,-0.002 0.967369,0.04775 0.953552,-0.74066 0,-0.508267 -0.356132,-0.660096 -0.610465,-0.660082 z"
       sodipodi:nodetypes="cccccscscccccc" /><path
       style="fill:none;stroke:#ffffff;stroke-width:0.584229;stroke-linecap:butt;stroke-linejoin:miter;stroke-dasharray:none;stroke-opacity:1"
       d="m 44.052526,58.354622 c 0,0 -1.239401,-0.326871 -2.536744,0.316179 -1.297342,0.64305 -2.789672,0.05561 -2.789672,0.05561"
       id="path12"
       sodipodi:nodetypes="csc" /></g></svg>
