<svg xmlns="http://www.w3.org/2000/svg" width="934" height="220" viewBox="0 0 934 220">
  <g fill="none">
    <polygon fill="#185568" points="2.6 208.7 2.6 102.2 33.4 102.2 33.4 208.7"/>
    <path fill="#185568" d="M126 198.4C119 206.9 109 211.7 95.6 211.7 74.2 211.7 56.9 198.4 56.9 177.8 56.9 157.5 74.2 147.4 98.4 146.1 117 145 122.9 143 122.9 136.7 122.9 130.6 117.2 126.4 107.2 126.4 95 126.4 89.7 132.5 89.1 139.1L59.2 139.1C60.7 115.7 78.2 99.6 107.5 99.6 136.1 99.6 154.5 115.1 154.5 144.2L154.5 209.3 128.9 209.3 126 198.4zM88 176.5C88 182.6 93.5 186.3 102.2 186.3 114 186.3 123.4 179.7 123.4 166.4L123.4 162.5C123.4 162.5 117.7 165.1 105.9 165.8 93.1 166.5 88 170.6 88 176.5zM223 209.7C199.6 209.7 186.1 196.2 186.1 172.6L186.1 130.9 168.2 130.9 168.2 102.3 186.1 102.3 186.1 86.5 217.1 60.3 217.1 102.2 244 102.2 244 130.8 217.1 130.8 217.1 168.2C217.1 178.5 223.9 180.9 230.2 180.9 237.4 180.9 243.3 178.1 243.3 178.1L243.3 206.3C243.3 206.3 235 209.7 223 209.7zM0 70.2C0 60.2 7.9 52.1 17.9 52.1 27.9 52.1 36 60.2 36 70.2 36 80 27.9 88.1 17.9 88.1 7.9 88.1 0 80.1 0 70.2z"/>
    <polygon fill="#185568" points="266.9 208.7 266.9 102.2 297.7 102.2 297.7 208.7"/>
    <g transform="translate(227)">
      <path fill="#185568" d="M110.9,70.5 C110.9,65.6 110.2,60.8 109,56.2 C107.7,51.5 105.9,47 103.5,42.9 C101.1,38.7 98.1,34.9 94.7,31.5 C91.3,28.1 87.5,25.2 83.3,22.7 C79.2,20.3 74.7,18.4 70,17.2 C65.4,16 60.7,15.3 55.7,15.3 C55.7,15.3 55.7,15.3 55.7,15.3 C50.8,15.3 46,16 41.4,17.2 C36.7,18.5 32.2,20.3 28.1,22.7 C23.9,25.1 20.1,28.1 16.7,31.5 C13.3,34.9 10.3,38.7 7.9,42.9 C5.5,47 3.6,51.5 2.4,56.2 L10.3,58.3 C11.4,54.3 13,50.5 15,47 C17.1,43.4 19.6,40.2 22.5,37.3 C25.4,34.4 28.7,31.9 32.2,29.8 C35.7,27.8 39.5,26.2 43.5,25.1 C47.4,24.1 51.4,23.5 55.6,23.5 C55.6,23.5 55.6,23.5 55.6,23.5 C59.8,23.5 63.9,24.1 67.8,25.1 C71.8,26.2 75.6,27.8 79.1,29.8 C82.7,31.9 85.9,34.4 88.8,37.3 C91.7,40.2 94.2,43.5 96.3,47 C98.3,50.5 99.9,54.3 101,58.3 C102,62.2 102.6,66.3 102.6,70.5 C102.6,70.5 102.6,70.5 102.6,70.5 C102.6,74.7 102,78.8 101,82.6 C99.9,86.6 98.3,90.4 96.3,93.9 L103.4,98 C105.8,93.9 107.7,89.4 108.9,84.7 C110.2,80.2 110.9,75.5 110.9,70.5 C110.9,70.5 110.9,70.5 110.9,70.5 Z"/>
      <path fill="#185568" d="M125.2,70.5 C125.2,64.3 124.4,58.2 122.8,52.5 C121.2,46.6 118.9,40.9 115.8,35.7 C112.7,30.4 109,25.6 104.7,21.3 C100.4,17 95.6,13.3 90.3,10.2 C85.1,7.2 79.5,4.8 73.5,3.3 C67.8,1.8 61.7,0.9 55.5,0.9 C55.5,0.9 55.5,0.9 55.5,0.9 C49.3,0.9 43.3,1.7 37.5,3.2 C31.6,4.8 25.9,7.1 20.7,10.1 C15.4,13.1 10.6,16.9 6.3,21.1 L10.6,25.4 C14.5,21.5 18.9,18.1 23.7,15.3 C28.4,12.6 33.6,10.4 39,9 C44.2,7.6 49.7,6.9 55.4,6.9 C55.4,6.9 55.4,6.9 55.4,6.9 C61.1,6.9 66.6,7.7 71.8,9.1 C77.2,10.5 82.3,12.7 87.1,15.4 C91.9,18.2 96.3,21.6 100.2,25.5 C104.1,29.4 107.5,33.8 110.3,38.6 C113,43.3 115.2,48.5 116.6,53.9 C118,59.1 118.8,64.6 118.8,70.3 C118.8,70.3 118.8,70.3 118.8,70.3 C118.8,76 118.1,81.4 116.7,86.7 C115.3,92.1 113.1,97.3 110.4,102 C107.6,106.8 104.2,111.2 100.3,115.1 L104.6,119.4 C108.9,115.1 112.6,110.3 115.7,105 C118.7,99.8 121.1,94.2 122.6,88.2 C124.4,82.8 125.2,76.7 125.2,70.5 C125.2,70.5 125.2,70.5 125.2,70.5 Z"/>
      <path fill="#185568" d="M93.2,60.4 C92.3,57.1 91,53.9 89.3,51 C87.6,48.1 85.5,45.3 83.1,43 C80.7,40.6 78,38.5 75.1,36.8 C72.2,35.1 69.1,33.8 65.7,32.9 C62.5,32 59.1,31.6 55.7,31.6 C55.7,31.6 55.7,31.6 55.7,31.6 C52.2,31.6 48.9,32.1 45.7,32.9 C42.4,33.8 39.2,35.1 36.3,36.8 C33.4,38.5 30.6,40.6 28.2,43 C25.8,45.4 23.7,48.1 22,51 C20.3,53.9 19,57 18.1,60.4 C17.2,63.6 16.8,67 16.8,70.5 C16.8,70.5 16.8,70.5 16.8,70.5 C16.8,74 17.3,77.3 18.1,80.5 C19,83.8 20.3,87 22,89.9 L32.6,83.8 C31.4,81.8 30.5,79.7 29.9,77.4 C29.3,75.2 29,72.9 29,70.5 C29,70.5 29,70.5 29,70.5 C29,68.1 29.3,65.8 29.9,63.6 C30.5,61.3 31.4,59.2 32.6,57.2 C33.8,55.2 35.2,53.3 36.8,51.7 C38.4,50.1 40.3,48.6 42.3,47.5 C44.3,46.4 46.4,45.5 48.7,44.8 C50.9,44.2 53.2,43.9 55.6,43.9 C55.6,43.9 55.6,43.9 55.6,43.9 C58,43.9 60.3,44.2 62.5,44.8 C64.8,45.4 66.9,46.3 68.9,47.5 C70.9,48.7 72.8,50.1 74.4,51.7 C76,53.3 77.5,55.2 78.6,57.2 C79.8,59.2 80.7,61.3 81.3,63.6 C81.9,65.8 82.2,68.1 82.2,70.5 L94.5,70.5 C94.5,67 94.1,63.6 93.2,60.4 Z"/>
      <g fill="#A7EBEF" transform="translate(0 7)">
        <path d="M81.4,56.6 C80.8,54.3 79.9,52.2 78.7,50.2 C77.5,48.2 76.1,46.3 74.5,44.7 L68.7,50.5 C69.8,51.6 70.8,52.9 71.6,54.3 C72.4,55.7 73,57.2 73.4,58.7 C73.8,60.2 74,61.8 74,63.5 C74,65.2 73.8,66.7 73.4,68.3 C73,69.9 72.4,71.4 71.6,72.7 C70.8,74.1 69.8,75.4 68.7,76.5 C67.6,77.6 66.3,78.6 64.9,79.4 C63.5,80.2 62,80.8 60.5,81.2 C59,81.6 57.4,81.8 55.7,81.8 C54,81.8 52.5,81.6 50.9,81.2 C49.3,80.8 47.8,80.2 46.5,79.4 L42.4,86.5 C44.4,87.7 46.5,88.6 48.8,89.2 C51,89.8 53.3,90.1 55.7,90.1 C58.1,90.1 60.4,89.8 62.6,89.2 C64.9,88.6 67,87.7 69,86.5 C71,85.3 72.9,83.9 74.5,82.3 C76.1,80.7 77.6,78.8 78.7,76.8 C79.9,74.8 80.8,72.7 81.4,70.4 C82,68.2 82.3,65.9 82.3,63.5 C82.3,61.1 82,58.8 81.4,56.6 Z"/>
        <path d="M96.4,40 C94.3,36.4 91.8,33.2 88.9,30.3 C86,27.4 82.7,24.9 79.2,22.8 C75.7,20.8 71.9,19.2 67.9,18.1 C64,17.1 59.9,16.5 55.7,16.5 C51.5,16.5 47.4,17.1 43.5,18.1 C39.5,19.2 35.7,20.8 32.2,22.8 C28.6,24.9 25.4,27.4 22.5,30.3 C19.6,33.2 17.1,36.5 15,40 C13,43.5 11.4,47.3 10.3,51.3 C9.3,55.2 8.7,59.3 8.7,63.5 L16.9,63.5 C16.9,60 17.4,56.6 18.2,53.4 C19.1,50.1 20.4,46.9 22.1,44 C23.8,41.1 25.9,38.3 28.3,35.9 C30.7,33.5 33.4,31.4 36.4,29.7 C39.3,28 42.5,26.7 45.8,25.8 C49,24.9 52.4,24.5 55.9,24.5 C59.4,24.5 62.8,25 66,25.8 C69.3,26.7 72.5,28 75.4,29.7 C78.3,31.4 81.1,33.5 83.5,35.9 C85.9,38.3 88,41 89.7,44 C91.4,46.9 92.7,50.1 93.6,53.4 L101.5,51.3 C100,47.3 98.4,43.5 96.4,40 Z"/>
        <path d="M116.9,47.1 C115.5,41.7 113.3,36.6 110.6,31.8 C107.8,27 104.4,22.6 100.5,18.7 C96.6,14.8 92.2,11.4 87.4,8.6 C82.7,5.9 77.5,3.7 72.1,2.3 C66.9,0.9 61.4,0.2 55.7,0.2 C50,0.2 44.5,1 39.3,2.3 C33.9,3.7 28.8,5.9 24,8.6 C19.2,11.4 14.8,14.8 10.9,18.7 C7,22.6 3.6,27 0.8,31.8 L7.9,35.9 C10.3,31.7 13.3,27.9 16.7,24.5 C20.1,21.1 24,18.2 28.1,15.7 C32.2,13.3 36.7,11.4 41.4,10.2 C46,9 50.7,8.3 55.7,8.3 C60.7,8.3 65.4,9 70,10.2 C74.7,11.5 79.2,13.3 83.3,15.7 C87.5,18.1 91.3,21.1 94.7,24.5 C98.1,27.9 101,31.8 103.5,35.9 C105.9,40 107.8,44.5 109,49.2 C110.2,53.8 110.9,58.5 110.9,63.5 C110.9,68.4 110.2,73.2 109,77.8 L116.9,79.9 C118.3,74.7 119,69.2 119,63.5 C119.1,57.9 118.3,52.4 116.9,47.1 Z"/>
      </g>
      <circle cx="55.7" cy="70.5" r="18.4" fill="#185568"/>
    </g>
    <g fill="#185568" transform="translate(352 104)">
      <polygon points="3.3 39.4 3.3 1.2 11.4 1.2 11.4 39.4"/>
      <path d="M26.6 26L26.6 39.4 18.9 39.4 18.9 12.7 26.5 12.7 26.5 14.6C28 13.2 30.1 12.1 32.8 12.1 39.3 12.1 43.6 16.4 43.6 23.9L43.6 39.4 36 39.4 36 24.5C36 21.7 34.7 19.3 31.6 19.3 27.9 19.2 26.6 21.9 26.6 26zM60.7 39.5C54.9 39.5 51.5 36.1 51.5 30.2L51.5 19.8 47 19.8 47 12.7 51.5 12.7 51.5 8.8 59.2 2.3 59.2 12.8 65.9 12.8 65.9 19.9 59.2 19.9 59.2 29.2C59.2 31.8 60.9 32.4 62.5 32.4 64.3 32.4 65.8 31.7 65.8 31.7L65.8 38.7C65.8 38.6 63.7 39.5 60.7 39.5zM96.6 28.1L77.7 28.1C78.1 30.8 80.4 32.9 83.7 32.9 85.9 32.9 87.2 32 88.1 30.6L96.4 30.6C94.6 36.4 90.5 40 83.8 40 76.1 40 69.8 34.6 69.8 26.2 69.8 18.1 75.5 12 83.3 12 92.1 12 96.5 18.9 96.5 26.1 96.7 26.8 96.6 28.1 96.6 28.1zM83.5 18.8C80.6 18.8 78.6 20.6 78.1 22.9L88.5 22.9C88.3 20.6 86.3 18.8 83.5 18.8zM119.6 14.2L119.6 21.8C119.6 21.8 117.6 19.7 114.5 19.7 112.2 19.7 109.5 21 109.5 24.9L109.5 39.3 101.8 39.3 101.8 12.6 109.4 12.6 109.4 14.8C109.3 14.8 110.9 12.2 114.7 12.2 118.1 12.3 119.6 14.2 119.6 14.2zM131.6 26L131.6 39.4 123.9 39.4 123.9 12.7 131.5 12.7 131.5 14.6C133 13.2 135.1 12.1 137.8 12.1 144.3 12.1 148.6 16.4 148.6 23.9L148.6 39.4 140.9 39.4 140.9 24.5C140.9 21.7 139.6 19.3 136.5 19.3 132.8 19.2 131.6 21.9 131.6 26zM170.9 36.7C169.2 38.8 166.6 40 163.3 40 158 40 153.7 36.7 153.7 31.6 153.7 26.5 158 24 164.1 23.7 168.7 23.4 170.2 22.9 170.2 21.4 170.2 19.9 168.8 18.8 166.3 18.8 163.2 18.8 161.9 20.3 161.8 22L154.3 22C154.7 16.2 159 12.1 166.3 12.1 173.4 12.1 178 16 178 23.2L178 39.4 171.6 39.4 170.9 36.7zM161.5 31.2C161.5 32.7 162.9 33.7 165 33.7 167.9 33.7 170.3 32.1 170.3 28.7L170.3 27.7C170.3 27.7 168.9 28.4 165.9 28.5 162.7 28.7 161.5 29.7 161.5 31.2zM195.1 39.5C189.3 39.5 185.9 36.1 185.9 30.2L185.9 19.8 181.4 19.8 181.4 12.7 185.9 12.7 185.9 8.8 193.6 2.3 193.6 12.8 200.3 12.8 200.3 19.9 193.6 19.9 193.6 29.2C193.6 31.8 195.3 32.4 196.9 32.4 198.7 32.4 200.2 31.7 200.2 31.7L200.2 38.7C200.2 38.6 198.1 39.5 195.1 39.5zM205.5 5.1C205.5 2.6 207.5.6 210 .6 212.5.6 214.5 2.6 214.5 5.1 214.5 7.6 212.5 9.6 210 9.6 207.5 9.6 205.5 7.5 205.5 5.1zM206.1 39.4L206.1 12.7 213.8 12.7 213.8 39.4 206.1 39.4zM219.5 26C219.5 18 225.7 12 233.7 12 241.8 12 247.9 18 247.9 26 247.9 34 241.7 40 233.7 40 225.6 40 219.5 34 219.5 26zM227.4 26C227.4 29.9 230.1 32.8 233.7 32.8 237.4 32.8 240 30 240 26 240 22.1 237.3 19.2 233.7 19.2 230.1 19.3 227.4 22.1 227.4 26zM261 26L261 39.4 253.3 39.4 253.3 12.7 260.9 12.7 260.9 14.6C262.4 13.2 264.5 12.1 267.2 12.1 273.7 12.1 278 16.4 278 23.9L278 39.4 270.3 39.4 270.3 24.5C270.3 21.7 269 19.3 265.9 19.3 262.3 19.2 261 21.9 261 26zM300.4 36.7C298.7 38.8 296.1 40 292.8 40 287.5 40 283.2 36.7 283.2 31.6 283.2 26.5 287.5 24 293.6 23.7 298.2 23.4 299.7 22.9 299.7 21.4 299.7 19.9 298.3 18.8 295.8 18.8 292.7 18.8 291.4 20.3 291.3 22L283.8 22C284.2 16.2 288.5 12.1 295.8 12.1 302.9 12.1 307.5 16 307.5 23.2L307.5 39.4 301.1 39.4 300.4 36.7zM290.9 31.2C290.9 32.7 292.3 33.7 294.4 33.7 297.3 33.7 299.7 32.1 299.7 28.7L299.7 27.7C299.7 27.7 298.3 28.4 295.3 28.5 292.1 28.7 290.9 29.7 290.9 31.2z"/>
      <polygon points="313.9 39.4 313.9 1.2 321.6 1.2 321.6 39.4"/>
      <path d="M363.5 1.2L378.4 39.4 370 39.4 366.9 31.9 352.1 31.9 349.1 39.4 340.7 39.4 355.6 1.2 363.5 1.2zM359.6 12.2L354.9 24.7 364.4 24.7 359.6 12.2zM382.1 5.1C382.1 2.6 384.1.6 386.6.6 389.1.6 391.1 2.6 391.1 5.1 391.1 7.6 389.1 9.6 386.6 9.6 384.1 9.6 382.1 7.5 382.1 5.1zM382.7 39.4L382.7 12.7 390.4 12.7 390.4 39.4 382.7 39.4zM396.1 26C396.1 17.6 402.2 12 409.6 12 412.7 12 415.2 13.1 416.6 14.3L416.6 1.1 424.3 1.1 424.3 39.3 416.7 39.3 416.7 37.4C415.3 38.8 412.6 39.9 409.6 39.9 402.1 40 396.1 34.6 396.1 26zM416.6 26C416.6 21.9 413.9 19 410.3 19 406.7 19 404 21.8 404 26 404 30.1 406.7 33 410.3 33 413.9 33 416.6 30.2 416.6 26z"/>
      <polygon points=".8 66.6 30.8 66.6 30.8 74.1 19.8 74.1 19.8 104.8 11.7 104.8 11.7 74 .7 74 .7 66.6"/>
      <path d="M49.7 79.6L49.7 87.2C49.7 87.2 47.7 85.1 44.6 85.1 42.3 85.1 39.6 86.4 39.6 90.3L39.6 104.7 32 104.7 32 78 39.6 78 39.6 80.2C39.5 80.2 41.1 77.6 44.9 77.6 48.2 77.7 49.7 79.6 49.7 79.6zM70.5 102C68.8 104.1 66.2 105.3 62.9 105.3 57.6 105.3 53.3 102 53.3 96.9 53.3 91.8 57.6 89.3 63.7 89 68.3 88.7 69.8 88.2 69.8 86.7 69.8 85.2 68.4 84.1 65.9 84.1 62.8 84.1 61.5 85.6 61.4 87.3L53.9 87.3C54.3 81.5 58.6 77.4 65.9 77.4 73 77.4 77.6 81.3 77.6 88.5L77.6 104.7 71.2 104.7 70.5 102zM61 96.6C61 98.1 62.4 99.1 64.5 99.1 67.4 99.1 69.8 97.5 69.8 94.1L69.8 93.1C69.8 93.1 68.4 93.8 65.4 93.9 62.3 94.1 61 95.1 61 96.6zM91.8 91.4L91.8 104.8 84 104.8 84 78.1 91.6 78.1 91.6 80C93.1 78.6 95.2 77.5 97.9 77.5 104.4 77.5 108.7 81.8 108.7 89.3L108.7 104.8 101 104.8 101 89.9C101 87.1 99.7 84.7 96.6 84.7 93 84.6 91.8 87.3 91.8 91.4zM129.8 97.1C129.8 96.3 129.3 95.6 127.2 95.2L123.2 94.4C117.1 93.2 114.6 90.3 114.6 86.3 114.6 81.6 118.1 77.4 125.5 77.4 132.9 77.4 136.2 81.5 136.8 86.2L129.4 86.2C129 84.7 127.7 83.9 125.4 83.9 123.2 83.9 122 84.7 122 85.8 122 86.6 122.7 87.1 124.7 87.5L128.7 88.3C134.4 89.4 137.3 92.1 137.3 96.7 137.3 101.9 133.5 105.5 126.1 105.5 118.5 105.5 114.4 101.9 113.6 96.3L121.4 96.3C121.8 98.2 123.2 99.1 126.1 99.1 128.6 99 129.8 98.3 129.8 97.1zM170.5 91.4C170.5 99.8 164.4 105.4 157 105.4 153.9 105.4 151.4 104.3 150 103.1L150 115.4 142.3 115.4 142.3 78.1 149.9 78.1 149.9 80C151.3 78.6 154 77.4 157 77.4 164.5 77.4 170.5 82.8 170.5 91.4zM150 91.4C150 95.5 152.7 98.4 156.3 98.4 159.9 98.4 162.6 95.6 162.6 91.4 162.6 87.3 159.9 84.4 156.3 84.4 152.7 84.4 150 87.3 150 91.4zM191.8 102C190.1 104.1 187.5 105.3 184.2 105.3 178.9 105.3 174.6 102 174.6 96.9 174.6 91.8 178.9 89.3 185 89 189.6 88.7 191.1 88.2 191.1 86.7 191.1 85.2 189.7 84.1 187.2 84.1 184.1 84.1 182.8 85.6 182.7 87.3L175.2 87.3C175.6 81.5 179.9 77.4 187.2 77.4 194.3 77.4 198.9 81.3 198.9 88.5L198.9 104.7 192.5 104.7 191.8 102zM182.3 96.6C182.3 98.1 183.7 99.1 185.8 99.1 188.7 99.1 191.1 97.5 191.1 94.1L191.1 93.1C191.1 93.1 189.7 93.8 186.7 93.9 183.6 94.1 182.3 95.1 182.3 96.6zM223.1 79.6L223.1 87.2C223.1 87.2 221.1 85.1 218 85.1 215.7 85.1 213 86.4 213 90.3L213 104.7 205.3 104.7 205.3 78 212.9 78 212.9 80.2C212.8 80.2 214.4 77.6 218.2 77.6 221.6 77.7 223.1 79.6 223.1 79.6zM252.8 93.5L233.9 93.5C234.3 96.2 236.6 98.3 239.9 98.3 242.1 98.3 243.4 97.4 244.3 96L252.6 96C250.8 101.8 246.7 105.4 240 105.4 232.3 105.4 226 100 226 91.6 226 83.5 231.7 77.4 239.5 77.4 248.3 77.4 252.7 84.3 252.7 91.5 252.8 92.2 252.8 93.5 252.8 93.5zM239.7 84.2C236.8 84.2 234.8 86 234.3 88.3L244.7 88.3C244.5 86 242.5 84.2 239.7 84.2zM265.8 91.4L265.8 104.8 258 104.8 258 78.1 265.6 78.1 265.6 80C267.1 78.6 269.2 77.5 271.9 77.5 278.4 77.5 282.7 81.8 282.7 89.3L282.7 104.8 275 104.8 275 89.9C275 87.1 273.7 84.7 270.6 84.7 267 84.6 265.8 87.3 265.8 91.4zM306.5 94.4L315 94.4C313.7 100.9 308.8 105.4 301.6 105.4 293.5 105.4 287.5 99.5 287.5 91.4 287.5 83.4 293.5 77.4 301.6 77.4 308.6 77.4 313.5 81.8 314.5 88.1L306 88.1C305.4 86.1 303.7 84.7 301.3 84.7 298 84.7 295.4 87.5 295.4 91.4 295.4 95.3 298 98.1 301.4 98.1 304 98.1 305.9 96.7 306.5 94.4zM324.5 115.6C321 115.6 319.3 114.7 319.3 114.7L319.3 107.6C319.3 107.6 320.9 108.4 322.6 108.4 324.3 108.4 326.6 107.7 327.2 104.7L316.8 78 325.4 78 331.5 94.6 337.7 78 346 78 335 105.2C332.1 112.3 329.8 115.6 324.5 115.6z"/>
      <polygon points="365.4 104.8 365.4 66.6 373.5 66.6 373.5 104.8"/>
      <path d="M388.7 91.4L388.7 104.8 381 104.8 381 78.1 388.6 78.1 388.6 80C390.1 78.6 392.2 77.5 394.9 77.5 401.4 77.5 405.7 81.8 405.7 89.3L405.7 104.8 398 104.8 398 89.9C398 87.1 396.7 84.7 393.6 84.7 389.9 84.6 388.7 87.3 388.7 91.4zM411.7 70.5C411.7 68 413.7 66 416.2 66 418.7 66 420.7 68 420.7 70.5 420.7 73 418.7 75 416.2 75 413.7 75 411.7 72.9 411.7 70.5zM412.3 104.8L412.3 78.1 420 78.1 420 104.8 412.3 104.8zM437.9 104.9C432.1 104.9 428.7 101.5 428.7 95.6L428.7 85.2 424.2 85.2 424.2 78.1 428.7 78.1 428.7 74.2 436.4 67.7 436.4 78.2 443.1 78.2 443.1 85.3 436.4 85.3 436.4 94.6C436.4 97.2 438.1 97.8 439.7 97.8 441.5 97.8 443 97.1 443 97.1L443 104.1C443 104 440.9 104.9 437.9 104.9zM448.3 70.5C448.3 68 450.3 66 452.8 66 455.3 66 457.3 68 457.3 70.5 457.3 73 455.3 75 452.8 75 450.3 75 448.3 72.9 448.3 70.5zM448.9 104.8L448.9 78.1 456.6 78.1 456.6 104.8 448.9 104.8zM479.7 102C478 104.1 475.4 105.3 472.1 105.3 466.8 105.3 462.5 102 462.5 96.9 462.5 91.8 466.8 89.3 472.9 89 477.5 88.7 479 88.2 479 86.7 479 85.2 477.6 84.1 475.1 84.1 472 84.1 470.7 85.6 470.6 87.3L463.1 87.3C463.5 81.5 467.8 77.4 475.1 77.4 482.2 77.4 486.8 81.3 486.8 88.5L486.8 104.7 480.4 104.7 479.7 102zM470.3 96.6C470.3 98.1 471.7 99.1 473.8 99.1 476.7 99.1 479.1 97.5 479.1 94.1L479.1 93.1C479.1 93.1 477.7 93.8 474.7 93.9 471.5 94.1 470.3 95.1 470.3 96.6zM503.9 104.9C498.1 104.9 494.7 101.5 494.7 95.6L494.7 85.2 490.2 85.2 490.2 78.1 494.7 78.1 494.7 74.2 502.4 67.7 502.4 78.2 509.1 78.2 509.1 85.3 502.4 85.3 502.4 94.6C502.4 97.2 504.1 97.8 505.7 97.8 507.5 97.8 509 97.1 509 97.1L509 104.1C509 104 506.9 104.9 503.9 104.9zM514.3 70.5C514.3 68 516.3 66 518.8 66 521.3 66 523.3 68 523.3 70.5 523.3 73 521.3 75 518.8 75 516.3 75 514.3 72.9 514.3 70.5zM514.9 104.8L514.9 78.1 522.6 78.1 522.6 104.8 514.9 104.8z"/>
      <polygon points="553.6 78.1 544.1 104.8 536.1 104.8 526.6 78.1 534.8 78.1 540 94.6 545.2 78.1"/>
      <path d="M581.8,93.5 L562.9,93.5 C563.3,96.2 565.6,98.3 568.9,98.3 C571.1,98.3 572.4,97.4 573.3,96 L581.6,96 C579.8,101.8 575.7,105.4 569,105.4 C561.3,105.4 555,100 555,91.6 C555,83.5 560.7,77.4 568.5,77.4 C577.3,77.4 581.7,84.3 581.7,91.5 C581.8,92.2 581.8,93.5 581.8,93.5 Z M568.7,84.2 C565.8,84.2 563.8,86 563.3,88.3 L573.7,88.3 C573.5,86 571.5,84.2 568.7,84.2 Z"/>
    </g>
  </g>
</svg>
