<svg version="1.1" id="Layer_1" xmlns="http://www.w3.org/2000/svg" xmlns:xlink="http://www.w3.org/1999/xlink" x="0px" y="0px"
	 viewBox="0 0 557.1 584.2" style="enable-background:new 0 0 557.1 584.2;" xml:space="preserve">
<style type="text/css">
	.st0{opacity:0.4;fill:url(#SVGID_1_);}
	.st1{fill:url(#SVGID_2_);}
</style>
<g>
	<linearGradient id="SVGID_1_" gradientUnits="userSpaceOnUse" x1="74.9718" y1="409.0905" x2="515.0338" y2="155.0206">
		<stop  offset="0.6" style="stop-color:#FFFFFF"/>
		<stop  offset="1" style="stop-color:#FFFFFF;stop-opacity:0"/>
	</linearGradient>
	<path class="st0" d="M230.7,382.7c-11.2,0-22-1.5-32.3-4.2c-10.7-2.9-20.8-7.1-30.1-12.5c-9.5-5.5-18.2-12.1-25.9-19.8
		c-7.7-7.7-14.4-16.4-19.8-25.9c-5.4-9.3-9.6-19.4-12.5-30.1c-2.8-10.3-4.2-21.1-4.2-32.3c0-11.2,1.5-22,4.2-32.3
		c2.9-10.7,7.1-20.8,12.5-30.1l33.2,19.2c-3.7,6.5-6.7,13.5-8.7,20.9c-1.9,7.1-2.9,14.6-2.9,22.4c0,7.7,1,15.2,2.9,22.4
		c2,7.4,4.9,14.4,8.7,20.9c3.8,6.6,8.4,12.6,13.7,17.9c5.3,5.3,11.4,9.9,17.9,13.7c6.5,3.7,13.5,6.7,20.9,8.7
		c7.1,1.9,14.6,2.9,22.4,2.9s15.2-1,22.4-2.9c7.4-2,14.4-4.9,20.9-8.7c6.6-3.8,12.6-8.4,17.9-13.7l27.1,27.1
		c-7.7,7.7-16.4,14.4-25.9,19.8c-9.3,5.4-19.4,9.6-30.1,12.5C252.7,381.2,241.8,382.7,230.7,382.7z M341.1,449
		c16.8-9.7,32.2-21.5,45.8-35.1c13.6-13.6,25.4-29,35.1-45.8c9.6-16.5,17.1-34.4,22.1-53.2c4.9-18.2,7.5-37.4,7.5-57.2
		c0-19.8-2.6-38.9-7.5-57.2c-5-18.9-12.5-36.7-22.1-53.2c-9.7-16.8-21.5-32.2-35.1-45.8c-13.6-13.6-29-25.4-45.8-35.1
		c-16.5-9.6-34.4-17.1-53.2-22.1c-18.2-4.9-37.4-7.5-57.2-7.5v38.4c16.3,0,32.2,2.2,47.2,6.2c15.6,4.2,30.3,10.4,44,18.3
		c13.8,8,26.6,17.7,37.8,29c11.2,11.2,21,24,29,37.8c7.9,13.7,14.1,28.4,18.3,44c4,15.1,6.2,30.9,6.2,47.2s-2.2,32.2-6.2,47.2
		c-4.2,15.6-10.4,30.3-18.3,44c-8,13.8-17.7,26.6-29,37.8c-11.2,11.2-24,21-37.8,29c-13.6,7.9-28.4,14.1-44,18.3l9.9,37.1
		C306.7,466.1,324.5,458.6,341.1,449z M307.7,545.3c25.4-6.8,49.5-16.9,71.8-29.7c22.6-13.1,43.3-29,61.6-47.3
		c18.3-18.3,34.3-39,47.3-61.6c12.9-22.3,23-46.4,29.7-71.8c6.6-24.6,10.1-50.4,10.1-77c0-26.6-3.5-52.5-10.1-77
		c-6.8-25.4-16.9-49.5-29.7-71.8c-13.1-22.6-29-43.3-47.3-61.6C422.8,29,402.1,13.1,379.5,0l-19.2,33.3
		C379.9,44.7,398,58.5,414,74.5c16,16,29.8,34,41.2,53.7c11.2,19.4,20,40.4,25.9,62.5c5.7,21.4,8.8,43.9,8.8,67.1
		c0,23.2-3.1,45.7-8.8,67.1c-5.9,22.1-14.7,43.1-25.9,62.5c-11.4,19.7-25.2,37.7-41.2,53.7c-16,16-34,29.8-53.7,41.2
		c-19.4,11.2-40.4,20-62.5,25.9c-21.4,5.7-43.9,8.8-67.1,8.8s-45.7-3.1-67.1-8.8l-9.9,37.1c24.6,6.6,50.4,10.1,77,10.1
		C257.3,555.4,283.1,551.9,307.7,545.3z">
	</path>
	<linearGradient id="SVGID_2_" gradientUnits="userSpaceOnUse" x1="-6.5182" y1="477.4318" x2="549.1899" y2="156.5936">
		<stop  offset="0.6" style="stop-color:#FFFFFF"/>
		<stop  offset="1" style="stop-color:#FFFFFF;stop-opacity:0"/>
	</linearGradient>
	<path class="st1" d="M230.7,517c-23.1,0-45.6-3.1-66.9-8.8c-22.2-5.9-43.1-14.7-62.5-25.9l19.2-33.2c16.5,9.5,34.4,17,53.3,22.1
		c18.2,4.8,37.3,7.5,57,7.5c0.1,0,0.1,0,0.2,0c19.8,0,38.9-2.7,57.1-7.5c18.9-5.1,36.7-12.5,53.2-22.1c16.7-9.7,32.1-21.5,45.7-35.1
		c13.6-13.6,25.3-29,35-45.7c9.6-16.5,17-34.3,22.1-53.2c4.9-18.2,7.5-37.4,7.5-57.1c0,0,0-0.1,0-0.1c0-19.7-2.6-38.8-7.5-57
		c-5-18.9-12.5-36.7-22-53.2c-9.7-16.8-21.4-32.2-35-45.8c-13.6-13.6-29-25.4-45.7-35.1c-16.5-9.6-34.4-17.1-53.2-22.1l9.9-37.1
		c22.1,5.9,43.1,14.8,62.5,26c19.7,11.4,37.7,25.2,53.7,41.2c15.9,16,29.8,34,41.1,53.7c11.2,19.4,20,40.3,25.9,62.5
		c5.7,21.4,8.8,43.8,8.8,67c0,0,0,0.1,0,0.1c0,23.2-3.1,45.7-8.8,67c-5.9,22.1-14.7,43.1-25.9,62.4C443.8,407,429.9,425.1,414,441
		c-15.9,16-34,29.8-53.7,41.2c-19.4,11.2-40.3,20-62.4,26c-21.4,5.7-43.9,8.8-67.1,8.9C230.8,517,230.7,517,230.7,517z M230.8,584.2
		c29.2,0,57.5-3.9,84.5-11.1c27.9-7.5,54.3-18.5,78.7-32.6c24.7-14.3,47.4-31.8,67.5-51.9c20.1-20.1,37.6-42.8,51.9-67.5
		c14.1-24.4,25.2-50.8,32.6-78.7c7.2-26.9,11.1-55.2,11.1-84.4c0,0,0-0.1,0-0.1c0-29.2-3.8-57.4-11-84.3
		c-7.4-27.9-18.5-54.3-32.6-78.7c-14.3-24.8-31.8-47.5-51.9-67.6l-20.4,20.4c18.3,18.3,34.2,39,47.3,61.6
		c12.9,22.3,22.9,46.3,29.7,71.8c6.5,24.5,10.1,50.3,10.1,76.9c0,0,0,0.1,0,0.1c0,26.6-3.5,52.4-10.1,77
		c-6.8,25.4-16.9,49.5-29.7,71.7c-13.1,22.6-29,43.3-47.3,61.6c-18.3,18.3-39,34.3-61.6,47.3c-22.2,12.9-46.3,23-71.7,29.8
		c-24.6,6.6-50.4,10.1-77,10.1c-0.1,0-0.1,0-0.2,0c-26.6,0-52.3-3.5-76.8-10c-25.4-6.8-49.5-16.8-71.8-29.7
		c-22.6-13.1-43.3-29-61.7-47.3L0,488.7c20.1,20.1,42.8,37.6,67.6,51.9c24.4,14.1,50.9,25.1,78.7,32.6c26.9,7.2,55.1,11,84.3,11
		C230.7,584.2,230.8,584.2,230.8,584.2z M278,434c15.6-4.2,30.3-10.4,43.9-18.3c13.8-8,26.5-17.7,37.7-29
		c11.2-11.2,20.9-23.9,28.9-37.8c7.9-13.6,14.1-28.4,18.2-43.9c4-15.1,6.2-30.9,6.2-47.2c0,0,0-0.1,0-0.1c0-16.3-2.2-32.1-6.2-47.1
		c-4.2-15.6-10.3-30.3-18.2-44c-8-13.8-17.7-26.6-28.9-37.8c-11.2-11.2-23.9-21-37.8-29c-13.6-7.9-28.4-14.1-44-18.3
		c-15.1-4-30.9-6.2-47.2-6.3c-0.1,0-0.1,0-0.2,0c-16.3,0-32.1,2.2-47.1,6.2c-15.6,4.2-30.4,10.3-44,18.2l28.8,49.9
		c9.4-5.4,19.5-9.6,30.2-12.5c10.3-2.7,21.1-4.2,32.2-4.2c0.1,0,0.1,0,0.2,0c11.2,0,22,1.5,32.3,4.3c10.7,2.9,20.8,7.1,30.1,12.5
		c9.5,5.5,18.2,12.2,25.8,19.9c7.7,7.7,14.3,16.4,19.8,25.9c5.4,9.3,9.6,19.4,12.4,30.1c2.7,10.3,4.2,21.1,4.2,32.2c0,0,0,0.1,0,0.1
		c0,11.2-1.5,22-4.3,32.3c-2.9,10.7-7.1,20.7-12.5,30.1c-5.5,9.5-12.1,18.2-19.8,25.8c-7.7,7.7-16.4,14.3-25.8,19.8
		c-9.3,5.4-19.4,9.6-30.1,12.5c-10.3,2.8-21.1,4.3-32.3,4.3v57.6C247.2,440.2,263,438,278,434z M317.2,257.8
		c0-47.8-38.7-86.5-86.5-86.5s-86.5,38.7-86.5,86.5s38.7,86.5,86.5,86.5S317.2,305.6,317.2,257.8z"/>
</g>
</svg>
